G04 DipTrace 2.4.0.2*
%INBoard.gbr*%
%MOIN*%
%ADD11C,0.0055*%
%FSLAX44Y44*%
G04*
G70*
G90*
G75*
G01*
%LNBoardPoly*%
%LPD*%
G36*
X5118Y3937D2*
D11*
X14248D1*
Y4610D1*
X14961D1*
Y3937D1*
X17634D1*
Y4610D1*
X18346D1*
Y3937D1*
X22831D1*
Y4610D1*
X23543D1*
Y3937D1*
X26217D1*
Y4610D1*
X26929D1*
Y3937D1*
X28347D1*
G03X29528Y5118I0J1181D01*
G01*
Y25000D1*
G03X28347Y26181I-1181J0D01*
G01*
X5118D1*
G03X3937Y25000I0J-1181D01*
G01*
Y18504D1*
G03X4134Y18307I195J-1D01*
G01*
X5709D1*
G02X5906Y18110I0J-197D01*
G01*
Y11811D1*
G02X5709Y11614I-197J0D01*
G01*
X4134D1*
G03X3937Y11417I0J-197D01*
G01*
Y5118D1*
G03X5118Y3937I1181J0D01*
G01*
G37*
%LNBoardPolyC*%
%LPC*%
X21261Y11414D2*
D11*
G02X22048Y11414I394J0D01*
G01*
X21261D2*
Y5508D1*
X22048Y11414D2*
Y5508D1*
X21260D2*
G03X22047Y5508I394J0D01*
G01*
G36*
X17636Y4609D2*
X18344D1*
Y3939D1*
X17636D1*
Y4609D1*
G37*
G36*
X14250D2*
X14959D1*
Y3939D1*
X14250D1*
Y4609D1*
G37*
G36*
X26217D2*
X26926D1*
Y3939D1*
X26217D1*
Y4609D1*
G37*
G36*
X22831D2*
X23540D1*
Y3939D1*
X22831D1*
Y4609D1*
G37*
X13857Y21647D2*
D11*
Y22040D1*
G03X13070Y22040I-394J0D01*
G01*
X13857Y21647D2*
G02X13070Y21647I-394J0D01*
G01*
Y22040D1*
X9054Y21641D2*
Y22034D1*
G03X8267Y22034I-394J0D01*
G01*
X9054Y21641D2*
G02X8267Y21641I-394J0D01*
G01*
Y22034D1*
M02*
