G04 DipTrace 2.4.0.2*
%INBoard.gbr*%
%MOIN*%
%ADD11C,0.0055*%
%FSLAX44Y44*%
G04*
G70*
G90*
G75*
G01*
%LNBoardPoly*%
%LPD*%
G36*
X5118Y3937D2*
D11*
X14248D1*
Y4610D1*
X14961D1*
Y3937D1*
X17634D1*
Y4610D1*
X18346D1*
Y3937D1*
X22831D1*
Y4610D1*
X23543D1*
Y3937D1*
X26217D1*
Y4610D1*
X26929D1*
Y3937D1*
X28347D1*
G03X29528Y5118I0J1181D01*
G01*
Y25000D1*
G03X28347Y26181I-1181J0D01*
G01*
X5118D1*
G03X3937Y25000I0J-1181D01*
G01*
Y18504D1*
G03X4134Y18307I195J-1D01*
G01*
X5709D1*
G02X5906Y18110I0J-197D01*
G01*
Y11811D1*
G02X5709Y11614I-197J0D01*
G01*
X4134D1*
G03X3937Y11417I0J-197D01*
G01*
Y5118D1*
G03X5118Y3937I1181J0D01*
G01*
G37*
%LNBoardPolyC*%
%LPC*%
X21261Y11414D2*
D11*
G02X22048Y11414I394J0D01*
G01*
X21261D2*
Y5508D1*
X22048Y11414D2*
Y5508D1*
X21260D2*
G03X22047Y5508I394J0D01*
G01*
G36*
X17636Y4609D2*
X18344D1*
Y3939D1*
X17636D1*
Y4609D1*
G37*
G36*
X14250D2*
X14959D1*
Y3939D1*
X14250D1*
Y4609D1*
G37*
X16100Y7561D2*
D11*
G02X16494Y7561I197J-22D01*
G01*
Y7010D2*
G02X16100Y7029I-196J20D01*
G01*
Y7010D2*
Y7561D1*
X16494D2*
Y7010D1*
X15884Y5258D2*
G02X15884Y5769I-1J256D01*
G01*
X16711Y5258D2*
G03X16711Y5769I0J256D01*
G01*
X15884D1*
X15864Y5258D2*
X16711D1*
G36*
X26217Y4609D2*
X26926D1*
Y3939D1*
X26217D1*
Y4609D1*
G37*
G36*
X22831D2*
X23540D1*
Y3939D1*
X22831D1*
Y4609D1*
G37*
X24681Y7561D2*
D11*
G02X25075Y7561I197J-22D01*
G01*
Y7010D2*
G02X24681Y7029I-196J20D01*
G01*
Y7010D2*
Y7561D1*
X25075D2*
Y7010D1*
X24465Y5258D2*
G02X24465Y5769I-1J256D01*
G01*
X25292Y5258D2*
G03X25292Y5769I0J256D01*
G01*
X24465D1*
X24445Y5258D2*
X25292D1*
X7752Y8474D2*
G02X7752Y8868I21J197D01*
G01*
X8973Y8474D2*
G03X8973Y8868I-20J197D01*
G01*
X7752D1*
Y8474D2*
X8973D1*
X7870Y6112D2*
G02X7851Y6505I1J197D01*
G01*
X8855D2*
G02X8855Y6112I0J-197D01*
G01*
X7870D1*
Y6505D2*
X8855D1*
X10016Y6978D2*
G03X10410Y6978I197J19D01*
G01*
X10016D2*
Y8001D1*
G02X10410Y8001I197J-21D01*
G01*
Y6978D1*
X13857Y21647D2*
Y22040D1*
G03X13070Y22040I-394J0D01*
G01*
X13857Y21647D2*
G02X13070Y21647I-394J0D01*
G01*
Y22040D1*
X9054Y21641D2*
Y22034D1*
G03X8267Y22034I-394J0D01*
G01*
X9054Y21641D2*
G02X8267Y21641I-394J0D01*
G01*
Y22034D1*
M02*
