G04 DipTrace 2.4.0.2*
%INBottom.gbr*%
%MOIN*%
%ADD14C,0.013*%
%ADD15C,0.026*%
%ADD16C,0.0394*%
%ADD22C,0.0079*%
%ADD24C,0.0157*%
%ADD32O,0.0787X0.1614*%
%ADD33O,0.1181X0.0669*%
%ADD35R,0.0591X0.0591*%
%ADD36C,0.0591*%
%ADD37O,0.0866X0.1772*%
%ADD38O,0.0866X0.1969*%
%ADD39O,0.1772X0.0866*%
%ADD42C,0.063*%
%ADD43C,0.0787*%
%ADD51C,0.1614*%
%ADD52C,0.1772*%
%ADD53C,0.1969*%
%ADD54C,0.1181*%
%ADD55C,0.04*%
%FSLAX44Y44*%
G04*
G70*
G90*
G75*
G01*
%LNBottom*%
%LPD*%
X8937Y24625D2*
D16*
X26687D1*
X13438Y4937D2*
D14*
X18125D1*
X15232Y22898D2*
D15*
X16289D1*
X16937Y22250D1*
Y21000D1*
Y19591D1*
Y14021D1*
X16722Y13806D1*
X16778Y19466D2*
X16903Y19591D1*
X16937D1*
X17626Y21560D2*
X16937Y22250D1*
Y21000D2*
D14*
X17687Y20250D1*
X21812D1*
X23250Y18812D1*
X28312D1*
Y18688D1*
X10562Y13151D2*
Y19070D1*
Y21653D1*
X10439Y21776D1*
X13187Y17653D2*
Y19028D1*
X13065Y19150D1*
X11851Y20364D1*
X10562Y21653D1*
X19667Y22321D2*
X20116D1*
X21000Y21437D1*
Y20530D1*
X23000D1*
X23687Y21218D1*
Y21562D1*
X24812Y22687D1*
Y23062D1*
X25851D1*
Y22625D1*
X26312D1*
X12189Y19150D2*
X13065D1*
X11055D2*
X10642D1*
X10562Y19070D1*
X11622Y19150D2*
Y20136D1*
X11851Y20364D1*
X23717Y21323D2*
Y21218D1*
X23687D1*
X23000Y20530D2*
Y20480D1*
Y19937D1*
X27687D1*
X28000D1*
X29000Y18937D1*
Y17437D1*
X26968Y15406D1*
X25687Y16687D1*
Y18312D1*
X22750D1*
X20781D1*
X19625Y17155D1*
Y14625D1*
X15500Y10500D1*
X10875D1*
Y11875D1*
X10562Y12187D1*
Y13151D1*
X20787Y18299D2*
X20781Y18312D1*
X19465Y16945D2*
Y17375D1*
X23717Y22625D2*
X23750D1*
X22709Y20189D2*
X23000Y20480D1*
X22750Y15562D2*
Y18312D1*
X24687Y21750D2*
X25187Y21250D1*
Y20625D1*
X17812Y20808D2*
X18312Y21308D1*
Y22808D1*
X18625Y23121D1*
X19437D1*
X19717Y23400D1*
X21998Y21342D2*
Y21939D1*
X20687Y23250D1*
X21625Y8062D2*
Y6625D1*
X25000Y22187D2*
X24937D1*
X25625Y21500D1*
Y20875D1*
X25232Y22642D2*
X26562Y21312D1*
D55*
X8937Y24625D3*
X26687D3*
X13438Y4937D3*
X18125D3*
X15232Y22898D3*
X16778Y19466D3*
X17626Y21560D3*
X10562Y13151D3*
X10439Y21776D3*
X13187Y17653D3*
X26312Y22625D3*
X12189Y19150D3*
X11055D3*
X11622D3*
X10562Y13151D3*
X19465Y16945D3*
X23717Y22625D3*
X22750Y15562D3*
X27687Y19937D3*
X24687Y21750D3*
X25187Y20625D3*
X17812Y20808D3*
X19717Y23400D3*
X21998Y21342D3*
X20687Y23250D3*
X21625Y8062D3*
Y6625D3*
X25000Y22187D3*
X25625Y20875D3*
X25232Y22642D3*
X26562Y21312D3*
X12125Y6187D3*
X12625D3*
X23717Y21323D3*
X22709Y20189D3*
X20787Y18299D3*
X12375Y6000D3*
X12625Y5750D3*
X12125D3*
X12375Y5562D3*
X12625Y5312D3*
X12125D3*
X12375Y6375D3*
X12125Y6562D3*
X12625D3*
X12375Y6750D3*
X16126Y22299D3*
X26812Y23062D3*
X28375Y21250D3*
X28312Y17625D3*
X28250Y14437D3*
X28312Y11250D3*
X27437Y10062D3*
X22187D3*
X18812Y10000D3*
X15062D3*
X11562D3*
X10562Y12312D3*
X14250Y11750D3*
X14375Y14812D3*
Y18125D3*
Y22437D3*
X11625Y22500D3*
X8312D3*
X5187Y22437D3*
X4500Y20250D3*
Y17187D3*
Y12687D3*
X9500Y11687D3*
X6750D3*
X10500Y14687D3*
X10437Y16375D3*
X9687Y19500D3*
X8687Y14125D3*
X9500Y10500D3*
X7000D3*
X4562D3*
Y6875D3*
X6625Y4500D3*
X10437D3*
X14875D3*
X18625D3*
X23250D3*
X26750D3*
X28937Y6625D3*
X20375Y8812D3*
X16562D3*
X10625Y9062D3*
X15625Y14812D3*
Y11125D3*
X16250Y19750D3*
X18875Y22625D3*
X16724Y23433D3*
X26024Y21228D3*
X25827Y17638D3*
Y14425D3*
X22520Y18268D3*
X21165Y16913D3*
X19811Y15559D3*
X25197Y12122D3*
X4953Y22633D2*
D22*
X14640D1*
X4953Y22555D2*
X14640D1*
X4953Y22478D2*
X14640D1*
X4953Y22400D2*
X14640D1*
X4953Y22323D2*
X14640D1*
X4945Y22246D2*
X14640D1*
X4917Y22168D2*
X14640D1*
X4865Y22091D2*
X14640D1*
X4761Y22013D2*
X14640D1*
X4297Y21936D2*
X5290D1*
X5732D2*
X14640D1*
X4297Y21858D2*
X5070D1*
X5952D2*
X14640D1*
X4297Y21781D2*
X4940D1*
X6083D2*
X14640D1*
X4297Y21704D2*
X4844D1*
X6179D2*
X7039D1*
X7528D2*
X14640D1*
X4297Y21626D2*
X4768D1*
X6255D2*
X6873D1*
X7694D2*
X14640D1*
X4297Y21549D2*
X4706D1*
X6316D2*
X6769D1*
X7798D2*
X14640D1*
X4297Y21471D2*
X4657D1*
X6367D2*
X6693D1*
X7874D2*
X14640D1*
X4297Y21394D2*
X4616D1*
X6407D2*
X6635D1*
X7932D2*
X14640D1*
X4297Y21316D2*
X4584D1*
X6439D2*
X6592D1*
X7975D2*
X14640D1*
X4297Y21239D2*
X4558D1*
X6464D2*
X6559D1*
X8008D2*
X14640D1*
X4297Y21162D2*
X4541D1*
X6481D2*
X6536D1*
X8031D2*
X14640D1*
X4297Y21084D2*
X4530D1*
X8047D2*
X14640D1*
X4297Y21007D2*
X4524D1*
X8054D2*
X14640D1*
X4297Y20929D2*
X4525D1*
X8052D2*
X14640D1*
X4297Y20852D2*
X4533D1*
X8044D2*
X14640D1*
X4297Y20774D2*
X4546D1*
X6476D2*
X6540D1*
X8026D2*
X14640D1*
X4297Y20697D2*
X4566D1*
X6457D2*
X6566D1*
X8001D2*
X14640D1*
X4297Y20620D2*
X4593D1*
X6430D2*
X6602D1*
X7965D2*
X14640D1*
X4297Y20542D2*
X4627D1*
X6395D2*
X6650D1*
X7917D2*
X14640D1*
X4297Y20465D2*
X4670D1*
X6352D2*
X6711D1*
X7855D2*
X14640D1*
X4297Y20387D2*
X4723D1*
X6299D2*
X6793D1*
X7774D2*
X14640D1*
X4297Y20310D2*
X4789D1*
X6234D2*
X6908D1*
X7659D2*
X14640D1*
X4297Y20232D2*
X4871D1*
X6153D2*
X7116D1*
X7452D2*
X14640D1*
X4297Y20155D2*
X4976D1*
X6047D2*
X14640D1*
X4297Y20078D2*
X5122D1*
X5900D2*
X14640D1*
X4297Y20000D2*
X14640D1*
X4804Y19923D2*
X14640D1*
X4885Y19845D2*
X14640D1*
X4929Y19768D2*
X14640D1*
X4949Y19690D2*
X14640D1*
X4953Y19613D2*
X14640D1*
X4953Y19536D2*
X14640D1*
X4953Y19458D2*
X14640D1*
X4953Y19381D2*
X14640D1*
X4953Y19303D2*
X14640D1*
X4953Y19226D2*
X14640D1*
X4953Y19148D2*
X14640D1*
X4953Y19071D2*
X14640D1*
X4953Y18994D2*
X14640D1*
X4953Y18916D2*
X14640D1*
X4940Y18839D2*
X14640D1*
X4906Y18761D2*
X14640D1*
X4844Y18684D2*
X14640D1*
X4706Y18606D2*
X14640D1*
X4297Y18529D2*
X14640D1*
X4297Y18452D2*
X14640D1*
X4297Y18374D2*
X14640D1*
X4297Y18297D2*
X14640D1*
X4297Y18219D2*
X14640D1*
X4297Y18142D2*
X14640D1*
X4297Y18064D2*
X14640D1*
X4297Y17987D2*
X14640D1*
X4297Y17910D2*
X14640D1*
X4297Y17832D2*
X14640D1*
X4297Y17755D2*
X14640D1*
X4297Y17677D2*
X14640D1*
X4297Y17600D2*
X14640D1*
X4297Y17522D2*
X14640D1*
X4297Y17445D2*
X14640D1*
X4297Y17368D2*
X14640D1*
X4297Y17290D2*
X14640D1*
X4297Y17213D2*
X14640D1*
X4297Y17135D2*
X14640D1*
X4297Y17058D2*
X14640D1*
X4297Y16980D2*
X14640D1*
X4297Y16903D2*
X14640D1*
X4297Y16826D2*
X14640D1*
X4297Y16748D2*
X14640D1*
X4297Y16671D2*
X14640D1*
X4297Y16593D2*
X14640D1*
X4297Y16516D2*
X14640D1*
X4297Y16438D2*
X14640D1*
X4297Y16361D2*
X14640D1*
X4297Y16284D2*
X14640D1*
X4297Y16206D2*
X14640D1*
X4297Y16129D2*
X14640D1*
X4297Y16051D2*
X14640D1*
X4297Y15974D2*
X14640D1*
X4297Y15896D2*
X14640D1*
X4786Y15819D2*
X14640D1*
X4876Y15742D2*
X14640D1*
X4924Y15664D2*
X14640D1*
X4947Y15587D2*
X14640D1*
X4953Y15509D2*
X14640D1*
X4953Y15432D2*
X14640D1*
X4953Y15354D2*
X14640D1*
X4953Y15277D2*
X14640D1*
X4953Y15200D2*
X14640D1*
X4953Y15122D2*
X14640D1*
X4953Y15045D2*
X14640D1*
X4953Y14967D2*
X14640D1*
X4953Y14890D2*
X14640D1*
X4953Y14812D2*
X14640D1*
X4943Y14735D2*
X14640D1*
X4913Y14658D2*
X14640D1*
X4856Y14580D2*
X14640D1*
X4739Y14503D2*
X14640D1*
X4297Y14425D2*
X5252D1*
X5768D2*
X14640D1*
X4297Y14348D2*
X5052D1*
X5968D2*
X14640D1*
X4297Y14270D2*
X4926D1*
X6094D2*
X14640D1*
X4297Y14193D2*
X4833D1*
X6187D2*
X7009D1*
X7558D2*
X14640D1*
X4297Y14116D2*
X4758D1*
X6261D2*
X6857D1*
X7710D2*
X14640D1*
X4297Y14038D2*
X4699D1*
X6321D2*
X6757D1*
X7810D2*
X14640D1*
X4297Y13961D2*
X4649D1*
X6370D2*
X6684D1*
X7882D2*
X14640D1*
X4297Y13883D2*
X4610D1*
X6410D2*
X6629D1*
X7938D2*
X14640D1*
X4297Y13806D2*
X4579D1*
X6441D2*
X6587D1*
X7980D2*
X14640D1*
X4297Y13729D2*
X4555D1*
X6465D2*
X6555D1*
X8012D2*
X14640D1*
X4297Y13651D2*
X4538D1*
X6481D2*
X6533D1*
X8034D2*
X14640D1*
X4297Y13574D2*
X4528D1*
X8049D2*
X14640D1*
X4297Y13496D2*
X4523D1*
X8054D2*
X14640D1*
X4297Y13419D2*
X4524D1*
X8052D2*
X14640D1*
X4297Y13341D2*
X4533D1*
X8041D2*
X14640D1*
X4297Y13264D2*
X4546D1*
X6474D2*
X6543D1*
X8024D2*
X14640D1*
X4297Y13187D2*
X4567D1*
X6453D2*
X6571D1*
X7996D2*
X14640D1*
X4297Y13109D2*
X4595D1*
X6425D2*
X6608D1*
X7959D2*
X14640D1*
X4297Y13032D2*
X4630D1*
X6389D2*
X6657D1*
X7910D2*
X14640D1*
X4297Y12954D2*
X4674D1*
X6345D2*
X6721D1*
X7846D2*
X14640D1*
X4297Y12877D2*
X4729D1*
X6290D2*
X6806D1*
X7761D2*
X14640D1*
X4297Y12799D2*
X4796D1*
X6224D2*
X6928D1*
X7639D2*
X14640D1*
X4297Y12722D2*
X4880D1*
X6140D2*
X7177D1*
X7390D2*
X14640D1*
X4297Y12645D2*
X4988D1*
X6031D2*
X14640D1*
X4297Y12567D2*
X5143D1*
X5877D2*
X14640D1*
X4297Y12490D2*
X14640D1*
X4818Y12412D2*
X14640D1*
X4892Y12335D2*
X14640D1*
X4932Y12257D2*
X14640D1*
X4951Y12180D2*
X14640D1*
X4953Y12103D2*
X14640D1*
X4953Y12025D2*
X14640D1*
X4953Y11948D2*
X14640D1*
X4953Y11870D2*
X14640D1*
X4953Y11793D2*
X14640D1*
X4953Y11715D2*
X14640D1*
X4953Y11638D2*
X14640D1*
X4953Y11561D2*
X14640D1*
X4953Y11483D2*
X14640D1*
X5481Y21959D2*
X5550Y21958D1*
X5627Y21952D1*
X5713Y21938D1*
X5797Y21917D1*
X5878Y21888D1*
X5957Y21852D1*
X6032Y21809D1*
X6104Y21760D1*
X6170Y21705D1*
X6232Y21644D1*
X6287Y21577D1*
X6337Y21507D1*
X6380Y21432D1*
X6417Y21353D1*
X6446Y21272D1*
X6468Y21188D1*
X6483Y21103D1*
X6490Y21016D1*
X6489Y20925D1*
X6481Y20839D1*
X6464Y20754D1*
X6441Y20670D1*
X6410Y20589D1*
X6372Y20512D1*
X6327Y20437D1*
X6276Y20368D1*
X6219Y20302D1*
X6156Y20243D1*
X6089Y20189D1*
X6016Y20141D1*
X5940Y20099D1*
X5861Y20065D1*
X5779Y20038D1*
X5695Y20018D1*
X5609Y20005D1*
X5522Y20000D1*
X5436Y20003D1*
X5350Y20014D1*
X5265Y20032D1*
X5182Y20057D1*
X5102Y20090D1*
X5025Y20129D1*
X4952Y20176D1*
X4883Y20228D1*
X4819Y20287D1*
X4761Y20350D1*
X4708Y20419D1*
X4662Y20492D1*
X4622Y20569D1*
X4589Y20649D1*
X4564Y20732D1*
X4545Y20817D1*
X4535Y20903D1*
X4532Y20989D1*
X4536Y21076D1*
X4549Y21161D1*
X4569Y21246D1*
X4596Y21328D1*
X4630Y21407D1*
X4671Y21484D1*
X4719Y21556D1*
X4773Y21623D1*
X4833Y21686D1*
X4898Y21743D1*
X4967Y21795D1*
X5042Y21839D1*
X5119Y21877D1*
X5200Y21909D1*
X5283Y21932D1*
X5368Y21949D1*
X5454Y21958D1*
X5481Y21959D1*
X6522Y20941D2*
X6520Y21001D1*
X6530Y21100D1*
X6547Y21177D1*
X6571Y21252D1*
X6603Y21324D1*
X6643Y21392D1*
X6689Y21456D1*
X6741Y21515D1*
X6799Y21568D1*
X6863Y21615D1*
X6930Y21655D1*
X7002Y21687D1*
X7076Y21713D1*
X7153Y21730D1*
X7231Y21740D1*
X7310Y21741D1*
X7388Y21734D1*
X7466Y21719D1*
X7541Y21697D1*
X7614Y21666D1*
X7683Y21629D1*
X7748Y21584D1*
X7808Y21533D1*
X7862Y21476D1*
X7910Y21414D1*
X7952Y21347D1*
X7986Y21276D1*
X8013Y21202D1*
X8032Y21126D1*
X8043Y21048D1*
X8046Y20978D1*
X8042Y20900D1*
X8030Y20822D1*
X8010Y20746D1*
X7982Y20672D1*
X7947Y20602D1*
X7905Y20536D1*
X7856Y20474D1*
X7801Y20418D1*
X7740Y20367D1*
X7675Y20323D1*
X7605Y20287D1*
X7532Y20257D1*
X7457Y20235D1*
X7379Y20221D1*
X7301Y20216D1*
X7222Y20218D1*
X7144Y20228D1*
X7068Y20247D1*
X6993Y20273D1*
X6922Y20306D1*
X6855Y20347D1*
X6792Y20395D1*
X6735Y20448D1*
X6683Y20508D1*
X6638Y20572D1*
X6599Y20641D1*
X6568Y20713D1*
X6545Y20788D1*
X6529Y20865D1*
X6522Y20933D1*
X5458Y14456D2*
X5528Y14459D1*
X5626Y14451D1*
X5711Y14437D1*
X5795Y14415D1*
X5877Y14387D1*
X5956Y14351D1*
X6031Y14308D1*
X6102Y14259D1*
X6169Y14203D1*
X6230Y14142D1*
X6286Y14076D1*
X6336Y14005D1*
X6379Y13930D1*
X6415Y13852D1*
X6445Y13770D1*
X6467Y13686D1*
X6482Y13601D1*
X6489Y13515D1*
X6488Y13423D1*
X6479Y13337D1*
X6463Y13252D1*
X6439Y13169D1*
X6408Y13088D1*
X6370Y13010D1*
X6325Y12936D1*
X6274Y12866D1*
X6217Y12801D1*
X6155Y12741D1*
X6087Y12687D1*
X6015Y12639D1*
X5939Y12598D1*
X5859Y12563D1*
X5777Y12536D1*
X5693Y12516D1*
X5607Y12504D1*
X5521Y12499D1*
X5434Y12502D1*
X5348Y12512D1*
X5264Y12530D1*
X5181Y12556D1*
X5101Y12588D1*
X5024Y12628D1*
X4951Y12674D1*
X4882Y12727D1*
X4818Y12785D1*
X4759Y12849D1*
X4707Y12918D1*
X4660Y12991D1*
X4621Y13068D1*
X4588Y13148D1*
X4562Y13231D1*
X4544Y13315D1*
X4533Y13401D1*
X4530Y13488D1*
X4535Y13574D1*
X4547Y13660D1*
X4567Y13744D1*
X4594Y13826D1*
X4629Y13906D1*
X4670Y13982D1*
X4717Y14054D1*
X4771Y14122D1*
X4831Y14185D1*
X4896Y14242D1*
X4966Y14293D1*
X5040Y14338D1*
X5118Y14376D1*
X5199Y14407D1*
X5282Y14431D1*
X5367Y14447D1*
X5453Y14456D1*
X5465Y14457D1*
X6522Y13440D2*
X6520Y13500D1*
X6530Y13600D1*
X6547Y13677D1*
X6571Y13752D1*
X6603Y13824D1*
X6643Y13892D1*
X6689Y13956D1*
X6741Y14015D1*
X6799Y14068D1*
X6863Y14115D1*
X6930Y14155D1*
X7002Y14187D1*
X7076Y14213D1*
X7153Y14230D1*
X7231Y14240D1*
X7310Y14241D1*
X7388Y14234D1*
X7466Y14219D1*
X7541Y14197D1*
X7614Y14166D1*
X7683Y14129D1*
X7748Y14084D1*
X7808Y14033D1*
X7862Y13976D1*
X7910Y13914D1*
X7952Y13847D1*
X7986Y13776D1*
X8013Y13702D1*
X8032Y13626D1*
X8043Y13548D1*
X8046Y13478D1*
X8042Y13400D1*
X8030Y13322D1*
X8010Y13246D1*
X7982Y13172D1*
X7947Y13102D1*
X7905Y13036D1*
X7856Y12974D1*
X7801Y12918D1*
X7740Y12867D1*
X7675Y12823D1*
X7605Y12787D1*
X7532Y12757D1*
X7457Y12735D1*
X7379Y12721D1*
X7301Y12716D1*
X7222Y12718D1*
X7144Y12728D1*
X7068Y12747D1*
X6993Y12773D1*
X6922Y12806D1*
X6855Y12847D1*
X6792Y12895D1*
X6735Y12948D1*
X6683Y13008D1*
X6638Y13072D1*
X6599Y13141D1*
X6568Y13213D1*
X6545Y13288D1*
X6529Y13365D1*
X6522Y13428D1*
X4289Y19981D2*
X4606D1*
X4645Y19979D1*
X4684Y19972D1*
X4722Y19961D1*
X4758Y19945D1*
X4792Y19926D1*
X4823Y19902D1*
X4852Y19875D1*
X4877Y19845D1*
X4899Y19812D1*
X4917Y19777D1*
X4931Y19740D1*
X4940Y19702D1*
X4945Y19642D1*
Y18933D1*
X4943Y18894D1*
X4936Y18855D1*
X4925Y18817D1*
X4909Y18781D1*
X4890Y18747D1*
X4866Y18715D1*
X4839Y18687D1*
X4809Y18661D1*
X4776Y18640D1*
X4741Y18622D1*
X4704Y18608D1*
X4666Y18599D1*
X4606Y18594D1*
X4290D1*
X4289Y18104D1*
X4291Y15866D1*
X4606D1*
X4645Y15864D1*
X4684Y15857D1*
X4722Y15846D1*
X4758Y15830D1*
X4792Y15810D1*
X4823Y15787D1*
X4852Y15760D1*
X4877Y15730D1*
X4899Y15697D1*
X4917Y15662D1*
X4931Y15625D1*
X4940Y15587D1*
X4945Y15527D1*
Y14818D1*
X4943Y14779D1*
X4936Y14740D1*
X4925Y14702D1*
X4909Y14666D1*
X4890Y14632D1*
X4866Y14600D1*
X4839Y14572D1*
X4809Y14546D1*
X4776Y14524D1*
X4741Y14507D1*
X4704Y14493D1*
X4666Y14484D1*
X4606Y14478D1*
X4290D1*
X4289Y13773D1*
X4291Y12480D1*
X4606D1*
X4645Y12478D1*
X4684Y12471D1*
X4722Y12460D1*
X4758Y12444D1*
X4792Y12425D1*
X4823Y12401D1*
X4852Y12374D1*
X4877Y12344D1*
X4899Y12311D1*
X4917Y12276D1*
X4931Y12239D1*
X4940Y12201D1*
X4945Y12141D1*
Y11475D1*
X5116Y11476D1*
X14648D1*
Y22710D1*
X4944D1*
X4945Y22358D1*
X4943Y22280D1*
X4936Y22241D1*
X4925Y22203D1*
X4909Y22167D1*
X4890Y22133D1*
X4866Y22101D1*
X4839Y22073D1*
X4809Y22047D1*
X4776Y22025D1*
X4741Y22008D1*
X4704Y21994D1*
X4666Y21985D1*
X4606Y21979D1*
X4290D1*
X4289Y21490D1*
Y19980D1*
X5511Y21960D2*
D14*
Y20980D1*
Y14459D2*
Y13479D1*
Y21959D2*
Y20000D1*
X4532Y20980D2*
X6491D1*
X5510Y13478D2*
Y12499D1*
X4530Y13478D2*
X6489D1*
X15659Y24078D2*
D24*
X15805D1*
X16658D2*
X16806D1*
X17660D2*
X17805D1*
X18659D2*
X18807D1*
X19658D2*
X19806D1*
X20659D2*
X20805D1*
X21658D2*
X21806D1*
X22660D2*
X22805D1*
X23659D2*
X23807D1*
X24658D2*
X24806D1*
X25659D2*
X25805D1*
X26658D2*
X26947D1*
X15615Y23922D2*
X15849D1*
X16616D2*
X16848D1*
X17615D2*
X17850D1*
X18617D2*
X18849D1*
X19616D2*
X19848D1*
X20615D2*
X20849D1*
X21616D2*
X21848D1*
X22615D2*
X22850D1*
X23617D2*
X23849D1*
X24616D2*
X24848D1*
X25615D2*
X25849D1*
X26616D2*
X27028D1*
X15480Y23766D2*
X15984D1*
X16479D2*
X16986D1*
X17480D2*
X17985D1*
X18479D2*
X18986D1*
X20480D2*
X20984D1*
X21479D2*
X21986D1*
X22480D2*
X22985D1*
X23479D2*
X23986D1*
X24478D2*
X24985D1*
X25480D2*
X25984D1*
X26479D2*
X27141D1*
X15406Y23609D2*
X19343D1*
X20091D2*
X20465D1*
X20910D2*
X27298D1*
X29001D2*
X29156D1*
X15406Y23453D2*
X19289D1*
X20142D2*
X20310D1*
X21065D2*
X27532D1*
X28767D2*
X29156D1*
X15406Y23297D2*
X18389D1*
X20135D2*
X20259D1*
X21114D2*
X29156D1*
X16550Y23141D2*
X18234D1*
X20056D2*
X20271D1*
X21208D2*
X29156D1*
X16705Y22985D2*
X18078D1*
X19712D2*
X20352D1*
X21363D2*
X24983D1*
X25482D2*
X29156D1*
X16862Y22829D2*
X18017D1*
X18745D2*
X19602D1*
X19734D2*
X20697D1*
X21520D2*
X24845D1*
X25617D2*
X29156D1*
X17017Y22672D2*
X18017D1*
X18607D2*
X19282D1*
X20054D2*
X20852D1*
X21675D2*
X24803D1*
X25662D2*
X29156D1*
X15411Y22516D2*
X16167D1*
X17172D2*
X18017D1*
X18607D2*
X19181D1*
X20155D2*
X21009D1*
X21833D2*
X24732D1*
X25770D2*
X29156D1*
X15406Y22360D2*
X16324D1*
X17330D2*
X18017D1*
X18607D2*
X19144D1*
X20192D2*
X21164D1*
X21988D2*
X24607D1*
X25925D2*
X29156D1*
X15406Y22204D2*
X16479D1*
X17485D2*
X18017D1*
X18607D2*
X19156D1*
X20179D2*
X21322D1*
X22143D2*
X24570D1*
X26082D2*
X29156D1*
X15406Y22048D2*
X16578D1*
X17642D2*
X18017D1*
X18607D2*
X19220D1*
X20113D2*
X21477D1*
X22271D2*
X24383D1*
X26237D2*
X29156D1*
X15406Y21892D2*
X16578D1*
X17891D2*
X18017D1*
X18607D2*
X19375D1*
X19958D2*
X21634D1*
X22293D2*
X24282D1*
X26395D2*
X29156D1*
X15406Y21735D2*
X16578D1*
X18607D2*
X19141D1*
X20194D2*
X21703D1*
X22293D2*
X24257D1*
X26550D2*
X29156D1*
X15406Y21579D2*
X16578D1*
X18607D2*
X19141D1*
X20194D2*
X21641D1*
X22355D2*
X24294D1*
X26894D2*
X29156D1*
X15406Y21423D2*
X16578D1*
X18607D2*
X19141D1*
X20194D2*
X21575D1*
X22421D2*
X24415D1*
X25920D2*
X26037D1*
X27731D2*
X29156D1*
X15406Y21267D2*
X16578D1*
X18605D2*
X19141D1*
X20194D2*
X21575D1*
X22421D2*
X24759D1*
X25920D2*
X26135D1*
X27866D2*
X29156D1*
X15406Y21111D2*
X16578D1*
X18526D2*
X19141D1*
X20194D2*
X21637D1*
X22357D2*
X24892D1*
X25982D2*
X26184D1*
X27935D2*
X29156D1*
X15406Y20955D2*
X16578D1*
X18371D2*
X19141D1*
X20194D2*
X21833D1*
X22163D2*
X24892D1*
X26048D2*
X26336D1*
X27955D2*
X28113D1*
X28511D2*
X29156D1*
X15406Y20798D2*
X16578D1*
X18243D2*
X24794D1*
X26048D2*
X26728D1*
X28733D2*
X29156D1*
X15406Y20642D2*
X16578D1*
X18208D2*
X24757D1*
X25984D2*
X26792D1*
X28824D2*
X29156D1*
X15406Y20486D2*
X16578D1*
X21978D2*
X24781D1*
X25785D2*
X26922D1*
X28856D2*
X29156D1*
X15406Y20330D2*
X16578D1*
X22143D2*
X24880D1*
X25494D2*
X27781D1*
X28841D2*
X29156D1*
X15406Y20174D2*
X16578D1*
X22300D2*
X27850D1*
X28774D2*
X29156D1*
X15406Y20018D2*
X16578D1*
X17298D2*
X17515D1*
X22455D2*
X28000D1*
X28622D2*
X29156D1*
X15406Y19861D2*
X16578D1*
X17298D2*
X21789D1*
X22610D2*
X29156D1*
X15406Y19705D2*
X16422D1*
X17298D2*
X21944D1*
X22768D2*
X29156D1*
X15406Y19549D2*
X16356D1*
X17298D2*
X22102D1*
X22923D2*
X29156D1*
X15406Y19393D2*
X16354D1*
X17298D2*
X22257D1*
X23080D2*
X29156D1*
X15406Y19237D2*
X16415D1*
X17298D2*
X22414D1*
X23235D2*
X29156D1*
X15406Y19081D2*
X16578D1*
X17298D2*
X22569D1*
X28683D2*
X29156D1*
X15406Y18924D2*
X16578D1*
X17298D2*
X22727D1*
X28801D2*
X29156D1*
X15406Y18768D2*
X16578D1*
X17298D2*
X22882D1*
X28851D2*
X29156D1*
X15406Y18612D2*
X16578D1*
X17298D2*
X23039D1*
X28853D2*
X29156D1*
X15406Y18456D2*
X16578D1*
X17298D2*
X26765D1*
X28804D2*
X29156D1*
X15406Y18300D2*
X16578D1*
X17298D2*
X26713D1*
X28688D2*
X29156D1*
X15406Y18144D2*
X16578D1*
X17298D2*
X26705D1*
X27950D2*
X29156D1*
X15406Y17987D2*
X16578D1*
X17298D2*
X26737D1*
X27918D2*
X29156D1*
X15406Y17831D2*
X16578D1*
X17298D2*
X26821D1*
X27834D2*
X29156D1*
X15406Y17675D2*
X16578D1*
X17298D2*
X26988D1*
X27667D2*
X29156D1*
X15406Y17519D2*
X16578D1*
X17298D2*
X26103D1*
X27453D2*
X29156D1*
X15406Y17363D2*
X16578D1*
X17298D2*
X25948D1*
X27610D2*
X29156D1*
X15406Y17207D2*
X16578D1*
X17298D2*
X25857D1*
X27699D2*
X29156D1*
X15406Y17050D2*
X16578D1*
X17298D2*
X25810D1*
X27748D2*
X29156D1*
X15406Y16894D2*
X16578D1*
X17298D2*
X25793D1*
X27763D2*
X29156D1*
X15406Y16738D2*
X16578D1*
X17298D2*
X25812D1*
X27746D2*
X29156D1*
X15406Y16582D2*
X16578D1*
X17298D2*
X25864D1*
X27694D2*
X29156D1*
X15406Y16426D2*
X16578D1*
X17298D2*
X25957D1*
X27601D2*
X29156D1*
X15406Y16270D2*
X16578D1*
X17298D2*
X26122D1*
X27436D2*
X29156D1*
X15406Y16113D2*
X16578D1*
X17298D2*
X29156D1*
X15406Y15957D2*
X16578D1*
X17298D2*
X29156D1*
X15406Y15801D2*
X16578D1*
X17298D2*
X29156D1*
X15406Y15645D2*
X16578D1*
X17298D2*
X29156D1*
X15406Y15489D2*
X16578D1*
X17298D2*
X29156D1*
X15406Y15333D2*
X16578D1*
X17298D2*
X29156D1*
X15406Y15176D2*
X16578D1*
X17298D2*
X29156D1*
X15406Y15020D2*
X16578D1*
X17298D2*
X29156D1*
X15406Y14864D2*
X16578D1*
X17298D2*
X29156D1*
X15406Y14708D2*
X16578D1*
X17298D2*
X29156D1*
X15406Y14552D2*
X16578D1*
X17298D2*
X29156D1*
X15406Y14395D2*
X16578D1*
X17298D2*
X29156D1*
X15406Y14239D2*
X16437D1*
X18248D2*
X29156D1*
X15406Y14083D2*
X16277D1*
X18248D2*
X29156D1*
X15406Y13927D2*
X16211D1*
X18248D2*
X29156D1*
X15406Y13771D2*
X16199D1*
X18248D2*
X29156D1*
X15406Y13615D2*
X16233D1*
X18248D2*
X29156D1*
X15406Y13458D2*
X16334D1*
X17111D2*
X17196D1*
X18248D2*
X29156D1*
X15406Y13302D2*
X16627D1*
X16818D2*
X17198D1*
X18248D2*
X29156D1*
X15406Y13146D2*
X29156D1*
X15406Y12990D2*
X29156D1*
X15406Y12834D2*
X26339D1*
X27229D2*
X29156D1*
X15406Y12678D2*
X26063D1*
X27507D2*
X29156D1*
X15406Y12521D2*
X25928D1*
X27642D2*
X29156D1*
X15406Y12365D2*
X25849D1*
X27721D2*
X29156D1*
X15406Y12209D2*
X25807D1*
X27761D2*
X29156D1*
X15406Y12053D2*
X25802D1*
X27768D2*
X29156D1*
X15406Y11897D2*
X25827D1*
X27743D2*
X29156D1*
X15406Y11741D2*
X25889D1*
X27682D2*
X29156D1*
X15406Y11584D2*
X25997D1*
X27574D2*
X29156D1*
X15406Y11428D2*
X26189D1*
X27382D2*
X29156D1*
X15406Y11272D2*
X29156D1*
X15406Y11116D2*
X29156D1*
X15406Y10960D2*
X29156D1*
X15406Y10804D2*
X29156D1*
X4344Y10647D2*
X29156D1*
X4344Y10491D2*
X29156D1*
X4344Y10335D2*
X29156D1*
X4344Y10179D2*
X29156D1*
X4344Y10023D2*
X29156D1*
X4344Y9867D2*
X29156D1*
X4344Y9710D2*
X29156D1*
X4344Y9554D2*
X8450D1*
X8905D2*
X29156D1*
X4344Y9398D2*
X5886D1*
X6734D2*
X8037D1*
X9316D2*
X29156D1*
X4344Y9242D2*
X5615D1*
X7005D2*
X7835D1*
X9520D2*
X29156D1*
X4344Y9086D2*
X5453D1*
X7168D2*
X7697D1*
X9658D2*
X29156D1*
X4344Y8930D2*
X5345D1*
X7278D2*
X7599D1*
X9756D2*
X29156D1*
X4344Y8773D2*
X5268D1*
X7352D2*
X7530D1*
X9823D2*
X29156D1*
X4344Y8617D2*
X5222D1*
X7401D2*
X7488D1*
X9867D2*
X29156D1*
X4344Y8461D2*
X5197D1*
X9889D2*
X21496D1*
X21754D2*
X29156D1*
X4344Y8305D2*
X5197D1*
X9889D2*
X21272D1*
X21976D2*
X29156D1*
X4344Y8149D2*
X5219D1*
X7404D2*
X7483D1*
X9872D2*
X21203D1*
X22047D2*
X29156D1*
X4344Y7993D2*
X5264D1*
X7359D2*
X7525D1*
X9830D2*
X21199D1*
X22049D2*
X29156D1*
X4344Y7836D2*
X5335D1*
X7286D2*
X7589D1*
X9764D2*
X21260D1*
X21988D2*
X29156D1*
X4344Y7680D2*
X5443D1*
X7180D2*
X7682D1*
X9670D2*
X21329D1*
X21919D2*
X29156D1*
X4344Y7524D2*
X5598D1*
X9540D2*
X21329D1*
X21919D2*
X29156D1*
X4344Y7368D2*
X5854D1*
X9345D2*
X21329D1*
X21919D2*
X29156D1*
X4344Y7212D2*
X6617D1*
X8988D2*
X21329D1*
X21919D2*
X29156D1*
X4344Y7056D2*
X6514D1*
X8472D2*
X21329D1*
X21919D2*
X29156D1*
X4344Y6899D2*
X6442D1*
X8543D2*
X21297D1*
X21951D2*
X29156D1*
X4344Y6743D2*
X6398D1*
X8587D2*
X21211D1*
X22037D2*
X29156D1*
X4344Y6587D2*
X5037D1*
X5593D2*
X6378D1*
X8607D2*
X21196D1*
X22054D2*
X27864D1*
X28435D2*
X29156D1*
X4344Y6431D2*
X4634D1*
X5996D2*
X6381D1*
X8605D2*
X21243D1*
X22008D2*
X27466D1*
X28833D2*
X29156D1*
X4344Y6275D2*
X4424D1*
X6205D2*
X6405D1*
X8580D2*
X21386D1*
X21862D2*
X27257D1*
X29043D2*
X29156D1*
X6353Y6119D2*
X6452D1*
X8531D2*
X27111D1*
X8454Y5962D2*
X27006D1*
X6535Y5806D2*
X6641D1*
X8344D2*
X26929D1*
X6587Y5650D2*
X6806D1*
X8176D2*
X26878D1*
X6619Y5494D2*
X7087D1*
X7896D2*
X26846D1*
X6631Y5338D2*
X13315D1*
X13560D2*
X18002D1*
X18248D2*
X26833D1*
X6624Y5182D2*
X13088D1*
X18474D2*
X26841D1*
X6599Y5025D2*
X13017D1*
X18546D2*
X26865D1*
X6552Y4869D2*
X13012D1*
X18550D2*
X26912D1*
X6484Y4713D2*
X13074D1*
X18489D2*
X26981D1*
X6388Y4557D2*
X13256D1*
X13619D2*
X17943D1*
X18307D2*
X27077D1*
X6257Y4401D2*
X27210D1*
X6613Y5235D2*
X6594Y5079D1*
X6556Y4926D1*
X6500Y4779D1*
X6427Y4639D1*
X6338Y4510D1*
X6233Y4392D1*
X6162Y4327D1*
X15784Y4328D1*
X27303D1*
X27225Y4400D1*
X27122Y4518D1*
X27033Y4648D1*
X26961Y4788D1*
X26906Y4936D1*
X26869Y5089D1*
X26851Y5245D1*
X26852Y5402D1*
X26872Y5559D1*
X26911Y5711D1*
X26968Y5858D1*
X27042Y5997D1*
X27132Y6125D1*
X27238Y6242D1*
X27356Y6346D1*
X27487Y6434D1*
X27627Y6506D1*
X27774Y6560D1*
X27928Y6596D1*
X28084Y6614D1*
X28241Y6612D1*
X28397Y6592D1*
X28550Y6552D1*
X28696Y6495D1*
X28835Y6420D1*
X28963Y6329D1*
X29080Y6224D1*
X29172Y6118D1*
X29171Y7156D1*
Y23802D1*
X29068Y23685D1*
X28950Y23581D1*
X28820Y23492D1*
X28680Y23419D1*
X28533Y23364D1*
X28380Y23326D1*
X28224Y23308D1*
X28067D1*
X27910Y23328D1*
X27758Y23366D1*
X27611Y23423D1*
X27472Y23496D1*
X27343Y23586D1*
X27225Y23691D1*
X27122Y23810D1*
X27033Y23940D1*
X26961Y24079D1*
X26906Y24227D1*
X26895Y24267D1*
X26861Y24248D1*
X26787Y24222D1*
X26709Y24210D1*
X26643Y24213D1*
X26639Y24174D1*
X26644Y24106D1*
X26637Y24028D1*
X26614Y23953D1*
X26578Y23883D1*
X26529Y23821D1*
X26470Y23770D1*
X26402Y23731D1*
X26327Y23706D1*
X26249Y23695D1*
X26171Y23699D1*
X26094Y23718D1*
X26023Y23751D1*
X25960Y23798D1*
X25906Y23855D1*
X25864Y23922D1*
X25836Y23995D1*
X25822Y24072D1*
X25823Y24151D1*
X25835Y24211D1*
X25631Y24213D1*
X25644Y24106D1*
X25637Y24028D1*
X25614Y23953D1*
X25578Y23883D1*
X25529Y23821D1*
X25470Y23770D1*
X25402Y23731D1*
X25327Y23706D1*
X25249Y23695D1*
X25171Y23699D1*
X25094Y23718D1*
X25023Y23751D1*
X24960Y23798D1*
X24906Y23855D1*
X24864Y23922D1*
X24836Y23995D1*
X24822Y24072D1*
X24823Y24151D1*
X24835Y24211D1*
X24632Y24213D1*
X24644Y24106D1*
X24637Y24028D1*
X24614Y23953D1*
X24578Y23883D1*
X24529Y23821D1*
X24470Y23770D1*
X24402Y23731D1*
X24327Y23706D1*
X24249Y23695D1*
X24171Y23699D1*
X24094Y23718D1*
X24023Y23751D1*
X23960Y23798D1*
X23906Y23855D1*
X23864Y23922D1*
X23836Y23995D1*
X23822Y24072D1*
X23823Y24151D1*
X23835Y24211D1*
X23628Y24213D1*
X23639Y24174D1*
X23644Y24106D1*
X23637Y24028D1*
X23614Y23953D1*
X23578Y23883D1*
X23529Y23821D1*
X23470Y23770D1*
X23402Y23731D1*
X23327Y23706D1*
X23249Y23695D1*
X23171Y23699D1*
X23094Y23718D1*
X23023Y23751D1*
X22960Y23798D1*
X22906Y23855D1*
X22864Y23922D1*
X22836Y23995D1*
X22822Y24072D1*
X22823Y24151D1*
X22835Y24211D1*
X22629Y24213D1*
X22644Y24106D1*
X22637Y24028D1*
X22614Y23953D1*
X22578Y23883D1*
X22529Y23821D1*
X22470Y23770D1*
X22402Y23731D1*
X22327Y23706D1*
X22249Y23695D1*
X22171Y23699D1*
X22094Y23718D1*
X22023Y23751D1*
X21960Y23798D1*
X21906Y23855D1*
X21864Y23922D1*
X21836Y23995D1*
X21822Y24072D1*
X21823Y24151D1*
X21835Y24211D1*
X21630Y24213D1*
X21644Y24106D1*
X21637Y24028D1*
X21614Y23953D1*
X21578Y23883D1*
X21529Y23821D1*
X21470Y23770D1*
X21402Y23731D1*
X21327Y23706D1*
X21249Y23695D1*
X21171Y23699D1*
X21094Y23718D1*
X21023Y23751D1*
X20960Y23798D1*
X20906Y23855D1*
X20864Y23922D1*
X20836Y23995D1*
X20822Y24072D1*
X20823Y24151D1*
X20835Y24211D1*
X20631Y24213D1*
X20644Y24106D1*
X20637Y24028D1*
X20614Y23953D1*
X20578Y23883D1*
X20529Y23821D1*
X20470Y23770D1*
X20402Y23731D1*
X20327Y23706D1*
X20249Y23695D1*
X20171Y23699D1*
X20094Y23718D1*
X20023Y23751D1*
X19960Y23798D1*
X19906Y23855D1*
X19864Y23922D1*
X19836Y23995D1*
X19822Y24072D1*
X19823Y24151D1*
X19835Y24211D1*
X19632Y24213D1*
X19644Y24106D1*
X19637Y24028D1*
X19614Y23953D1*
X19578Y23883D1*
X19529Y23821D1*
X19470Y23770D1*
X19402Y23731D1*
X19327Y23706D1*
X19249Y23695D1*
X19171Y23699D1*
X19094Y23718D1*
X19023Y23751D1*
X18960Y23798D1*
X18906Y23855D1*
X18864Y23922D1*
X18836Y23995D1*
X18822Y24072D1*
X18823Y24151D1*
X18835Y24211D1*
X18628Y24213D1*
X18639Y24174D1*
X18644Y24106D1*
X18637Y24028D1*
X18614Y23953D1*
X18578Y23883D1*
X18529Y23821D1*
X18470Y23770D1*
X18402Y23731D1*
X18327Y23706D1*
X18249Y23695D1*
X18171Y23699D1*
X18094Y23718D1*
X18023Y23751D1*
X17960Y23798D1*
X17906Y23855D1*
X17864Y23922D1*
X17836Y23995D1*
X17822Y24072D1*
X17823Y24151D1*
X17835Y24211D1*
X17629Y24213D1*
X17644Y24106D1*
X17637Y24028D1*
X17614Y23953D1*
X17578Y23883D1*
X17529Y23821D1*
X17470Y23770D1*
X17402Y23731D1*
X17327Y23706D1*
X17249Y23695D1*
X17171Y23699D1*
X17094Y23718D1*
X17023Y23751D1*
X16960Y23798D1*
X16906Y23855D1*
X16864Y23922D1*
X16836Y23995D1*
X16822Y24072D1*
X16823Y24151D1*
X16835Y24211D1*
X16630Y24213D1*
X16644Y24106D1*
X16637Y24028D1*
X16614Y23953D1*
X16578Y23883D1*
X16529Y23821D1*
X16470Y23770D1*
X16402Y23731D1*
X16327Y23706D1*
X16249Y23695D1*
X16171Y23699D1*
X16094Y23718D1*
X16023Y23751D1*
X15960Y23798D1*
X15906Y23855D1*
X15864Y23922D1*
X15836Y23995D1*
X15822Y24072D1*
X15823Y24151D1*
X15835Y24211D1*
X15631Y24213D1*
X15644Y24106D1*
X15637Y24028D1*
X15614Y23953D1*
X15578Y23883D1*
X15529Y23821D1*
X15470Y23770D1*
X15390Y23727D1*
X15391Y23280D1*
X15460Y23244D1*
X16289Y23243D1*
X16367Y23234D1*
X16441Y23207D1*
X16509Y23163D1*
X16644Y23030D1*
X17708Y21966D1*
X17792Y21940D1*
X17861Y21902D1*
X17921Y21852D1*
X17971Y21791D1*
X18009Y21722D1*
X18031Y21649D1*
X18032Y22808D1*
X18043Y22886D1*
X18077Y22959D1*
X18105Y22996D1*
X18427Y23319D1*
X18489Y23366D1*
X18565Y23394D1*
X18611Y23400D1*
X19301D1*
X19317Y23512D1*
X19345Y23586D1*
X19387Y23652D1*
X19441Y23710D1*
X19504Y23756D1*
X19575Y23790D1*
X19651Y23810D1*
X19730Y23815D1*
X19808Y23805D1*
X19882Y23780D1*
X19951Y23742D1*
X20011Y23692D1*
X20061Y23631D1*
X20099Y23562D1*
X20122Y23487D1*
X20131Y23400D1*
X20124Y23322D1*
X20102Y23246D1*
X20066Y23176D1*
X20018Y23115D1*
X19958Y23063D1*
X19890Y23023D1*
X19816Y22997D1*
X19738Y22986D1*
X19702Y22987D1*
X19635Y22923D1*
X19572Y22875D1*
X19496Y22847D1*
X19450Y22841D1*
X18741D1*
X18591Y22691D1*
X18592Y21308D1*
X18581Y21230D1*
X18547Y21157D1*
X18519Y21120D1*
X18226Y20827D1*
X18220Y20730D1*
X18197Y20654D1*
X18162Y20584D1*
X18118Y20528D1*
X20600Y20529D1*
X21812D1*
X21890Y20518D1*
X21963Y20485D1*
X22000Y20457D1*
X23365Y19092D1*
X27970Y19093D1*
X28034Y19139D1*
X28104Y19175D1*
X28178Y19201D1*
X28256Y19215D1*
X28334Y19217D1*
X28413Y19208D1*
X28488Y19187D1*
X28560Y19156D1*
X28627Y19114D1*
X28687Y19063D1*
X28738Y19003D1*
X28780Y18936D1*
X28812Y18864D1*
X28832Y18788D1*
X28842Y18688D1*
X28836Y18609D1*
X28819Y18533D1*
X28790Y18459D1*
X28751Y18391D1*
X28702Y18329D1*
X28645Y18275D1*
X28580Y18231D1*
X28509Y18196D1*
X28435Y18172D1*
X28357Y18160D1*
X28278Y18159D1*
X28200Y18170D1*
X28125Y18192D1*
X28053Y18225D1*
X27988Y18269D1*
X27918Y18334D1*
X27935Y18235D1*
X27931Y18111D1*
X27916Y18034D1*
X27891Y17960D1*
X27857Y17889D1*
X27813Y17823D1*
X27762Y17764D1*
X27703Y17711D1*
X27638Y17667D1*
X27568Y17631D1*
X27494Y17605D1*
X27417Y17588D1*
X27341Y17582D1*
X27455Y17506D1*
X27523Y17445D1*
X27589Y17369D1*
X27645Y17285D1*
X27690Y17194D1*
X27722Y17098D1*
X27741Y16999D1*
X27748Y16898D1*
X27741Y16797D1*
X27721Y16698D1*
X27688Y16603D1*
X27643Y16512D1*
X27586Y16428D1*
X27519Y16353D1*
X27443Y16286D1*
X27359Y16230D1*
X27268Y16186D1*
X27172Y16154D1*
X27073Y16135D1*
X26975Y16128D1*
X26523Y16131D1*
X26457Y16139D1*
X26358Y16162D1*
X26264Y16197D1*
X26175Y16245D1*
X26092Y16304D1*
X26019Y16373D1*
X25954Y16451D1*
X25901Y16536D1*
X25859Y16628D1*
X25830Y16725D1*
X25813Y16825D1*
X25810Y16926D1*
X25820Y17026D1*
X25843Y17125D1*
X25878Y17219D1*
X25926Y17308D1*
X25985Y17390D1*
X26054Y17464D1*
X26132Y17528D1*
X26217Y17582D1*
X26309Y17623D1*
X26406Y17653D1*
X26506Y17669D1*
X26582Y17673D1*
X27009Y17672D1*
X26909Y17748D1*
X26856Y17806D1*
X26810Y17870D1*
X26773Y17939D1*
X26745Y18013D1*
X26727Y18089D1*
X26719Y18168D1*
X26722Y18246D1*
X26734Y18324D1*
X26756Y18399D1*
X26788Y18471D1*
X26825Y18532D1*
X23250D1*
X23172Y18543D1*
X23098Y18577D1*
X23061Y18605D1*
X21696Y19969D1*
X17687Y19970D1*
X17609Y19981D1*
X17536Y20014D1*
X17499Y20042D1*
X17282Y20259D1*
Y14317D1*
X18233Y14316D1*
Y13296D1*
X17212D1*
X17209Y13651D1*
X17179Y13578D1*
X17139Y13511D1*
X17088Y13450D1*
X17029Y13398D1*
X16963Y13356D1*
X16891Y13324D1*
X16815Y13304D1*
X16737Y13296D1*
X16658Y13300D1*
X16581Y13316D1*
X16507Y13343D1*
X16439Y13382D1*
X16377Y13431D1*
X16323Y13488D1*
X16279Y13553D1*
X16246Y13625D1*
X16223Y13700D1*
X16213Y13778D1*
X16215Y13857D1*
X16229Y13934D1*
X16254Y14008D1*
X16291Y14078D1*
X16338Y14141D1*
X16394Y14196D1*
X16458Y14242D1*
X16528Y14278D1*
X16591Y14298D1*
X16592Y16304D1*
Y19097D1*
X16509Y19150D1*
X16454Y19206D1*
X16411Y19272D1*
X16381Y19345D1*
X16365Y19422D1*
Y19500D1*
X16379Y19578D1*
X16407Y19651D1*
X16449Y19718D1*
X16502Y19775D1*
X16565Y19822D1*
X16594Y19836D1*
X16592Y20457D1*
Y22109D1*
X16303Y22395D1*
X16145Y22554D1*
X15465Y22553D1*
X15390Y22515D1*
X15391Y17638D1*
Y10812D1*
X15352Y10746D1*
X15312Y10733D1*
X4328D1*
Y6159D1*
X4403Y6241D1*
X4522Y6344D1*
X4652Y6432D1*
X4792Y6504D1*
X4940Y6559D1*
X5093Y6595D1*
X5249Y6612D1*
X5407Y6611D1*
X5563Y6590D1*
X5715Y6551D1*
X5862Y6493D1*
X6000Y6419D1*
X6129Y6328D1*
X6245Y6222D1*
X6348Y6103D1*
X6436Y5973D1*
X6508Y5832D1*
X6561Y5684D1*
X6597Y5531D1*
X6614Y5375D1*
X6613Y5235D1*
X19236Y21831D2*
X19524D1*
X19438Y21865D1*
X19358Y21915D1*
X19289Y21979D1*
X19232Y22055D1*
X19190Y22139D1*
X19165Y22230D1*
X19157Y22324D1*
X19166Y22418D1*
X19193Y22509D1*
X19236Y22593D1*
X19293Y22668D1*
X19363Y22731D1*
X19444Y22780D1*
X19532Y22813D1*
X19625Y22829D1*
X19720Y22828D1*
X19812Y22810D1*
X19900Y22775D1*
X19979Y22725D1*
X20048Y22660D1*
X20104Y22584D1*
X20145Y22499D1*
X20170Y22408D1*
X20178Y22321D1*
X20169Y22227D1*
X20143Y22136D1*
X20101Y22052D1*
X20044Y21977D1*
X19974Y21913D1*
X19894Y21864D1*
X19810Y21831D1*
X20178D1*
Y20811D1*
X19157D1*
Y21831D1*
X19236D1*
X6384Y7278D2*
X6291Y7274D1*
X6135Y7289D1*
X6012Y7316D1*
X5893Y7357D1*
X5780Y7412D1*
X5673Y7479D1*
X5575Y7558D1*
X5486Y7647D1*
X5408Y7746D1*
X5342Y7853D1*
X5289Y7967D1*
X5249Y8087D1*
X5223Y8210D1*
X5211Y8335D1*
X5214Y8461D1*
X5230Y8586D1*
X5261Y8708D1*
X5306Y8825D1*
X5364Y8937D1*
X5434Y9042D1*
X5516Y9138D1*
X5608Y9223D1*
X5710Y9298D1*
X5819Y9361D1*
X5935Y9410D1*
X6055Y9447D1*
X6179Y9469D1*
X6305Y9477D1*
X6431Y9470D1*
X6555Y9449D1*
X6676Y9415D1*
X6792Y9366D1*
X6902Y9305D1*
X7004Y9231D1*
X7097Y9146D1*
X7180Y9052D1*
X7252Y8948D1*
X7311Y8837D1*
X7357Y8720D1*
X7389Y8598D1*
X7407Y8473D1*
X7411Y8344D1*
X7401Y8219D1*
X7376Y8096D1*
X7337Y7976D1*
X7284Y7861D1*
X7219Y7754D1*
X7142Y7654D1*
X7054Y7564D1*
X6961Y7488D1*
X7072Y7541D1*
X7191Y7582D1*
X7313Y7610D1*
X7439Y7623D1*
X7565Y7622D1*
X7690Y7607D1*
X7769Y7590D1*
X7675Y7716D1*
X7597Y7853D1*
X7538Y7999D1*
X7499Y8151D1*
X7480Y8307D1*
X7481Y8465D1*
X7504Y8621D1*
X7546Y8772D1*
X7608Y8917D1*
X7688Y9052D1*
X7785Y9176D1*
X7898Y9286D1*
X8024Y9380D1*
X8161Y9457D1*
X8308Y9515D1*
X8460Y9553D1*
X8629Y9572D1*
X8774Y9569D1*
X8930Y9546D1*
X9081Y9503D1*
X9225Y9441D1*
X9360Y9360D1*
X9483Y9262D1*
X9593Y9148D1*
X9686Y9022D1*
X9762Y8884D1*
X9820Y8738D1*
X9858Y8585D1*
X9875Y8429D1*
X9874Y8295D1*
X9853Y8139D1*
X9812Y7987D1*
X9752Y7842D1*
X9673Y7706D1*
X9577Y7581D1*
X9465Y7470D1*
X9340Y7375D1*
X9204Y7297D1*
X9058Y7237D1*
X8906Y7197D1*
X8750Y7177D1*
X8592Y7178D1*
X8437Y7199D1*
X8344Y7223D1*
X8424Y7109D1*
X8485Y6999D1*
X8533Y6882D1*
X8567Y6761D1*
X8587Y6637D1*
X8594Y6508D1*
X8582Y6367D1*
X8557Y6243D1*
X8518Y6124D1*
X8465Y6009D1*
X8400Y5901D1*
X8323Y5802D1*
X8235Y5711D1*
X8138Y5632D1*
X8032Y5564D1*
X7918Y5509D1*
X7800Y5467D1*
X7677Y5438D1*
X7552Y5424D1*
X7426Y5425D1*
X7301Y5440D1*
X7178Y5468D1*
X7060Y5511D1*
X6947Y5567D1*
X6842Y5636D1*
X6744Y5716D1*
X6657Y5806D1*
X6581Y5907D1*
X6516Y6015D1*
X6464Y6129D1*
X6426Y6249D1*
X6402Y6373D1*
X6392Y6498D1*
X6396Y6624D1*
X6415Y6749D1*
X6447Y6870D1*
X6494Y6987D1*
X6553Y7098D1*
X6625Y7202D1*
X6708Y7296D1*
X6802Y7381D1*
X6837Y7409D1*
X6723Y7355D1*
X6604Y7315D1*
X6480Y7288D1*
X6379Y7277D1*
X28836Y20379D2*
X28819Y20302D1*
X28790Y20229D1*
X28751Y20161D1*
X28702Y20099D1*
X28645Y20045D1*
X28580Y20000D1*
X28509Y19966D1*
X28435Y19942D1*
X28357Y19929D1*
X28278D1*
X28200Y19939D1*
X28125Y19962D1*
X28053Y19995D1*
X27988Y20038D1*
X27929Y20091D1*
X27879Y20151D1*
X27839Y20219D1*
X27809Y20292D1*
X27790Y20368D1*
X27782Y20446D1*
X27792Y20551D1*
X27707Y20471D1*
X27642Y20426D1*
X27572Y20391D1*
X27498Y20364D1*
X27421Y20348D1*
X27343Y20341D1*
X27264Y20345D1*
X27187Y20359D1*
X27112Y20382D1*
X27040Y20415D1*
X26974Y20457D1*
X26913Y20508D1*
X26860Y20565D1*
X26814Y20629D1*
X26777Y20699D1*
X26749Y20773D1*
X26731Y20849D1*
X26723Y20930D1*
X26662Y20909D1*
X26584Y20898D1*
X26505Y20901D1*
X26429Y20919D1*
X26357Y20951D1*
X26293Y20996D1*
X26238Y21053D1*
X26195Y21119D1*
X26165Y21191D1*
X26149Y21268D1*
Y21330D1*
X25889Y21589D1*
X25904Y21513D1*
Y21182D1*
X25969Y21106D1*
X26007Y21036D1*
X26030Y20961D1*
X26039Y20875D1*
X26032Y20796D1*
X26010Y20721D1*
X25974Y20651D1*
X25926Y20589D1*
X25866Y20537D1*
X25798Y20498D1*
X25724Y20472D1*
X25646Y20460D1*
X25570Y20463D1*
X25537Y20401D1*
X25488Y20339D1*
X25429Y20287D1*
X25361Y20248D1*
X25287Y20222D1*
X25209Y20210D1*
X25130Y20213D1*
X25054Y20231D1*
X24982Y20264D1*
X24918Y20309D1*
X24863Y20365D1*
X24820Y20431D1*
X24790Y20504D1*
X24774Y20581D1*
Y20659D1*
X24788Y20737D1*
X24816Y20810D1*
X24858Y20877D1*
X24906Y20929D1*
X24907Y21134D1*
X24705Y21335D1*
X24630Y21338D1*
X24554Y21357D1*
X24482Y21389D1*
X24418Y21434D1*
X24363Y21490D1*
X24320Y21556D1*
X24290Y21629D1*
X24274Y21706D1*
Y21784D1*
X24288Y21862D1*
X24316Y21935D1*
X24358Y22002D1*
X24411Y22059D1*
X24474Y22106D1*
X24545Y22140D1*
X24586Y22150D1*
Y22222D1*
X24600Y22299D1*
X24628Y22373D1*
X24670Y22439D1*
X24724Y22497D1*
X24787Y22543D1*
X24825Y22561D1*
X24819Y22677D1*
X24833Y22754D1*
X24861Y22828D1*
X24903Y22894D1*
X24956Y22952D1*
X25020Y22998D1*
X25091Y23032D1*
X25167Y23052D1*
X25245Y23057D1*
X25323Y23047D1*
X25398Y23022D1*
X25467Y22984D1*
X25527Y22934D1*
X25577Y22873D1*
X25614Y22804D1*
X25638Y22729D1*
X25645Y22625D1*
X26542Y21728D1*
X26653Y21717D1*
X26728Y21692D1*
X26797Y21654D1*
X26857Y21604D1*
X26907Y21543D1*
X26944Y21474D1*
X26958Y21429D1*
X27002Y21461D1*
X27070Y21500D1*
X27144Y21529D1*
X27220Y21548D1*
X27298Y21558D1*
X27377Y21557D1*
X27455Y21546D1*
X27530Y21525D1*
X27603Y21495D1*
X27671Y21455D1*
X27733Y21407D1*
X27789Y21351D1*
X27837Y21289D1*
X27877Y21221D1*
X27907Y21148D1*
X27928Y21073D1*
X27940Y20950D1*
X27935Y20871D1*
X27925Y20821D1*
X27970Y20863D1*
X28034Y20909D1*
X28104Y20945D1*
X28178Y20970D1*
X28256Y20984D1*
X28334Y20987D1*
X28413Y20978D1*
X28488Y20957D1*
X28560Y20926D1*
X28627Y20884D1*
X28687Y20832D1*
X28738Y20773D1*
X28780Y20706D1*
X28812Y20634D1*
X28832Y20558D1*
X28842Y20457D1*
X28836Y20379D1*
X26903Y11326D2*
X26529Y11329D1*
X26463Y11336D1*
X26365Y11359D1*
X26270Y11395D1*
X26181Y11442D1*
X26099Y11501D1*
X26025Y11570D1*
X25961Y11648D1*
X25907Y11734D1*
X25866Y11826D1*
X25836Y11922D1*
X25820Y12022D1*
X25816Y12123D1*
X25826Y12224D1*
X25849Y12322D1*
X25885Y12416D1*
X25932Y12506D1*
X25991Y12588D1*
X26060Y12661D1*
X26138Y12726D1*
X26224Y12779D1*
X26316Y12821D1*
X26412Y12850D1*
X26512Y12867D1*
X26588Y12871D1*
X27040Y12868D1*
X27106Y12860D1*
X27205Y12837D1*
X27299Y12802D1*
X27389Y12754D1*
X27471Y12695D1*
X27545Y12626D1*
X27609Y12548D1*
X27662Y12463D1*
X27704Y12371D1*
X27733Y12274D1*
X27750Y12174D1*
X27753Y12073D1*
X27743Y11973D1*
X27720Y11874D1*
X27685Y11780D1*
X27637Y11691D1*
X27578Y11609D1*
X27509Y11535D1*
X27431Y11471D1*
X27346Y11417D1*
X27254Y11376D1*
X27157Y11346D1*
X27057Y11330D1*
X26981Y11326D1*
X26903D1*
X13746Y5217D2*
X17820D1*
X17849Y5247D1*
X17912Y5293D1*
X17983Y5327D1*
X18059Y5347D1*
X18138Y5352D1*
X18216Y5342D1*
X18290Y5317D1*
X18359Y5279D1*
X18419Y5229D1*
X18469Y5168D1*
X18507Y5099D1*
X18530Y5024D1*
X18539Y4937D1*
X18532Y4859D1*
X18510Y4783D1*
X18474Y4713D1*
X18426Y4651D1*
X18366Y4600D1*
X18298Y4560D1*
X18224Y4534D1*
X18146Y4523D1*
X18068Y4526D1*
X17991Y4544D1*
X17920Y4576D1*
X17855Y4621D1*
X17819Y4658D1*
X16707Y4657D1*
X13742D1*
X13680Y4600D1*
X13612Y4560D1*
X13538Y4534D1*
X13460Y4523D1*
X13381Y4526D1*
X13305Y4544D1*
X13233Y4576D1*
X13169Y4621D1*
X13114Y4678D1*
X13071Y4744D1*
X13041Y4816D1*
X13025Y4893D1*
Y4972D1*
X13039Y5049D1*
X13067Y5123D1*
X13109Y5189D1*
X13162Y5247D1*
X13225Y5293D1*
X13296Y5327D1*
X13373Y5347D1*
X13451Y5352D1*
X13529Y5342D1*
X13604Y5317D1*
X13673Y5279D1*
X13744Y5216D1*
X21718Y21650D2*
Y21822D1*
X20705Y22835D1*
X20630Y22838D1*
X20554Y22856D1*
X20482Y22889D1*
X20418Y22934D1*
X20363Y22990D1*
X20320Y23056D1*
X20290Y23129D1*
X20274Y23206D1*
Y23284D1*
X20288Y23362D1*
X20316Y23435D1*
X20358Y23502D1*
X20411Y23559D1*
X20474Y23606D1*
X20545Y23640D1*
X20622Y23659D1*
X20700Y23664D1*
X20778Y23654D1*
X20853Y23630D1*
X20922Y23592D1*
X20982Y23541D1*
X21032Y23481D1*
X21069Y23411D1*
X21093Y23336D1*
X21100Y23232D1*
X22195Y22137D1*
X22243Y22074D1*
X22271Y21998D1*
X22277Y21952D1*
Y21646D1*
X22342Y21573D1*
X22380Y21504D1*
X22403Y21429D1*
X22413Y21342D1*
X22405Y21264D1*
X22383Y21188D1*
X22347Y21118D1*
X22299Y21056D1*
X22239Y21005D1*
X22171Y20965D1*
X22097Y20939D1*
X22019Y20928D1*
X21941Y20931D1*
X21864Y20949D1*
X21793Y20981D1*
X21728Y21026D1*
X21674Y21083D1*
X21630Y21149D1*
X21601Y21221D1*
X21585Y21298D1*
X21584Y21377D1*
X21598Y21454D1*
X21626Y21528D1*
X21668Y21594D1*
X21717Y21647D1*
X21904Y7754D2*
Y6933D1*
X21969Y6856D1*
X22007Y6786D1*
X22030Y6711D1*
X22039Y6625D1*
X22032Y6546D1*
X22010Y6471D1*
X21974Y6401D1*
X21926Y6339D1*
X21866Y6287D1*
X21798Y6248D1*
X21724Y6222D1*
X21646Y6210D1*
X21568Y6213D1*
X21491Y6231D1*
X21420Y6264D1*
X21355Y6309D1*
X21300Y6365D1*
X21257Y6431D1*
X21228Y6504D1*
X21212Y6581D1*
X21211Y6659D1*
X21225Y6737D1*
X21253Y6810D1*
X21295Y6877D1*
X21344Y6929D1*
X21345Y7754D1*
X21300Y7803D1*
X21257Y7869D1*
X21228Y7941D1*
X21212Y8018D1*
X21211Y8097D1*
X21225Y8174D1*
X21253Y8248D1*
X21295Y8314D1*
X21349Y8372D1*
X21412Y8418D1*
X21483Y8452D1*
X21559Y8472D1*
X21638Y8477D1*
X21716Y8467D1*
X21790Y8442D1*
X21859Y8404D1*
X21919Y8354D1*
X21969Y8293D1*
X22007Y8224D1*
X22030Y8149D1*
X22039Y8062D1*
X22032Y7984D1*
X22010Y7908D1*
X21974Y7838D1*
X21905Y7759D1*
X19667Y22831D2*
D14*
Y22321D1*
X19157D2*
X20177D1*
X6312Y8375D2*
Y7274D1*
X7493Y6524D2*
X8594D1*
X6311Y9476D2*
Y7275D1*
X5211Y8376D2*
X7412D1*
X7492Y7624D2*
Y5423D1*
X6392Y6524D2*
X8593D1*
X10390Y11513D2*
D22*
X11199D1*
X10390Y11436D2*
X11091D1*
X10390Y11358D2*
X11091D1*
X10390Y11281D2*
X11091D1*
X10390Y11203D2*
X11091D1*
X10390Y11126D2*
X11091D1*
X10390Y11049D2*
X11091D1*
X10390Y10971D2*
X11091D1*
X10390Y10894D2*
X11091D1*
X10390Y10816D2*
X11091D1*
X10390Y10739D2*
X11115D1*
X10382Y10819D2*
Y10724D1*
X10444D1*
X11135Y10678D1*
X11113Y10791D1*
X11103Y10804D1*
X11099Y10826D1*
X11098Y11433D1*
X11120Y11468D1*
X11234Y11527D1*
X11231Y11591D1*
X11032Y11589D1*
X10382Y11583D1*
Y10945D1*
Y10819D1*
X5094Y9952D2*
D24*
X7281D1*
X5094Y9796D2*
X7281D1*
X5094Y9640D2*
X7281D1*
X5094Y9484D2*
X7281D1*
X5094Y9327D2*
X5743D1*
X6879D2*
X7281D1*
X5094Y9171D2*
X5534D1*
X7088D2*
X7281D1*
X5094Y9015D2*
X5398D1*
X5094Y8859D2*
X5307D1*
X5094Y8703D2*
X5243D1*
X5094Y8547D2*
X5209D1*
X5094Y8390D2*
X5194D1*
X5094Y8234D2*
X5204D1*
X5094Y8078D2*
X5236D1*
X5094Y7922D2*
X5293D1*
X5094Y7766D2*
X5379D1*
X7243D2*
X7554D1*
X5094Y7610D2*
X5504D1*
X7118D2*
X7298D1*
X5094Y7453D2*
X5696D1*
X5094Y7297D2*
X6078D1*
X6545D2*
X6693D1*
X5094Y7141D2*
X6565D1*
X5094Y6985D2*
X6476D1*
X5094Y6829D2*
X6420D1*
X5094Y6673D2*
X6385D1*
X8599D2*
X8696D1*
X5824Y6516D2*
X6375D1*
X8609D2*
X8779D1*
X6102Y6360D2*
X6388D1*
X8597D2*
X8779D1*
X6279Y6204D2*
X6422D1*
X8562D2*
X8779D1*
X6404Y6048D2*
X6484D1*
X8501D2*
X8779D1*
X6495Y5892D2*
X6575D1*
X8410D2*
X8779D1*
X6562Y5736D2*
X6707D1*
X8277D2*
X8779D1*
X5076Y6591D2*
X5171Y6606D1*
X5328Y6614D1*
X5485Y6603D1*
X5640Y6573D1*
X5789Y6524D1*
X5932Y6458D1*
X6066Y6375D1*
X6189Y6277D1*
X6299Y6164D1*
X6394Y6039D1*
X6474Y5903D1*
X6537Y5759D1*
X6574Y5641D1*
X6833D1*
X6733Y5727D1*
X6647Y5818D1*
X6572Y5920D1*
X6509Y6029D1*
X6459Y6144D1*
X6422Y6265D1*
X6400Y6389D1*
X6391Y6514D1*
X6398Y6640D1*
X6418Y6764D1*
X6452Y6885D1*
X6501Y7002D1*
X6562Y7112D1*
X6635Y7214D1*
X6719Y7308D1*
X6814Y7391D1*
X6837Y7409D1*
X6723Y7355D1*
X6604Y7315D1*
X6480Y7288D1*
X6338Y7274D1*
X6229Y7278D1*
X6104Y7295D1*
X5982Y7325D1*
X5864Y7370D1*
X5752Y7427D1*
X5648Y7497D1*
X5552Y7579D1*
X5466Y7671D1*
X5391Y7772D1*
X5328Y7881D1*
X5278Y7997D1*
X5241Y8117D1*
X5219Y8241D1*
X5210Y8367D1*
X5216Y8492D1*
X5237Y8617D1*
X5271Y8738D1*
X5319Y8854D1*
X5381Y8964D1*
X5454Y9067D1*
X5538Y9160D1*
X5633Y9243D1*
X5736Y9315D1*
X5847Y9374D1*
X5964Y9421D1*
X6086Y9454D1*
X6210Y9472D1*
X6336Y9476D1*
X6462Y9466D1*
X6585Y9442D1*
X6705Y9404D1*
X6820Y9352D1*
X6928Y9287D1*
X7028Y9211D1*
X7119Y9124D1*
X7199Y9027D1*
X7268Y8921D1*
X7296Y8867D1*
Y10108D1*
X5078D1*
Y6592D1*
X8594Y6508D2*
X8582Y6367D1*
X8557Y6243D1*
X8518Y6124D1*
X8465Y6009D1*
X8400Y5901D1*
X8323Y5802D1*
X8235Y5711D1*
X8149Y5640D1*
X8796Y5641D1*
Y6592D1*
X8552Y6822D1*
X8579Y6699D1*
X8593Y6564D1*
X8594Y6508D1*
X7340Y7986D2*
X7284Y7861D1*
X7219Y7754D1*
X7142Y7654D1*
X7054Y7564D1*
X6961Y7488D1*
X7072Y7541D1*
X7191Y7582D1*
X7313Y7610D1*
X7439Y7623D1*
X7565Y7622D1*
X7690Y7607D1*
X7750Y7594D1*
X7340Y7986D1*
X5533Y9154D2*
D15*
X7089Y7598D1*
Y9154D2*
X5533Y7598D1*
X6714Y7302D2*
X8270Y5745D1*
X7492Y6524D2*
X6714Y5745D1*
D32*
X5511Y20980D3*
D33*
X7283D3*
D32*
X5511Y13479D3*
D33*
X7283D3*
D35*
X19667Y21321D3*
D36*
Y22321D3*
D35*
X17722Y13806D3*
D36*
X16722D3*
D37*
X6312Y8375D3*
D38*
X8674D3*
D39*
X7493Y6524D3*
D42*
X28312Y18688D3*
Y20457D3*
D43*
X27332Y20950D3*
X27328Y18190D3*
D51*
X5511Y20980D3*
X5510Y13478D3*
D52*
X6311Y8376D3*
D53*
X8677Y8374D3*
D52*
X7492Y6524D3*
D54*
X7283Y13478D3*
Y20978D3*
M02*
