G04 DipTrace 2.4.0.2*
%INBottomMask.gbr*%
%MOIN*%
%ADD16C,0.0394*%
%ADD57C,0.1083*%
%ADD67C,0.126*%
%ADD69C,0.2047*%
%ADD71C,0.185*%
%ADD72C,0.1693*%
%ADD82C,0.0866*%
%ADD83C,0.0709*%
%ADD88O,0.185X0.0945*%
%ADD90O,0.0945X0.2047*%
%ADD92O,0.0945X0.185*%
%ADD94C,0.0669*%
%ADD96R,0.0669X0.0669*%
%ADD100O,0.126X0.0748*%
%ADD102O,0.0866X0.1693*%
%FSLAX44Y44*%
G04*
G70*
G90*
G75*
G01*
%LNBotMask*%
%LPD*%
D57*
X5315Y24606D3*
Y5313D3*
X28150Y24606D3*
Y5315D3*
D102*
X5511Y20980D3*
D100*
X7283D3*
D102*
X5511Y13479D3*
D100*
X7283D3*
D16*
X7232Y24106D3*
X8232D3*
X9232D3*
X10232D3*
X11232D3*
X12232D3*
X13232D3*
X14232D3*
X15232D3*
X16232D3*
X17232D3*
X18232D3*
X19232D3*
X20232D3*
X21232D3*
X22232D3*
X23232D3*
X24232D3*
X25232D3*
X26232D3*
X23232Y25106D3*
X24232D3*
X25232D3*
X26232D3*
X7232D3*
X8232D3*
X9232D3*
X10232D3*
X11232D3*
X12232D3*
X13232D3*
X14232D3*
X15232D3*
X16232D3*
X17232D3*
X18232D3*
X19232D3*
X20232D3*
X21232D3*
X22232D3*
D96*
X19667Y21321D3*
D94*
Y22321D3*
D96*
X17722Y13806D3*
D94*
X16722D3*
D92*
X6312Y8375D3*
D90*
X8674D3*
D88*
X7493Y6524D3*
D83*
X28312Y18688D3*
Y20457D3*
D82*
X27332Y20950D3*
X27328Y18190D3*
D72*
X5511Y20980D3*
X5510Y13478D3*
D71*
X6311Y8376D3*
D69*
X8677Y8374D3*
D71*
X7492Y6524D3*
D67*
X7283Y13478D3*
Y20978D3*
M02*
