M48
INCH
T01C0.0191
T02C0.0354
T03C0.039
T03C0.0394
T04C0.0512
T05C0.1083
%
T01
X+009750Y+013058
X+009750Y+012683
X+009312Y+012058
X+009125Y+011808
X+008937Y+012058
X+008750Y+011808
X+008937Y+011558
X+008562Y+011558
X+008375Y+011808
X+008562Y+012058
X+008187Y+012058
X+008187Y+011558
X+009312Y+011558
X+006375Y+011558
X+006375Y+011933
X+004500Y+010933
X+004500Y+008433
X+004500Y+006496
X+006500Y+004496
X+008937Y+004496
X+011937Y+004496
X+013062Y+005683
X+014562Y+005433
X+014562Y+008058
X+014437Y+009558
X+013062Y+008683
X+015812Y+011371
X+017375Y+010433
X+017375Y+012621
X+015812Y+014371
X+017062Y+015433
X+019125Y+015121
X+019762Y+015996
X+019750Y+013621
X+022875Y+013621
X+023062Y+015246
X+023062Y+016121
X+024437Y+015433
X+026625Y+013937
X+027437Y+015433
X+028937Y+017183
X+026564Y+019310
X+026312Y+020308
X+026125Y+021058
X+026250Y+022371
X+026250Y+023558
X+025250Y+023496
X+024250Y+023558
X+023250Y+023558
X+022250Y+023558
X+021250Y+023558
X+020250Y+023558
X+019250Y+023558
X+018250Y+023558
X+017250Y+023558
X+016250Y+023558
X+015625Y+022871
X+015250Y+022871
X+014250Y+023558
X+013250Y+023558
X+012250Y+023558
X+011250Y+023558
X+010250Y+023558
X+009250Y+023558
X+008250Y+023558
X+007250Y+023558
X+006187Y+023371
X+004437Y+023371
X+006187Y+021183
X+007812Y+021183
X+008812Y+020308
X+009062Y+019683
X+011062Y+020683
X+013187Y+020746
X+013562Y+020246
X+014093Y+020277
X+015500Y+019183
X+016562Y+017621
X+018125Y+018121
X+017250Y+020183
X+017812Y+021683
X+018187Y+022121
X+018687Y+024621
X+018250Y+025683
X+019250Y+025683
X+020250Y+025683
X+021250Y+025683
X+022250Y+025683
X+023250Y+025683
X+024250Y+025683
X+025250Y+025683
X+026250Y+025683
X+027000Y+025621
X+024750Y+024621
X+024250Y+021933
X+024814Y+020247
X+023189Y+020310
X+023312Y+018121
X+021500Y+018121
X+025252Y+017997
X+028937Y+020746
X+028937Y+023308
X+021750Y+024621
X+017250Y+025683
X+016250Y+025683
X+015250Y+025683
X+014250Y+025683
X+013250Y+025683
X+012250Y+025683
X+011250Y+025683
X+010250Y+025683
X+009250Y+025683
X+008187Y+025683
X+007687Y+025683
X+007187Y+025683
X+006687Y+025683
X+006687Y+025246
X+006250Y+025683
X+004562Y+018871
X+006875Y+018371
X+009375Y+016808
X+009750Y+016808
X+009062Y+016183
X+009062Y+014621
X+010875Y+014621
X+010875Y+016183
X+014250Y+017371
X+015750Y+024621
X+006437Y+015058
X+006437Y+009058
X+006812Y+009058
X+017375Y+008121
X+019062Y+008683
X+020625Y+007871
X+022562Y+006433
X+023187Y+005183
X+020437Y+004496
X+017937Y+005183
X+022562Y+009433
X+023875Y+010058
X+026625Y+011433
X+028687Y+010058
X+026625Y+008433
X+028687Y+007058
X+026625Y+005433
X+028687Y+013058
T02
X+021125Y+021121
X+021125Y+022121
X+024625Y+017308
X+024625Y+016308
T03
X+028312Y+020308
X+028312Y+022078
T03
X+016297Y+007030G85X+016297Y+007541
X+010213Y+007100G85X+010213Y+007887
X+008756Y+006312G85X+007969Y+006312
X+008855Y+008674G85X+007871Y+008674
X+008232Y+024106
X+007232Y+024106
X+007232Y+025106
X+008232Y+025106
X+009232Y+025106
X+010232Y+025106
X+011232Y+025106
X+011232Y+024106
X+012232Y+024106
X+013232Y+024106
X+014232Y+024106
X+015232Y+024106
X+016232Y+024106
X+017232Y+024106
X+018232Y+024106
X+019232Y+024106
X+020232Y+024106
X+021232Y+024106
X+022232Y+024106
X+023232Y+024106
X+023232Y+025106
X+024232Y+025106
X+025232Y+025106
X+026232Y+025106
X+026232Y+024106
X+025232Y+024106
X+024232Y+024106
X+022232Y+025106
X+021232Y+025106
X+020232Y+025106
X+019232Y+025106
X+018232Y+025106
X+017232Y+025106
X+016232Y+025106
X+015232Y+025106
X+014232Y+025106
X+013232Y+025106
X+012232Y+025106
X+010232Y+024106
X+009232Y+024106
X+024878Y+007030G85X+024878Y+007541
T04
X+016711Y+005514G85X+015884Y+005514
X+025292Y+005514G85X+024465Y+005514
X+027328Y+019810
X+027332Y+022570
T05
X+005315Y+024606
X+005315Y+005313
X+028150Y+005315
X+028150Y+024606
T00
M30
