M48
INCH
T01C0.0191
T02C0.0354
T03C0.039
T04C0.0394
T05C0.0512
T06C0.0906
T07C0.1083
T08C0.1181
T09C0.1339
T10C0.1378
%
T01
X+012125Y+006187
X+012375Y+006000
X+012625Y+006187
X+012375Y+006375
X+012125Y+006562
X+012375Y+006750
X+012625Y+006562
X+012625Y+005750
X+012375Y+005562
X+012125Y+005750
X+012125Y+005312
X+012625Y+005312
X+013438Y+004937
X+014875Y+004500
X+018125Y+004937
X+018625Y+004500
X+021625Y+006625
X+021625Y+008062
X+020375Y+008812
X+018812Y+010000
X+016562Y+008812
X+015062Y+010000
X+015625Y+011125
X+014250Y+011750
X+014375Y+014812
X+015625Y+014812
X+014375Y+018125
X+013187Y+017653
X+012189Y+019150
X+011622Y+019150
X+011055Y+019150
X+009687Y+019500
X+010439Y+021776
X+011625Y+022500
X+014375Y+022437
X+015232Y+022898
X+016126Y+022299
X+016724Y+023433
X+017626Y+021560
X+017812Y+020808
X+016778Y+019466
X+016250Y+019750
X+018875Y+022625
X+019717Y+023400
X+020687Y+023250
X+021998Y+021342
X+022709Y+020189
X+023717Y+021323
X+024687Y+021750
X+025000Y+022187
X+025232Y+022642
X+026312Y+022625
X+026812Y+023062
X+026687Y+024625
X+026562Y+021312
X+026024Y+021228
X+025625Y+020875
X+025187Y+020625
X+023717Y+022625
X+022520Y+018268
X+020787Y+018299
X+021165Y+016913
X+019465Y+016945
X+019811Y+015559
X+022750Y+015562
X+025827Y+014425
X+025197Y+012122
X+027437Y+010062
X+028312Y+011250
X+028250Y+014437
X+028312Y+017625
X+027687Y+019937
X+028375Y+021250
X+025827Y+017638
X+022187Y+010062
X+023250Y+004500
X+026750Y+004500
X+028937Y+006625
X+011562Y+010000
X+010625Y+009062
X+009500Y+010500
X+009500Y+011687
X+010562Y+012312
X+010562Y+013151
X+010500Y+014687
X+010437Y+016375
X+008687Y+014125
X+006750Y+011687
X+007000Y+010500
X+004562Y+010500
X+004500Y+012687
X+004500Y+017187
X+004500Y+020250
X+005187Y+022437
X+008312Y+022500
X+008937Y+024625
X+004562Y+006875
X+006625Y+004500
X+010437Y+004500
T02
X+019667Y+021321
X+019667Y+022321
X+017722Y+013806
X+016722Y+013806
T03
X+028312Y+018688
X+028312Y+020457
T04
X+007539Y+020980G85X+007027Y+020980
X+007232Y+024106
X+008232Y+024106
X+009232Y+024106
X+010232Y+024106
X+011232Y+024106
X+012232Y+024106
X+013232Y+024106
X+014232Y+024106
X+015232Y+024106
X+016232Y+024106
X+017232Y+024106
X+018232Y+024106
X+019232Y+024106
X+020232Y+024106
X+021232Y+024106
X+022232Y+024106
X+023232Y+024106
X+024232Y+024106
X+025232Y+024106
X+026232Y+024106
X+026232Y+025106
X+025232Y+025106
X+024232Y+025106
X+023232Y+025106
X+022232Y+025106
X+021232Y+025106
X+020232Y+025106
X+019232Y+025106
X+018232Y+025106
X+017232Y+025106
X+016232Y+025106
X+015232Y+025106
X+014232Y+025106
X+013232Y+025106
X+012232Y+025106
X+011232Y+025106
X+010232Y+025106
X+009232Y+025106
X+008232Y+025106
X+007232Y+025106
X+007539Y+013479G85X+007027Y+013479
X+006312Y+007981G85X+006312Y+008768
X+007887Y+006524G85X+007099Y+006524
X+008674Y+007882G85X+008674Y+008867
T05
X+005511Y+020567G85X+005511Y+021394
X+005511Y+013066G85X+005511Y+013893
X+027328Y+018190
X+027332Y+020950
T06
X+007283Y+013478
X+007283Y+020978
T07
X+005315Y+024606
X+005315Y+005313
X+028150Y+005315
X+028150Y+024606
T08
X+006311Y+008376
X+007492Y+006524
T09
X+005511Y+020980
X+005510Y+013478
T10
X+008677Y+008374
T00
M30
