G04 DipTrace 2.4.0.2*
%INTop.gbr*%
%MOIN*%
%ADD14C,0.013*%
%ADD15C,0.026*%
%ADD16C,0.0394*%
%ADD17C,0.0433*%
%ADD18C,0.0236*%
%ADD19C,0.0043*%
%ADD20C,0.0591*%
%ADD21C,0.0118*%
%ADD22C,0.0079*%
%ADD23C,0.0039*%
%ADD24C,0.0157*%
%ADD25R,0.0433X0.0394*%
%ADD26R,0.0394X0.0433*%
%ADD27R,0.0591X0.0512*%
%ADD28R,0.0945X0.0945*%
%ADD29R,0.0512X0.0591*%
%ADD31R,0.0591X0.0394*%
%ADD32O,0.0787X0.1614*%
%ADD33O,0.1181X0.0669*%
%ADD34R,0.0402X0.0709*%
%ADD35R,0.0591X0.0591*%
%ADD36C,0.0591*%
%ADD37O,0.0866X0.1772*%
%ADD38O,0.0866X0.1969*%
%ADD39O,0.1772X0.0866*%
%ADD40R,0.0669X0.1417*%
%ADD41R,0.0354X0.0315*%
%ADD42C,0.063*%
%ADD43C,0.0787*%
%ADD44R,0.0709X0.0157*%
%ADD46R,0.0433X0.0236*%
%ADD47R,0.0787X0.0236*%
%ADD48R,0.0827X0.126*%
%ADD49R,0.0236X0.0433*%
%ADD50R,0.0354X0.0157*%
%ADD51C,0.1614*%
%ADD52C,0.1772*%
%ADD53C,0.1969*%
%ADD54C,0.1181*%
%ADD55C,0.04*%
%FSLAX44Y44*%
G04*
G70*
G90*
G75*
G01*
%LNTop*%
%LPD*%
X12977Y12620D2*
D14*
X12745D1*
X12437Y12312D1*
X11437D1*
X11187Y12562D1*
Y12777D1*
X11151D1*
Y13525D2*
D15*
Y13575D1*
X10375D1*
X10076Y13275D1*
Y12980D1*
D14*
X10306Y12750D1*
X11187D1*
Y12777D1*
X11092Y22150D2*
X11027Y22216D1*
D15*
X10238D1*
D14*
X9958Y21936D1*
Y21581D1*
X10137Y21402D1*
X11092D1*
X11186Y20611D2*
Y21308D1*
X11092Y21402D1*
X8232Y25797D2*
D15*
X8639D1*
X8750Y25687D1*
Y24812D1*
X8937Y24625D1*
X26687D2*
D16*
Y24000D1*
X29000Y21687D1*
D17*
Y15437D1*
Y13417D1*
Y10125D1*
X28312Y9437D1*
X23000D1*
X20669D1*
D15*
X11187D1*
X10076Y10548D1*
Y12980D1*
X11151Y13525D2*
D18*
D3*
X8232Y25797D2*
D14*
X8250D1*
X7232D2*
D15*
X8232D1*
X10238Y22216D2*
X9408D1*
X8750Y22875D1*
Y24812D1*
X20749Y6312D2*
D14*
Y6624D1*
X21187Y7062D1*
X21437D1*
X23000Y8625D1*
Y9437D1*
X26618Y13417D2*
X28312D1*
X29000D1*
X28312Y12687D2*
Y13417D1*
X26957Y15701D2*
X27423D1*
X27687Y15437D1*
X27437Y15187D1*
X26995D1*
X26957Y15150D1*
X27687Y15437D2*
X28312D1*
X29000D1*
X28312Y16125D2*
Y15437D1*
X18355Y6312D2*
X18687D1*
X19312Y5687D1*
Y6312D1*
Y7187D1*
X13438Y5312D2*
Y4937D1*
X18125D2*
X18437Y5250D1*
Y6230D1*
X18355Y6312D1*
X20375D2*
Y8125D1*
Y6312D2*
X19312D1*
X11187Y15113D2*
D15*
X12000D1*
X12352D1*
X12562Y14903D1*
X13062Y15403D1*
D14*
X13483Y15824D1*
X13919D1*
X12977Y13622D2*
D15*
X12311D1*
D14*
X12214Y13525D1*
Y13568D1*
D15*
X12562Y13916D1*
Y14903D1*
X15875Y19062D2*
D14*
Y19437D1*
X15687Y19625D1*
Y24437D1*
X15500Y24625D1*
X13062D1*
X12750Y24937D1*
Y25280D1*
X12232Y25797D1*
X13919Y17615D2*
D19*
Y17687D1*
D15*
X13455Y18151D1*
X12862D1*
X12840Y18173D1*
X12155Y22150D2*
D14*
X12377D1*
D15*
X12687Y21841D1*
Y21153D1*
X12145Y20611D1*
X11999D1*
X12354D1*
X12875Y20091D1*
Y18208D1*
D14*
X12840Y18173D1*
X17226Y18676D2*
D15*
X16835D1*
X16437Y18278D1*
Y17716D1*
D14*
X16337Y17615D1*
X16203D1*
X17226Y19466D2*
D15*
Y18676D1*
X17225Y17123D2*
D14*
X17032D1*
X16750Y16841D1*
X16210D1*
X16203Y16847D1*
X17919Y22558D2*
X18294D1*
X18670Y22182D1*
Y21808D1*
X15232Y23445D2*
D15*
Y22898D1*
X17226Y19466D2*
X16778D1*
X17919Y22558D2*
Y21853D1*
X17626Y21560D1*
X16203Y17615D2*
D14*
X15774D1*
X15687Y17528D1*
Y16903D1*
X15750Y16841D1*
X16196D1*
X18670Y21808D2*
X19871D1*
X20250Y22187D1*
Y22312D1*
X20437Y22500D1*
X20656D1*
X20667Y22511D1*
X22417D2*
X21542D1*
X20667D1*
X17875Y15563D2*
X18313D1*
X18750Y16000D1*
X19562D1*
X25750Y22187D1*
Y25315D1*
X26232Y25797D1*
X16203Y17359D2*
X16581D1*
X16750Y17528D1*
Y18072D1*
X16976Y18299D1*
X17875D1*
Y17902D1*
X17896D1*
X17875Y18299D2*
Y18655D1*
X17896Y18676D1*
X11151Y13151D2*
X10562D1*
X10439Y21776D2*
X11092D1*
X13919Y17103D2*
X14495D1*
Y15580D1*
X13932D1*
X13919Y15568D1*
Y15312D2*
X14495D1*
Y15580D1*
X12840Y17504D2*
X13038D1*
X13187Y17653D1*
X17250Y22558D2*
X16793D1*
X16544Y22309D1*
D15*
Y21808D1*
Y21308D1*
Y20808D1*
Y20308D1*
X17895Y19466D2*
D14*
Y18676D1*
X17896D1*
X17894Y17123D2*
Y17900D1*
X17896Y17902D1*
X16544Y20308D2*
X17562D1*
X17937Y19933D1*
Y19507D1*
X17895Y19466D1*
X26312Y22625D2*
Y23415D1*
X26232D1*
X16203Y15568D2*
X16619D1*
X16750Y15437D1*
Y15125D1*
X17095Y14779D1*
X17219D1*
X16203Y16592D2*
X16812D1*
X16945Y16724D1*
X17724D1*
X17875Y16875D1*
Y17103D1*
X17894Y17123D1*
X11999Y19941D2*
Y19340D1*
X12189Y19150D1*
X11186Y19941D2*
Y19281D1*
X11055Y19150D1*
X11215Y18173D2*
Y18743D1*
X11622Y19150D1*
X17250Y22558D2*
D15*
X16750D1*
Y24375D1*
X17000Y24625D1*
X18500D1*
X18750Y24375D1*
Y23625D1*
X18937Y23437D1*
X19210D1*
D14*
X19232Y23415D1*
X19667Y22321D2*
D15*
Y22394D1*
X19250Y22812D1*
Y23398D1*
X19232Y23415D1*
X20787Y18299D2*
D14*
Y18268D1*
X19465Y16945D1*
X23717Y21323D2*
Y22625D1*
X21232Y25797D2*
D15*
X21321D1*
X21732Y25386D1*
Y24850D1*
X21953Y24630D1*
X22457D1*
X22740Y24346D1*
Y22992D1*
D14*
X23055Y22677D1*
D15*
X23664D1*
X23717Y22625D1*
X23232Y25797D2*
X23368D1*
X23748Y25417D1*
Y22656D1*
X23717Y22625D1*
X13438Y6312D2*
D14*
X12875D1*
X12625Y6562D1*
X12125D2*
X12187D1*
X12375Y6375D1*
X12312D1*
X12125Y6187D1*
X12187D1*
X12375Y6000D1*
X12125Y5750D1*
X12187D1*
X12375Y5562D1*
X12125Y5312D1*
X12625D1*
Y5750D1*
Y6187D1*
Y6562D1*
X12375Y6750D2*
X12187Y6562D1*
X23187Y15431D2*
Y15437D1*
X22875D1*
X22750Y15562D1*
X27250Y19906D2*
X27656D1*
X27687Y19937D1*
X7492Y6524D2*
X7493D1*
X6312Y8375D2*
D3*
X5510Y13478D2*
D3*
X5511Y20980D2*
D3*
X24232Y25758D2*
X24304D1*
X24625Y25437D1*
Y21937D1*
X24687Y21875D1*
Y21750D1*
X25187Y20625D2*
X24000Y19437D1*
Y18812D1*
X18670Y20808D2*
X20883D1*
X21542Y21467D1*
Y21842D1*
X18670Y20808D2*
X17812D1*
X19717Y23400D2*
Y25512D1*
X20002Y25797D1*
X20232D1*
X18670Y20308D2*
X21571D1*
X22417Y21155D1*
Y21842D1*
Y21762D1*
X21998Y21342D1*
X20687Y23250D2*
X20521Y23415D1*
X20232D1*
X17875Y16344D2*
Y16312D1*
X19500D1*
X24250Y21062D1*
Y23415D1*
X24232D1*
X9280Y13618D2*
D16*
Y14780D1*
X10299Y15799D1*
D14*
X12937D1*
X13218Y16080D1*
X13919D1*
X9280Y21105D2*
D16*
X9456D1*
X10268Y20294D1*
D15*
Y17287D1*
D14*
X11219Y16336D1*
X13919D1*
X11215Y17504D2*
Y17135D1*
X11746Y16604D1*
X13907D1*
X13919Y16592D1*
X12028Y17504D2*
Y17161D1*
X12341Y16847D1*
X13919D1*
X12028Y18173D2*
X12137D1*
X12398Y17913D1*
Y17263D1*
X12575Y17086D1*
X13123D1*
X13406Y17370D1*
X13909D1*
X13919Y17359D1*
X17226Y17902D2*
X17125D1*
Y17625D1*
X16603Y17103D1*
X16203D1*
X18670Y21308D2*
X19655D1*
X19667Y21321D1*
X20146D1*
X20667Y21842D1*
X17722Y13806D2*
X17812D1*
Y14703D1*
X17888Y14779D1*
X16203Y15312D2*
X16184D1*
X16724Y14772D1*
Y14525D1*
X16918Y14331D1*
X17643D1*
X17875Y14562D1*
Y14766D1*
X17888Y14779D1*
X8674Y8375D2*
D15*
Y7950D1*
D20*
X9437Y7187D1*
Y6179D1*
X10437D1*
Y6044D1*
X11044D1*
D18*
X11312Y6312D1*
Y5812D2*
Y6312D1*
X8674Y8375D2*
D14*
X8677D1*
X11312Y5312D2*
X10500D1*
X10437Y5375D1*
X11187Y8106D2*
D16*
X11518D1*
X11750Y7875D1*
Y7562D1*
X11937Y7375D1*
X13125D1*
X13438Y7061D1*
D14*
Y6812D1*
X11312D2*
X11187Y6937D1*
D16*
Y7437D1*
X21893Y5812D2*
D14*
X21875D1*
Y6125D1*
X21687Y6312D1*
X21123D1*
X21162Y7593D2*
Y7849D1*
X21375Y8062D1*
X21625D1*
Y6625D2*
Y6369D1*
X21687Y6312D1*
X20375Y5250D2*
X20749D1*
X21123D1*
X21937Y4937D2*
X21435D1*
X21123Y5250D1*
X25870Y13417D2*
X25417D1*
X25416Y13419D1*
X24625D1*
X27250Y19236D2*
Y19250D1*
X27812D1*
X28312Y19749D1*
Y20457D1*
X27250Y19236D2*
X26440D1*
X26437Y19234D1*
X16203Y16336D2*
X17197D1*
X17205Y16344D1*
X16203Y16080D2*
X16645D1*
X17161Y15563D1*
X17205D1*
X16203Y15824D2*
X15675D1*
X15437Y16062D1*
Y17955D1*
X15875Y18393D1*
X23187Y15687D2*
Y15750D1*
X24812Y17375D1*
Y18125D1*
X23187Y15175D2*
X22574D1*
X22375Y15375D1*
Y15750D1*
X22562Y15937D1*
X23000D1*
X24000Y16937D1*
Y18143D1*
X24625Y14981D2*
X24247D1*
X24053Y15175D1*
X24625Y15893D2*
X24259D1*
X24053Y15687D1*
X25579Y15701D2*
Y16045D1*
X25062Y16562D1*
X24625D1*
X25579Y15150D2*
Y14892D1*
X25000Y14312D1*
X24625D1*
X7283Y20980D2*
D16*
X8485D1*
X8610Y21105D1*
Y20105D1*
X7283Y20980D2*
D14*
Y20979D1*
Y13479D2*
D16*
X8471D1*
X8610Y13618D1*
Y12618D2*
Y13618D1*
X7283Y13478D2*
D14*
Y13479D1*
X25232Y25758D2*
X25133D1*
X24875Y25500D1*
Y22312D1*
X25000Y22187D1*
X25625Y20875D2*
Y20562D1*
X24812Y19750D1*
Y18794D1*
X25232Y23455D2*
Y22642D1*
X26562Y21312D2*
Y20028D1*
X26437Y19903D1*
D55*
X8937Y24625D3*
X26687D3*
X13438Y4937D3*
X18125D3*
X15232Y22898D3*
X16778Y19466D3*
X17626Y21560D3*
X10562Y13151D3*
X10439Y21776D3*
X13187Y17653D3*
X26312Y22625D3*
X12189Y19150D3*
X11055D3*
X11622D3*
X10562Y13151D3*
X19465Y16945D3*
X23717Y22625D3*
X22750Y15562D3*
X27687Y19937D3*
X24687Y21750D3*
X25187Y20625D3*
X17812Y20808D3*
X19717Y23400D3*
X21998Y21342D3*
X20687Y23250D3*
X21625Y8062D3*
Y6625D3*
X25000Y22187D3*
X25625Y20875D3*
X25232Y22642D3*
X26562Y21312D3*
X12125Y6187D3*
X12625D3*
X23717Y21323D3*
X22709Y20189D3*
X20787Y18299D3*
X12375Y6000D3*
X12625Y5750D3*
X12125D3*
X12375Y5562D3*
X12625Y5312D3*
X12125D3*
X12375Y6375D3*
X12125Y6562D3*
X12625D3*
X12375Y6750D3*
X16126Y22299D3*
X26812Y23062D3*
X28375Y21250D3*
X28312Y17625D3*
X28250Y14437D3*
X28312Y11250D3*
X27437Y10062D3*
X22187D3*
X18812Y10000D3*
X15062D3*
X11562D3*
X10562Y12312D3*
X14250Y11750D3*
X14375Y14812D3*
Y18125D3*
Y22437D3*
X11625Y22500D3*
X8312D3*
X5187Y22437D3*
X4500Y20250D3*
Y17187D3*
Y12687D3*
X9500Y11687D3*
X6750D3*
X10500Y14687D3*
X10437Y16375D3*
X9687Y19500D3*
X8687Y14125D3*
X9500Y10500D3*
X7000D3*
X4562D3*
Y6875D3*
X6625Y4500D3*
X10437D3*
X14875D3*
X18625D3*
X23250D3*
X26750D3*
X28937Y6625D3*
X20375Y8812D3*
X16562D3*
X10625Y9062D3*
X15625Y14812D3*
Y11125D3*
X16250Y19750D3*
X18875Y22625D3*
X16724Y23433D3*
X26024Y21228D3*
X25827Y17638D3*
Y14425D3*
X22520Y18268D3*
X21165Y16913D3*
X19811Y15559D3*
X25197Y12122D3*
X12960Y15966D2*
D21*
X13103D1*
X10179Y15850D2*
X12990D1*
X10198Y15733D2*
X10623D1*
X13220Y16077D2*
X13194D1*
X13203Y16058D1*
X13220Y16077D1*
X13167Y16064D1*
X12870Y15934D1*
X10257Y15941D1*
X10102Y15780D1*
X10351Y15636D1*
X10429Y15713D1*
X10467Y15729D1*
X12941Y15787D1*
X13201Y16057D1*
X4976Y22574D2*
X8581D1*
X9520D2*
X14616D1*
X4976Y22457D2*
X8697D1*
X11513D2*
X11733D1*
X12576D2*
X14616D1*
X4976Y22340D2*
X8815D1*
X11513D2*
X11733D1*
X12657D2*
X14616D1*
X4964Y22223D2*
X8932D1*
X11513D2*
X11733D1*
X12774D2*
X14616D1*
X4906Y22106D2*
X9048D1*
X11513D2*
X11733D1*
X12890D2*
X14616D1*
X4761Y21990D2*
X9164D1*
X11513D2*
X11733D1*
X12986D2*
X14616D1*
X4320Y21873D2*
X5049D1*
X5975D2*
X9686D1*
X11513D2*
X11733D1*
X13021D2*
X14616D1*
X4320Y21756D2*
X4868D1*
X6154D2*
X7171D1*
X7396D2*
X9686D1*
X11513D2*
X12301D1*
X13023D2*
X14616D1*
X4320Y21639D2*
X4746D1*
X6276D2*
X6850D1*
X7717D2*
X9686D1*
X11513D2*
X11733D1*
X13023D2*
X14616D1*
X4320Y21522D2*
X4659D1*
X6364D2*
X6708D1*
X7859D2*
X9694D1*
X11513D2*
X11733D1*
X13023D2*
X14616D1*
X4320Y21406D2*
X4595D1*
X6429D2*
X6614D1*
X7953D2*
X8188D1*
X11513D2*
X11733D1*
X13023D2*
X14616D1*
X4320Y21289D2*
X4549D1*
X6475D2*
X6551D1*
X11513D2*
X11733D1*
X13023D2*
X14616D1*
X4320Y21172D2*
X4517D1*
X11513D2*
X11733D1*
X13023D2*
X14616D1*
X4320Y21055D2*
X4503D1*
X10070D2*
X10916D1*
X11456D2*
X12121D1*
X13008D2*
X14616D1*
X4320Y20938D2*
X4499D1*
X10186D2*
X10785D1*
X12941D2*
X14616D1*
X4320Y20822D2*
X4512D1*
X10304D2*
X10785D1*
X12825D2*
X14616D1*
X4320Y20705D2*
X4538D1*
X10421D2*
X10785D1*
X12729D2*
X14616D1*
X4320Y20588D2*
X4578D1*
X6444D2*
X6592D1*
X7975D2*
X8208D1*
X10539D2*
X10785D1*
X12846D2*
X14616D1*
X4320Y20471D2*
X4637D1*
X6385D2*
X6673D1*
X7894D2*
X8188D1*
X10646D2*
X10785D1*
X12964D2*
X14616D1*
X4320Y20354D2*
X4718D1*
X6305D2*
X6796D1*
X7770D2*
X8188D1*
X10670D2*
X10785D1*
X13080D2*
X14616D1*
X4320Y20238D2*
X4829D1*
X6194D2*
X7014D1*
X7553D2*
X8188D1*
X10668D2*
X10785D1*
X13174D2*
X14616D1*
X4320Y20121D2*
X4986D1*
X6036D2*
X8188D1*
X9701D2*
X9877D1*
X10664D2*
X10785D1*
X13209D2*
X14616D1*
X4320Y20004D2*
X5278D1*
X5744D2*
X8188D1*
X9701D2*
X9913D1*
X10662D2*
X10785D1*
X12401D2*
X12492D1*
X13209D2*
X14616D1*
X4879Y19887D2*
X8188D1*
X9701D2*
X9915D1*
X10659D2*
X10785D1*
X12401D2*
X12540D1*
X13209D2*
X14616D1*
X4952Y19770D2*
X8188D1*
X9701D2*
X9915D1*
X10657D2*
X10785D1*
X12401D2*
X12540D1*
X13209D2*
X14616D1*
X4976Y19654D2*
X9917D1*
X10655D2*
X10785D1*
X12401D2*
X12540D1*
X13209D2*
X14616D1*
X4976Y19537D2*
X9917D1*
X10651D2*
X10785D1*
X12401D2*
X12540D1*
X13209D2*
X14616D1*
X4976Y19420D2*
X9917D1*
X10649D2*
X12540D1*
X13209D2*
X14616D1*
X4976Y19303D2*
X9919D1*
X10648D2*
X12540D1*
X13209D2*
X14616D1*
X4976Y19187D2*
X9919D1*
X10644D2*
X12540D1*
X13209D2*
X14616D1*
X4976Y19070D2*
X9921D1*
X10642D2*
X12540D1*
X13209D2*
X14616D1*
X4976Y18953D2*
X9921D1*
X10638D2*
X12540D1*
X13209D2*
X14616D1*
X4964Y18836D2*
X9921D1*
X10636D2*
X12540D1*
X13209D2*
X14616D1*
X4906Y18719D2*
X9923D1*
X10635D2*
X12540D1*
X13209D2*
X14616D1*
X4757Y18603D2*
X9923D1*
X10631D2*
X12540D1*
X13209D2*
X14616D1*
X4320Y18486D2*
X9925D1*
X10629D2*
X10812D1*
X13242D2*
X14616D1*
X4320Y18369D2*
X9925D1*
X10627D2*
X10812D1*
X13706D2*
X14616D1*
X4320Y18252D2*
X9926D1*
X10624D2*
X10812D1*
X13824D2*
X14616D1*
X4320Y18135D2*
X9926D1*
X10622D2*
X10812D1*
X13940D2*
X14616D1*
X4320Y18019D2*
X9926D1*
X10620D2*
X10812D1*
X14056D2*
X14616D1*
X4320Y17902D2*
X9928D1*
X10616D2*
X10812D1*
X14172D2*
X14616D1*
X4320Y17785D2*
X9928D1*
X10614D2*
X10812D1*
X14479D2*
X14616D1*
X4320Y17668D2*
X9930D1*
X10611D2*
X10812D1*
X14479D2*
X14616D1*
X4320Y17551D2*
X9930D1*
X10609D2*
X10812D1*
X14479D2*
X14616D1*
X4320Y17435D2*
X9930D1*
X10607D2*
X10812D1*
X14479D2*
X14616D1*
X4320Y17318D2*
X9932D1*
X10644D2*
X10812D1*
X14479D2*
X14616D1*
X4320Y17201D2*
X9934D1*
X14479D2*
X14616D1*
X4320Y17084D2*
X9985D1*
X10884D2*
X10951D1*
X11642D2*
X11768D1*
X14479D2*
X14616D1*
X4320Y16967D2*
X10109D1*
X11760D2*
X11844D1*
X14479D2*
X14616D1*
X4320Y16851D2*
X10233D1*
X14479D2*
X14616D1*
X4320Y16734D2*
X10356D1*
X14479D2*
X14616D1*
X4320Y16617D2*
X10480D1*
X14479D2*
X14616D1*
X4320Y16500D2*
X10604D1*
X14479D2*
X14616D1*
X4320Y16383D2*
X10727D1*
X14479D2*
X14616D1*
X4320Y16267D2*
X10853D1*
X14479D2*
X14616D1*
X4320Y16150D2*
X10098D1*
X14479D2*
X14616D1*
X4320Y16033D2*
X9969D1*
X14479D2*
X14616D1*
X4320Y15916D2*
X9853D1*
X14479D2*
X14616D1*
X4851Y15799D2*
X9736D1*
X14479D2*
X14616D1*
X4941Y15683D2*
X9618D1*
X14479D2*
X14616D1*
X4975Y15566D2*
X9502D1*
X14479D2*
X14616D1*
X4976Y15449D2*
X9386D1*
X10529D2*
X10785D1*
X14479D2*
X14616D1*
X4976Y15332D2*
X9268D1*
X10397D2*
X10785D1*
X14479D2*
X14616D1*
X4976Y15215D2*
X9151D1*
X10278D2*
X10785D1*
X14479D2*
X14616D1*
X4976Y15099D2*
X9035D1*
X10162D2*
X10785D1*
X13228D2*
X13359D1*
X14479D2*
X14616D1*
X4976Y14982D2*
X8933D1*
X10046D2*
X10785D1*
X13111D2*
X14616D1*
X4976Y14865D2*
X8887D1*
X9930D2*
X10785D1*
X12993D2*
X14616D1*
X4969Y14748D2*
X8878D1*
X9812D2*
X10785D1*
X12897D2*
X14616D1*
X4925Y14631D2*
X8878D1*
X9695D2*
X10785D1*
X12897D2*
X14616D1*
X4810Y14515D2*
X8878D1*
X9682D2*
X10785D1*
X12897D2*
X14616D1*
X4320Y14398D2*
X5102D1*
X5916D2*
X8878D1*
X9682D2*
X10785D1*
X12897D2*
X14616D1*
X4320Y14281D2*
X4901D1*
X6119D2*
X8878D1*
X9682D2*
X10785D1*
X12897D2*
X14616D1*
X4320Y14164D2*
X4770D1*
X6250D2*
X6892D1*
X7675D2*
X8878D1*
X9682D2*
X10785D1*
X12897D2*
X14616D1*
X4320Y14047D2*
X4674D1*
X6344D2*
X6732D1*
X7835D2*
X8878D1*
X9682D2*
X10785D1*
X12897D2*
X14616D1*
X4320Y13931D2*
X4606D1*
X6414D2*
X6630D1*
X7937D2*
X8188D1*
X9701D2*
X12108D1*
X14069D2*
X14616D1*
X4320Y13814D2*
X4556D1*
X6464D2*
X6562D1*
X9701D2*
X10146D1*
X11572D2*
X11792D1*
X14069D2*
X14616D1*
X4320Y13697D2*
X4521D1*
X9701D2*
X10028D1*
X11572D2*
X11792D1*
X14069D2*
X14616D1*
X4320Y13580D2*
X4503D1*
X9701D2*
X9912D1*
X11572D2*
X11792D1*
X14069D2*
X14616D1*
X4320Y13463D2*
X4497D1*
X9701D2*
X9801D1*
X11572D2*
X11792D1*
X14069D2*
X14616D1*
X4320Y13347D2*
X4506D1*
X11572D2*
X11792D1*
X14069D2*
X14616D1*
X4320Y13230D2*
X4528D1*
X11572D2*
X11792D1*
X12635D2*
X14616D1*
X4320Y13113D2*
X4567D1*
X6453D2*
X6579D1*
X9012D2*
X9740D1*
X11572D2*
X14616D1*
X4320Y12996D2*
X4621D1*
X6399D2*
X6652D1*
X7914D2*
X8188D1*
X11572D2*
X11792D1*
X14069D2*
X14616D1*
X4320Y12879D2*
X4696D1*
X6324D2*
X6765D1*
X7802D2*
X8188D1*
X11572D2*
X11792D1*
X14069D2*
X14616D1*
X4320Y12763D2*
X4798D1*
X6220D2*
X6951D1*
X7615D2*
X8188D1*
X11572D2*
X11792D1*
X14069D2*
X14616D1*
X4320Y12646D2*
X4944D1*
X6076D2*
X8188D1*
X11572D2*
X11792D1*
X14069D2*
X14616D1*
X4320Y12529D2*
X5182D1*
X5838D2*
X8188D1*
X14069D2*
X14616D1*
X4853Y12412D2*
X8188D1*
X10411D2*
X10965D1*
X14069D2*
X14616D1*
X4941Y12295D2*
X8188D1*
X10411D2*
X11076D1*
X14069D2*
X14616D1*
X4975Y12179D2*
X9740D1*
X10411D2*
X11192D1*
X12681D2*
X14616D1*
X4976Y12062D2*
X9740D1*
X10411D2*
X11360D1*
X12513D2*
X14616D1*
X4976Y11945D2*
X9740D1*
X10411D2*
X14616D1*
X4976Y11828D2*
X9740D1*
X10411D2*
X14616D1*
X4976Y11711D2*
X9740D1*
X10411D2*
X14616D1*
X4976Y11595D2*
X9740D1*
X10411D2*
X14616D1*
X9020Y19715D2*
X8200D1*
Y20496D1*
X8220D1*
Y20591D1*
X7963Y20590D1*
X7930Y20534D1*
X7856Y20442D1*
X7769Y20362D1*
X7671Y20296D1*
X7564Y20246D1*
X7451Y20212D1*
X7334Y20196D1*
X7216Y20197D1*
X7100Y20216D1*
X6987Y20252D1*
X6882Y20305D1*
X6785Y20373D1*
X6700Y20454D1*
X6628Y20548D1*
X6571Y20651D1*
X6530Y20762D1*
X6506Y20875D1*
X6492Y20780D1*
X6465Y20678D1*
X6428Y20578D1*
X6380Y20483D1*
X6323Y20394D1*
X6256Y20311D1*
X6181Y20236D1*
X6098Y20169D1*
X6009Y20112D1*
X5914Y20064D1*
X5815Y20026D1*
X5712Y19999D1*
X5607Y19984D1*
X5501Y19979D1*
X5395Y19986D1*
X5290Y20004D1*
X5188Y20033D1*
X5089Y20072D1*
X4995Y20122D1*
X4907Y20182D1*
X4826Y20250D1*
X4753Y20327D1*
X4688Y20411D1*
X4632Y20502D1*
X4586Y20598D1*
X4551Y20698D1*
X4527Y20801D1*
X4513Y20907D1*
X4511Y21013D1*
X4520Y21119D1*
X4541Y21223D1*
X4572Y21325D1*
X4614Y21422D1*
X4666Y21515D1*
X4727Y21602D1*
X4797Y21681D1*
X4876Y21753D1*
X4961Y21816D1*
X5053Y21870D1*
X5150Y21913D1*
X5251Y21946D1*
X5355Y21968D1*
X5461Y21979D1*
X5555Y21980D1*
X5661Y21969D1*
X5765Y21948D1*
X5866Y21916D1*
X5963Y21873D1*
X6055Y21820D1*
X6141Y21757D1*
X6220Y21686D1*
X6291Y21607D1*
X6353Y21521D1*
X6406Y21429D1*
X6448Y21331D1*
X6480Y21230D1*
X6501Y21126D1*
X6507Y21084D1*
X6523Y21170D1*
X6560Y21282D1*
X6614Y21387D1*
X6683Y21483D1*
X6765Y21567D1*
X6860Y21638D1*
X6964Y21694D1*
X7075Y21734D1*
X7190Y21757D1*
X7308Y21762D1*
X7426Y21750D1*
X7540Y21720D1*
X7648Y21673D1*
X7748Y21610D1*
X7838Y21533D1*
X7915Y21444D1*
X7962Y21371D1*
X8200D1*
Y21496D1*
X9020Y21494D1*
X9224Y21496D1*
X9690D1*
Y21416D1*
X9732Y21381D1*
X10600Y20516D1*
X10635Y20469D1*
X10655Y20412D1*
X10658Y20374D1*
X10655Y20245D1*
X10593Y17357D1*
X10825Y17131D1*
Y17914D1*
Y18583D1*
X11606D1*
X11607Y17109D1*
X11853Y16862D1*
X11962Y16863D1*
X11845Y16978D1*
X11808Y17024D1*
X11782Y17079D1*
X11769Y17094D1*
X11637D1*
X11639Y17914D1*
X11637Y18117D1*
Y18583D1*
X12418D1*
Y18257D1*
X12449Y18227D1*
X12450Y18583D1*
X12551D1*
Y19955D1*
X12389Y20119D1*
Y19531D1*
X11608D1*
Y21021D1*
X12097D1*
X12168Y21091D1*
X11745Y21090D1*
Y21714D1*
X12356D1*
X12232Y21837D1*
X11745Y21838D1*
Y22462D1*
X12293D1*
X12324Y22469D1*
X12383Y22474D1*
X12461Y22462D1*
X12565D1*
Y22412D1*
X12606Y22379D1*
X12916Y22069D1*
X12954Y22024D1*
X12982Y21973D1*
X13002Y21917D1*
X13011Y21841D1*
Y21153D1*
X13005Y21094D1*
X12989Y21038D1*
X12963Y20985D1*
X12916Y20924D1*
X12708Y20714D1*
X13103Y20319D1*
X13141Y20274D1*
X13170Y20223D1*
X13189Y20167D1*
X13198Y20091D1*
Y18583D1*
X13231D1*
Y18475D1*
X13455D1*
X13513Y18469D1*
X13570Y18453D1*
X13623Y18427D1*
X13684Y18380D1*
X14148Y17915D1*
X14170Y17888D1*
X14467D1*
X14465Y17343D1*
X14467Y17305D1*
X14465Y16575D1*
X14467Y16451D1*
X14465Y16319D1*
X14467Y16195D1*
X14465Y16063D1*
X14467Y15939D1*
X14465Y15807D1*
X14467Y15769D1*
Y15040D1*
X13371D1*
Y15271D1*
X13287Y15170D1*
X12886Y14769D1*
Y14012D1*
X13388Y14010D1*
X13425Y14012D1*
X14057D1*
Y13231D1*
X12625D1*
X12624Y13213D1*
X11804D1*
Y13837D1*
X12027Y13839D1*
X12221Y14033D1*
X11609D1*
Y14789D1*
X11577D1*
X11578Y14033D1*
X10796D1*
Y15485D1*
X10547Y15478D1*
X10493Y15424D1*
X10446Y15391D1*
X10157Y15105D1*
X9671Y14618D1*
X9670Y14010D1*
X9690Y14009D1*
Y13228D1*
X9000D1*
X9001Y13007D1*
X9117Y13009D1*
X9690D1*
Y12228D1*
X8200D1*
Y13009D1*
X8220D1*
Y13089D1*
X7964D1*
X7894Y12987D1*
X7814Y12901D1*
X7721Y12828D1*
X7618Y12769D1*
X7508Y12727D1*
X7393Y12702D1*
X7275Y12694D1*
X7158Y12704D1*
X7043Y12732D1*
X6934Y12776D1*
X6832Y12837D1*
X6741Y12912D1*
X6662Y13000D1*
X6598Y13098D1*
X6548Y13205D1*
X6516Y13319D1*
X6505Y13372D1*
X6488Y13267D1*
X6460Y13165D1*
X6422Y13066D1*
X6373Y12971D1*
X6314Y12883D1*
X6247Y12801D1*
X6171Y12727D1*
X6087Y12661D1*
X5997Y12604D1*
X5902Y12558D1*
X5802Y12521D1*
X5699Y12496D1*
X5594Y12481D1*
X5487Y12478D1*
X5381Y12486D1*
X5277Y12505D1*
X5175Y12535D1*
X5077Y12576D1*
X4984Y12627D1*
X4896Y12688D1*
X4816Y12757D1*
X4744Y12835D1*
X4680Y12920D1*
X4625Y13011D1*
X4580Y13107D1*
X4546Y13208D1*
X4523Y13311D1*
X4511Y13417D1*
X4510Y13523D1*
X4520Y13629D1*
X4542Y13733D1*
X4574Y13834D1*
X4617Y13931D1*
X4671Y14023D1*
X4733Y14109D1*
X4804Y14188D1*
X4884Y14259D1*
X4970Y14321D1*
X5062Y14373D1*
X5160Y14416D1*
X5261Y14448D1*
X5365Y14469D1*
X5471Y14479D1*
X5554D1*
X5671Y14466D1*
X5775Y14443D1*
X5876Y14410D1*
X5972Y14366D1*
X6064Y14312D1*
X6149Y14248D1*
X6227Y14176D1*
X6297Y14096D1*
X6358Y14009D1*
X6410Y13916D1*
X6451Y13819D1*
X6482Y13717D1*
X6502Y13613D1*
X6506Y13578D1*
X6523Y13670D1*
X6560Y13782D1*
X6614Y13887D1*
X6683Y13983D1*
X6765Y14067D1*
X6860Y14138D1*
X6964Y14194D1*
X7075Y14234D1*
X7190Y14257D1*
X7308Y14262D1*
X7426Y14250D1*
X7540Y14220D1*
X7648Y14173D1*
X7748Y14110D1*
X7838Y14033D1*
X7915Y13944D1*
X7962Y13871D1*
X8200Y13870D1*
Y14009D1*
X8890D1*
X8889Y14780D1*
X8893Y14838D1*
X8907Y14896D1*
X8928Y14951D1*
X8958Y15002D1*
X9003Y15056D1*
X10023Y16075D1*
X10078Y16120D1*
X10140Y16171D1*
X10197Y16191D1*
X10233Y16194D1*
X10943Y16192D1*
X10005Y17076D1*
X9969Y17122D1*
X9948Y17179D1*
X9944Y17216D1*
X9925Y20085D1*
X9690Y20319D1*
Y19715D1*
X8869D1*
X4965Y22690D2*
Y22319D1*
X4960Y22260D1*
X4946Y22203D1*
X4922Y22149D1*
X4890Y22099D1*
X4850Y22056D1*
X4804Y22019D1*
X4752Y21991D1*
X4696Y21971D1*
X4606Y21960D1*
X4309D1*
X4307Y20001D1*
X4606D1*
X4665Y19996D1*
X4722Y19982D1*
X4776Y19958D1*
X4825Y19926D1*
X4869Y19886D1*
X4905Y19840D1*
X4934Y19788D1*
X4953Y19732D1*
X4965Y19642D1*
Y18933D1*
X4960Y18874D1*
X4946Y18817D1*
X4922Y18763D1*
X4890Y18714D1*
X4850Y18670D1*
X4804Y18634D1*
X4752Y18605D1*
X4696Y18586D1*
X4606Y18574D1*
X4309D1*
Y15886D1*
X4606D1*
X4665Y15881D1*
X4722Y15866D1*
X4776Y15843D1*
X4825Y15811D1*
X4869Y15771D1*
X4905Y15725D1*
X4934Y15673D1*
X4953Y15617D1*
X4965Y15527D1*
Y14818D1*
X4960Y14759D1*
X4946Y14702D1*
X4922Y14648D1*
X4890Y14598D1*
X4850Y14555D1*
X4804Y14518D1*
X4752Y14490D1*
X4696Y14470D1*
X4606Y14459D1*
X4309D1*
Y12502D1*
X4606Y12500D1*
X4665Y12495D1*
X4722Y12481D1*
X4776Y12457D1*
X4825Y12425D1*
X4869Y12385D1*
X4905Y12339D1*
X4934Y12287D1*
X4953Y12231D1*
X4965Y12141D1*
Y11497D1*
X9751Y11496D1*
X9752Y12261D1*
Y13275D1*
X9758Y13334D1*
X9773Y13391D1*
X9799Y13444D1*
X9847Y13504D1*
X10147Y13804D1*
X10192Y13841D1*
X10243Y13870D1*
X10299Y13889D1*
X10375Y13898D1*
X11151D1*
X11210Y13893D1*
X11267Y13877D1*
X11341Y13837D1*
X11561D1*
X11559Y13213D1*
X11561Y13203D1*
Y12570D1*
X11804Y12571D1*
Y13089D1*
X12624D1*
X12626Y13011D1*
X13388Y13009D1*
X13425Y13011D1*
X14057D1*
Y12230D1*
X12719Y12228D1*
X12620Y12129D1*
X12574Y12092D1*
X12521Y12067D1*
X12461Y12055D1*
X12319Y12053D1*
X11437D1*
X11378Y12060D1*
X11323Y12080D1*
X11272Y12113D1*
X11171Y12213D1*
X11004Y12379D1*
X10967Y12427D1*
X10948Y12463D1*
X10794Y12465D1*
X10741D1*
Y12489D1*
X10419Y12491D1*
X10399D1*
Y11494D1*
X10746Y11496D1*
X14628D1*
Y22690D1*
X9392D1*
X9543Y22538D1*
X11005Y22539D1*
X11085Y22534D1*
X11142Y22518D1*
X11195Y22492D1*
X11235Y22462D1*
X11502D1*
X11500Y21838D1*
X11502Y21828D1*
Y21090D1*
X11445D1*
Y21021D1*
X11577D1*
X11575Y20200D1*
X11577Y20163D1*
Y19531D1*
X10795D1*
Y21021D1*
X10926D1*
X10927Y21089D1*
X10682Y21090D1*
Y21144D1*
X10137Y21143D1*
X10078Y21150D1*
X10023Y21170D1*
X9972Y21203D1*
X9870Y21303D1*
X9775Y21398D1*
X9738Y21444D1*
X9713Y21498D1*
X9700Y21557D1*
X9699Y21699D1*
Y21893D1*
X9408Y21892D1*
X9350Y21897D1*
X9293Y21913D1*
X9240Y21939D1*
X9180Y21987D1*
X8516Y22651D1*
X8484Y22690D1*
X4963D1*
X9280Y20105D2*
D14*
Y19715D1*
Y20105D2*
X9690D1*
X9280Y13008D2*
Y12228D1*
Y12618D2*
X9690D1*
X12000Y14443D2*
Y14033D1*
X11609Y14443D2*
X12000D1*
X11187D2*
Y14033D1*
X10797Y14443D2*
X11577D1*
X11215Y18583D2*
Y18173D1*
X10825D2*
X11605D1*
X13647Y13010D2*
Y12230D1*
Y12620D2*
X14057D1*
X13647Y14012D2*
Y13231D1*
Y13622D2*
X14057D1*
X11186Y19941D2*
Y19531D1*
X10796Y19941D2*
X11576D1*
X11999D2*
Y19531D1*
X11608Y19941D2*
X12389D1*
X5511Y21981D2*
Y20980D1*
Y14480D2*
Y13479D1*
X13919Y17103D2*
X14467D1*
X13919Y15568D2*
X14467D1*
X13919Y15312D2*
Y15040D1*
X13371Y15312D2*
X14467D1*
X11092Y21776D2*
X11502D1*
X11151Y13151D2*
X11561D1*
X5511Y21980D2*
Y19979D1*
X4511Y20980D2*
X5511D1*
X5510Y14479D2*
Y12478D1*
X4509Y13478D2*
X5510D1*
X10277Y20387D2*
D21*
X10358D1*
X10229Y20270D2*
X10391D1*
X10190Y20154D2*
X10390D1*
X10190Y20037D2*
X10386D1*
X10190Y19920D2*
X10384D1*
X10192Y19803D2*
X10382D1*
X10192Y19686D2*
X10379D1*
X10194Y19570D2*
X10377D1*
X10194Y19453D2*
X10373D1*
X10194Y19336D2*
X10371D1*
X10195Y19219D2*
X10369D1*
X10195Y19102D2*
X10366D1*
X10197Y18986D2*
X10364D1*
X10197Y18869D2*
X10362D1*
X10199Y18752D2*
X10358D1*
X10199Y18635D2*
X10356D1*
X10199Y18518D2*
X10353D1*
X10201Y18402D2*
X10351D1*
X10201Y18285D2*
X10349D1*
X10203Y18168D2*
X10345D1*
X10203Y18051D2*
X10343D1*
X10205Y17934D2*
X10342D1*
X10205Y17818D2*
X10338D1*
X10205Y17701D2*
X10336D1*
X10207Y17584D2*
X10334D1*
X10207Y17467D2*
X10331D1*
X10208Y17350D2*
X10329D1*
X10218Y17234D2*
X10345D1*
X10341Y17117D2*
X10465D1*
Y17000D2*
X10585D1*
X10590Y16883D2*
X10705D1*
X10714Y16766D2*
X10825D1*
X10838Y16650D2*
X10945D1*
X10961Y16533D2*
X11065D1*
X11085Y16416D2*
X11185D1*
X13277Y16338D2*
X13371Y16337D1*
Y16342D1*
X13118Y16345D1*
X13117Y16326D1*
X13141D1*
X13139Y16345D1*
X11746D1*
X11686Y16353D1*
X11648Y16365D1*
X11265Y16371D1*
X11227Y16387D1*
X10356Y17235D1*
X10339Y17277D1*
X10405Y20354D1*
X10295Y20461D1*
X10177Y20177D1*
X10197Y17243D1*
X11192Y16304D1*
X13117Y16326D1*
X13411Y15832D2*
D23*
X13501D1*
X13363Y15793D2*
X13501D1*
X13315Y15755D2*
X13492D1*
X13267Y15717D2*
X13461D1*
X13219Y15679D2*
X13429D1*
X13171Y15641D2*
X13397D1*
X13123Y15603D2*
X13366D1*
X13075Y15565D2*
X13334D1*
X13028Y15527D2*
X13303D1*
X12990Y15489D2*
X13271D1*
X12952Y15451D2*
X13240D1*
X12915Y15413D2*
X13208D1*
X12877Y15375D2*
X13176D1*
X12839Y15337D2*
X13145D1*
X12802Y15299D2*
X13110D1*
X12764Y15261D2*
X13072D1*
X12726Y15223D2*
X13034D1*
X12688Y15185D2*
X12996D1*
X12650Y15146D2*
X12958D1*
X12613Y15108D2*
X12920D1*
X12606Y15070D2*
X12882D1*
X12634Y15032D2*
X12844D1*
X12662Y14994D2*
X12805D1*
X12690Y14956D2*
X12767D1*
X13504Y15761D2*
Y15870D1*
X13455D1*
X13183Y15654D1*
X13028Y15531D1*
X12588Y15088D1*
X12614Y15054D1*
X12723Y14908D1*
X13134Y15319D1*
X13497Y15756D1*
X16663Y23640D2*
D24*
X16801D1*
X18664D2*
X18802D1*
X22665D2*
X22830D1*
X23693D2*
X23802D1*
X16663Y23483D2*
X16801D1*
X18664D2*
X18802D1*
X22665D2*
X22830D1*
X23693D2*
X23802D1*
X16663Y23327D2*
X16801D1*
X18664D2*
X18802D1*
X22665D2*
X22830D1*
X23693D2*
X23802D1*
X26663D2*
X26762D1*
X16663Y23171D2*
X16801D1*
X18664D2*
X18802D1*
X22665D2*
X22830D1*
X23693D2*
X23802D1*
X26663D2*
X26917D1*
X16663Y23015D2*
X16801D1*
X18664D2*
X18802D1*
X22665D2*
X22830D1*
X23693D2*
X23802D1*
X26663D2*
X27075D1*
X15982Y22859D2*
X16804D1*
X18366D2*
X20239D1*
X22844D2*
X23954D1*
X26046D2*
X27230D1*
X15982Y22703D2*
X16804D1*
X18560D2*
X19314D1*
X20022D2*
X20229D1*
X22844D2*
X23954D1*
X26046D2*
X27387D1*
X15982Y22546D2*
X16804D1*
X18718D2*
X19193D1*
X22844D2*
X23954D1*
X26046D2*
X27542D1*
X15982Y22390D2*
X16804D1*
X18873D2*
X19146D1*
X22844D2*
X23954D1*
X26046D2*
X27700D1*
X15982Y22234D2*
X16804D1*
X18961D2*
X19149D1*
X22844D2*
X23954D1*
X26046D2*
X27855D1*
X17168Y22078D2*
X17559D1*
X22844D2*
X23954D1*
X26023D2*
X28010D1*
X17168Y21922D2*
X17407D1*
X22844D2*
X23954D1*
X25895D2*
X28167D1*
X17168Y21766D2*
X17249D1*
X22844D2*
X23954D1*
X25740D2*
X28322D1*
X22844Y21609D2*
X23954D1*
X25583D2*
X26258D1*
X26867D2*
X28480D1*
X22844Y21453D2*
X23954D1*
X25428D2*
X26157D1*
X27689D2*
X28553D1*
X17168Y21297D2*
X17291D1*
X22714D2*
X23954D1*
X25270D2*
X26132D1*
X27847D2*
X28553D1*
X17168Y21141D2*
X17549D1*
X22711D2*
X23918D1*
X25115D2*
X25291D1*
X25959D2*
X26169D1*
X27925D2*
X28553D1*
X17168Y20985D2*
X17421D1*
X22655D2*
X23760D1*
X26041D2*
X26267D1*
X27955D2*
X28243D1*
X28381D2*
X28553D1*
X17168Y20829D2*
X17382D1*
X22502D2*
X23605D1*
X26053D2*
X26267D1*
X17168Y20672D2*
X17404D1*
X22347D2*
X23448D1*
X24645D2*
X24759D1*
X26004D2*
X26267D1*
X17168Y20516D2*
X17500D1*
X22190D2*
X23293D1*
X24490D2*
X24668D1*
X25915D2*
X26267D1*
X17168Y20360D2*
X18046D1*
X22035D2*
X23135D1*
X24333D2*
X24511D1*
X25834D2*
X26267D1*
X17168Y20204D2*
X18046D1*
X21877D2*
X22980D1*
X24178D2*
X24356D1*
X25679D2*
X26009D1*
X17168Y20048D2*
X18046D1*
X21690D2*
X22823D1*
X24023D2*
X24198D1*
X25521D2*
X26009D1*
X15982Y19892D2*
X22668D1*
X23865D2*
X24043D1*
X25366D2*
X26009D1*
X15986Y19735D2*
X16447D1*
X18341D2*
X22513D1*
X23710D2*
X23886D1*
X25209D2*
X26009D1*
X16132Y19579D2*
X16363D1*
X18341D2*
X22355D1*
X23553D2*
X23743D1*
X25108D2*
X26009D1*
X18341Y19423D2*
X22200D1*
X23398D2*
X23703D1*
X25108D2*
X26009D1*
X16301Y19267D2*
X16398D1*
X18341D2*
X22043D1*
X23240D2*
X23703D1*
X25108D2*
X26009D1*
X16301Y19111D2*
X16548D1*
X18341D2*
X21888D1*
X23085D2*
X23573D1*
X25238D2*
X26009D1*
X16301Y18955D2*
X16617D1*
X18344D2*
X21730D1*
X22928D2*
X23573D1*
X25238D2*
X26009D1*
X27677D2*
X27837D1*
X16301Y18798D2*
X16454D1*
X18344D2*
X21575D1*
X22773D2*
X23573D1*
X25238D2*
X27301D1*
X27354D2*
X27778D1*
X18344Y18642D2*
X21418D1*
X22615D2*
X23573D1*
X25238D2*
X26905D1*
X18344Y18486D2*
X21263D1*
X22460D2*
X23573D1*
X25238D2*
X26779D1*
X18344Y18330D2*
X21105D1*
X22303D2*
X23573D1*
X25238D2*
X26720D1*
X18344Y18174D2*
X20950D1*
X22148D2*
X23573D1*
X25238D2*
X26703D1*
X27953D2*
X28167D1*
X28454D2*
X28553D1*
X18344Y18018D2*
X20793D1*
X21990D2*
X23573D1*
X25238D2*
X26728D1*
X27928D2*
X28553D1*
X18344Y17861D2*
X20638D1*
X21835D2*
X23573D1*
X25238D2*
X26799D1*
X27857D2*
X28553D1*
X18344Y17705D2*
X20480D1*
X21680D2*
X23703D1*
X25238D2*
X26944D1*
X27711D2*
X28553D1*
X18344Y17549D2*
X20325D1*
X21523D2*
X23703D1*
X25108D2*
X26147D1*
X27409D2*
X28553D1*
X18341Y17393D2*
X20170D1*
X21368D2*
X23703D1*
X25108D2*
X25972D1*
X27586D2*
X28553D1*
X18341Y17237D2*
X20013D1*
X21210D2*
X23703D1*
X25071D2*
X25871D1*
X27684D2*
X28553D1*
X18341Y17081D2*
X19858D1*
X21055D2*
X23703D1*
X24928D2*
X25815D1*
X27741D2*
X27884D1*
X18341Y16924D2*
X19700D1*
X20898D2*
X23576D1*
X25051D2*
X25795D1*
X27763D2*
X27884D1*
X18341Y16768D2*
X19545D1*
X20743D2*
X23418D1*
X25268D2*
X25805D1*
X27751D2*
X27884D1*
X18322Y16612D2*
X19388D1*
X20585D2*
X23263D1*
X25423D2*
X25849D1*
X27706D2*
X27884D1*
X20430Y16456D2*
X23108D1*
X25580D2*
X25935D1*
X27620D2*
X27884D1*
X20273Y16300D2*
X22951D1*
X25735D2*
X26080D1*
X27475D2*
X27884D1*
X20118Y16144D2*
X22358D1*
X25856D2*
X26418D1*
X27138D2*
X27884D1*
X19960Y15987D2*
X22200D1*
X26105D2*
X26432D1*
X27483D2*
X27884D1*
X19805Y15831D2*
X22092D1*
X26105D2*
X26432D1*
X27704D2*
X27884D1*
X18836Y15675D2*
X22079D1*
X26105D2*
X26432D1*
X15406Y15519D2*
X15618D1*
X18681D2*
X22079D1*
X26105D2*
X26432D1*
X15406Y15363D2*
X15618D1*
X18523D2*
X22079D1*
X26105D2*
X26432D1*
X15406Y15207D2*
X15618D1*
X18322D2*
X22136D1*
X26105D2*
X26432D1*
X15406Y15050D2*
X15618D1*
X18334D2*
X22286D1*
X26105D2*
X26432D1*
X27711D2*
X28553D1*
X15406Y14894D2*
X16191D1*
X18334D2*
X22778D1*
X26105D2*
X26432D1*
X27483D2*
X28553D1*
X15406Y14738D2*
X16346D1*
X18334D2*
X24092D1*
X26105D2*
X26432D1*
X27483D2*
X28553D1*
X15406Y14582D2*
X16430D1*
X18334D2*
X24198D1*
X25681D2*
X28553D1*
X15406Y14426D2*
X16447D1*
X18334D2*
X24198D1*
X25524D2*
X28553D1*
X15406Y14270D2*
X16494D1*
X18248D2*
X24198D1*
X25369D2*
X28553D1*
X15406Y14113D2*
X16299D1*
X18248D2*
X24198D1*
X25211D2*
X28553D1*
X15406Y13957D2*
X16218D1*
X18248D2*
X24198D1*
X25051D2*
X28553D1*
X15406Y13801D2*
X16196D1*
X18248D2*
X24198D1*
X25051D2*
X25384D1*
X27106D2*
X28553D1*
X15406Y13645D2*
X16223D1*
X18248D2*
X24198D1*
X15406Y13489D2*
X16307D1*
X18248D2*
X24198D1*
X15406Y13333D2*
X16516D1*
X16929D2*
X17198D1*
X18248D2*
X24198D1*
X15406Y13176D2*
X24198D1*
X15406Y13020D2*
X24198D1*
X25051D2*
X25384D1*
X27106D2*
X27884D1*
X15406Y12864D2*
X24198D1*
X25051D2*
X26472D1*
X27099D2*
X27884D1*
X15406Y12708D2*
X24198D1*
X25051D2*
X26098D1*
X27470D2*
X27884D1*
X15406Y12552D2*
X24198D1*
X25051D2*
X25948D1*
X27623D2*
X27884D1*
X15406Y12395D2*
X24198D1*
X25051D2*
X25859D1*
X27709D2*
X27884D1*
X15406Y12239D2*
X25815D1*
X27756D2*
X27884D1*
X15406Y12083D2*
X25800D1*
X27770D2*
X27884D1*
X15406Y11927D2*
X25820D1*
X27751D2*
X27884D1*
X15406Y11771D2*
X25874D1*
X27697D2*
X27884D1*
X15406Y11615D2*
X25970D1*
X27598D2*
X27884D1*
X15406Y11458D2*
X26142D1*
X27428D2*
X28553D1*
X15406Y11302D2*
X28553D1*
X15406Y11146D2*
X28553D1*
X15406Y10990D2*
X28553D1*
X15406Y10834D2*
X28553D1*
X4344Y10678D2*
X9715D1*
X10450D2*
X28553D1*
X4344Y10521D2*
X9717D1*
X10605D2*
X28553D1*
X4344Y10365D2*
X9769D1*
X10763D2*
X28553D1*
X4344Y10209D2*
X9912D1*
X10918D2*
X28457D1*
X4344Y10053D2*
X10067D1*
X11075D2*
X28302D1*
X4344Y9897D2*
X10224D1*
X11230D2*
X28145D1*
X4344Y9741D2*
X10379D1*
X4344Y9584D2*
X10537D1*
X4344Y9428D2*
X5972D1*
X6648D2*
X8091D1*
X9264D2*
X10692D1*
X28929D2*
X29156D1*
X4344Y9272D2*
X5657D1*
X6966D2*
X7867D1*
X9488D2*
X10849D1*
X28772D2*
X29156D1*
X4344Y9116D2*
X5480D1*
X7140D2*
X7719D1*
X9636D2*
X11046D1*
X28617D2*
X29156D1*
X4344Y8960D2*
X5362D1*
X7259D2*
X7616D1*
X9739D2*
X20596D1*
X23295D2*
X29156D1*
X4344Y8804D2*
X5281D1*
X7340D2*
X7542D1*
X9813D2*
X11878D1*
X13282D2*
X13610D1*
X15015D2*
X20751D1*
X23295D2*
X29156D1*
X4344Y8647D2*
X5229D1*
X7394D2*
X7493D1*
X9859D2*
X11878D1*
X13282D2*
X13544D1*
X15093D2*
X20753D1*
X23295D2*
X29156D1*
X4344Y8491D2*
X5200D1*
X9887D2*
X10761D1*
X11680D2*
X11878D1*
X13282D2*
X13475D1*
X15179D2*
X19742D1*
X23260D2*
X29156D1*
X4344Y8335D2*
X5195D1*
X9891D2*
X10761D1*
X13282D2*
X13406D1*
X15265D2*
X18787D1*
X23122D2*
X29156D1*
X4344Y8179D2*
X5212D1*
X9877D2*
X10761D1*
X15349D2*
X18787D1*
X22965D2*
X29156D1*
X4344Y8023D2*
X5254D1*
X7369D2*
X7515D1*
X9840D2*
X10761D1*
X15416D2*
X18787D1*
X22810D2*
X29156D1*
X4344Y7867D2*
X5320D1*
X7303D2*
X7574D1*
X9778D2*
X10761D1*
X15418D2*
X18787D1*
X22652D2*
X29156D1*
X4344Y7710D2*
X5419D1*
X7204D2*
X7663D1*
X9692D2*
X10761D1*
X15418D2*
X18787D1*
X22497D2*
X29156D1*
X4344Y7554D2*
X5564D1*
X9808D2*
X10761D1*
X15418D2*
X17928D1*
X22340D2*
X29156D1*
X4344Y7398D2*
X5790D1*
X9916D2*
X10761D1*
X15418D2*
X17832D1*
X22185D2*
X29156D1*
X4344Y7242D2*
X6641D1*
X9960D2*
X10761D1*
X15418D2*
X17832D1*
X22027D2*
X29156D1*
X4344Y7086D2*
X6531D1*
X8454D2*
X8802D1*
X9963D2*
X10687D1*
X15418D2*
X17791D1*
X21872D2*
X29156D1*
X4344Y6930D2*
X6454D1*
X8531D2*
X8910D1*
X9963D2*
X10687D1*
X15418D2*
X17791D1*
X21921D2*
X29156D1*
X4344Y6773D2*
X6405D1*
X8580D2*
X8910D1*
X9963D2*
X10687D1*
X15418D2*
X17791D1*
X22027D2*
X29156D1*
X4344Y6617D2*
X6381D1*
X8605D2*
X8910D1*
X15418D2*
X17791D1*
X22054D2*
X29156D1*
X4344Y6461D2*
X4688D1*
X5942D2*
X6378D1*
X8607D2*
X8910D1*
X15418D2*
X17791D1*
X22022D2*
X27520D1*
X28779D2*
X29156D1*
X4344Y6305D2*
X4459D1*
X6171D2*
X6398D1*
X8587D2*
X8910D1*
X15418D2*
X17791D1*
X22104D2*
X27291D1*
X29008D2*
X29156D1*
X6328Y6149D2*
X6442D1*
X8543D2*
X8910D1*
X14062D2*
X14205D1*
X15418D2*
X17791D1*
X23009D2*
X27136D1*
X8472Y5993D2*
X8910D1*
X14062D2*
X14205D1*
X15418D2*
X17791D1*
X23009D2*
X27023D1*
X6520Y5836D2*
X6617D1*
X8368D2*
X8910D1*
X14062D2*
X14205D1*
X15418D2*
X17791D1*
X20706D2*
X21445D1*
X23009D2*
X26942D1*
X6579Y5680D2*
X6769D1*
X8216D2*
X8910D1*
X14062D2*
X14205D1*
X15418D2*
X17791D1*
X23009D2*
X26885D1*
X6614Y5524D2*
X7015D1*
X7970D2*
X8910D1*
X14062D2*
X14210D1*
X15413D2*
X17791D1*
X23009D2*
X26851D1*
X6631Y5368D2*
X8910D1*
X14062D2*
X14328D1*
X15295D2*
X17842D1*
X19938D2*
X20024D1*
X21471D2*
X26833D1*
X6626Y5212D2*
X8910D1*
X14062D2*
X17798D1*
X19837D2*
X20025D1*
X23053D2*
X26838D1*
X6604Y5056D2*
X8910D1*
X11936D2*
X12813D1*
X14062D2*
X17712D1*
X18654D2*
X18787D1*
X19837D2*
X20025D1*
X23053D2*
X26860D1*
X6562Y4899D2*
X13010D1*
X13868D2*
X17695D1*
X18553D2*
X18787D1*
X19837D2*
X20025D1*
X23053D2*
X26902D1*
X6498Y4743D2*
X13056D1*
X13821D2*
X17741D1*
X18506D2*
X18787D1*
X19837D2*
X21218D1*
X23053D2*
X26966D1*
X6410Y4587D2*
X13199D1*
X13676D2*
X17887D1*
X18363D2*
X18787D1*
X19837D2*
X21489D1*
X23053D2*
X27057D1*
X6287Y4431D2*
X27180D1*
X18327Y19087D2*
Y17490D1*
X18326Y17440D1*
Y16711D1*
X18306D1*
Y16591D1*
X19383Y16592D1*
X23970Y21178D1*
Y22885D1*
X23816D1*
Y23734D1*
X23677Y23733D1*
Y22885D1*
X22846D1*
Y23734D1*
X22648Y23733D1*
Y22944D1*
X22829Y22943D1*
X22827Y22080D1*
X22829Y22116D1*
Y21411D1*
X22699D1*
X22697Y21155D1*
X22686Y21077D1*
X22653Y21003D1*
X22624Y20966D1*
X21769Y20110D1*
X21706Y20063D1*
X21630Y20035D1*
X21584Y20028D1*
X19280D1*
X19279Y19975D1*
X18062D1*
Y20477D1*
X17986Y20431D1*
X17912Y20405D1*
X17834Y20394D1*
X17755Y20397D1*
X17679Y20415D1*
X17607Y20447D1*
X17543Y20492D1*
X17488Y20549D1*
X17445Y20615D1*
X17415Y20687D1*
X17399Y20764D1*
Y20843D1*
X17413Y20920D1*
X17441Y20994D1*
X17483Y21060D1*
X17536Y21118D1*
X17578Y21148D1*
X17493Y21167D1*
X17422Y21199D1*
X17357Y21244D1*
X17302Y21301D1*
X17259Y21367D1*
X17229Y21439D1*
X17214Y21516D1*
X17213Y21595D1*
X17227Y21672D1*
X17255Y21746D1*
X17297Y21812D1*
X17351Y21870D1*
X17414Y21916D1*
X17485Y21950D1*
X17550Y21971D1*
X17576Y21997D1*
X17574Y22146D1*
X16819D1*
X16816Y23734D1*
X16649Y23733D1*
X16648Y22885D1*
X15966D1*
X15967Y22141D1*
X17153D1*
Y19975D1*
X15966D1*
X15967Y19740D1*
X16072Y19635D1*
X16120Y19572D1*
X16148Y19496D1*
X16286Y19494D1*
X16284Y18631D1*
X16305Y18633D1*
X16591Y18920D1*
X16652Y18968D1*
X16726Y19003D1*
X16777Y19016D1*
X16721Y19054D1*
X16645Y19073D1*
X16573Y19105D1*
X16509Y19150D1*
X16454Y19206D1*
X16411Y19272D1*
X16381Y19345D1*
X16365Y19422D1*
Y19500D1*
X16379Y19578D1*
X16407Y19651D1*
X16449Y19718D1*
X16502Y19775D1*
X16565Y19822D1*
X16637Y19856D1*
X16713Y19875D1*
X16813Y19878D1*
X17657Y19875D1*
X17668Y19877D1*
X18327D1*
Y19087D1*
X8929Y5708D2*
X8927Y5866D1*
X8929Y6650D1*
X8927Y6809D1*
Y6974D1*
X8726Y7176D1*
X8592Y7178D1*
X8437Y7199D1*
X8344Y7223D1*
X8424Y7109D1*
X8485Y6999D1*
X8533Y6882D1*
X8567Y6761D1*
X8587Y6637D1*
X8594Y6508D1*
X8582Y6367D1*
X8557Y6243D1*
X8518Y6124D1*
X8465Y6009D1*
X8400Y5901D1*
X8323Y5802D1*
X8235Y5711D1*
X8138Y5632D1*
X8032Y5564D1*
X7918Y5509D1*
X7800Y5467D1*
X7677Y5438D1*
X7552Y5424D1*
X7426Y5425D1*
X7301Y5440D1*
X7178Y5468D1*
X7060Y5511D1*
X6947Y5567D1*
X6842Y5636D1*
X6744Y5716D1*
X6657Y5806D1*
X6581Y5907D1*
X6516Y6015D1*
X6464Y6129D1*
X6426Y6249D1*
X6402Y6373D1*
X6392Y6498D1*
X6396Y6624D1*
X6415Y6749D1*
X6447Y6870D1*
X6494Y6987D1*
X6553Y7098D1*
X6625Y7202D1*
X6708Y7296D1*
X6802Y7381D1*
X6837Y7409D1*
X6723Y7355D1*
X6604Y7315D1*
X6480Y7288D1*
X6338Y7274D1*
X6229Y7278D1*
X6104Y7295D1*
X5982Y7325D1*
X5864Y7370D1*
X5752Y7427D1*
X5648Y7497D1*
X5552Y7579D1*
X5466Y7671D1*
X5391Y7772D1*
X5328Y7881D1*
X5278Y7997D1*
X5241Y8117D1*
X5219Y8241D1*
X5210Y8367D1*
X5216Y8492D1*
X5237Y8617D1*
X5271Y8738D1*
X5319Y8854D1*
X5381Y8964D1*
X5454Y9067D1*
X5538Y9160D1*
X5633Y9243D1*
X5736Y9315D1*
X5847Y9374D1*
X5964Y9421D1*
X6086Y9454D1*
X6210Y9472D1*
X6336Y9476D1*
X6462Y9466D1*
X6585Y9442D1*
X6705Y9404D1*
X6820Y9352D1*
X6928Y9287D1*
X7028Y9211D1*
X7119Y9124D1*
X7199Y9027D1*
X7268Y8921D1*
X7323Y8808D1*
X7366Y8690D1*
X7395Y8567D1*
X7410Y8442D1*
Y8313D1*
X7396Y8188D1*
X7367Y8065D1*
X7325Y7947D1*
X7269Y7834D1*
X7201Y7728D1*
X7121Y7631D1*
X7031Y7543D1*
X6972Y7494D1*
X7086Y7547D1*
X7206Y7587D1*
X7329Y7612D1*
X7454Y7624D1*
X7580Y7621D1*
X7705Y7604D1*
X7769Y7590D1*
X7675Y7716D1*
X7597Y7853D1*
X7538Y7999D1*
X7499Y8151D1*
X7480Y8307D1*
X7481Y8465D1*
X7504Y8621D1*
X7546Y8772D1*
X7608Y8917D1*
X7688Y9052D1*
X7785Y9176D1*
X7898Y9286D1*
X8024Y9380D1*
X8161Y9457D1*
X8308Y9515D1*
X8460Y9553D1*
X8629Y9572D1*
X8774Y9569D1*
X8930Y9546D1*
X9081Y9503D1*
X9225Y9441D1*
X9360Y9360D1*
X9483Y9262D1*
X9593Y9148D1*
X9686Y9022D1*
X9762Y8884D1*
X9820Y8738D1*
X9858Y8585D1*
X9875Y8429D1*
X9874Y8295D1*
X9853Y8139D1*
X9812Y7987D1*
X9752Y7842D1*
X9673Y7706D1*
X9660Y7688D1*
X9798Y7548D1*
X9849Y7488D1*
X9890Y7421D1*
X9921Y7349D1*
X9940Y7272D1*
X9947Y7187D1*
Y6687D1*
X10437Y6689D1*
X10515Y6683D1*
X10592Y6665D1*
X10654Y6641D1*
X10703Y6636D1*
Y7145D1*
X10775D1*
X10778Y7869D1*
X10775Y7832D1*
Y8538D1*
X11599D1*
Y8511D1*
X11648Y8497D1*
X11719Y8465D1*
X11809Y8397D1*
X11892Y8319D1*
Y8874D1*
X13267D1*
Y7990D1*
X13617Y8776D1*
X13625Y8874D1*
X13706D1*
X13800Y8902D1*
X14812D1*
X14891Y8886D1*
X14916Y8875D1*
X14999Y8874D1*
X15001Y8790D1*
X15376Y8102D1*
X15400Y8026D1*
X15402Y7842D1*
Y5562D1*
X15386Y5483D1*
X15362Y5425D1*
Y5388D1*
X15315D1*
X15232Y5352D1*
X15108Y5347D1*
X14437D1*
X14358Y5363D1*
X14382Y5354D1*
X14311Y5388D1*
X14257Y5445D1*
X14227Y5517D1*
X14222Y5641D1*
X14220Y6283D1*
X14045Y6341D1*
X14047Y6236D1*
X14044Y5479D1*
X14047Y5409D1*
Y4979D1*
X13852D1*
X13845Y4859D1*
X13823Y4783D1*
X13788Y4713D1*
X13739Y4651D1*
X13680Y4600D1*
X13612Y4560D1*
X13538Y4534D1*
X13460Y4523D1*
X13381Y4526D1*
X13305Y4544D1*
X13233Y4576D1*
X13169Y4621D1*
X13114Y4678D1*
X13071Y4744D1*
X13041Y4816D1*
X13025Y4893D1*
X13026Y4979D1*
X12829D1*
Y5178D1*
X11920D1*
X11921Y4979D1*
X10850D1*
X10849Y4943D1*
X10025D1*
Y5669D1*
X9947Y5666D1*
Y4960D1*
X8927D1*
Y5902D1*
X19822Y5270D2*
X19820Y5216D1*
X19822Y5205D1*
Y4468D1*
X18802D1*
Y5224D1*
X18715Y5222D1*
X18688Y5126D1*
X18635Y5052D1*
X18539Y4956D1*
X18532Y4859D1*
X18510Y4783D1*
X18474Y4713D1*
X18426Y4651D1*
X18366Y4600D1*
X18298Y4560D1*
X18224Y4534D1*
X18146Y4523D1*
X18068Y4526D1*
X17991Y4544D1*
X17920Y4576D1*
X17855Y4621D1*
X17800Y4678D1*
X17757Y4744D1*
X17728Y4816D1*
X17712Y4893D1*
X17711Y4972D1*
X17725Y5049D1*
X17753Y5123D1*
X17795Y5189D1*
X17849Y5247D1*
X17906Y5289D1*
X17870Y5342D1*
X17805Y5388D1*
Y7236D1*
X17847D1*
Y7375D1*
X17861Y7451D1*
X17902Y7518D1*
X17964Y7566D1*
X18042Y7588D1*
X18803Y7589D1*
X18802Y8378D1*
Y8406D1*
X19725D1*
X19729Y8430D1*
X19763Y8501D1*
X19820Y8555D1*
X19892Y8585D1*
X20016Y8589D1*
X20562D1*
X20639Y8575D1*
X20707Y8532D1*
X20690Y8547D1*
X20770Y8520D1*
Y8803D1*
X20547Y9024D1*
X20445Y9069D1*
X20411Y9093D1*
X18622Y9092D1*
X11187D1*
X11109Y9101D1*
X11035Y9127D1*
X10967Y9172D1*
X10832Y9305D1*
X9832Y10304D1*
X9783Y10366D1*
X9749Y10437D1*
X9733Y10516D1*
X9731Y10706D1*
Y10733D1*
X4328D1*
Y6159D1*
X4403Y6241D1*
X4522Y6344D1*
X4652Y6432D1*
X4792Y6504D1*
X4940Y6559D1*
X5093Y6595D1*
X5249Y6612D1*
X5407Y6611D1*
X5563Y6590D1*
X5715Y6551D1*
X5862Y6493D1*
X6000Y6419D1*
X6129Y6328D1*
X6245Y6222D1*
X6348Y6103D1*
X6436Y5973D1*
X6508Y5832D1*
X6561Y5684D1*
X6597Y5531D1*
X6614Y5375D1*
X6613Y5235D1*
X6594Y5079D1*
X6556Y4926D1*
X6500Y4779D1*
X6427Y4639D1*
X6338Y4510D1*
X6233Y4392D1*
X6162Y4327D1*
X15784Y4328D1*
X27303D1*
X27225Y4400D1*
X27122Y4518D1*
X27033Y4648D1*
X26961Y4788D1*
X26906Y4936D1*
X26869Y5089D1*
X26851Y5245D1*
X26852Y5402D1*
X26872Y5559D1*
X26911Y5711D1*
X26968Y5858D1*
X27042Y5997D1*
X27132Y6125D1*
X27238Y6242D1*
X27356Y6346D1*
X27487Y6434D1*
X27627Y6506D1*
X27774Y6560D1*
X27928Y6596D1*
X28084Y6614D1*
X28241Y6612D1*
X28397Y6592D1*
X28550Y6552D1*
X28696Y6495D1*
X28835Y6420D1*
X28963Y6329D1*
X29080Y6224D1*
X29172Y6118D1*
X29171Y7156D1*
Y9688D1*
X28617Y9132D1*
X28557Y9082D1*
X28488Y9043D1*
X28414Y9018D1*
X28312Y9006D1*
X23280D1*
X23279Y8625D1*
X23268Y8547D1*
X23235Y8473D1*
X23207Y8436D1*
X21779Y7009D1*
X21859Y6967D1*
X21919Y6916D1*
X21969Y6856D1*
X22007Y6786D1*
X22030Y6711D1*
X22039Y6625D1*
X22032Y6546D1*
X22010Y6471D1*
X21980Y6412D1*
X22072Y6322D1*
X22120Y6257D1*
X22146Y6224D1*
X22994D1*
Y5400D1*
X21461D1*
Y6033D1*
X21456Y5881D1*
X20789Y5883D1*
X20705Y5881D1*
X20700Y5860D1*
X20659Y5793D1*
X20597Y5746D1*
X20520Y5723D1*
X20276Y5722D1*
X20278Y5681D1*
X20708Y5679D1*
X20967Y5681D1*
X21082Y5679D1*
X21341Y5681D1*
X21456D1*
Y5314D1*
X21507Y5261D1*
X21505Y5349D1*
X22368Y5346D1*
X22380Y5349D1*
X23038D1*
Y4525D1*
X21505D1*
Y4656D1*
X21435Y4657D1*
X21357Y4668D1*
X21284Y4702D1*
X21247Y4730D1*
X21159Y4817D1*
X20789Y4820D1*
X20530Y4818D1*
X20415Y4820D1*
X20156Y4818D1*
X20041D1*
Y5490D1*
X19822Y5268D1*
Y5221D1*
X27979Y13119D2*
X28031D1*
X27997Y13137D1*
X27089D1*
Y12907D1*
X26148Y12910D1*
X26184Y12907D1*
X25400D1*
Y13136D1*
X25101Y13139D1*
X25034D1*
X25036Y13039D1*
Y12318D1*
X24213D1*
Y13850D1*
X25036D1*
Y13700D1*
X25400Y13699D1*
Y13928D1*
X26341Y13925D1*
X26305Y13928D1*
X27089D1*
X27091Y13697D1*
X28570D1*
X28568Y14047D1*
Y15157D1*
X27803D1*
X27635Y14989D1*
X27572Y14942D1*
X27496Y14914D1*
X27525Y14922D1*
X27467Y14853D1*
Y14738D1*
X26447D1*
X26449Y15561D1*
X26447Y15525D1*
Y16113D1*
X27467D1*
Y15977D1*
X27547Y15952D1*
X27621Y15899D1*
X27804Y15716D1*
X27901Y15717D1*
X27900Y16556D1*
Y17225D1*
X28568D1*
Y18225D1*
X28509Y18196D1*
X28435Y18172D1*
X28357Y18160D1*
X28278Y18159D1*
X28200Y18170D1*
X28125Y18192D1*
X28053Y18225D1*
X27988Y18269D1*
X27918Y18334D1*
X27935Y18235D1*
X27931Y18111D1*
X27916Y18034D1*
X27891Y17960D1*
X27857Y17889D1*
X27813Y17823D1*
X27762Y17764D1*
X27703Y17711D1*
X27638Y17667D1*
X27568Y17631D1*
X27494Y17605D1*
X27417Y17588D1*
X27341Y17582D1*
X27455Y17506D1*
X27523Y17445D1*
X27589Y17369D1*
X27645Y17285D1*
X27690Y17194D1*
X27722Y17098D1*
X27741Y16999D1*
X27748Y16898D1*
X27741Y16797D1*
X27721Y16698D1*
X27688Y16603D1*
X27643Y16512D1*
X27586Y16428D1*
X27519Y16353D1*
X27443Y16286D1*
X27359Y16230D1*
X27268Y16186D1*
X27172Y16154D1*
X27073Y16135D1*
X26975Y16128D1*
X26523Y16131D1*
X26457Y16139D1*
X26358Y16162D1*
X26264Y16197D1*
X26175Y16245D1*
X26092Y16304D1*
X26019Y16373D1*
X25954Y16451D1*
X25901Y16536D1*
X25859Y16628D1*
X25830Y16725D1*
X25813Y16825D1*
X25810Y16926D1*
X25820Y17026D1*
X25843Y17125D1*
X25878Y17219D1*
X25926Y17308D1*
X25985Y17390D1*
X26054Y17464D1*
X26132Y17528D1*
X26217Y17582D1*
X26309Y17623D1*
X26406Y17653D1*
X26506Y17669D1*
X26582Y17673D1*
X27009Y17672D1*
X26909Y17748D1*
X26856Y17806D1*
X26810Y17870D1*
X26773Y17939D1*
X26745Y18013D1*
X26727Y18089D1*
X26719Y18168D1*
X26722Y18246D1*
X26734Y18324D1*
X26756Y18399D1*
X26788Y18471D1*
X26829Y18539D1*
X26878Y18600D1*
X26935Y18655D1*
X26998Y18702D1*
X27067Y18740D1*
X27140Y18769D1*
X27216Y18788D1*
X27294Y18798D1*
X27373Y18797D1*
X27451Y18786D1*
X27527Y18765D1*
X27599Y18735D1*
X27667Y18695D1*
X27729Y18647D1*
X27793Y18582D1*
X27782Y18677D1*
X27786Y18755D1*
X27802Y18832D1*
X27829Y18906D1*
X27865Y18973D1*
X27662Y18970D1*
X27661Y18805D1*
X26298Y18802D1*
X26025D1*
X26028Y19665D1*
X26025Y19629D1*
Y20335D1*
X26284D1*
X26282Y21005D1*
X26238Y21053D1*
X26195Y21119D1*
X26165Y21191D1*
X26149Y21268D1*
Y21347D1*
X26163Y21424D1*
X26191Y21498D1*
X26233Y21564D1*
X26286Y21622D1*
X26349Y21668D1*
X26420Y21702D1*
X26497Y21722D1*
X26575Y21727D1*
X26653Y21717D1*
X26728Y21692D1*
X26797Y21654D1*
X26857Y21604D1*
X26907Y21543D1*
X26944Y21474D1*
X26958Y21429D1*
X27002Y21461D1*
X27070Y21500D1*
X27144Y21529D1*
X27220Y21548D1*
X27298Y21558D1*
X27377Y21557D1*
X27455Y21546D1*
X27530Y21525D1*
X27603Y21495D1*
X27671Y21455D1*
X27733Y21407D1*
X27789Y21351D1*
X27837Y21289D1*
X27877Y21221D1*
X27907Y21148D1*
X27928Y21073D1*
X27940Y20950D1*
X27935Y20871D1*
X27925Y20821D1*
X27970Y20863D1*
X28034Y20909D1*
X28104Y20945D1*
X28178Y20970D1*
X28256Y20984D1*
X28334Y20987D1*
X28413Y20978D1*
X28488Y20957D1*
X28567Y20922D1*
X28568Y21537D1*
X26647Y23458D1*
X26648Y23000D1*
Y22885D1*
X26029D1*
Y22187D1*
X26018Y22109D1*
X25985Y22036D1*
X25957Y21999D1*
X19760Y15802D1*
X19697Y15754D1*
X19621Y15726D1*
X19575Y15720D1*
X18866D1*
X18511Y15365D1*
X18448Y15318D1*
X18372Y15290D1*
X18326Y15283D1*
X18306D1*
Y15190D1*
X18319Y15191D1*
Y14367D1*
X18090D1*
X18157Y14316D1*
X18233D1*
Y13296D1*
X17212D1*
X17209Y13651D1*
X17179Y13578D1*
X17139Y13511D1*
X17088Y13450D1*
X17029Y13398D1*
X16963Y13356D1*
X16891Y13324D1*
X16815Y13304D1*
X16737Y13296D1*
X16658Y13300D1*
X16581Y13316D1*
X16507Y13343D1*
X16439Y13382D1*
X16377Y13431D1*
X16323Y13488D1*
X16279Y13553D1*
X16246Y13625D1*
X16223Y13700D1*
X16213Y13778D1*
X16215Y13857D1*
X16229Y13934D1*
X16254Y14008D1*
X16291Y14078D1*
X16338Y14141D1*
X16394Y14196D1*
X16458Y14242D1*
X16563Y14289D1*
X16526Y14327D1*
X16479Y14389D1*
X16451Y14465D1*
X16445Y14511D1*
X16444Y14655D1*
X16083Y15017D1*
X15634Y15018D1*
X15633Y15547D1*
X15552Y15573D1*
X15477Y15626D1*
X15392Y15711D1*
X15391Y14599D1*
Y10812D1*
X15352Y10746D1*
X15312Y10733D1*
X10423D1*
X10421Y10689D1*
X10932Y10180D1*
X11331Y9781D1*
X20412Y9782D1*
X20499Y9834D1*
X20574Y9858D1*
X20669Y9869D1*
X28135D1*
X28569Y10304D1*
X28568Y11589D1*
X28535Y11586D1*
X27900D1*
Y13119D1*
X27979D1*
X25849Y16113D2*
X26089D1*
X26087Y15289D1*
X26089Y15325D1*
Y14738D1*
X25811D1*
X25777Y14694D1*
X25197Y14114D1*
X25135Y14067D1*
X25059Y14039D1*
X25087Y14047D1*
X25036Y13956D1*
Y13881D1*
X24213D1*
Y14703D1*
X24124Y14730D1*
X24049Y14783D1*
X23950Y14883D1*
X23661Y14881D1*
X23663Y15469D1*
X23661Y15630D1*
Y15829D1*
X23579Y15744D1*
X23577Y15393D1*
X23579Y15363D1*
Y14881D1*
X22795D1*
X22793Y14895D1*
X22574D1*
X22496Y14906D1*
X22423Y14940D1*
X22385Y14968D1*
X22177Y15177D1*
X22129Y15239D1*
X22101Y15315D1*
X22095Y15361D1*
Y15750D1*
X22106Y15827D1*
X22139Y15901D1*
X22167Y15938D1*
X22364Y16135D1*
X22427Y16182D1*
X22503Y16210D1*
X22549Y16217D1*
X22884D1*
X23719Y17052D1*
X23720Y17712D1*
X23588Y17711D1*
X23590Y18574D1*
X23588Y18538D1*
Y19244D1*
X23718D1*
X23720Y19437D1*
X23731Y19515D1*
X23764Y19588D1*
X23792Y19625D1*
X24774Y20608D1*
Y20659D1*
X24788Y20737D1*
X24816Y20810D1*
X24858Y20877D1*
X24911Y20934D1*
X24974Y20981D1*
X25045Y21015D1*
X25122Y21034D1*
X25200Y21039D1*
X25241Y21034D1*
X25295Y21127D1*
X25349Y21184D1*
X25412Y21231D1*
X25483Y21265D1*
X25559Y21284D1*
X25638Y21289D1*
X25716Y21279D1*
X25790Y21255D1*
X25859Y21217D1*
X25919Y21166D1*
X25969Y21106D1*
X26007Y21036D1*
X26030Y20961D1*
X26039Y20875D1*
X26032Y20796D1*
X26010Y20721D1*
X25974Y20651D1*
X25905Y20571D1*
X25893Y20484D1*
X25860Y20411D1*
X25832Y20374D1*
X25093Y19635D1*
X25092Y19225D1*
X25224D1*
X25221Y18362D1*
X25224Y18399D1*
Y17693D1*
X25093D1*
X25092Y17375D1*
X25081Y17297D1*
X25047Y17223D1*
X25019Y17186D1*
X24827Y16994D1*
X25036D1*
Y16843D1*
X25140Y16831D1*
X25213Y16797D1*
X25250Y16769D1*
X25777Y16243D1*
X25825Y16178D1*
X25844Y16135D1*
X25845Y16133D1*
X18648Y23731D2*
Y22885D1*
X18350D1*
X18372Y22827D1*
X18445Y22793D1*
X18483Y22765D1*
X18868Y22380D1*
X18915Y22317D1*
X18943Y22241D1*
X18950Y22195D1*
Y22140D1*
X19191Y22141D1*
X19168Y22215D1*
X19157Y22308D1*
X19164Y22403D1*
X19187Y22494D1*
X19227Y22579D1*
X19283Y22656D1*
X19351Y22721D1*
X19430Y22772D1*
X19517Y22808D1*
X19609Y22828D1*
X19704Y22830D1*
X19797Y22814D1*
X19886Y22782D1*
X19967Y22734D1*
X20038Y22672D1*
X20096Y22598D1*
X20112Y22570D1*
X20241Y22699D1*
X20256Y22788D1*
X20254Y22885D1*
X19816D1*
Y22997D1*
X19738Y22986D1*
X19648Y22992D1*
Y22885D1*
X18816D1*
Y23733D1*
X18647D1*
X26903Y11326D2*
X26529Y11329D1*
X26463Y11336D1*
X26365Y11359D1*
X26270Y11395D1*
X26181Y11442D1*
X26099Y11501D1*
X26025Y11570D1*
X25961Y11648D1*
X25907Y11734D1*
X25866Y11826D1*
X25836Y11922D1*
X25820Y12022D1*
X25816Y12123D1*
X25826Y12224D1*
X25849Y12322D1*
X25885Y12416D1*
X25932Y12506D1*
X25991Y12588D1*
X26060Y12661D1*
X26138Y12726D1*
X26224Y12779D1*
X26316Y12821D1*
X26412Y12850D1*
X26512Y12867D1*
X26588Y12871D1*
X27040Y12868D1*
X27106Y12860D1*
X27205Y12837D1*
X27299Y12802D1*
X27389Y12754D1*
X27471Y12695D1*
X27545Y12626D1*
X27609Y12548D1*
X27662Y12463D1*
X27704Y12371D1*
X27733Y12274D1*
X27750Y12174D1*
X27753Y12073D1*
X27743Y11973D1*
X27720Y11874D1*
X27685Y11780D1*
X27637Y11691D1*
X27578Y11609D1*
X27509Y11535D1*
X27431Y11471D1*
X27346Y11417D1*
X27254Y11376D1*
X27157Y11346D1*
X27057Y11330D1*
X26981Y11326D1*
X26903D1*
X17896Y18676D2*
D14*
X18327D1*
X17895Y19877D2*
Y19466D1*
X18326D1*
X17896Y17902D2*
X18327D1*
X17250Y22558D2*
Y22147D1*
X16819Y22558D2*
X17250D1*
X9437Y5431D2*
Y4961D1*
X8927Y5431D2*
X9947D1*
X19312Y4939D2*
Y4468D1*
X18802Y4939D2*
X19822D1*
X19312Y8406D2*
Y7935D1*
X18802D2*
X19312D1*
X28312Y12018D2*
Y11587D1*
X27900Y12018D2*
X28312D1*
Y17225D2*
Y16794D1*
X27901D2*
X28312D1*
X12580Y8874D2*
Y8187D1*
X13267D1*
X19232Y23455D2*
Y22886D1*
X18817Y23455D2*
X19232D1*
X26232D2*
Y22886D1*
Y23455D2*
X26648D1*
X19667Y22831D2*
Y22321D1*
X19157D2*
X19667D1*
X6312Y8375D2*
Y7274D1*
X7493Y6524D2*
X8594D1*
X17894Y17123D2*
X18325D1*
X22606Y5349D2*
Y4525D1*
Y4937D2*
X23037D1*
X22562Y6224D2*
Y5400D1*
Y5812D2*
X22993D1*
X24625Y12750D2*
Y12318D1*
X24213Y12750D2*
X25036D1*
X15634Y15568D2*
X16203D1*
X13438Y6312D2*
X14046D1*
X12375Y6023D2*
Y5178D1*
X16544Y22141D2*
Y21808D1*
X17153D1*
X16544Y21308D2*
X17153D1*
X16544Y20808D2*
X17153D1*
X16544Y20308D2*
Y19975D1*
Y20308D2*
X17153D1*
X23187Y15431D2*
X23579D1*
X6311Y9476D2*
Y7275D1*
X5211Y8376D2*
X7412D1*
X7492Y7624D2*
Y5423D1*
X6392Y6524D2*
X8593D1*
X10390Y11513D2*
D22*
X11199D1*
X10390Y11436D2*
X11091D1*
X10390Y11358D2*
X11091D1*
X10390Y11281D2*
X11091D1*
X10390Y11203D2*
X11091D1*
X10390Y11126D2*
X11091D1*
X10390Y11049D2*
X11091D1*
X10390Y10971D2*
X11091D1*
X10390Y10894D2*
X11091D1*
X10390Y10816D2*
X11091D1*
X10390Y10739D2*
X11115D1*
X10382Y10819D2*
Y10724D1*
X10444D1*
X11135Y10678D1*
X11113Y10791D1*
X11103Y10804D1*
X11099Y10826D1*
X11098Y11433D1*
X11120Y11468D1*
X11234Y11527D1*
X11231Y11591D1*
X11032Y11589D1*
X10382Y11583D1*
Y10945D1*
Y10819D1*
X13810Y8452D2*
D24*
X14834D1*
X13741Y8296D2*
X14920D1*
X13670Y8140D2*
X15006D1*
X13601Y7984D2*
X15090D1*
X13532Y7827D2*
X15092D1*
X13463Y7671D2*
X15092D1*
X13394Y7515D2*
X15092D1*
X13323Y7359D2*
X15092D1*
X13254Y7203D2*
X15092D1*
X13185Y7047D2*
X15092D1*
X13156Y6890D2*
X15092D1*
X13156Y6734D2*
X15092D1*
X14277Y6578D2*
X15092D1*
X14531Y6422D2*
X15092D1*
X14531Y6266D2*
X15092D1*
X14531Y6110D2*
X15092D1*
X14531Y5953D2*
X15092D1*
X14531Y5797D2*
X15092D1*
X14531Y5641D2*
X15092D1*
X13141Y6982D2*
Y6703D1*
X13889Y6702D1*
X14462Y6512D1*
X14513Y6454D1*
X14516Y6358D1*
Y5641D1*
X15108D1*
Y7978D1*
X14766Y8606D1*
X14261Y8608D1*
X13862D1*
X13141Y6983D1*
X11969Y6765D2*
X12780D1*
X11969Y6608D2*
X12780D1*
X11969Y6452D2*
X12780D1*
X11969Y6296D2*
X13093D1*
X11969Y6140D2*
X12780D1*
X11969Y5984D2*
X12780D1*
X11969Y5828D2*
X12780D1*
X11969Y5671D2*
X12780D1*
X11969Y5515D2*
X12780D1*
X11969Y5359D2*
X12780D1*
X11969Y5203D2*
X12780D1*
X12717Y6921D2*
X11953D1*
Y5141D1*
X12796D1*
Y6187D1*
X12834Y6253D1*
X12875Y6266D1*
X13108D1*
Y6358D1*
X12875D1*
X12808Y6397D1*
X12796Y6437D1*
Y6921D1*
X12717D1*
X26794Y23827D2*
X26986D1*
X26942Y23671D2*
X27149D1*
X27089Y23515D2*
X27309D1*
X27237Y23359D2*
X27469D1*
X27385Y23202D2*
X27629D1*
X27532Y23046D2*
X27789D1*
X27680Y22890D2*
X27951D1*
X27828Y22734D2*
X28111D1*
X27975Y22578D2*
X28271D1*
X28123Y22422D2*
X28431D1*
X28270Y22265D2*
X28593D1*
X28418Y22109D2*
X28753D1*
X28566Y21953D2*
X28913D1*
X28713Y21797D2*
X29073D1*
X28861Y21641D2*
X29093D1*
X28905Y21485D2*
X29093D1*
X29109Y21778D2*
X26866Y23960D1*
X26743Y23865D1*
X28870Y21614D1*
X28891Y21562D1*
Y21391D1*
X29108D1*
Y21777D1*
X5094Y9952D2*
X7281D1*
X5094Y9796D2*
X7281D1*
X5094Y9640D2*
X7281D1*
X5094Y9484D2*
X7281D1*
X5094Y9327D2*
X5743D1*
X6879D2*
X7281D1*
X5094Y9171D2*
X5534D1*
X7088D2*
X7281D1*
X5094Y9015D2*
X5398D1*
X5094Y8859D2*
X5307D1*
X5094Y8703D2*
X5243D1*
X5094Y8547D2*
X5209D1*
X5094Y8390D2*
X5194D1*
X5094Y8234D2*
X5204D1*
X5094Y8078D2*
X5236D1*
X5094Y7922D2*
X5293D1*
X5094Y7766D2*
X5379D1*
X7243D2*
X7554D1*
X5094Y7610D2*
X5504D1*
X7118D2*
X7298D1*
X5094Y7453D2*
X5696D1*
X5094Y7297D2*
X6078D1*
X6545D2*
X6693D1*
X5094Y7141D2*
X6565D1*
X5094Y6985D2*
X6476D1*
X5094Y6829D2*
X6420D1*
X5094Y6673D2*
X6385D1*
X8599D2*
X8696D1*
X5824Y6516D2*
X6375D1*
X8609D2*
X8779D1*
X6102Y6360D2*
X6388D1*
X8597D2*
X8779D1*
X6279Y6204D2*
X6422D1*
X8562D2*
X8779D1*
X6404Y6048D2*
X6484D1*
X8501D2*
X8779D1*
X6495Y5892D2*
X6575D1*
X8410D2*
X8779D1*
X6562Y5736D2*
X6707D1*
X8277D2*
X8779D1*
X5076Y6591D2*
X5171Y6606D1*
X5328Y6614D1*
X5485Y6603D1*
X5640Y6573D1*
X5789Y6524D1*
X5932Y6458D1*
X6066Y6375D1*
X6189Y6277D1*
X6299Y6164D1*
X6394Y6039D1*
X6474Y5903D1*
X6537Y5759D1*
X6574Y5641D1*
X6833D1*
X6733Y5727D1*
X6647Y5818D1*
X6572Y5920D1*
X6509Y6029D1*
X6459Y6144D1*
X6422Y6265D1*
X6400Y6389D1*
X6391Y6514D1*
X6398Y6640D1*
X6418Y6764D1*
X6452Y6885D1*
X6501Y7002D1*
X6562Y7112D1*
X6635Y7214D1*
X6719Y7308D1*
X6814Y7391D1*
X6837Y7409D1*
X6723Y7355D1*
X6604Y7315D1*
X6480Y7288D1*
X6338Y7274D1*
X6229Y7278D1*
X6104Y7295D1*
X5982Y7325D1*
X5864Y7370D1*
X5752Y7427D1*
X5648Y7497D1*
X5552Y7579D1*
X5466Y7671D1*
X5391Y7772D1*
X5328Y7881D1*
X5278Y7997D1*
X5241Y8117D1*
X5219Y8241D1*
X5210Y8367D1*
X5216Y8492D1*
X5237Y8617D1*
X5271Y8738D1*
X5319Y8854D1*
X5381Y8964D1*
X5454Y9067D1*
X5538Y9160D1*
X5633Y9243D1*
X5736Y9315D1*
X5847Y9374D1*
X5964Y9421D1*
X6086Y9454D1*
X6210Y9472D1*
X6336Y9476D1*
X6462Y9466D1*
X6585Y9442D1*
X6705Y9404D1*
X6820Y9352D1*
X6928Y9287D1*
X7028Y9211D1*
X7119Y9124D1*
X7199Y9027D1*
X7268Y8921D1*
X7296Y8867D1*
Y10108D1*
X5078D1*
Y6592D1*
X8594Y6508D2*
X8582Y6367D1*
X8557Y6243D1*
X8518Y6124D1*
X8465Y6009D1*
X8400Y5901D1*
X8323Y5802D1*
X8235Y5711D1*
X8149Y5640D1*
X8796Y5641D1*
Y6592D1*
X8552Y6822D1*
X8579Y6699D1*
X8593Y6564D1*
X8594Y6508D1*
X7340Y7986D2*
X7284Y7861D1*
X7219Y7754D1*
X7142Y7654D1*
X7054Y7564D1*
X6961Y7488D1*
X7072Y7541D1*
X7191Y7582D1*
X7313Y7610D1*
X7439Y7623D1*
X7565Y7622D1*
X7690Y7607D1*
X7750Y7594D1*
X7340Y7986D1*
X5533Y9154D2*
D15*
X7089Y7598D1*
Y9154D2*
X5533Y7598D1*
X6714Y7302D2*
X8270Y5745D1*
X7492Y6524D2*
X6714Y5745D1*
X20030Y8140D2*
D24*
X20469D1*
X20030Y7983D2*
X20469D1*
X20030Y7827D2*
X20469D1*
X19986Y7671D2*
X20469D1*
X19838Y7515D2*
X20469D1*
X19673Y7359D2*
X20437D1*
X18156Y7203D2*
X20405D1*
X18156Y7046D2*
X20405D1*
X18156Y6890D2*
X20405D1*
X18156Y6734D2*
X20400D1*
X18156Y6578D2*
X20400D1*
X18156Y6422D2*
X20400D1*
X18156Y6266D2*
X20400D1*
X18156Y6109D2*
X20400D1*
X18156Y5953D2*
X20075D1*
X18156Y5797D2*
X19920D1*
X18156Y5641D2*
X19765D1*
X19822Y7523D2*
Y7464D1*
X19761D1*
X19615Y7318D1*
X19562Y7296D1*
X18141D1*
Y5516D1*
X19654D1*
X20134Y5993D1*
X20187Y6016D1*
X20416D1*
X20415Y6744D1*
X20423D1*
X20421Y7250D1*
X20425Y7274D1*
X20484Y7451D1*
X20483Y8296D1*
X20016D1*
X20015Y7747D1*
X19993Y7694D1*
X19820Y7522D1*
X20861Y9140D2*
X21949D1*
X21018Y8983D2*
X21760D1*
X21095Y8827D2*
X21570D1*
X21095Y8671D2*
X21381D1*
X21078Y8796D2*
Y8578D1*
X21286D1*
X22157Y9297D1*
X20878Y9296D1*
X20689D1*
X21056Y8928D1*
X21078Y8875D1*
Y8796D1*
D25*
X8610Y20105D3*
X9280D3*
X8610Y12618D3*
X9280D3*
D26*
X12000Y15113D3*
Y14443D3*
X11187Y15113D3*
Y14443D3*
X11215Y18173D3*
Y17504D3*
X12028Y18173D3*
Y17504D3*
X12840Y18173D3*
Y17504D3*
D25*
X17226Y18676D3*
X17896D3*
X17226Y19466D3*
X17895D3*
X17896Y17902D3*
X17226D3*
X12977Y12620D3*
X13647D3*
X12977Y13622D3*
X13647D3*
D26*
X11186Y20611D3*
Y19941D3*
X11999Y20611D3*
Y19941D3*
D25*
X17919Y22558D3*
X17250D3*
D27*
X9437Y6179D3*
Y5431D3*
X19312Y5687D3*
Y4939D3*
Y7187D3*
Y7935D3*
D26*
X11187Y7437D3*
Y8106D3*
X28312Y12687D3*
Y12018D3*
Y16125D3*
Y16794D3*
D28*
X14312Y8187D3*
X12580D3*
D29*
X25870Y13417D3*
X26618D3*
D31*
X26957Y15701D3*
X25579D3*
Y15150D3*
X26957D3*
D32*
X5511Y20980D3*
D33*
X7283D3*
D32*
X5511Y13479D3*
D33*
X7283D3*
D34*
X26232Y25758D3*
X25232D3*
X24232D3*
X23232D3*
X22232D3*
X21232D3*
X20232D3*
X19232D3*
X18232D3*
X17232D3*
X16232D3*
X15232D3*
X14232D3*
X13232D3*
X12232D3*
X11232D3*
X10232D3*
X9232D3*
X8232D3*
X7232D3*
Y23455D3*
X8232D3*
X9232D3*
X10232D3*
X11232D3*
X12232D3*
X13232D3*
X14232D3*
X15232Y23484D3*
X16232Y23455D3*
X17232D3*
X18232D3*
X19232D3*
X20232D3*
X21232D3*
X22232D3*
X23262D3*
X24232D3*
X25232D3*
X26232D3*
D35*
X19667Y21321D3*
D36*
Y22321D3*
D35*
X17722Y13806D3*
D36*
X16722D3*
D37*
X6312Y8375D3*
D38*
X8674D3*
D39*
X7493Y6524D3*
D40*
X14812Y6312D3*
X18355D3*
D41*
X20375Y8125D3*
X21162Y7593D3*
Y8656D3*
D25*
X8610Y21105D3*
X9280D3*
X8610Y13618D3*
X9280D3*
D26*
X20667Y21842D3*
Y22511D3*
X21542Y21842D3*
Y22511D3*
X22417Y21842D3*
Y22511D3*
D25*
X17894Y17123D3*
X17225D3*
X17219Y14779D3*
X17888D3*
D26*
X10437Y5375D3*
Y6044D3*
D25*
X22606Y4937D3*
X21937D3*
X22562Y5812D3*
X21893D3*
D26*
X27250Y19906D3*
Y19236D3*
X24625Y12750D3*
Y13419D3*
X26437Y19234D3*
Y19903D3*
D25*
X17875Y16344D3*
X17205D3*
X17875Y15563D3*
X17205D3*
D26*
X15875Y19062D3*
Y18393D3*
X24625Y16562D3*
Y15893D3*
Y14312D3*
Y14981D3*
X24812Y18125D3*
Y18794D3*
X24000Y18812D3*
Y18143D3*
D42*
X28312Y18688D3*
Y20457D3*
D43*
X27332Y20950D3*
X27328Y18190D3*
D44*
X13919Y17615D3*
Y17359D3*
Y17103D3*
Y16847D3*
Y16592D3*
Y16336D3*
Y16080D3*
Y15824D3*
Y15568D3*
Y15312D3*
X16203D3*
Y15568D3*
Y15824D3*
Y16080D3*
Y16336D3*
Y16592D3*
Y16847D3*
Y17103D3*
Y17359D3*
Y17615D3*
D46*
X11092Y22150D3*
Y21776D3*
Y21402D3*
X12155D3*
Y22150D3*
X11151Y13525D3*
Y13151D3*
Y12777D3*
X12214D3*
Y13525D3*
D47*
X11312Y6812D3*
Y6312D3*
Y5812D3*
Y5312D3*
X13438D3*
Y5812D3*
Y6312D3*
Y6812D3*
D48*
X12375Y6023D3*
D47*
X16544Y21808D3*
Y21308D3*
Y20808D3*
Y20308D3*
X18670D3*
Y20808D3*
Y21308D3*
Y21808D3*
D49*
X20375Y5250D3*
X20749D3*
X21123D3*
Y6312D3*
X20749D3*
X20375D3*
D50*
X23187Y15687D3*
Y15431D3*
Y15175D3*
X24053D3*
Y15687D3*
D51*
X5511Y20980D3*
X5510Y13478D3*
D52*
X6311Y8376D3*
D53*
X8677Y8374D3*
D52*
X7492Y6524D3*
D54*
X7283Y13478D3*
Y20978D3*
M02*
