G04 DipTrace 2.4.0.2*
%INTopAssy.gbr*%
%MOIN*%
%ADD10C,0.0098*%
%ADD101C,0.0015*%
%FSLAX44Y44*%
G04*
G70*
G90*
G75*
G01*
%LNTopAssy*%
%LPD*%
X10734Y20587D2*
D10*
X9546D1*
Y22088D1*
X10734D1*
Y20587D1*
X12734D2*
X11546D1*
Y22088D1*
X12734D1*
Y20587D1*
X13875Y21152D2*
Y20590D1*
X8250D1*
Y21152D1*
Y22465D2*
Y22902D1*
X13875D1*
Y22465D1*
X12692Y22902D2*
X11589D1*
Y28529D1*
X12692D1*
Y22902D1*
X10691D2*
X9589D1*
Y28529D1*
X10691D1*
Y22902D1*
X29312Y20504D2*
X32804D1*
Y21881D1*
X29312D1*
Y20504D1*
X13206Y21867D2*
D101*
X13201Y21877D1*
X13192Y21886D1*
X13182Y21891D1*
X13163D1*
X13153Y21886D1*
X13144Y21877D1*
X13139Y21867D1*
X13134Y21853D1*
Y21829D1*
X13139Y21815D1*
X13144Y21805D1*
X13153Y21796D1*
X13163Y21791D1*
X13182D1*
X13192Y21796D1*
X13201Y21805D1*
X13206Y21815D1*
X13237Y21891D2*
Y21819D1*
X13242Y21805D1*
X13251Y21796D1*
X13266Y21791D1*
X13275D1*
X13290Y21796D1*
X13299Y21805D1*
X13304Y21819D1*
Y21891D1*
X13368D2*
Y21791D1*
X13335Y21891D2*
X13402D1*
X13559D2*
X13549Y21886D1*
X13540Y21877D1*
X13535Y21867D1*
X13530Y21853D1*
Y21829D1*
X13535Y21815D1*
X13540Y21805D1*
X13549Y21796D1*
X13559Y21791D1*
X13578D1*
X13587Y21796D1*
X13597Y21805D1*
X13602Y21815D1*
X13606Y21829D1*
Y21853D1*
X13602Y21867D1*
X13597Y21877D1*
X13587Y21886D1*
X13578Y21891D1*
X13559D1*
X13637D2*
Y21819D1*
X13642Y21805D1*
X13652Y21796D1*
X13666Y21791D1*
X13676D1*
X13690Y21796D1*
X13700Y21805D1*
X13704Y21819D1*
Y21891D1*
X13769D2*
Y21791D1*
X13735Y21891D2*
X13802D1*
X8394Y21867D2*
X8389Y21877D1*
X8379Y21886D1*
X8370Y21891D1*
X8351D1*
X8341Y21886D1*
X8331Y21877D1*
X8327Y21867D1*
X8322Y21853D1*
Y21829D1*
X8327Y21815D1*
X8331Y21805D1*
X8341Y21796D1*
X8351Y21791D1*
X8370D1*
X8379Y21796D1*
X8389Y21805D1*
X8394Y21815D1*
X8424Y21891D2*
Y21819D1*
X8429Y21805D1*
X8439Y21796D1*
X8453Y21791D1*
X8463D1*
X8477Y21796D1*
X8487Y21805D1*
X8491Y21819D1*
Y21891D1*
X8556D2*
Y21791D1*
X8522Y21891D2*
X8589D1*
X8746D2*
X8737Y21886D1*
X8727Y21877D1*
X8722Y21867D1*
X8717Y21853D1*
Y21829D1*
X8722Y21815D1*
X8727Y21805D1*
X8737Y21796D1*
X8746Y21791D1*
X8765D1*
X8775Y21796D1*
X8784Y21805D1*
X8789Y21815D1*
X8794Y21829D1*
Y21853D1*
X8789Y21867D1*
X8784Y21877D1*
X8775Y21886D1*
X8765Y21891D1*
X8746D1*
X8825D2*
Y21819D1*
X8830Y21805D1*
X8839Y21796D1*
X8854Y21791D1*
X8863D1*
X8877Y21796D1*
X8887Y21805D1*
X8892Y21819D1*
Y21891D1*
X8956D2*
Y21791D1*
X8923Y21891D2*
X8990D1*
M02*
