G04 DipTrace 2.4.0.2*
%INTopDimension.gbr*%
%MOIN*%
%ADD13C,0.0014*%
%ADD115C,0.0062*%
%FSLAX44Y44*%
G04*
G70*
G90*
G75*
G01*
%LNTopDimension*%
%LPD*%
X3937Y5117D2*
D13*
Y333D1*
X29528Y5118D2*
Y333D1*
X16732Y530D2*
X4331D1*
G36*
X3937D2*
X4331Y608D1*
Y451D1*
X3937Y530D1*
G37*
X16732D2*
D13*
X29134D1*
G36*
X29528D2*
X29134Y451D1*
Y608D1*
X29528Y530D1*
G37*
X5315Y24606D2*
D13*
X-2165D1*
X5315Y5313D2*
X-2165D1*
X-1969Y14960D2*
Y24213D1*
G36*
Y24606D2*
X-1890Y24213D1*
X-2047D1*
X-1969Y24606D1*
G37*
Y14960D2*
D13*
Y5707D1*
G36*
Y5313D2*
X-2047Y5707D1*
X-1890D1*
X-1969Y5313D1*
G37*
X5315Y24606D2*
D13*
Y27803D1*
X28150Y24606D2*
Y27803D1*
X16732Y27606D2*
X5709D1*
G36*
X5315D2*
X5709Y27685D1*
Y27528D1*
X5315Y27606D1*
G37*
X16732D2*
D13*
X27756D1*
G36*
X28150D2*
X27756Y27528D1*
Y27685D1*
X28150Y27606D1*
G37*
Y24606D2*
D13*
X33634D1*
X28150Y5315D2*
X33634D1*
X33437Y14961D2*
Y24213D1*
G36*
Y24606D2*
X33516Y24213D1*
X33358D1*
X33437Y24606D1*
G37*
Y14961D2*
D13*
Y5709D1*
G36*
Y5315D2*
X33358Y5709D1*
X33516D1*
X33437Y5315D1*
G37*
X5315Y5313D2*
D13*
Y1248D1*
X28150Y5315D2*
Y1248D1*
X16732Y1445D2*
X5709D1*
G36*
X5315D2*
X5709Y1524D1*
Y1366D1*
X5315Y1445D1*
G37*
X16732D2*
D13*
X27756D1*
G36*
X28150D2*
X27756Y1366D1*
Y1524D1*
X28150Y1445D1*
G37*
X5315Y24606D2*
D13*
X1740D1*
X16732D2*
X1740D1*
X1937D2*
D3*
Y25197D2*
Y25000D1*
G36*
Y24606D2*
X1858Y25000D1*
X2016D1*
X1937Y24606D1*
G37*
Y24016D2*
D13*
Y24213D1*
G36*
Y24606D2*
X2016Y24213D1*
X1858D1*
X1937Y24606D1*
G37*
Y25268D2*
D13*
Y24606D1*
X16732Y24614D2*
Y27307D1*
X5315Y24606D2*
Y27307D1*
X11024Y27110D2*
X16339D1*
G36*
X16732D2*
X16339Y27031D1*
Y27189D1*
X16732Y27110D1*
G37*
X11024D2*
D13*
X5709D1*
G36*
X5315D2*
X5709Y27189D1*
Y27031D1*
X5315Y27110D1*
G37*
X28150Y5315D2*
D13*
X31524D1*
X29287Y3937D2*
X31524D1*
X31327Y5315D2*
Y3937D1*
Y5906D2*
Y5709D1*
G36*
Y5315D2*
X31248Y5709D1*
X31406D1*
X31327Y5315D1*
G37*
Y3346D2*
D13*
Y3543D1*
G36*
Y3937D2*
X31406Y3543D1*
X31248D1*
X31327Y3937D1*
G37*
X5315Y5313D2*
D13*
X2047D1*
X4106Y3937D2*
X2047D1*
X2244Y5313D2*
Y3937D1*
Y5904D2*
Y5707D1*
G36*
Y5313D2*
X2165Y5707D1*
X2323D1*
X2244Y5313D1*
G37*
Y3346D2*
D13*
Y3543D1*
G36*
Y3937D2*
X2323Y3543D1*
X2165D1*
X2244Y3937D1*
G37*
X5315Y5313D2*
D13*
Y2928D1*
X3937Y3937D2*
Y2928D1*
Y3125D2*
X5315D1*
X3346D2*
X3543D1*
G36*
X3937D2*
X3543Y3046D1*
Y3203D1*
X3937Y3125D1*
G37*
X5906D2*
D13*
X5709D1*
G36*
X5315D2*
X5709Y3203D1*
Y3046D1*
X5315Y3125D1*
G37*
X28150Y5315D2*
D13*
Y2720D1*
X29528Y3937D2*
Y2720D1*
X28150Y2917D2*
X29528D1*
X27559D2*
X27756D1*
G36*
X28150D2*
X27756Y2839D1*
Y2996D1*
X28150Y2917D1*
G37*
X30118D2*
D13*
X29921D1*
G36*
X29528D2*
X29921Y2996D1*
Y2839D1*
X29528Y2917D1*
G37*
X28150Y24606D2*
D13*
Y26661D1*
X29528Y25736D2*
Y26661D1*
X28150Y26465D2*
X29528D1*
X27559D2*
X27756D1*
G36*
X28150D2*
X27756Y26386D1*
Y26543D1*
X28150Y26465D1*
G37*
X30118D2*
D13*
X29921D1*
G36*
X29528D2*
X29921Y26543D1*
Y26386D1*
X29528Y26465D1*
G37*
X28150Y24606D2*
D13*
X30634D1*
X29524Y26181D2*
X30634D1*
X30437Y25394D2*
Y25000D1*
G36*
Y24606D2*
X30358Y25000D1*
X30516D1*
X30437Y24606D1*
G37*
Y25394D2*
D13*
Y25787D1*
G36*
Y26181D2*
X30516Y25787D1*
X30358D1*
X30437Y26181D1*
G37*
X5315Y24606D2*
D13*
Y26528D1*
X3937Y26181D2*
Y26528D1*
Y26331D2*
X5315D1*
X3346D2*
X3543D1*
G36*
X3937D2*
X3543Y26252D1*
Y26409D1*
X3937Y26331D1*
G37*
X5906D2*
D13*
X5709D1*
G36*
X5315D2*
X5709Y26409D1*
Y26252D1*
X5315Y26331D1*
G37*
Y24606D2*
D13*
X3209D1*
X3937Y26181D2*
X3209D1*
X3406Y25394D2*
Y25000D1*
G36*
Y24606D2*
X3327Y25000D1*
X3484D1*
X3406Y24606D1*
G37*
Y25394D2*
D13*
Y25787D1*
G36*
Y26181D2*
X3484Y25787D1*
X3327D1*
X3406Y26181D1*
G37*
X28346Y3937D2*
D13*
X34884D1*
X28345Y26181D2*
X34884D1*
X34687Y15059D2*
Y4331D1*
G36*
Y3937D2*
X34608Y4331D1*
X34766D1*
X34687Y3937D1*
G37*
Y15059D2*
D13*
Y25787D1*
G36*
Y26181D2*
X34766Y25787D1*
X34608D1*
X34687Y26181D1*
G37*
X5117Y26180D2*
D13*
X-3226D1*
X5118Y3936D2*
X-3226D1*
X-3030Y15058D2*
Y25786D1*
G36*
Y26180D2*
X-2951Y25786D1*
X-3108D1*
X-3030Y26180D1*
G37*
Y15058D2*
D13*
Y4329D1*
G36*
Y3936D2*
X-3108Y4329D1*
X-2951D1*
X-3030Y3936D1*
G37*
X29528Y3937D2*
D13*
X30634D1*
X29528Y5118D2*
X30634D1*
X30437D2*
Y3937D1*
Y5709D2*
Y5512D1*
G36*
Y5118D2*
X30358Y5512D1*
X30516D1*
X30437Y5118D1*
G37*
Y3346D2*
D13*
Y3543D1*
G36*
Y3937D2*
X30516Y3543D1*
X30358D1*
X30437Y3937D1*
G37*
X29528D2*
D13*
Y3539D1*
X28346Y3937D2*
Y3539D1*
Y3736D2*
X29528D1*
X27756D2*
X27953D1*
G36*
X28346D2*
X27953Y3657D1*
Y3815D1*
X28346Y3736D1*
G37*
X30118D2*
D13*
X29921D1*
G36*
X29528D2*
X29921Y3815D1*
Y3657D1*
X29528Y3736D1*
G37*
X3936Y24999D2*
D13*
Y28626D1*
X29526Y25000D2*
Y28626D1*
X16731Y28429D2*
X4329D1*
G36*
X3936D2*
X4329Y28508D1*
Y28350D1*
X3936Y28429D1*
G37*
X16731D2*
D13*
X29133D1*
G36*
X29526D2*
X29133Y28350D1*
Y28508D1*
X29526Y28429D1*
G37*
X16222Y14930D2*
D13*
X-571D1*
X197Y11846D2*
X-571D1*
X-374Y13388D2*
Y14536D1*
G36*
Y14930D2*
X-295Y14536D1*
X-453D1*
X-374Y14930D1*
G37*
Y13388D2*
D13*
Y12239D1*
G36*
Y11846D2*
X-453Y12239D1*
X-295D1*
X-374Y11846D1*
G37*
X197D2*
D13*
X-572D1*
X2905Y10146D2*
X-572D1*
X-375Y11846D2*
Y10146D1*
Y12436D2*
Y12239D1*
G36*
Y11846D2*
X-454Y12239D1*
X-297D1*
X-375Y11846D1*
G37*
Y9556D2*
D13*
Y9752D1*
G36*
Y10146D2*
X-297Y9752D1*
X-454D1*
X-375Y10146D1*
G37*
X28187Y18687D2*
D13*
Y-3947D1*
X26187Y17375D2*
Y-3947D1*
Y-3750D2*
X28187D1*
X25596D2*
X25793D1*
G36*
X26187D2*
X25793Y-3829D1*
Y-3672D1*
X26187Y-3750D1*
G37*
X28778D2*
D13*
X28581D1*
G36*
X28187D2*
X28581Y-3672D1*
Y-3829D1*
X28187Y-3750D1*
G37*
X33470Y15973D2*
D13*
Y17509D1*
X32804Y18883D2*
Y17115D1*
Y17312D2*
X33470D1*
X32213D2*
X32410D1*
G36*
X32804D2*
X32410Y17233D1*
Y17391D1*
X32804Y17312D1*
G37*
X34061D2*
D13*
X33864D1*
G36*
X33470D2*
X33864Y17391D1*
Y17233D1*
X33470Y17312D1*
G37*
X34866D2*
D13*
X33470D1*
Y12870D2*
Y11428D1*
X29528Y5118D2*
Y11821D1*
X31499Y11625D2*
X33077D1*
G36*
X33470D2*
X33077Y11546D1*
Y11703D1*
X33470Y11625D1*
G37*
X31499D2*
D13*
X29921D1*
G36*
X29528D2*
X29921Y11703D1*
Y11546D1*
X29528Y11625D1*
G37*
X29312Y20260D2*
D13*
Y21446D1*
X32804Y20260D2*
Y21446D1*
X31058Y21250D2*
X29706D1*
G36*
X29312D2*
X29706Y21328D1*
Y21171D1*
X29312Y21250D1*
G37*
X31058D2*
D13*
X32410D1*
G36*
X32804D2*
X32410Y21171D1*
Y21328D1*
X32804Y21250D1*
G37*
X3280Y6603D2*
D13*
Y5678D1*
X3937Y5118D2*
Y6071D1*
X3280Y5875D2*
X3937D1*
X2690D2*
X2887D1*
G36*
X3280D2*
X2887Y5796D1*
Y5953D1*
X3280Y5875D1*
G37*
X4528D2*
D13*
X4331D1*
G36*
X3937D2*
X4331Y5953D1*
Y5796D1*
X3937Y5875D1*
G37*
X5352D2*
D13*
X3937D1*
X16673Y996D2*
D115*
X16654Y1034D1*
X16596Y1053D1*
X16558D1*
X16501Y1034D1*
X16462Y977D1*
X16443Y881D1*
Y786D1*
X16462Y709D1*
X16501Y671D1*
X16558Y652D1*
X16577D1*
X16634Y671D1*
X16673Y709D1*
X16692Y767D1*
Y786D1*
X16673Y843D1*
X16634Y881D1*
X16577Y900D1*
X16558D1*
X16501Y881D1*
X16462Y843D1*
X16443Y786D1*
X17045Y1053D2*
X16854D1*
X16835Y881D1*
X16854Y900D1*
X16911Y920D1*
X16968D1*
X17026Y900D1*
X17064Y862D1*
X17083Y805D1*
Y767D1*
X17064Y709D1*
X17026Y671D1*
X16968Y652D1*
X16911D1*
X16854Y671D1*
X16835Y690D1*
X16815Y728D1*
X-2091Y14853D2*
X-2492D1*
X-2225Y14661D1*
Y14948D1*
X-2359Y15320D2*
X-2301Y15301D1*
X-2263Y15263D1*
X-2244Y15206D1*
Y15187D1*
X-2263Y15129D1*
X-2301Y15091D1*
X-2359Y15072D1*
X-2378D1*
X-2435Y15091D1*
X-2473Y15129D1*
X-2492Y15187D1*
Y15206D1*
X-2473Y15263D1*
X-2435Y15301D1*
X-2359Y15320D1*
X-2263D1*
X-2167Y15301D1*
X-2110Y15263D1*
X-2091Y15206D1*
Y15167D1*
X-2110Y15110D1*
X-2148Y15091D1*
X16663Y28130D2*
X16472D1*
X16453Y27958D1*
X16472Y27977D1*
X16530Y27996D1*
X16587D1*
X16644Y27977D1*
X16683Y27939D1*
X16702Y27881D1*
Y27843D1*
X16683Y27786D1*
X16644Y27747D1*
X16587Y27728D1*
X16530D1*
X16472Y27747D1*
X16453Y27767D1*
X16434Y27805D1*
X16921Y28130D2*
X16864Y28111D1*
X16844Y28073D1*
Y28034D1*
X16864Y27996D1*
X16902Y27977D1*
X16978Y27958D1*
X17036Y27939D1*
X17074Y27900D1*
X17093Y27862D1*
Y27805D1*
X17074Y27767D1*
X17055Y27747D1*
X16997Y27728D1*
X16921D1*
X16864Y27747D1*
X16844Y27767D1*
X16825Y27805D1*
Y27862D1*
X16844Y27900D1*
X16883Y27939D1*
X16940Y27958D1*
X17016Y27977D1*
X17055Y27996D1*
X17074Y28034D1*
Y28073D1*
X17055Y28111D1*
X16997Y28130D1*
X16921D1*
X33559Y15068D2*
X33961D1*
X33693Y15259D1*
Y14972D1*
X33827Y14600D2*
X33770Y14620D1*
X33731Y14658D1*
X33712Y14715D1*
Y14734D1*
X33731Y14792D1*
X33770Y14830D1*
X33827Y14849D1*
X33846D1*
X33904Y14830D1*
X33942Y14792D1*
X33961Y14734D1*
Y14715D1*
X33942Y14658D1*
X33904Y14620D1*
X33827Y14600D1*
X33731D1*
X33636Y14620D1*
X33578Y14658D1*
X33559Y14715D1*
Y14753D1*
X33578Y14811D1*
X33617Y14830D1*
X16663Y1968D2*
X16472D1*
X16453Y1796D1*
X16472Y1815D1*
X16530Y1835D1*
X16587D1*
X16644Y1815D1*
X16683Y1777D1*
X16702Y1720D1*
Y1682D1*
X16683Y1624D1*
X16644Y1586D1*
X16587Y1567D1*
X16530D1*
X16472Y1586D1*
X16453Y1605D1*
X16434Y1643D1*
X16921Y1968D2*
X16864Y1949D1*
X16844Y1911D1*
Y1873D1*
X16864Y1835D1*
X16902Y1815D1*
X16978Y1796D1*
X17036Y1777D1*
X17074Y1739D1*
X17093Y1701D1*
Y1643D1*
X17074Y1605D1*
X17055Y1586D1*
X16997Y1567D1*
X16921D1*
X16864Y1586D1*
X16844Y1605D1*
X16825Y1643D1*
Y1701D1*
X16844Y1739D1*
X16883Y1777D1*
X16940Y1796D1*
X17016Y1815D1*
X17055Y1835D1*
X17074Y1873D1*
Y1911D1*
X17055Y1949D1*
X16997Y1968D1*
X16921D1*
X1413Y25208D2*
X1432Y25150D1*
X1490Y25112D1*
X1585Y25093D1*
X1643D1*
X1738Y25112D1*
X1796Y25150D1*
X1815Y25208D1*
Y25246D1*
X1796Y25303D1*
X1738Y25341D1*
X1643Y25361D1*
X1585D1*
X1490Y25341D1*
X1432Y25303D1*
X1413Y25246D1*
Y25208D1*
X1490Y25341D2*
X1738Y25112D1*
X10754Y27538D2*
Y27557D1*
X10773Y27596D1*
X10792Y27615D1*
X10830Y27634D1*
X10907D1*
X10945Y27615D1*
X10964Y27596D1*
X10983Y27557D1*
Y27519D1*
X10964Y27481D1*
X10926Y27424D1*
X10734Y27232D1*
X11002D1*
X11375Y27500D2*
X11355Y27443D1*
X11317Y27404D1*
X11260Y27385D1*
X11241D1*
X11183Y27404D1*
X11145Y27443D1*
X11126Y27500D1*
Y27519D1*
X11145Y27577D1*
X11183Y27615D1*
X11241Y27634D1*
X11260D1*
X11317Y27615D1*
X11355Y27577D1*
X11375Y27500D1*
Y27404D1*
X11355Y27309D1*
X11317Y27251D1*
X11260Y27232D1*
X11222D1*
X11164Y27251D1*
X11145Y27290D1*
X31850Y4967D2*
Y4757D1*
X31697Y4872D1*
Y4814D1*
X31678Y4776D1*
X31659Y4757D1*
X31602Y4738D1*
X31564D1*
X31506Y4757D1*
X31468Y4795D1*
X31449Y4853D1*
Y4910D1*
X31468Y4967D1*
X31487Y4986D1*
X31525Y5006D1*
X31487Y4595D2*
X31468Y4614D1*
X31449Y4595D1*
X31468Y4576D1*
X31487Y4595D1*
X31850Y4223D2*
Y4414D1*
X31678Y4433D1*
X31697Y4414D1*
X31717Y4356D1*
Y4299D1*
X31697Y4242D1*
X31659Y4203D1*
X31602Y4184D1*
X31564D1*
X31506Y4203D1*
X31468Y4242D1*
X31449Y4299D1*
Y4356D1*
X31468Y4414D1*
X31487Y4433D1*
X31525Y4452D1*
X1721Y4284D2*
Y4494D1*
X1873Y4379D1*
Y4437D1*
X1893Y4475D1*
X1912Y4494D1*
X1969Y4513D1*
X2007D1*
X2065Y4494D1*
X2103Y4456D1*
X2122Y4398D1*
Y4341D1*
X2103Y4284D1*
X2084Y4265D1*
X2045Y4245D1*
X2084Y4656D2*
X2103Y4637D1*
X2122Y4656D1*
X2103Y4675D1*
X2084Y4656D1*
X1721Y5028D2*
Y4837D1*
X1893Y4818D1*
X1873Y4837D1*
X1854Y4895D1*
Y4952D1*
X1873Y5009D1*
X1912Y5048D1*
X1969Y5067D1*
X2007D1*
X2065Y5048D1*
X2103Y5009D1*
X2122Y4952D1*
Y4895D1*
X2103Y4837D1*
X2084Y4818D1*
X2045Y4799D1*
X4285Y3648D2*
X4495D1*
X4380Y3495D1*
X4438D1*
X4476Y3476D1*
X4495Y3457D1*
X4514Y3400D1*
Y3362D1*
X4495Y3304D1*
X4457Y3266D1*
X4399Y3247D1*
X4342D1*
X4285Y3266D1*
X4266Y3285D1*
X4246Y3323D1*
X4657Y3285D2*
X4638Y3266D1*
X4657Y3247D1*
X4676Y3266D1*
X4657Y3285D1*
X5029Y3648D2*
X4838D1*
X4819Y3476D1*
X4838Y3495D1*
X4896Y3515D1*
X4953D1*
X5010Y3495D1*
X5049Y3457D1*
X5068Y3400D1*
Y3362D1*
X5049Y3304D1*
X5010Y3266D1*
X4953Y3247D1*
X4896D1*
X4838Y3266D1*
X4819Y3285D1*
X4800Y3323D1*
X28497Y3441D2*
X28707D1*
X28593Y3288D1*
X28650D1*
X28688Y3269D1*
X28707Y3250D1*
X28727Y3192D1*
Y3154D1*
X28707Y3097D1*
X28669Y3058D1*
X28612Y3039D1*
X28554D1*
X28497Y3058D1*
X28478Y3078D1*
X28459Y3116D1*
X28869Y3078D2*
X28850Y3058D1*
X28869Y3039D1*
X28889Y3058D1*
X28869Y3078D1*
X29242Y3441D2*
X29051D1*
X29032Y3269D1*
X29051Y3288D1*
X29108Y3307D1*
X29165D1*
X29223Y3288D1*
X29261Y3250D1*
X29280Y3192D1*
Y3154D1*
X29261Y3097D1*
X29223Y3058D1*
X29165Y3039D1*
X29108D1*
X29051Y3058D1*
X29032Y3078D1*
X29012Y3116D1*
X28497Y26988D2*
X28707D1*
X28593Y26835D1*
X28650D1*
X28688Y26816D1*
X28707Y26797D1*
X28727Y26740D1*
Y26702D1*
X28707Y26644D1*
X28669Y26606D1*
X28612Y26587D1*
X28554D1*
X28497Y26606D1*
X28478Y26625D1*
X28459Y26663D1*
X28869Y26625D2*
X28850Y26606D1*
X28869Y26587D1*
X28889Y26606D1*
X28869Y26625D1*
X29242Y26988D2*
X29051D1*
X29032Y26816D1*
X29051Y26835D1*
X29108Y26855D1*
X29165D1*
X29223Y26835D1*
X29261Y26797D1*
X29280Y26740D1*
Y26702D1*
X29261Y26644D1*
X29223Y26606D1*
X29165Y26587D1*
X29108D1*
X29051Y26606D1*
X29032Y26625D1*
X29012Y26663D1*
X30559Y25315D2*
X30961D1*
X30693Y25506D1*
Y25219D1*
X4285Y26854D2*
X4495D1*
X4380Y26701D1*
X4438D1*
X4476Y26682D1*
X4495Y26663D1*
X4514Y26606D1*
Y26568D1*
X4495Y26510D1*
X4457Y26472D1*
X4399Y26453D1*
X4342D1*
X4285Y26472D1*
X4266Y26491D1*
X4246Y26529D1*
X4657Y26491D2*
X4638Y26472D1*
X4657Y26453D1*
X4676Y26472D1*
X4657Y26491D1*
X5029Y26854D2*
X4838D1*
X4819Y26682D1*
X4838Y26701D1*
X4896Y26721D1*
X4953D1*
X5010Y26701D1*
X5049Y26663D1*
X5068Y26606D1*
Y26568D1*
X5049Y26510D1*
X5010Y26472D1*
X4953Y26453D1*
X4896D1*
X4838Y26472D1*
X4819Y26491D1*
X4800Y26529D1*
X3283Y25473D2*
X2882D1*
X3149Y25281D1*
Y25568D1*
X35211Y15395D2*
Y15586D1*
X35039Y15605D1*
X35058Y15586D1*
X35077Y15529D1*
Y15472D1*
X35058Y15414D1*
X35020Y15376D1*
X34962Y15357D1*
X34924D1*
X34867Y15376D1*
X34828Y15414D1*
X34809Y15472D1*
Y15529D1*
X34828Y15586D1*
X34848Y15605D1*
X34886Y15625D1*
X35154Y15004D2*
X35192Y15023D1*
X35211Y15080D1*
Y15118D1*
X35192Y15176D1*
X35134Y15214D1*
X35039Y15233D1*
X34943D1*
X34867Y15214D1*
X34828Y15176D1*
X34809Y15118D1*
Y15099D1*
X34828Y15042D1*
X34867Y15004D1*
X34924Y14985D1*
X34943D1*
X35001Y15004D1*
X35039Y15042D1*
X35058Y15099D1*
Y15118D1*
X35039Y15176D1*
X35001Y15214D1*
X34943Y15233D1*
X34848Y14842D2*
X34828Y14861D1*
X34809Y14842D1*
X34828Y14823D1*
X34848Y14842D1*
X35211Y14470D2*
Y14661D1*
X35039Y14680D1*
X35058Y14661D1*
X35077Y14603D1*
Y14546D1*
X35058Y14489D1*
X35020Y14450D1*
X34962Y14431D1*
X34924D1*
X34867Y14450D1*
X34828Y14489D1*
X34809Y14546D1*
Y14603D1*
X34828Y14661D1*
X34848Y14680D1*
X34886Y14699D1*
X-3553Y14721D2*
Y14530D1*
X-3381Y14511D1*
X-3400Y14530D1*
X-3420Y14588D1*
Y14645D1*
X-3400Y14702D1*
X-3362Y14741D1*
X-3305Y14760D1*
X-3267D1*
X-3209Y14741D1*
X-3171Y14702D1*
X-3152Y14645D1*
Y14588D1*
X-3171Y14530D1*
X-3190Y14511D1*
X-3228Y14492D1*
X-3496Y15113D2*
X-3534Y15094D1*
X-3553Y15036D1*
Y14998D1*
X-3534Y14941D1*
X-3477Y14902D1*
X-3381Y14883D1*
X-3286D1*
X-3209Y14902D1*
X-3171Y14941D1*
X-3152Y14998D1*
Y15017D1*
X-3171Y15074D1*
X-3209Y15113D1*
X-3267Y15132D1*
X-3286D1*
X-3343Y15113D1*
X-3381Y15074D1*
X-3400Y15017D1*
Y14998D1*
X-3381Y14941D1*
X-3343Y14902D1*
X-3286Y14883D1*
X-3190Y15274D2*
X-3171Y15255D1*
X-3152Y15274D1*
X-3171Y15294D1*
X-3190Y15274D1*
X-3553Y15647D2*
Y15456D1*
X-3381Y15437D1*
X-3400Y15456D1*
X-3420Y15513D1*
Y15570D1*
X-3400Y15628D1*
X-3362Y15666D1*
X-3305Y15685D1*
X-3267D1*
X-3209Y15666D1*
X-3171Y15628D1*
X-3152Y15570D1*
Y15513D1*
X-3171Y15456D1*
X-3190Y15437D1*
X-3228Y15417D1*
X30961Y4592D2*
Y4382D1*
X30808Y4497D1*
Y4439D1*
X30789Y4401D1*
X30770Y4382D1*
X30712Y4363D1*
X30674D1*
X30617Y4382D1*
X30578Y4420D1*
X30559Y4478D1*
Y4535D1*
X30578Y4592D1*
X30598Y4611D1*
X30636Y4631D1*
X28872Y4260D2*
X29082D1*
X28968Y4107D1*
X29025D1*
X29063Y4088D1*
X29082Y4069D1*
X29102Y4011D1*
Y3973D1*
X29082Y3916D1*
X29044Y3877D1*
X28987Y3858D1*
X28929D1*
X28872Y3877D1*
X28853Y3897D1*
X28834Y3935D1*
X16671Y28896D2*
X16652Y28934D1*
X16595Y28953D1*
X16557D1*
X16499Y28934D1*
X16461Y28876D1*
X16442Y28781D1*
Y28685D1*
X16461Y28609D1*
X16499Y28570D1*
X16557Y28551D1*
X16576D1*
X16633Y28570D1*
X16671Y28609D1*
X16690Y28666D1*
Y28685D1*
X16671Y28743D1*
X16633Y28781D1*
X16576Y28800D1*
X16557D1*
X16499Y28781D1*
X16461Y28743D1*
X16442Y28685D1*
X17043Y28953D2*
X16852D1*
X16833Y28781D1*
X16852Y28800D1*
X16910Y28819D1*
X16967D1*
X17024Y28800D1*
X17063Y28762D1*
X17082Y28704D1*
Y28666D1*
X17063Y28609D1*
X17024Y28570D1*
X16967Y28551D1*
X16910D1*
X16852Y28570D1*
X16833Y28590D1*
X16814Y28628D1*
X-496Y12889D2*
X-898Y13080D1*
Y12813D1*
X-535Y13223D2*
X-515Y13204D1*
X-496Y13223D1*
X-515Y13242D1*
X-535Y13223D1*
X-898Y13461D2*
X-879Y13404D1*
X-841Y13385D1*
X-802D1*
X-764Y13404D1*
X-745Y13442D1*
X-726Y13519D1*
X-707Y13576D1*
X-668Y13614D1*
X-630Y13633D1*
X-573D1*
X-535Y13614D1*
X-515Y13595D1*
X-496Y13538D1*
Y13461D1*
X-515Y13404D1*
X-535Y13385D1*
X-573Y13366D1*
X-630D1*
X-668Y13385D1*
X-707Y13423D1*
X-726Y13481D1*
X-745Y13557D1*
X-764Y13595D1*
X-802Y13614D1*
X-841D1*
X-879Y13595D1*
X-898Y13538D1*
Y13461D1*
Y13795D2*
Y14005D1*
X-745Y13891D1*
Y13948D1*
X-726Y13986D1*
X-707Y14005D1*
X-649Y14025D1*
X-611D1*
X-554Y14005D1*
X-515Y13967D1*
X-496Y13910D1*
Y13853D1*
X-515Y13795D1*
X-535Y13776D1*
X-573Y13757D1*
X-498Y10602D2*
X-899D1*
X-632Y10411D1*
Y10698D1*
X-536Y10840D2*
X-517Y10821D1*
X-498Y10840D1*
X-517Y10860D1*
X-536Y10840D1*
X-899Y11022D2*
Y11232D1*
X-746Y11117D1*
Y11175D1*
X-727Y11213D1*
X-708Y11232D1*
X-651Y11251D1*
X-613D1*
X-555Y11232D1*
X-517Y11194D1*
X-498Y11136D1*
Y11079D1*
X-517Y11022D1*
X-536Y11003D1*
X-574Y10983D1*
X-804Y11394D2*
X-823D1*
X-861Y11413D1*
X-880Y11432D1*
X-899Y11471D1*
Y11547D1*
X-880Y11585D1*
X-861Y11604D1*
X-823Y11624D1*
X-785D1*
X-746Y11604D1*
X-689Y11566D1*
X-498Y11375D1*
Y11643D1*
X26841Y-3227D2*
X26650D1*
X26631Y-3399D1*
X26650Y-3380D1*
X26708Y-3360D1*
X26765D1*
X26822Y-3380D1*
X26861Y-3418D1*
X26880Y-3475D1*
Y-3513D1*
X26861Y-3571D1*
X26822Y-3609D1*
X26765Y-3628D1*
X26708D1*
X26650Y-3609D1*
X26631Y-3590D1*
X26612Y-3552D1*
X27022Y-3590D2*
X27003Y-3609D1*
X27022Y-3628D1*
X27042Y-3609D1*
X27022Y-3590D1*
X27280Y-3227D2*
X27223Y-3246D1*
X27184Y-3303D1*
X27165Y-3399D1*
Y-3456D1*
X27184Y-3552D1*
X27223Y-3609D1*
X27280Y-3628D1*
X27318D1*
X27376Y-3609D1*
X27414Y-3552D1*
X27433Y-3456D1*
Y-3399D1*
X27414Y-3303D1*
X27376Y-3246D1*
X27318Y-3227D1*
X27280D1*
X27414Y-3303D2*
X27184Y-3552D1*
X27652Y-3227D2*
X27595Y-3246D1*
X27576Y-3284D1*
Y-3322D1*
X27595Y-3360D1*
X27633Y-3380D1*
X27710Y-3399D1*
X27767Y-3418D1*
X27805Y-3456D1*
X27824Y-3494D1*
Y-3552D1*
X27805Y-3590D1*
X27786Y-3609D1*
X27729Y-3628D1*
X27652D1*
X27595Y-3609D1*
X27576Y-3590D1*
X27557Y-3552D1*
Y-3494D1*
X27576Y-3456D1*
X27614Y-3418D1*
X27671Y-3399D1*
X27748Y-3380D1*
X27786Y-3360D1*
X27805Y-3322D1*
Y-3284D1*
X27786Y-3246D1*
X27729Y-3227D1*
X27652D1*
X33957Y17759D2*
X33995Y17779D1*
X34053Y17836D1*
Y17434D1*
X34195Y17473D2*
X34176Y17453D1*
X34195Y17434D1*
X34215Y17453D1*
X34195Y17473D1*
X34567Y17779D2*
X34548Y17817D1*
X34491Y17836D1*
X34453D1*
X34395Y17817D1*
X34357Y17759D1*
X34338Y17664D1*
Y17568D1*
X34357Y17492D1*
X34395Y17453D1*
X34453Y17434D1*
X34472D1*
X34529Y17453D1*
X34567Y17492D1*
X34587Y17549D1*
Y17568D1*
X34567Y17626D1*
X34529Y17664D1*
X34472Y17683D1*
X34453D1*
X34395Y17664D1*
X34357Y17626D1*
X34338Y17568D1*
X34959Y17702D2*
X34940Y17645D1*
X34901Y17606D1*
X34844Y17587D1*
X34825D1*
X34768Y17606D1*
X34729Y17645D1*
X34710Y17702D1*
Y17721D1*
X34729Y17779D1*
X34768Y17817D1*
X34825Y17836D1*
X34844D1*
X34901Y17817D1*
X34940Y17779D1*
X34959Y17702D1*
Y17606D1*
X34940Y17511D1*
X34901Y17453D1*
X34844Y17434D1*
X34806D1*
X34748Y17453D1*
X34729Y17492D1*
X30900Y12072D2*
X30938Y12091D1*
X30996Y12148D1*
Y11747D1*
X31234Y12148D2*
X31177Y12129D1*
X31138Y12072D1*
X31119Y11976D1*
Y11919D1*
X31138Y11823D1*
X31177Y11766D1*
X31234Y11747D1*
X31272D1*
X31330Y11766D1*
X31368Y11823D1*
X31387Y11919D1*
Y11976D1*
X31368Y12072D1*
X31330Y12129D1*
X31272Y12148D1*
X31234D1*
X31368Y12072D2*
X31138Y11823D1*
X31530Y11785D2*
X31511Y11766D1*
X31530Y11747D1*
X31549Y11766D1*
X31530Y11785D1*
X31787Y12148D2*
X31730Y12129D1*
X31692Y12072D1*
X31673Y11976D1*
Y11919D1*
X31692Y11823D1*
X31730Y11766D1*
X31787Y11747D1*
X31826D1*
X31883Y11766D1*
X31921Y11823D1*
X31940Y11919D1*
Y11976D1*
X31921Y12072D1*
X31883Y12129D1*
X31826Y12148D1*
X31787D1*
X31921Y12072D2*
X31692Y11823D1*
X32064Y12072D2*
X32102Y12091D1*
X32160Y12148D1*
Y11747D1*
X30578Y21773D2*
X30521Y21754D1*
X30502Y21716D1*
Y21678D1*
X30521Y21640D1*
X30559Y21620D1*
X30636Y21601D1*
X30693Y21582D1*
X30731Y21544D1*
X30750Y21506D1*
Y21448D1*
X30731Y21410D1*
X30712Y21391D1*
X30655Y21372D1*
X30578D1*
X30521Y21391D1*
X30502Y21410D1*
X30483Y21448D1*
Y21506D1*
X30502Y21544D1*
X30540Y21582D1*
X30597Y21601D1*
X30674Y21620D1*
X30712Y21640D1*
X30731Y21678D1*
Y21716D1*
X30712Y21754D1*
X30655Y21773D1*
X30578D1*
X30893Y21410D2*
X30874Y21391D1*
X30893Y21372D1*
X30912Y21391D1*
X30893Y21410D1*
X31131Y21773D2*
X31074Y21754D1*
X31055Y21716D1*
Y21678D1*
X31074Y21640D1*
X31112Y21620D1*
X31189Y21601D1*
X31246Y21582D1*
X31284Y21544D1*
X31303Y21506D1*
Y21448D1*
X31284Y21410D1*
X31265Y21391D1*
X31208Y21372D1*
X31131D1*
X31074Y21391D1*
X31055Y21410D1*
X31036Y21448D1*
Y21506D1*
X31055Y21544D1*
X31093Y21582D1*
X31150Y21601D1*
X31227Y21620D1*
X31265Y21640D1*
X31284Y21678D1*
Y21716D1*
X31265Y21754D1*
X31208Y21773D1*
X31131D1*
X31503Y21372D2*
X31695Y21773D1*
X31427D1*
X4423Y6322D2*
X4462Y6341D1*
X4519Y6398D1*
Y5997D1*
X4662Y6035D2*
X4643Y6016D1*
X4662Y5997D1*
X4681Y6016D1*
X4662Y6035D1*
X5034Y6341D2*
X5015Y6379D1*
X4958Y6398D1*
X4920D1*
X4862Y6379D1*
X4824Y6322D1*
X4805Y6226D1*
Y6131D1*
X4824Y6054D1*
X4862Y6016D1*
X4920Y5997D1*
X4939D1*
X4996Y6016D1*
X5034Y6054D1*
X5053Y6112D1*
Y6131D1*
X5034Y6188D1*
X4996Y6226D1*
X4939Y6245D1*
X4920D1*
X4862Y6226D1*
X4824Y6188D1*
X4805Y6131D1*
X5253Y5997D2*
X5445Y6398D1*
X5177D1*
M02*
