G04 DipTrace 2.4.0.2*
%INTopPaste.gbr*%
%MOIN*%
%ADD41R,0.0354X0.0315*%
%ADD44R,0.0709X0.0157*%
%ADD50R,0.0354X0.0157*%
%ADD74R,0.0276X0.0079*%
%ADD76R,0.0157X0.0354*%
%ADD78R,0.0748X0.1181*%
%ADD80R,0.0512X0.0315*%
%ADD81R,0.063X0.0079*%
%ADD85R,0.0276X0.0236*%
%ADD87R,0.0591X0.1339*%
%ADD99R,0.0323X0.063*%
%ADD106R,0.0433X0.0512*%
%ADD108R,0.0866X0.0866*%
%ADD110R,0.0512X0.0433*%
%ADD112R,0.0315X0.0354*%
%FSLAX44Y44*%
G04*
G70*
G90*
G75*
G01*
%LNTopPaste*%
%LPD*%
D41*
X8610Y20105D3*
X9280D3*
X8610Y12618D3*
X9280D3*
D112*
X12000Y15113D3*
Y14443D3*
X11187Y15113D3*
Y14443D3*
X11215Y18173D3*
Y17504D3*
X12028Y18173D3*
Y17504D3*
X12840Y18173D3*
Y17504D3*
D41*
X17226Y18676D3*
X17896D3*
X17226Y19466D3*
X17895D3*
X17896Y17902D3*
X17226D3*
X12977Y12620D3*
X13647D3*
X12977Y13622D3*
X13647D3*
D112*
X11186Y20611D3*
Y19941D3*
X11999Y20611D3*
Y19941D3*
D41*
X17919Y22558D3*
X17250D3*
D110*
X9437Y6179D3*
Y5431D3*
X19312Y5687D3*
Y4939D3*
Y7187D3*
Y7935D3*
D112*
X11187Y7437D3*
Y8106D3*
X28312Y12687D3*
Y12018D3*
Y16125D3*
Y16794D3*
D108*
X14312Y8187D3*
X12580D3*
D106*
X25870Y13417D3*
X26618D3*
D80*
X26957Y15701D3*
X25579D3*
Y15150D3*
X26957D3*
D99*
X26232Y25758D3*
X25232D3*
X24232D3*
X23232D3*
X22232D3*
X21232D3*
X20232D3*
X19232D3*
X18232D3*
X17232D3*
X16232D3*
X15232D3*
X14232D3*
X13232D3*
X12232D3*
X11232D3*
X10232D3*
X9232D3*
X8232D3*
X7232D3*
Y23455D3*
X8232D3*
X9232D3*
X10232D3*
X11232D3*
X12232D3*
X13232D3*
X14232D3*
X15232Y23484D3*
X16232Y23455D3*
X17232D3*
X18232D3*
X19232D3*
X20232D3*
X21232D3*
X22232D3*
X23262D3*
X24232D3*
X25232D3*
X26232D3*
D87*
X14812Y6312D3*
X18355D3*
D85*
X20375Y8125D3*
X21162Y7593D3*
Y8656D3*
D41*
X8610Y21105D3*
X9280D3*
X8610Y13618D3*
X9280D3*
D112*
X20667Y21842D3*
Y22511D3*
X21542Y21842D3*
Y22511D3*
X22417Y21842D3*
Y22511D3*
D41*
X17894Y17123D3*
X17225D3*
X17219Y14779D3*
X17888D3*
D112*
X10437Y5375D3*
Y6044D3*
D41*
X22606Y4937D3*
X21937D3*
X22562Y5812D3*
X21893D3*
D112*
X27250Y19906D3*
Y19236D3*
X24625Y12750D3*
Y13419D3*
X26437Y19234D3*
Y19903D3*
D41*
X17875Y16344D3*
X17205D3*
X17875Y15563D3*
X17205D3*
D112*
X15875Y19062D3*
Y18393D3*
X24625Y16562D3*
Y15893D3*
Y14312D3*
Y14981D3*
X24812Y18125D3*
Y18794D3*
X24000Y18812D3*
Y18143D3*
D81*
X13919Y17615D3*
Y17359D3*
Y17103D3*
Y16847D3*
Y16592D3*
Y16336D3*
Y16080D3*
Y15824D3*
Y15568D3*
Y15312D3*
X16203D3*
Y15568D3*
Y15824D3*
Y16080D3*
Y16336D3*
Y16592D3*
Y16847D3*
Y17103D3*
Y17359D3*
Y17615D3*
D50*
X11092Y22150D3*
Y21776D3*
Y21402D3*
X12155D3*
Y22150D3*
X11151Y13525D3*
Y13151D3*
Y12777D3*
X12214D3*
Y13525D3*
D44*
X11312Y6812D3*
Y6312D3*
Y5812D3*
Y5312D3*
X13438D3*
Y5812D3*
Y6312D3*
Y6812D3*
D78*
X12375Y6023D3*
D44*
X16544Y21808D3*
Y21308D3*
Y20808D3*
Y20308D3*
X18670D3*
Y20808D3*
Y21308D3*
Y21808D3*
D76*
X20375Y5250D3*
X20749D3*
X21123D3*
Y6312D3*
X20749D3*
X20375D3*
D74*
X23187Y15687D3*
Y15431D3*
Y15175D3*
X24053D3*
Y15687D3*
M02*
