G04 DipTrace 2.4.0.2*
%INTopPaste.gbr*%
%MOIN*%
%ADD40R,0.0315X0.0354*%
%ADD43R,0.0157X0.0709*%
%ADD50R,0.0354X0.0157*%
%ADD58R,0.0276X0.0079*%
%ADD60R,0.0709X0.0157*%
%ADD62R,0.1181X0.0748*%
%ADD65R,0.0315X0.0512*%
%ADD66R,0.0157X0.0354*%
%ADD67R,0.0079X0.063*%
%ADD71R,0.0236X0.0276*%
%ADD74R,0.1339X0.0591*%
%ADD86R,0.0323X0.063*%
%ADD92R,0.0866X0.0866*%
%ADD94R,0.0433X0.0512*%
%ADD96R,0.0512X0.0433*%
%ADD99R,0.0354X0.0315*%
%FSLAX44Y44*%
G04*
G70*
G90*
G75*
G01*
%LNTopPaste*%
%LPD*%
D99*
X18750Y7183D3*
X19419D3*
X24106Y8621D3*
X23437D3*
X23441Y11558D3*
X24110D3*
X23437Y10746D3*
X24106D3*
X18750Y9433D3*
X19419D3*
X18768Y10246D3*
X19437D3*
Y11058D3*
X18768D3*
D40*
X19500Y16808D3*
Y17477D3*
D96*
X18562Y16683D3*
Y17431D3*
D40*
X20312Y17496D3*
Y16826D3*
X25437Y13871D3*
Y13201D3*
D99*
X23437Y12371D3*
X24106D3*
D40*
X17562Y13871D3*
Y13201D3*
D99*
X19437Y11871D3*
X18768D3*
D40*
X20125Y22308D3*
Y21639D3*
D94*
X7812Y9746D3*
X7064D3*
D96*
X9000Y18246D3*
Y18994D3*
D94*
X7500Y17558D3*
X6751D3*
D40*
X7000Y10808D3*
Y11477D3*
X7625Y22477D3*
Y21808D3*
X14437Y21996D3*
Y21326D3*
D92*
X6812Y14183D3*
Y12451D3*
D86*
X26232Y25759D3*
X25232D3*
X24232D3*
X23232D3*
X22232D3*
X21232D3*
X20232D3*
X19232D3*
X18232D3*
X17232D3*
X16232D3*
X15232D3*
X14232D3*
X13232D3*
X12232D3*
X11232D3*
X10232D3*
X9232D3*
X8232D3*
X7232D3*
Y23455D3*
X8232D3*
X9232D3*
X10232D3*
X11232D3*
X12232D3*
X13232D3*
X14232D3*
X15232Y23485D3*
X16232Y23455D3*
X17232D3*
X18232D3*
X19232D3*
X20232D3*
X21232D3*
X22232D3*
X23262D3*
X24232D3*
X25232D3*
X26232D3*
D74*
X9468Y13797D3*
Y17340D3*
D96*
X10125Y20996D3*
Y21744D3*
D65*
X11886Y22061D3*
Y20683D3*
X12437D3*
Y22061D3*
D71*
X8062Y19496D3*
X8436Y20283D3*
X7688D3*
D99*
X18750Y7996D3*
X19419D3*
X24106Y9433D3*
X23437D3*
D40*
X22125Y21621D3*
Y22290D3*
X22937Y21621D3*
Y22290D3*
X23750Y21621D3*
Y22290D3*
X21125Y17496D3*
Y16826D3*
X23562Y17496D3*
Y16826D3*
D99*
X9500Y9683D3*
X8830D3*
X4937Y20746D3*
X5606D3*
D40*
X5312Y19808D3*
Y19139D3*
D99*
X26625Y21746D3*
X27294D3*
X10812Y20058D3*
X10143D3*
X27312Y20933D3*
X26643D3*
D40*
X21937Y17477D3*
Y16808D3*
X22750Y17496D3*
Y16826D3*
X17625Y17496D3*
Y16826D3*
X11875Y19746D3*
Y19076D3*
X12687Y19746D3*
Y19076D3*
X14312Y19058D3*
Y19727D3*
X13500Y19746D3*
Y19076D3*
D67*
X20312Y13433D3*
X20568D3*
X20824D3*
X21080D3*
X21336D3*
X21592D3*
X21847D3*
X22103D3*
X22359D3*
X22615D3*
Y15717D3*
X22359D3*
X22103D3*
X21847D3*
X21592D3*
X21336D3*
X21080D3*
X20824D3*
X20568D3*
X20312D3*
D66*
X19125Y13621D3*
X18751D3*
X18376D3*
Y12558D3*
X19125D3*
D50*
X24375Y13246D3*
Y13620D3*
Y13994D3*
X23312D3*
Y13246D3*
D43*
X7875Y10746D3*
X8375D3*
X8875D3*
X9375D3*
Y12872D3*
X8875D3*
X8375D3*
X7875D3*
D62*
X8664Y11809D3*
D60*
X16812Y22246D3*
Y21746D3*
Y21246D3*
Y20746D3*
X18938D3*
Y21246D3*
Y21746D3*
Y22246D3*
D66*
X6875Y20058D3*
X6501D3*
X6126D3*
Y18995D3*
X6501D3*
X6875D3*
D58*
X14687Y17871D3*
Y18127D3*
Y18383D3*
X13821D3*
Y17871D3*
M02*
