G04 DipTrace 2.4.0.2*
%INTopSilk.gbr*%
%MOIN*%
%ADD10C,0.0098*%
%ADD12C,0.003*%
%ADD14C,0.0236*%
%ADD17C,0.013*%
%ADD24C,0.025*%
%ADD44C,0.0154*%
%ADD100C,0.0077*%
%ADD102C,0.0062*%
%ADD103C,0.0093*%
%ADD104C,0.0108*%
%FSLAX44Y44*%
G04*
G70*
G90*
G75*
G01*
%LNTopSilk*%
%LPD*%
X18423Y7498D2*
D10*
X19746D1*
Y6868D1*
X18423D1*
Y7498D1*
X24433Y8306D2*
X23110D1*
Y8936D1*
X24433D1*
Y8306D1*
X23114Y11873D2*
X24437D1*
Y11243D1*
X23114D1*
Y11873D1*
X23110Y11061D2*
X24433D1*
Y10431D1*
X23110D1*
Y11061D1*
X18423Y9748D2*
X19746D1*
Y9118D1*
X18423D1*
Y9748D1*
X18441Y10561D2*
X19764D1*
Y9931D1*
X18441D1*
Y10561D1*
X19764Y10743D2*
X18441D1*
Y11373D1*
X19764D1*
Y10743D1*
X19185Y16481D2*
X19814D1*
Y17804D1*
X19185D1*
Y16481D1*
X18125Y16307D2*
X19000D1*
Y17807D1*
X18125D1*
Y16307D1*
X20627Y17822D2*
X19997D1*
Y16500D1*
X20627D1*
Y17822D1*
X25752Y14197D2*
X25122D1*
Y12875D1*
X25752D1*
Y14197D1*
X23110Y12686D2*
X24433D1*
Y12056D1*
X23110D1*
Y12686D1*
X17877Y14197D2*
X17247D1*
Y12875D1*
X17877D1*
Y14197D1*
X19764Y11556D2*
X18441D1*
Y12186D1*
X19764D1*
Y11556D1*
X20439Y22635D2*
X19810D1*
Y21312D1*
X20439D1*
Y22635D1*
X8188Y9308D2*
X6688D1*
Y10183D1*
X8188D1*
Y9308D1*
X8562Y17870D2*
X9437D1*
Y19370D1*
X8562D1*
Y17870D1*
X7876Y17121D2*
X6376D1*
Y17996D1*
X7876D1*
Y17121D1*
X6685Y10481D2*
X7314D1*
Y11804D1*
X6685D1*
Y10481D1*
X7939Y22804D2*
X7310D1*
Y21481D1*
X7939D1*
Y22804D1*
X14752Y22322D2*
X14122D1*
Y21000D1*
X14752D1*
Y22322D1*
X7521Y14203D2*
Y12431D1*
X6103Y14203D2*
Y12431D1*
X7521D2*
X7422D1*
X7521Y14203D2*
X7422D1*
X6202Y12431D2*
X6103D1*
X6202Y14203D2*
X6103D1*
D14*
X6812Y14921D3*
X17931Y200D2*
D10*
X14664D1*
X17931D2*
Y3743D1*
X14664Y200D2*
Y3743D1*
X18265Y7877D2*
X17085D1*
X15510D2*
X14329D1*
X18265D2*
Y4767D1*
X15510Y7877D2*
Y7287D1*
X15785D1*
X14329Y4767D2*
Y7877D1*
X17085D2*
Y7287D1*
X16809D1*
X26512Y200D2*
X23245D1*
X26512D2*
Y3743D1*
X23245Y200D2*
Y3743D1*
X26847Y7877D2*
X25666D1*
X24091D2*
X22910D1*
X26847D2*
Y4767D1*
X24091Y7877D2*
Y7287D1*
X24367D1*
X22910Y4767D2*
Y7877D1*
X25666D2*
Y7287D1*
X25390D1*
X21625Y22621D2*
X20625D1*
X21625Y20621D2*
Y22621D1*
Y20621D2*
X20625D1*
Y22621D1*
X25125Y17808D2*
X24125D1*
X25125Y15808D2*
Y17808D1*
Y15808D2*
X24125D1*
Y17808D1*
X6591Y3281D2*
X10134D1*
Y6470D1*
X10154Y8497D2*
Y8950D1*
X9455D1*
X7211D2*
X6591D1*
Y3281D1*
X7531Y14692D2*
Y16442D1*
X8655Y17567D2*
X7531Y16442D1*
X8655Y13567D2*
X7531Y14692D1*
X10281Y13567D2*
X11406Y14692D1*
X10281Y17567D2*
X11406Y16442D1*
Y14692D1*
X10380Y20622D2*
X9869D1*
X12911Y22497D2*
X11411D1*
Y20247D1*
X12911D1*
Y22497D1*
D24*
X12411Y22747D3*
G36*
X12911Y20685D2*
X12724D1*
Y20497D1*
X12911D1*
Y20685D1*
G37*
G36*
X11599D2*
X11411D1*
Y20497D1*
X11599D1*
Y20685D1*
G37*
X8597Y19781D2*
D10*
X7527D1*
Y20001D1*
X8597D1*
Y19781D1*
X18428Y8311D2*
X19746D1*
Y7683D1*
X18428D1*
Y8311D1*
X24428Y9118D2*
X23110D1*
Y9746D1*
X24428D1*
Y9118D1*
X21810Y21299D2*
X22437D1*
Y22617D1*
X21810D1*
Y21299D1*
X22622D2*
X23250D1*
Y22617D1*
X22622D1*
Y21299D1*
X23435D2*
X24062D1*
Y22617D1*
X23435D1*
Y21299D1*
X21439Y17818D2*
X20812D1*
Y16500D1*
X21439D1*
Y17818D1*
X23877D2*
X23250D1*
Y16500D1*
X23877D1*
Y17818D1*
X9821Y9368D2*
X8503D1*
Y9996D1*
X9821D1*
Y9368D1*
X4615Y21061D2*
X5933D1*
Y20433D1*
X4615D1*
Y21061D1*
X5627Y20130D2*
X5000D1*
Y18812D1*
X5627D1*
Y20130D1*
X26303Y22061D2*
X27621D1*
Y21433D1*
X26303D1*
Y22061D1*
X11134Y19743D2*
X9816D1*
Y20371D1*
X11134D1*
Y19743D1*
X27634Y20618D2*
X26316D1*
Y21246D1*
X27634D1*
Y20618D1*
X22252Y17799D2*
X21625D1*
Y16481D1*
X22252D1*
Y17799D1*
X23064Y17818D2*
X22437D1*
Y16500D1*
X23064D1*
Y17818D1*
X17939D2*
X17312D1*
Y16500D1*
X17939D1*
Y17818D1*
X12189Y20068D2*
X11562D1*
Y18750D1*
X12189D1*
Y20068D1*
X13002D2*
X12375D1*
Y18750D1*
X13002D1*
Y20068D1*
X13997Y18736D2*
X14625D1*
Y20054D1*
X13997D1*
Y18736D1*
X13814Y20068D2*
X13187D1*
Y18750D1*
X13814D1*
Y20068D1*
X26812Y22568D2*
X26750D1*
Y22443D1*
Y19818D2*
X26812D1*
X27812D2*
X29312D1*
Y22568D1*
X27812D1*
Y19818D1*
X26750Y22443D2*
X26812D1*
X26750Y19818D2*
Y19943D1*
X26812D1*
X20164Y13945D2*
X22763D1*
X20164Y15205D2*
X22763D1*
Y13945D2*
Y15205D1*
X20164Y13945D2*
Y14378D1*
Y14772D2*
Y15205D1*
Y14378D2*
G03X20164Y14772I0J197D01*
G01*
D44*
X19394Y13787D3*
X19341Y13246D2*
D10*
X18160D1*
X19341Y12931D2*
X18160D1*
Y13246D2*
Y12931D1*
X19341Y13246D2*
Y12931D1*
D44*
X24541Y12977D3*
X24000Y13029D2*
D10*
Y14210D1*
X23685Y13029D2*
Y14210D1*
X24000D2*
X23685D1*
X24000Y13029D2*
X23685D1*
X7640Y11297D2*
X9609D1*
X7640Y12321D2*
X9609D1*
Y11297D2*
Y12321D1*
X7640Y11612D2*
Y11297D1*
Y12006D2*
Y12321D1*
Y11612D2*
G03X7640Y12006I0J197D01*
G01*
X17363Y22480D2*
Y20511D1*
X18387Y22480D2*
Y20511D1*
X17363D2*
X18387D1*
X17678Y22480D2*
X17363D1*
X18072D2*
X18387D1*
X17678D2*
G03X18072Y22480I197J0D01*
G01*
D44*
X7144Y20224D3*
X7091Y19684D2*
D10*
X5910D1*
X7091Y19369D2*
X5910D1*
Y19684D2*
Y19369D1*
X7091Y19684D2*
Y19369D1*
D44*
X14795Y17602D3*
X14372Y17733D2*
D10*
Y18520D1*
X14136D1*
Y17733D1*
X14372D1*
X18514Y19935D2*
X24814D1*
Y19247D1*
X18514D1*
Y19935D1*
X21626Y20622D2*
Y19935D1*
X25548Y19013D2*
X27642D1*
Y14324D1*
X25548D1*
Y19013D1*
X25165Y16870D2*
D17*
X25516D1*
X17644Y15861D2*
D12*
X17883D1*
X11869Y15831D2*
X11929D1*
X12557D2*
X12617D1*
X13814D2*
X14083D1*
X15370D2*
X15669D1*
X16656D2*
X16716D1*
X17571D2*
X17925D1*
X11869Y15801D2*
X11929D1*
X12557D2*
X12617D1*
X12916D2*
X12946D1*
X13786D2*
X14151D1*
X14592D2*
X14622D1*
X15328D2*
X15769D1*
X16642D2*
X16727D1*
X17508D2*
X17687D1*
X17823D2*
X17953D1*
X11869Y15771D2*
X11929D1*
X12557D2*
X12617D1*
X12904D2*
X12959D1*
X13766D2*
X13886D1*
X14036D2*
X14207D1*
X14579D2*
X14634D1*
X15298D2*
X15447D1*
X15621D2*
X15850D1*
X16629D2*
X16737D1*
X17456D2*
X17597D1*
X17943D2*
X17973D1*
X11869Y15741D2*
X11929D1*
X12557D2*
X12617D1*
X12896D2*
X12966D1*
X13760D2*
X13845D1*
X14118D2*
X14250D1*
X14572D2*
X14642D1*
X15288D2*
X15387D1*
X15733D2*
X15910D1*
X16617D2*
X16746D1*
X17414D2*
X17529D1*
X11869Y15711D2*
X11929D1*
X12557D2*
X12617D1*
X12905D2*
X12958D1*
X13756D2*
X13829D1*
X14177D2*
X14282D1*
X14580D2*
X14634D1*
X15283D2*
X15359D1*
X15817D2*
X15955D1*
X16607D2*
X16652D1*
X16717D2*
X16757D1*
X17380D2*
X17479D1*
X11869Y15681D2*
X11929D1*
X12557D2*
X12617D1*
X12916D2*
X12946D1*
X13755D2*
X13820D1*
X14217D2*
X14304D1*
X14592D2*
X14622D1*
X15281D2*
X15349D1*
X15880D2*
X15988D1*
X16597D2*
X16644D1*
X16721D2*
X16770D1*
X17351D2*
X17441D1*
X11869Y15651D2*
X11929D1*
X12557D2*
X12617D1*
X13754D2*
X13816D1*
X14245D2*
X14319D1*
X15281D2*
X15344D1*
X15925D2*
X16013D1*
X16587D2*
X16636D1*
X16729D2*
X16783D1*
X17329D2*
X17408D1*
X11869Y15621D2*
X11929D1*
X12557D2*
X12617D1*
X13754D2*
X13815D1*
X14265D2*
X14331D1*
X15280D2*
X15341D1*
X15958D2*
X16032D1*
X16577D2*
X16626D1*
X16737D2*
X16795D1*
X17310D2*
X17380D1*
X11869Y15591D2*
X11929D1*
X12557D2*
X12617D1*
X13754D2*
X13814D1*
X14279D2*
X14341D1*
X15280D2*
X15340D1*
X15983D2*
X16049D1*
X16567D2*
X16616D1*
X16746D2*
X16805D1*
X17293D2*
X17358D1*
X11869Y15561D2*
X11929D1*
X12557D2*
X12617D1*
X13754D2*
X13814D1*
X14286D2*
X14347D1*
X15280D2*
X15340D1*
X16001D2*
X16064D1*
X16557D2*
X16606D1*
X16756D2*
X16816D1*
X17279D2*
X17341D1*
X11869Y15531D2*
X11929D1*
X12557D2*
X12617D1*
X13754D2*
X13814D1*
X14290D2*
X14350D1*
X15280D2*
X15340D1*
X16016D2*
X16076D1*
X16547D2*
X16597D1*
X16766D2*
X16826D1*
X17267D2*
X17327D1*
X11869Y15502D2*
X11929D1*
X12557D2*
X12617D1*
X12886D2*
X12946D1*
X13754D2*
X13814D1*
X14290D2*
X14350D1*
X14562D2*
X14622D1*
X15280D2*
X15340D1*
X16027D2*
X16087D1*
X16537D2*
X16587D1*
X16776D2*
X16836D1*
X17260D2*
X17316D1*
X11869Y15472D2*
X11929D1*
X12557D2*
X12617D1*
X12886D2*
X12946D1*
X13754D2*
X13814D1*
X14287D2*
X14347D1*
X14562D2*
X14622D1*
X15280D2*
X15340D1*
X16038D2*
X16098D1*
X16527D2*
X16577D1*
X16786D2*
X16846D1*
X17252D2*
X17305D1*
X11869Y15442D2*
X11929D1*
X12557D2*
X12617D1*
X12886D2*
X12946D1*
X13754D2*
X13814D1*
X14279D2*
X14340D1*
X14562D2*
X14622D1*
X15280D2*
X15340D1*
X16047D2*
X16107D1*
X16517D2*
X16567D1*
X16796D2*
X16856D1*
X17244D2*
X17296D1*
X11869Y15412D2*
X11929D1*
X12557D2*
X12617D1*
X12886D2*
X12946D1*
X13754D2*
X13814D1*
X14267D2*
X14331D1*
X14562D2*
X14622D1*
X15280D2*
X15340D1*
X16053D2*
X16113D1*
X16507D2*
X16557D1*
X16806D2*
X16866D1*
X17235D2*
X17290D1*
X11869Y15382D2*
X11929D1*
X12557D2*
X12617D1*
X12886D2*
X12946D1*
X13754D2*
X13814D1*
X14249D2*
X14321D1*
X14562D2*
X14622D1*
X15280D2*
X15340D1*
X16056D2*
X16116D1*
X16497D2*
X16547D1*
X16816D2*
X16876D1*
X17230D2*
X17287D1*
X11869Y15352D2*
X12617D1*
X12886D2*
X12946D1*
X13754D2*
X13814D1*
X14224D2*
X14306D1*
X14562D2*
X14622D1*
X15280D2*
X15340D1*
X16057D2*
X16117D1*
X16487D2*
X16537D1*
X16826D2*
X16886D1*
X17227D2*
X17286D1*
X11869Y15322D2*
X12617D1*
X12886D2*
X12946D1*
X13754D2*
X13814D1*
X14193D2*
X14285D1*
X14562D2*
X14622D1*
X15280D2*
X15340D1*
X16058D2*
X16118D1*
X16477D2*
X16527D1*
X16836D2*
X16896D1*
X17226D2*
X17285D1*
X11869Y15292D2*
X11929D1*
X12557D2*
X12617D1*
X12886D2*
X12946D1*
X13754D2*
X13814D1*
X14103D2*
X14256D1*
X14562D2*
X14622D1*
X15280D2*
X15340D1*
X16058D2*
X16118D1*
X16467D2*
X16517D1*
X16847D2*
X16906D1*
X17225D2*
X17285D1*
X11869Y15262D2*
X11929D1*
X12557D2*
X12617D1*
X12886D2*
X12946D1*
X13754D2*
X13814D1*
X13961D2*
X14221D1*
X14562D2*
X14622D1*
X15280D2*
X15340D1*
X16058D2*
X16117D1*
X16457D2*
X16506D1*
X16861D2*
X16916D1*
X17225D2*
X17285D1*
X11869Y15232D2*
X11929D1*
X12557D2*
X12617D1*
X12886D2*
X12946D1*
X13754D2*
X14127D1*
X14562D2*
X14622D1*
X15280D2*
X15340D1*
X16057D2*
X16113D1*
X16447D2*
X16491D1*
X16879D2*
X16926D1*
X17225D2*
X17285D1*
X11869Y15202D2*
X11929D1*
X12557D2*
X12617D1*
X12886D2*
X12946D1*
X13186D2*
X13545D1*
X13754D2*
X13986D1*
X14562D2*
X14622D1*
X15280D2*
X15340D1*
X16053D2*
X16106D1*
X16436D2*
X16470D1*
X16901D2*
X16936D1*
X17226D2*
X17286D1*
X11869Y15172D2*
X11929D1*
X12557D2*
X12617D1*
X12886D2*
X12946D1*
X13186D2*
X13545D1*
X13754D2*
X13814D1*
X14562D2*
X14622D1*
X15280D2*
X15340D1*
X16046D2*
X16098D1*
X16423D2*
X16946D1*
X17230D2*
X17290D1*
X11869Y15143D2*
X11929D1*
X12557D2*
X12617D1*
X12886D2*
X12946D1*
X13754D2*
X13814D1*
X14562D2*
X14622D1*
X15280D2*
X15340D1*
X16037D2*
X16092D1*
X16410D2*
X16955D1*
X17237D2*
X17297D1*
X11869Y15113D2*
X11929D1*
X12557D2*
X12617D1*
X12886D2*
X12946D1*
X13754D2*
X13814D1*
X14562D2*
X14622D1*
X15280D2*
X15340D1*
X16028D2*
X16085D1*
X16398D2*
X16482D1*
X16891D2*
X16966D1*
X17246D2*
X17306D1*
X11869Y15083D2*
X11929D1*
X12557D2*
X12617D1*
X12886D2*
X12946D1*
X13754D2*
X13814D1*
X14562D2*
X14622D1*
X15280D2*
X15340D1*
X16017D2*
X16075D1*
X16388D2*
X16460D1*
X16912D2*
X16976D1*
X17255D2*
X17315D1*
X11869Y15053D2*
X11929D1*
X12557D2*
X12617D1*
X12886D2*
X12946D1*
X13754D2*
X13814D1*
X14562D2*
X14622D1*
X15280D2*
X15340D1*
X16003D2*
X16063D1*
X16377D2*
X16443D1*
X16930D2*
X16985D1*
X17265D2*
X17326D1*
X11869Y15023D2*
X11929D1*
X12557D2*
X12617D1*
X12886D2*
X12946D1*
X13754D2*
X13814D1*
X14562D2*
X14622D1*
X15280D2*
X15340D1*
X15985D2*
X16050D1*
X16367D2*
X16429D1*
X16943D2*
X16997D1*
X17275D2*
X17339D1*
X11869Y14993D2*
X11929D1*
X12557D2*
X12617D1*
X12886D2*
X12946D1*
X13754D2*
X13814D1*
X14562D2*
X14622D1*
X15280D2*
X15340D1*
X15962D2*
X16034D1*
X16358D2*
X16418D1*
X16954D2*
X17010D1*
X17286D2*
X17353D1*
X11869Y14963D2*
X11929D1*
X12557D2*
X12617D1*
X12886D2*
X12946D1*
X13754D2*
X13814D1*
X14562D2*
X14622D1*
X15280D2*
X15340D1*
X15935D2*
X16015D1*
X16347D2*
X16407D1*
X16965D2*
X17023D1*
X17300D2*
X17369D1*
X11869Y14933D2*
X11929D1*
X12557D2*
X12617D1*
X12886D2*
X12946D1*
X13754D2*
X13814D1*
X14562D2*
X14622D1*
X15280D2*
X15340D1*
X15901D2*
X15992D1*
X16337D2*
X16397D1*
X16976D2*
X17034D1*
X17317D2*
X17389D1*
X11869Y14903D2*
X11929D1*
X12557D2*
X12617D1*
X12886D2*
X12946D1*
X13754D2*
X13814D1*
X14562D2*
X14622D1*
X15280D2*
X15342D1*
X15855D2*
X15965D1*
X16328D2*
X16387D1*
X16985D2*
X17045D1*
X17337D2*
X17417D1*
X11869Y14873D2*
X11929D1*
X12557D2*
X12617D1*
X12886D2*
X12946D1*
X13754D2*
X13814D1*
X14562D2*
X14622D1*
X15280D2*
X15347D1*
X15784D2*
X15931D1*
X16317D2*
X16377D1*
X16996D2*
X17055D1*
X17361D2*
X17458D1*
X11869Y14843D2*
X11929D1*
X12557D2*
X12617D1*
X12886D2*
X12946D1*
X13754D2*
X13814D1*
X14562D2*
X14622D1*
X15280D2*
X15383D1*
X15665D2*
X15886D1*
X16307D2*
X16367D1*
X17006D2*
X17066D1*
X17393D2*
X17519D1*
X11869Y14813D2*
X11929D1*
X12557D2*
X12617D1*
X12886D2*
X12946D1*
X13754D2*
X13814D1*
X14562D2*
X14622D1*
X15280D2*
X15486D1*
X15489D2*
X15823D1*
X16297D2*
X16357D1*
X17016D2*
X17076D1*
X17434D2*
X17606D1*
X11869Y14783D2*
X11929D1*
X12557D2*
X12617D1*
X12886D2*
X12946D1*
X13754D2*
X13814D1*
X14562D2*
X14622D1*
X15280D2*
X15737D1*
X16283D2*
X16343D1*
X17030D2*
X17089D1*
X17485D2*
X17722D1*
X17823D2*
X18003D1*
X11869Y14754D2*
X11929D1*
X12557D2*
X12617D1*
X12886D2*
X12946D1*
X13754D2*
X13814D1*
X14562D2*
X14622D1*
X15280D2*
X15639D1*
X16267D2*
X16327D1*
X17045D2*
X17105D1*
X17546D2*
X17931D1*
X17614Y14724D2*
X17853D1*
X11974Y14455D2*
X12054D1*
X13101D2*
X13131D1*
X11934Y14445D2*
X11944D1*
X12084D2*
X12094D1*
X13061D2*
D3*
X13161D2*
D3*
X11934Y14435D2*
X11944D1*
X12104D2*
D3*
X13181D2*
D3*
X11934Y14425D2*
X11944D1*
X12124D2*
D3*
X13189D2*
X13191D1*
X11934Y14415D2*
X11944D1*
X13196D2*
X13201D1*
X11934Y14405D2*
X11944D1*
X12134D2*
D3*
X13202D2*
X13201D1*
X11934Y14395D2*
X11944D1*
X12139D2*
X12144D1*
X13206D2*
X13211D1*
X11934Y14385D2*
X11944D1*
X12144D2*
D3*
X13209D2*
X13211D1*
X11934Y14375D2*
X11944D1*
X13210D2*
X13211D1*
X11934Y14365D2*
X11944D1*
X12144D2*
X12154D1*
X13211D2*
X13221D1*
X11934Y14355D2*
X11944D1*
X12144D2*
X12154D1*
X13211D2*
X13221D1*
X11934Y14345D2*
X11944D1*
X12144D2*
X12154D1*
X13211D2*
X13221D1*
X11934Y14335D2*
X11944D1*
X12144D2*
X12154D1*
X12343D2*
X12383D1*
X13211D2*
X13221D1*
X11934Y14325D2*
X11944D1*
X12413D2*
D3*
X12553D2*
D3*
X12782D2*
D3*
X13211D2*
X13221D1*
X11934Y14315D2*
X11944D1*
X12144D2*
D3*
X12556D2*
X12553D1*
X12782D2*
D3*
X11934Y14305D2*
X11944D1*
X12144D2*
D3*
X12559D2*
X12563D1*
X12772D2*
D3*
X13211D2*
D3*
X11934Y14295D2*
X11944D1*
X12443D2*
D3*
X12563D2*
D3*
X12772D2*
D3*
X13211D2*
D3*
X11934Y14286D2*
X11944D1*
X12449D2*
X12453D1*
X12566D2*
X12563D1*
X11934Y14276D2*
X11944D1*
X12263D2*
D3*
X12454D2*
X12453D1*
X12569D2*
X12573D1*
X12762D2*
D3*
X13201D2*
D3*
X11934Y14266D2*
X11944D1*
X12458D2*
X12463D1*
X12573D2*
D3*
X12762D2*
D3*
X13201D2*
D3*
X11934Y14256D2*
X11944D1*
X12253D2*
D3*
X12461D2*
X12463D1*
X13191D2*
D3*
X11934Y14246D2*
X11944D1*
X12253D2*
D3*
X12463D2*
D3*
X12583D2*
D3*
X12752D2*
D3*
X11934Y14236D2*
X12074D1*
X12243D2*
D3*
X12583D2*
D3*
X13181D2*
D3*
X11934Y14226D2*
X11944D1*
X12245D2*
X12243D1*
X12463D2*
X12473D1*
X12742D2*
D3*
X11934Y14216D2*
X11944D1*
X12249D2*
X12243D1*
X12463D2*
X12473D1*
X12593D2*
D3*
X12742D2*
D3*
X11934Y14206D2*
X11944D1*
X12463D2*
X12473D1*
X12596D2*
X12593D1*
X13161D2*
D3*
X11934Y14196D2*
X11944D1*
X12243D2*
X12473D1*
X12599D2*
X12602D1*
X12732D2*
D3*
X11934Y14186D2*
X11944D1*
X12114D2*
D3*
X12602D2*
D3*
X11934Y14176D2*
X11944D1*
X12119D2*
X12124D1*
X12233D2*
X12243D1*
X11934Y14166D2*
X11944D1*
X12124D2*
D3*
X12612D2*
D3*
X12722D2*
D3*
X11934Y14156D2*
X11944D1*
X12243D2*
D3*
X12612D2*
D3*
X11934Y14146D2*
X11944D1*
X12134D2*
D3*
X12244D2*
X12243D1*
X11934Y14136D2*
X11944D1*
X12134D2*
D3*
X12245D2*
X12243D1*
X12622D2*
D3*
X13101D2*
D3*
X11934Y14126D2*
X11944D1*
X12135D2*
X12134D1*
X12248D2*
X12243D1*
X13091D2*
D3*
X11934Y14116D2*
X11944D1*
X12138D2*
X12134D1*
X12250D2*
X12253D1*
X12632D2*
D3*
X12702D2*
D3*
X13081D2*
D3*
X11934Y14106D2*
X11944D1*
X12140D2*
X12144D1*
X12254D2*
X12253D1*
X12632D2*
D3*
X13071D2*
D3*
X11934Y14096D2*
X11944D1*
X12142D2*
X12144D1*
X12258D2*
X12253D1*
X11934Y14086D2*
X11944D1*
X12145D2*
X12144D1*
X12263D2*
D3*
X12642D2*
D3*
X11934Y14076D2*
X11944D1*
X12147D2*
X12144D1*
X12642D2*
D3*
X11934Y14066D2*
X11944D1*
X12150D2*
X12154D1*
X11934Y14056D2*
X11944D1*
X12152D2*
X12154D1*
X12652D2*
X12672D1*
X11934Y14046D2*
X11944D1*
X12154D2*
D3*
X12303D2*
D3*
X12662D2*
X12672D1*
X13021D2*
X13031D1*
X11934Y14036D2*
X11944D1*
X12323D2*
D3*
X12443D2*
D3*
X13011D2*
X13231D1*
X12353Y14026D2*
X12403D1*
X14264Y13998D2*
X14353D1*
X14443D2*
X14473D1*
X14167Y13968D2*
X14506D1*
X14059Y13939D2*
X14535D1*
X13933Y13909D2*
X14560D1*
X13806Y13879D2*
X14582D1*
X13692Y13849D2*
X14603D1*
X13583Y13819D2*
X14627D1*
X13476Y13789D2*
X14049D1*
X14115D2*
X14517D1*
X14549D2*
X14650D1*
X13379Y13759D2*
X14038D1*
X14120D2*
X14670D1*
X13297Y13729D2*
X14024D1*
X14130D2*
X14114D1*
X14166D2*
X14174D1*
X14220D2*
X14687D1*
X13231Y13699D2*
X13731D1*
X13779D2*
X14112D1*
X14143D2*
X14699D1*
X13178Y13669D2*
X13541D1*
X13605D2*
X13711D1*
X13755D2*
D3*
X13799D2*
X13919D1*
X13950D2*
X14708D1*
X13136Y13639D2*
X13366D1*
X13426D2*
X13533D1*
X13635D2*
D3*
X13695D2*
X14716D1*
X13099Y13609D2*
X13307D1*
X13516D2*
X13524D1*
X13561D2*
X14583D1*
X14680D2*
X14729D1*
X13057Y13579D2*
X13252D1*
X13454D2*
X14568D1*
X14641D2*
X14745D1*
X12999Y13550D2*
X13203D1*
X13306D2*
X13336D1*
X13407D2*
X14479D1*
X14533D2*
X14550D1*
X14590D2*
X14762D1*
X12922Y13520D2*
X13157D1*
X13234D2*
X14459D1*
X14503D2*
X14779D1*
X12841Y13490D2*
X14300D1*
X14342D2*
X14794D1*
X12775Y13460D2*
X14253D1*
X14407D2*
X14810D1*
X12729Y13430D2*
X14215D1*
X14323D2*
X14353D1*
X14458D2*
X14532D1*
X14670D2*
X14826D1*
X12697Y13400D2*
X13158D1*
X13251D2*
X14196D1*
X14294D2*
X14301D1*
X14413D2*
D3*
X14503D2*
X14497D1*
X14563D2*
X14593D1*
X14653D2*
D3*
X14730D2*
X14845D1*
X12670Y13370D2*
X13012D1*
X13061D2*
X13102D1*
X13157D2*
X13192D1*
X13259D2*
X14195D1*
X14234D2*
X14241D1*
X14323D2*
X14353D1*
X14443D2*
X14457D1*
X14621D2*
X14623D1*
X14771D2*
X14867D1*
X12644Y13340D2*
X12816D1*
X12917D2*
D3*
X13007D2*
X13023D1*
X13051D2*
X13083D1*
X13113D2*
X13232D1*
X13268D2*
X13410D1*
X13442D2*
X13500D1*
X13531D2*
X13709D1*
X13741D2*
X14129D1*
X14174D2*
X14167D1*
X14278D2*
X14294D1*
X14413D2*
D3*
X14802D2*
X14889D1*
X12614Y13310D2*
X12856D1*
X12947D2*
X14176D1*
X14320D2*
X14323D1*
X14443D2*
D3*
X14503D2*
D3*
X14609D2*
X14910D1*
X12576Y13280D2*
X12874D1*
X12977D2*
X14234D1*
X14294D2*
D3*
X14357D2*
X14383D1*
X14444D2*
X14927D1*
X12527Y13250D2*
X12797D1*
X12917D2*
X14174D1*
X14264D2*
D3*
X14323D2*
X14351D1*
X14361D2*
X14943D1*
X12471Y13220D2*
X12811D1*
X12947D2*
X14095D1*
X14133D2*
X14232D1*
X14265D2*
X14958D1*
X12416Y13190D2*
X12827D1*
X12907D2*
X14056D1*
X14082D2*
X14970D1*
X12369Y13161D2*
X12786D1*
X12867D2*
X14983D1*
X12334Y13131D2*
X12648D1*
X12766D2*
X12736D1*
X12827D2*
X14667D1*
X14698D2*
X14748D1*
X14797D2*
X15002D1*
X12310Y13101D2*
X12512D1*
X12544D2*
X12558D1*
X12618D2*
D3*
X12857D2*
D3*
X12903D2*
X14563D1*
X14623D2*
X14728D1*
X14756D2*
X14862D1*
X14952D2*
X15030D1*
X12293Y13071D2*
X14772D1*
X14982D2*
X15059D1*
X12279Y13041D2*
X14547D1*
X14579D2*
X14637D1*
X14668D2*
X15084D1*
X12264Y13011D2*
X15105D1*
X12246Y12981D2*
X15125D1*
X12223Y12951D2*
X13676D1*
X13845D2*
X13964D1*
X14214D2*
X15148D1*
X12195Y12921D2*
X13636D1*
X13725D2*
X13755D1*
X14024D2*
X14084D1*
X14174D2*
X15178D1*
X12163Y12891D2*
X13396D1*
X13486D2*
D3*
X13605D2*
X13603D1*
X13665D2*
X13707D1*
X13815D2*
D3*
X13875D2*
D3*
X13964D2*
D3*
X14052D2*
X14098D1*
X14143D2*
X14747D1*
X14802D2*
X15208D1*
X12126Y12861D2*
X13367D1*
X13456D2*
D3*
X13516D2*
D3*
X13575D2*
X13574D1*
X13635D2*
X13661D1*
X13725D2*
D3*
X13815D2*
D3*
X13934D2*
D3*
X13994D2*
X14024D1*
X14059D2*
X14725D1*
X14772D2*
D3*
X14862D2*
D3*
X14922D2*
D3*
X14982D2*
D3*
X15040D2*
X15234D1*
X12085Y12831D2*
X12542D1*
X12574D2*
X13282D1*
X13336D2*
X13342D1*
X13426D2*
D3*
X13484D2*
X13486D1*
X13545D2*
X13546D1*
X13605D2*
X13620D1*
X13695D2*
D3*
X13785D2*
D3*
X13875D2*
D3*
X13964D2*
D3*
X14024D2*
X14443D1*
X14503D2*
X14565D1*
X14623D2*
D3*
X14712D2*
X14704D1*
X15012D2*
D3*
X15066D2*
X15071D1*
X15126D2*
X15253D1*
X12047Y12801D2*
X13322D1*
X13366D2*
X13396D1*
X13440D2*
X13456D1*
X13510D2*
X13521D1*
X13575D2*
X13585D1*
X13635D2*
X13665D1*
X13845D2*
D3*
X13891D2*
X13905D1*
X13966D2*
X14485D1*
X14593D2*
D3*
X14682D2*
D3*
X14832D2*
X14862D1*
X14922D2*
X14952D1*
X15042D2*
D3*
X15085D2*
X15268D1*
X12015Y12772D2*
X13171D1*
X13202D2*
X13216D1*
X13262D2*
X13366D1*
X13421D2*
X13502D1*
X13529D2*
X13567D1*
X13693D2*
X13695D1*
X13755D2*
X13785D1*
X13905D2*
X14418D1*
X14503D2*
X14533D1*
X14742D2*
D3*
X14968D2*
X15279D1*
X11991Y12742D2*
X13569D1*
X13605D2*
D3*
X13731D2*
X14294D1*
X14353D2*
X14359D1*
X14413D2*
X14473D1*
X14533D2*
X14563D1*
X14653D2*
D3*
X14712D2*
D3*
X14772D2*
D3*
X14832D2*
D3*
X14922D2*
D3*
X15012D2*
X15290D1*
X11976Y12712D2*
X14300D1*
X14383D2*
X14415D1*
X14489D2*
X14533D1*
X14593D2*
D3*
X14653D2*
D3*
X14742D2*
D3*
X14862D2*
D3*
X14968D2*
X15301D1*
X11965Y12682D2*
X14248D1*
X14353D2*
X14367D1*
X14413D2*
X14443D1*
X14563D2*
D3*
X14712D2*
X14742D1*
X14832D2*
D3*
X14920D2*
X15313D1*
X11966Y12652D2*
X12183D1*
X12215D2*
X12333D1*
X12365D2*
X12422D1*
X12454D2*
X14098D1*
X14130D2*
X14174D1*
X14323D2*
D3*
X14383D2*
X14405D1*
X14623D2*
D3*
X14682D2*
D3*
X14742D2*
D3*
X14882D2*
X15221D1*
X15281D2*
X15330D1*
X11978Y12622D2*
X14204D1*
X14294D2*
X14376D1*
X14413D2*
X14533D1*
X14593D2*
D3*
X14833D2*
X15382D1*
X11998Y12592D2*
X14191D1*
X14268D2*
X14362D1*
X14427D2*
X14479D1*
X14533D2*
X14511D1*
X14637D2*
X14623D1*
X14682D2*
X14712D1*
X14767D2*
X15162D1*
X15280D2*
X15460D1*
X12023Y12562D2*
X14184D1*
X14246D2*
X14385D1*
X14443D2*
X14459D1*
X14503D2*
X14480D1*
X14563D2*
D3*
X14668D2*
X15108D1*
X15251D2*
D3*
X15306D2*
X15560D1*
X12050Y12532D2*
X14192D1*
X14225D2*
X14443D1*
X14553D2*
X15060D1*
X15221D2*
D3*
X15281D2*
D3*
X15329D2*
X15667D1*
X12077Y12502D2*
X15019D1*
X15071D2*
X15251D1*
X15351D2*
X15772D1*
X12109Y12472D2*
X13009D1*
X13067D2*
D3*
X13145D2*
X13186D1*
X13336D2*
X13366D1*
X13400D2*
X14982D1*
X15101D2*
X15191D1*
X15311D2*
D3*
X15375D2*
X15870D1*
X12150Y12442D2*
X12958D1*
X13184D2*
X13216D1*
X13521D2*
X15307D1*
X15401D2*
X15431D1*
X15490D2*
D3*
X15550D2*
X15961D1*
X12199Y12413D2*
X12918D1*
X13216D2*
X13246D1*
X13396D2*
D3*
X13486D2*
D3*
X13603D2*
X15460D1*
X15520D2*
D3*
X15580D2*
X16044D1*
X12152Y12383D2*
X12885D1*
X12947D2*
D3*
X13007D2*
D3*
X13127D2*
X13157D1*
X13336D2*
X13366D1*
X13575D2*
D3*
X13665D2*
X15490D1*
X15550D2*
X15580D1*
X15640D2*
D3*
X15730D2*
X16122D1*
X12098Y12353D2*
X12662D1*
X12694D2*
X12739D1*
X12797D2*
X12856D1*
X12917D2*
D3*
X13097D2*
X13157D1*
X13336D2*
D3*
X13486D2*
D3*
X13545D2*
X13575D1*
X13629D2*
X15460D1*
X15520D2*
D3*
X15580D2*
D3*
X15700D2*
D3*
X15790D2*
X16195D1*
X12038Y12323D2*
X12440D1*
X12503D2*
X12744D1*
X12797D2*
X12827D1*
X12947D2*
X12977D1*
X13216D2*
D3*
X13276D2*
X13306D1*
X13442D2*
X13486D1*
X13578D2*
X15490D1*
X15610D2*
X15670D1*
X15730D2*
X15760D1*
X15849D2*
D3*
X15914D2*
X16262D1*
X11977Y12293D2*
X12355D1*
X12468D2*
D3*
X12540D2*
X12755D1*
X12797D2*
D3*
X12917D2*
X12938D1*
X13067D2*
D3*
X13336D2*
D3*
X13396D2*
X13964D1*
X14024D2*
X14234D1*
X14294D2*
D3*
X14353D2*
X15520D1*
X15819D2*
D3*
X15982D2*
X16326D1*
X11917Y12263D2*
X12277D1*
X12379D2*
X12408D1*
X12454D2*
X12498D1*
X12576D2*
X12770D1*
X12857D2*
X12907D1*
X12977D2*
X13007D1*
X13157D2*
D3*
X13216D2*
X13246D1*
X13306D2*
D3*
X13456D2*
X13905D1*
X13964D2*
D3*
X14054D2*
D3*
X14100D2*
X14204D1*
X14264D2*
X14353D1*
X14413D2*
D3*
X14474D2*
X15101D1*
X15161D2*
D3*
X15221D2*
X15550D1*
X15849D2*
D3*
X15909D2*
D3*
X16053D2*
X16387D1*
X11860Y12233D2*
X12209D1*
X12289D2*
X12319D1*
X12379D2*
D3*
X12438D2*
X12468D1*
X12528D2*
D3*
X12606D2*
X12784D1*
X12887D2*
X12881D1*
X12947D2*
X12977D1*
X13037D2*
X13067D1*
X13336D2*
D3*
X13396D2*
X13875D1*
X13994D2*
X14174D1*
X14234D2*
X14264D1*
X14323D2*
D3*
X14479D2*
X14988D1*
X15101D2*
X15131D1*
X15281D2*
D3*
X15324D2*
X15580D1*
X15670D2*
D3*
X15939D2*
D3*
X15999D2*
D3*
X16121D2*
X16446D1*
X11809Y12203D2*
X12148D1*
X12259D2*
X12275D1*
X12349D2*
D3*
X12588D2*
D3*
X12631D2*
X12797D1*
X12857D2*
D3*
X12972D2*
X13007D1*
X13157D2*
D3*
X13486D2*
D3*
X13545D2*
X13845D1*
X13934D2*
D3*
X14024D2*
X14186D1*
X14258D2*
X14264D1*
X14353D2*
D3*
X14413D2*
D3*
X14489D2*
X14912D1*
X15057D2*
X15101D1*
X15383D2*
X15550D1*
X15640D2*
D3*
X15694D2*
X15700D1*
X15760D2*
D3*
X16029D2*
D3*
X16183D2*
X16502D1*
X11760Y12173D2*
X12097D1*
X12169D2*
D3*
X12229D2*
X12236D1*
X12289D2*
D3*
X12468D2*
D3*
X12528D2*
X12558D1*
X12612D2*
X12813D1*
X12857D2*
X12917D1*
X12995D2*
X13186D1*
X13246D2*
D3*
X13306D2*
D3*
X13456D2*
D3*
X13545D2*
X13815D1*
X13875D2*
D3*
X13955D2*
X14186D1*
X14278D2*
X14294D1*
X14367D2*
X14353D1*
X14503D2*
X14847D1*
X15012D2*
X15071D1*
X15131D2*
D3*
X15221D2*
X15311D1*
X15371D2*
D3*
X15431D2*
X15586D1*
X15640D2*
X15670D1*
X15714D2*
X15730D1*
X15790D2*
D3*
X15849D2*
D3*
X16059D2*
X16089D1*
X16149D2*
D3*
X16238D2*
X16554D1*
X11715Y12143D2*
X11983D1*
X12049D2*
D3*
X12139D2*
D3*
X12199D2*
X12202D1*
X12289D2*
D3*
X12408D2*
D3*
X12468D2*
X12512D1*
X12567D2*
X12835D1*
X12887D2*
D3*
X12947D2*
D3*
X13017D2*
X13031D1*
X13097D2*
D3*
X13157D2*
X13167D1*
X13276D2*
D3*
X13545D2*
D3*
X13703D2*
X13785D1*
X13845D2*
D3*
X13905D2*
D3*
X13973D2*
X14187D1*
X14234D2*
D3*
X14294D2*
D3*
X14429D2*
X14795D1*
X14862D2*
X14892D1*
X14952D2*
D3*
X15101D2*
X15161D1*
X15204D2*
X15251D1*
X15384D2*
X15626D1*
X15730D2*
X15760D1*
X15888D2*
X15909D1*
X16179D2*
D3*
X16287D2*
X16601D1*
X11673Y12113D2*
X11970D1*
X12109D2*
D3*
X12169D2*
D3*
X12349D2*
D3*
X12408D2*
X12468D1*
X12558D2*
D3*
X12598D2*
X12862D1*
X12916D2*
X12917D1*
X12977D2*
D3*
X13041D2*
X13019D1*
X13157D2*
X13147D1*
X13216D2*
X13246D1*
X13336D2*
D3*
X13396D2*
D3*
X13486D2*
D3*
X13845D2*
X13875D1*
X13934D2*
D3*
X13985D2*
X14193D1*
X14248D2*
X14264D1*
X14353D2*
X14758D1*
X14842D2*
X14867D1*
X15012D2*
X15042D1*
X15178D2*
X15281D1*
X15392D2*
X15670D1*
X15819D2*
X15865D1*
X15923D2*
X15939D1*
X16208D2*
D3*
X16333D2*
X16642D1*
X11636Y12083D2*
X11939D1*
X12049D2*
X12109D1*
X12289D2*
X12319D1*
X12364D2*
X12379D1*
X12468D2*
X12528D1*
X12624D2*
X12893D1*
X12941D2*
X12999D1*
X13066D2*
X13097D1*
X13186D2*
D3*
X13246D2*
X13276D1*
X13379D2*
X13366D1*
X13721D2*
X13863D1*
X13919D2*
X13934D1*
X13995D2*
X14038D1*
X14070D2*
X14119D1*
X14174D2*
X14204D1*
X14264D2*
X14242D1*
X14323D2*
D3*
X14372D2*
X14732D1*
X14821D2*
X14844D1*
X14892D2*
X14989D1*
X15101D2*
D3*
X15142D2*
X15261D1*
X15341D2*
D3*
X15394D2*
X15640D1*
X15700D2*
X15760D1*
X15834D2*
X15826D1*
X15909D2*
D3*
X15952D2*
X15969D1*
X16029D2*
X16059D1*
X16268D2*
D3*
X16377D2*
X16675D1*
X11603Y12053D2*
X11902D1*
X11990D2*
D3*
X12229D2*
X12305D1*
X12377D2*
X12408D1*
X12468D2*
X12498D1*
X12558D2*
X12588D1*
X12648D2*
D3*
X12694D2*
X12933D1*
X12963D2*
X12977D1*
X13037D2*
D3*
X13097D2*
X13246D1*
X13306D2*
D3*
X13441D2*
X13426D1*
X13486D2*
X13516D1*
X13605D2*
X13866D1*
X13905D2*
X13906D1*
X14007D2*
X14096D1*
X14162D2*
X14189D1*
X14234D2*
X14211D1*
X14387D2*
X14647D1*
X14712D2*
D3*
X14798D2*
X14822D1*
X14884D2*
X14944D1*
X15042D2*
X15161D1*
X15221D2*
X15239D1*
X15383D2*
X15656D1*
X15711D2*
X15744D1*
X15790D2*
D3*
X15879D2*
D3*
X15977D2*
X15999D1*
X16089D2*
X16119D1*
X16298D2*
D3*
X16423D2*
X16418D1*
X16478D2*
X16700D1*
X11572Y12024D2*
X11863D1*
X11960D2*
D3*
X12049D2*
D3*
X12169D2*
X12199D1*
X12259D2*
X12289D1*
X12393D2*
X12408D1*
X12468D2*
X12558D1*
X12618D2*
X13007D1*
X13138D2*
X13157D1*
X13216D2*
D3*
X13306D2*
X13387D1*
X13637D2*
X13884D1*
X14025D2*
X14075D1*
X14165D2*
X14209D1*
X14294D2*
X14353D1*
X14398D2*
X14473D1*
X14533D2*
D3*
X14593D2*
X14637D1*
X14778D2*
X14796D1*
X14880D2*
X14907D1*
X14982D2*
X15012D1*
X15055D2*
X15175D1*
X15221D2*
X15210D1*
X15311D2*
D3*
X15367D2*
X15575D1*
X15670D2*
D3*
X15708D2*
X15730D1*
X15790D2*
X15939D1*
X16003D2*
X16069D1*
X16149D2*
X16179D1*
X16476D2*
X16711D1*
X11541Y11994D2*
X11827D1*
X12139D2*
D3*
X12213D2*
X12199D1*
X12289D2*
X12349D1*
X12410D2*
X12468D1*
X12517D2*
X12594D1*
X12676D2*
X12977D1*
X13037D2*
D3*
X13186D2*
D3*
X13276D2*
D3*
X13350D2*
X13347D1*
X13426D2*
X13516D1*
X13575D2*
X13605D1*
X13665D2*
X13725D1*
X13790D2*
X13816D1*
X13875D2*
X13905D1*
X13964D2*
D3*
X14052D2*
X14054D1*
X14114D2*
D3*
X14183D2*
X14234D1*
X14332D2*
X14353D1*
X14396D2*
X14563D1*
X14623D2*
D3*
X14761D2*
X14764D1*
X14898D2*
X14870D1*
X14952D2*
X14978D1*
X15064D2*
X15173D1*
X15322D2*
X15568D1*
X15690D2*
X15819D1*
X15909D2*
D3*
X15969D2*
D3*
X16032D2*
X16020D1*
X16089D2*
X16124D1*
X16208D2*
X16238D1*
X16388D2*
D3*
X16524D2*
X16723D1*
X11512Y11964D2*
X11615D1*
X11646D2*
X11690D1*
X11780D2*
X11798D1*
X11900D2*
D3*
X12109D2*
D3*
X12248D2*
X12305D1*
X12379D2*
D3*
X12425D2*
X12526D1*
X12556D2*
X12645D1*
X12738D2*
X13007D1*
X13097D2*
D3*
X13306D2*
D3*
X13396D2*
D3*
X13798D2*
X13792D1*
X13845D2*
D3*
X14084D2*
D3*
X14204D2*
X14214D1*
X14294D2*
D3*
X14361D2*
X14517D1*
X14765D2*
X14725D1*
X14832D2*
D3*
X14922D2*
X14949D1*
X15071D2*
X15131D1*
X15281D2*
D3*
X15319D2*
X15560D1*
X15670D2*
X15774D1*
X15819D2*
X15960D1*
X16065D2*
X16075D1*
X16179D2*
X16193D1*
X16597D2*
X16755D1*
X11486Y11934D2*
X11772D1*
X11840D2*
D3*
X12049D2*
D3*
X12135D2*
X12139D1*
X12208D2*
X12266D1*
X12335D2*
X13157D1*
X13216D2*
X13246D1*
X13336D2*
D3*
X13545D2*
X13575D1*
X13665D2*
X13774D1*
X13811D2*
X13857D1*
X13934D2*
X13994D1*
X14070D2*
X14194D1*
X14264D2*
D3*
X14345D2*
X14473D1*
X14533D2*
X14593D1*
X14802D2*
X14922D1*
X15012D2*
D3*
X15079D2*
X15161D1*
X15221D2*
D3*
X15301D2*
X15555D1*
X15610D2*
X15640D1*
X15714D2*
X16009D1*
X16101D2*
X16149D1*
X16208D2*
X16268D1*
X16328D2*
D3*
X16448D2*
D3*
X16508D2*
D3*
X16568D2*
X16597D1*
X16657D2*
X16799D1*
X11464Y11904D2*
X11746D1*
X11810D2*
D3*
X11990D2*
X12019D1*
X12079D2*
D3*
X12165D2*
X12233D1*
X12295D2*
X13038D1*
X13097D2*
X13111D1*
X13186D2*
X13200D1*
X13248D2*
X13366D1*
X13486D2*
X13558D1*
X13635D2*
X13665D1*
X13720D2*
X13777D1*
X13827D2*
X13815D1*
X13875D2*
X13855D1*
X13964D2*
X14004D1*
X14089D2*
X14096D1*
X14138D2*
X14174D1*
X14234D2*
D3*
X14322D2*
X14413D1*
X14473D2*
X14547D1*
X14730D2*
X14862D1*
X14922D2*
X14952D1*
X15107D2*
X15191D1*
X15281D2*
X15552D1*
X15615D2*
X15626D1*
X15700D2*
D3*
X15753D2*
X16063D1*
X16139D2*
X16160D1*
X16268D2*
X16254D1*
X16342D2*
X16328D1*
X16597D2*
X16657D1*
X16703D2*
X16844D1*
X11446Y11874D2*
X11719D1*
X11780D2*
D3*
X11840D2*
D3*
X11960D2*
D3*
X12049D2*
X12129D1*
X12191D2*
X12206D1*
X12256D2*
X13073D1*
X13127D2*
X13157D1*
X13216D2*
D3*
X13276D2*
D3*
X13336D2*
X13533D1*
X13605D2*
X13651D1*
X13743D2*
X13785D1*
X13845D2*
X13846D1*
X13905D2*
X14060D1*
X14114D2*
D3*
X14158D2*
X14204D1*
X14278D2*
X14294D1*
X14353D2*
D3*
X14413D2*
X14443D1*
X14503D2*
D3*
X14563D2*
D3*
X14673D2*
X14922D1*
X14982D2*
X15012D1*
X15146D2*
X15147D1*
X15251D2*
D3*
X15300D2*
X15551D1*
X15622D2*
X15610D1*
X15670D2*
D3*
X15730D2*
D3*
X15790D2*
X16013D1*
X16059D2*
X16101D1*
X16174D2*
X16157D1*
X16238D2*
D3*
X16358D2*
X16388D1*
X16538D2*
D3*
X16626D2*
X16881D1*
X11430Y11844D2*
X11690D1*
X11930D2*
X12019D1*
X12109D2*
X12178D1*
X12214D2*
X13113D1*
X13142D2*
X13186D1*
X13246D2*
D3*
X13366D2*
D3*
X13426D2*
D3*
X13479D2*
X13500D1*
X13575D2*
D3*
X13635D2*
D3*
X13695D2*
D3*
X13765D2*
X13756D1*
X13815D2*
X13832D1*
X13934D2*
D3*
X13994D2*
X14035D1*
X14084D2*
X14192D1*
X14234D2*
X14260D1*
X14323D2*
X14353D1*
X14447D2*
X14533D1*
X14623D2*
X14653D1*
X14735D2*
X14802D1*
X14862D2*
X14892D1*
X15101D2*
D3*
X15191D2*
X15221D1*
X15320D2*
X15550D1*
X15654D2*
X15670D1*
X15760D2*
X16137D1*
X16208D2*
X16268D1*
X16328D2*
X16404D1*
X16568D2*
X16597D1*
X16652D2*
X16909D1*
X11414Y11814D2*
X11660D1*
X11750D2*
X11780D1*
X11918D2*
X11990D1*
X12066D2*
X13171D1*
X13216D2*
D3*
X13306D2*
X13336D1*
X13395D2*
X13396D1*
X13456D2*
X13466D1*
X13522D2*
X13545D1*
X13605D2*
X13661D1*
X13720D2*
X13733D1*
X13790D2*
X13815D1*
X13875D2*
X13905D1*
X13964D2*
D3*
X14024D2*
X14014D1*
X14113D2*
X14191D1*
X14234D2*
X14232D1*
X14294D2*
X14320D1*
X14413D2*
D3*
X14476D2*
X14563D1*
X14653D2*
X14690D1*
X14753D2*
X14862D1*
X14952D2*
D3*
X15012D2*
D3*
X15131D2*
D3*
X15281D2*
D3*
X15341D2*
X15431D1*
X15550D2*
D3*
X15640D2*
D3*
X15700D2*
X15730D1*
X15790D2*
X16172D1*
X16242D2*
X16298D1*
X16385D2*
X16418D1*
X16478D2*
D3*
X16675D2*
X16930D1*
X11399Y11784D2*
X11690D1*
X11750D2*
D3*
X11840D2*
D3*
X11923D2*
X11900D1*
X11960D2*
D3*
X12028D2*
X12049D1*
X12109D2*
X13276D1*
X13322D2*
X13374D1*
X13420D2*
X13436D1*
X13486D2*
X13516D1*
X13555D2*
X13575D1*
X13635D2*
X13683D1*
X13743D2*
X13755D1*
X13817D2*
X13893D1*
X13953D2*
X13994D1*
X14054D2*
X14084D1*
X14139D2*
X14207D1*
X14264D2*
X14291D1*
X14353D2*
X14383D1*
X14443D2*
D3*
X14505D2*
X14533D1*
X14593D2*
X14742D1*
X14750D2*
X14816D1*
X14862D2*
X14922D1*
X14971D2*
X14982D1*
X15042D2*
D3*
X15221D2*
D3*
X15311D2*
D3*
X15490D2*
D3*
X15610D2*
D3*
X15712D2*
X16189D1*
X16279D2*
X16328D1*
X16429D2*
X16478D1*
X16627D2*
D3*
X16696D2*
X16948D1*
X11384Y11754D2*
X11645D1*
X11870D2*
D3*
X11933D2*
X11928D1*
X11998D2*
X12030D1*
X12079D2*
X13425D1*
X13442D2*
X13530D1*
X13581D2*
X13575D1*
X13665D2*
X13704D1*
X13764D2*
X13785D1*
X13845D2*
X13897D1*
X13956D2*
X14019D1*
X14084D2*
X14095D1*
X14161D2*
X14185D1*
X14234D2*
X14264D1*
X14323D2*
X14353D1*
X14413D2*
X14473D1*
X14533D2*
X14563D1*
X14623D2*
X14892D1*
X14992D2*
X14982D1*
X15161D2*
D3*
X15227D2*
X15221D1*
X15281D2*
X15371D1*
X15431D2*
D3*
X15550D2*
D3*
X15670D2*
D3*
X15708D2*
X15730D1*
X15790D2*
X16189D1*
X16312D2*
X16357D1*
X16418D2*
D3*
X16473D2*
X16538D1*
X16716D2*
X16967D1*
X11369Y11724D2*
X11601D1*
X11660D2*
D3*
X11720D2*
D3*
X11810D2*
X11840D1*
X11900D2*
X11894D1*
X11943D2*
X12010D1*
X12109D2*
X13350D1*
X13396D2*
X13456D1*
X13516D2*
X13545D1*
X13605D2*
X13635D1*
X13694D2*
X13725D1*
X13785D2*
X13905D1*
X13964D2*
X14049D1*
X14114D2*
X14089D1*
X14182D2*
X14165D1*
X14278D2*
X14294D1*
X14359D2*
X14383D1*
X14457D2*
X14438D1*
X14508D2*
X14593D1*
X14653D2*
D3*
X14712D2*
X14862D1*
X14922D2*
X14952D1*
X15016D2*
X15012D1*
X15071D2*
D3*
X15175D2*
X15161D1*
X15239D2*
X15221D1*
X15314D2*
X15355D1*
X15401D2*
D3*
X15490D2*
X15580D1*
X15640D2*
D3*
X15700D2*
X16184D1*
X16238D2*
D3*
X16339D2*
X16383D1*
X16503D2*
X16508D1*
X16568D2*
D3*
X16657D2*
D3*
X16732D2*
X16986D1*
X11355Y11694D2*
X11660D1*
X11791D2*
X11854D1*
X11939D2*
X11990D1*
X12084D2*
X13530D1*
X13561D2*
X13671D1*
X13719D2*
X13785D1*
X13839D2*
X13964D1*
X14024D2*
X14067D1*
X14144D2*
D3*
X14204D2*
D3*
X14264D2*
D3*
X14317D2*
X14323D1*
X14399D2*
X14397D1*
X14478D2*
X14712D1*
X14780D2*
X14802D1*
X14862D2*
X14923D1*
X14982D2*
D3*
X15042D2*
D3*
X15101D2*
D3*
X15258D2*
X15281D1*
X15343D2*
X15341D1*
X15431D2*
D3*
X15550D2*
X15568D1*
X15610D2*
X15700D1*
X15760D2*
X16298D1*
X16350D2*
X16406D1*
X16538D2*
D3*
X16597D2*
D3*
X16687D2*
D3*
X16745D2*
X17000D1*
X11343Y11664D2*
X11601D1*
X11720D2*
D3*
X11771D2*
X11810D1*
X11924D2*
X11971D1*
X12062D2*
X13711D1*
X13739D2*
X13769D1*
X13799D2*
X13889D1*
X13934D2*
D3*
X13996D2*
X14045D1*
X14086D2*
X14294D1*
X14353D2*
D3*
X14443D2*
X14563D1*
X14628D2*
X14623D1*
X14712D2*
X14726D1*
X14802D2*
X14898D1*
X14952D2*
X15101D1*
X15161D2*
X15221D1*
X15281D2*
X15270D1*
X15371D2*
X15401D1*
X15460D2*
D3*
X15520D2*
X15560D1*
X15643D2*
X15680D1*
X15730D2*
D3*
X15790D2*
X16307D1*
X16418D2*
X16428D1*
X16508D2*
X16568D1*
X16627D2*
D3*
X16760D2*
X17010D1*
X11332Y11635D2*
X11690D1*
X11743D2*
X11840D1*
X11908D2*
X11954D1*
X12041D2*
X14188D1*
X14220D2*
X14234D1*
X14294D2*
X14443D1*
X14533D2*
D3*
X14593D2*
D3*
X14669D2*
X14742D1*
X14831D2*
X14877D1*
X14922D2*
D3*
X14982D2*
X15012D1*
X15071D2*
D3*
X15131D2*
X15161D1*
X15221D2*
X15237D1*
X15341D2*
X15371D1*
X15431D2*
D3*
X15490D2*
D3*
X15550D2*
X15568D1*
X15610D2*
D3*
X15672D2*
X15659D1*
X15749D2*
X16321D1*
X16423D2*
X16452D1*
X16536D2*
X16596D1*
X16657D2*
D3*
X16717D2*
D3*
X16777D2*
X17018D1*
X11322Y11605D2*
X11643D1*
X11720D2*
D3*
X11761D2*
X11812D1*
X11890D2*
X11938D1*
X12019D2*
X14264D1*
X14318D2*
X14367D1*
X14399D2*
X14463D1*
X14533D2*
X14623D1*
X14712D2*
X14728D1*
X14772D2*
X14802D1*
X14862D2*
X14853D1*
X14922D2*
X14952D1*
X15010D2*
X15101D1*
X15161D2*
X15147D1*
X15235D2*
X15251D1*
X15311D2*
X15341D1*
X15401D2*
D3*
X15460D2*
D3*
X15520D2*
X15580D1*
X15640D2*
X15636D1*
X15715D2*
X16336D1*
X16430D2*
X16478D1*
X16561D2*
X16627D1*
X16740D2*
X17027D1*
X11312Y11575D2*
X11601D1*
X11660D2*
X11690D1*
X11761D2*
X11794D1*
X11870D2*
X11924D1*
X11990D2*
D3*
X12049D2*
X14308D1*
X14337D2*
X14482D1*
X14519D2*
X14591D1*
X14625D2*
X14719D1*
X14821D2*
X14817D1*
X15036D2*
X15063D1*
X15131D2*
D3*
X15191D2*
D3*
X15251D2*
X15311D1*
X15371D2*
X15431D1*
X15489D2*
X15550D1*
X15610D2*
X15614D1*
X15671D2*
X16295D1*
X16358D2*
X16339D1*
X16438D2*
X16448D1*
X16579D2*
X16616D1*
X16657D2*
X16687D1*
X16757D2*
X17036D1*
X11307Y11545D2*
X11620D1*
X11676D2*
X11685D1*
X11757D2*
X11781D1*
X11900D2*
X11912D1*
X12003D2*
X14712D1*
X14865D2*
X14952D1*
X15012D2*
X15034D1*
X15055D2*
X15116D1*
X15161D2*
X15282D1*
X15339D2*
X15401D1*
X15460D2*
D3*
X15513D2*
X15520D1*
X15580D2*
X15595D1*
X15626D2*
X16322D1*
X16388D2*
D3*
X16444D2*
X16508D1*
X16590D2*
X16619D1*
X16671D2*
X16717D1*
X16759D2*
X17041D1*
X11304Y11515D2*
X11641D1*
X11690D2*
X11674D1*
X11754D2*
X11766D1*
X11840D2*
X11906D1*
X11960D2*
D3*
X12012D2*
X14876D1*
X14897D2*
X14922D1*
X15012D2*
X15140D1*
X15189D2*
X15257D1*
X15305D2*
X15341D1*
X15401D2*
X15431D1*
X15504D2*
X15490D1*
X15534D2*
X16353D1*
X16452D2*
X16494D1*
X16538D2*
D3*
X16600D2*
X16627D1*
X16680D2*
X16687D1*
X16760D2*
X17044D1*
X11302Y11485D2*
X11665D1*
X11752D2*
X11750D1*
X11900D2*
X11901D1*
X12016D2*
X15192D1*
X15196D2*
X15237D1*
X15265D2*
X15311D1*
X15373D2*
X15415D1*
X15460D2*
D3*
X15515D2*
X16388D1*
X16463D2*
X16485D1*
X16612D2*
X16597D1*
X16684D2*
X16699D1*
X16763D2*
X17045D1*
X11302Y11455D2*
X11361D1*
X11421D2*
X11451D1*
X11500D2*
X11690D1*
X11751D2*
X11810D1*
X11887D2*
X11895D1*
X11960D2*
D3*
X12018D2*
X16328D1*
X16418D2*
D3*
X16478D2*
X16481D1*
X16538D2*
D3*
X16627D2*
D3*
X16686D2*
X16698D1*
X16753D2*
X17046D1*
X11301Y11425D2*
X11361D1*
X11421D2*
X11451D1*
X11539D2*
X11677D1*
X11750D2*
X11779D1*
X11879D2*
X11884D1*
X11960D2*
D3*
X12020D2*
X16358D1*
X16448D2*
X16478D1*
X16582D2*
X16627D1*
X16688D2*
X16693D1*
X16723D2*
X17046D1*
X11302Y11395D2*
X11361D1*
X11571D2*
X11615D1*
X11660D2*
X11669D1*
X11750D2*
X11766D1*
X11810D2*
D3*
X11885D2*
X11870D1*
X12025D2*
X16343D1*
X16418D2*
D3*
X16478D2*
X16472D1*
X16627D2*
X16622D1*
X16693D2*
X17046D1*
X11303Y11365D2*
X11361D1*
X11514D2*
X11669D1*
X11751D2*
X11771D1*
X11810D2*
D3*
X11892D2*
X11900D1*
X11960D2*
D3*
X12034D2*
X16329D1*
X16419D2*
X16462D1*
X16600D2*
X16611D1*
X16703D2*
X17046D1*
X11306Y11335D2*
X11362D1*
X11471D2*
X11674D1*
X11755D2*
X11780D1*
X11900D2*
D3*
X11960D2*
D3*
X12051D2*
X16313D1*
X16423D2*
X16448D1*
X16591D2*
X16597D1*
X16717D2*
X17046D1*
X11314Y11305D2*
X11367D1*
X11440D2*
X11682D1*
X11762D2*
X11750D1*
X11810D2*
D3*
X11911D2*
X11900D1*
X12077D2*
X16292D1*
X16430D2*
X16478D1*
X16593D2*
X16627D1*
X16699D2*
X17045D1*
X11321Y11276D2*
X11377D1*
X11415D2*
X11465D1*
X11497D2*
X11645D1*
X11690D2*
X11691D1*
X11770D2*
X11780D1*
X11924D2*
X11960D1*
X12109D2*
X16268D1*
X16439D2*
X16463D1*
X16538D2*
D3*
X16596D2*
X16612D1*
X16682D2*
X16687D1*
X16733D2*
X16791D1*
X16823D2*
X16881D1*
X16913D2*
X17041D1*
X11328Y11246D2*
X11702D1*
X11778D2*
X11810D1*
X11938D2*
X11930D1*
X12098D2*
X16298D1*
X16388D2*
D3*
X16448D2*
X16449D1*
X16601D2*
X16600D1*
X16665D2*
X17034D1*
X11334Y11216D2*
X11717D1*
X11789D2*
X11780D1*
X11840D2*
D3*
X11953D2*
X11990D1*
X12100D2*
X16279D1*
X16402D2*
X16434D1*
X16538D2*
D3*
X16608D2*
X16587D1*
X16650D2*
X17026D1*
X11344Y11186D2*
X11736D1*
X11809D2*
X11810D1*
X11968D2*
X12000D1*
X12115D2*
X16259D1*
X16418D2*
X16416D1*
X16552D2*
X16574D1*
X16613D2*
X16927D1*
X16986D2*
X17020D1*
X11356Y11156D2*
X11779D1*
X11832D2*
X11840D1*
X11988D2*
X12010D1*
X12133D2*
X16237D1*
X16358D2*
X16397D1*
X16569D2*
X16560D1*
X16604D2*
X17013D1*
X11370Y11126D2*
X11421D1*
X11481D2*
D3*
X11541D2*
X11824D1*
X11852D2*
X11870D1*
X12014D2*
X12019D1*
X12157D2*
X16213D1*
X16344D2*
X16377D1*
X16508D2*
X16548D1*
X16584D2*
X16897D1*
X16957D2*
X17004D1*
X11384Y11096D2*
X11870D1*
X12044D2*
X12049D1*
X12191D2*
X14084D1*
X14144D2*
X16185D1*
X16335D2*
X16353D1*
X16485D2*
X16991D1*
X11398Y11066D2*
X11451D1*
X11512D2*
X11900D1*
X12072D2*
X12079D1*
X12230D2*
X14024D1*
X14084D2*
X14114D1*
X14174D2*
D3*
X14234D2*
X14264D1*
X14323D2*
X14390D1*
X14444D2*
X16153D1*
X16268D2*
X16326D1*
X16460D2*
X16867D1*
X16927D2*
X16974D1*
X11410Y11036D2*
X11481D1*
X11546D2*
X11541D1*
X11601D2*
X11930D1*
X12049D2*
D3*
X12097D2*
X12109D1*
X12268D2*
X13755D1*
X13815D2*
X13905D1*
X13964D2*
X14054D1*
X14114D2*
X14204D1*
X14264D2*
X14373D1*
X14413D2*
D3*
X14478D2*
X16119D1*
X16254D2*
X16296D1*
X16434D2*
X16603D1*
X16652D2*
X16837D1*
X16897D2*
X16956D1*
X11421Y11006D2*
X11511D1*
X11583D2*
X11961D1*
X12124D2*
X12109D1*
X12307D2*
X13635D1*
X13700D2*
X13845D1*
X13905D2*
X13934D1*
X13994D2*
X14084D1*
X14144D2*
D3*
X14204D2*
X14234D1*
X14294D2*
D3*
X14353D2*
X14376D1*
X14428D2*
X14443D1*
X14515D2*
X14685D1*
X14741D2*
X16080D1*
X16179D2*
D3*
X16238D2*
X16263D1*
X16405D2*
X16643D1*
X16671D2*
X16807D1*
X16867D2*
X16941D1*
X11437Y10976D2*
X11541D1*
X11613D2*
X11660D1*
X11720D2*
X11995D1*
X12157D2*
X12169D1*
X12349D2*
X13550D1*
X13635D2*
X13665D1*
X13737D2*
X13760D1*
X13845D2*
X13905D1*
X13964D2*
X14054D1*
X14114D2*
D3*
X14174D2*
D3*
X14234D2*
X14294D1*
X14353D2*
X14383D1*
X14444D2*
X14487D1*
X14553D2*
X14587D1*
X14653D2*
X14722D1*
X14797D2*
X16034D1*
X16158D2*
X16226D1*
X16371D2*
X16717D1*
X16777D2*
D3*
X16837D2*
X16928D1*
X11458Y10946D2*
X11571D1*
X11647D2*
X12033D1*
X12197D2*
X12199D1*
X12395D2*
X13500D1*
X13605D2*
D3*
X13665D2*
X13711D1*
X13776D2*
X13785D1*
X13876D2*
X13875D1*
X13934D2*
D3*
X13984D2*
X13994D1*
X14054D2*
X14084D1*
X14144D2*
X14204D1*
X14264D2*
X14261D1*
X14323D2*
X14353D1*
X14413D2*
D3*
X14458D2*
X14533D1*
X14588D2*
X14576D1*
X14682D2*
X14767D1*
X14848D2*
X15984D1*
X16129D2*
X16186D1*
X16332D2*
X16747D1*
X16807D2*
X16911D1*
X11484Y10916D2*
X11602D1*
X11673D2*
X11690D1*
X11750D2*
X12076D1*
X12241D2*
X12259D1*
X12441D2*
X13459D1*
X13516D2*
D3*
X13575D2*
D3*
X13636D2*
X13665D1*
X13755D2*
D3*
X13816D2*
X13845D1*
X13910D2*
X13905D1*
X14005D2*
X14051D1*
X14100D2*
X14114D1*
X14174D2*
D3*
X14234D2*
X14222D1*
X14294D2*
D3*
X14353D2*
X14383D1*
X14467D2*
X14502D1*
X14563D2*
X14559D1*
X14621D2*
X14682D1*
X14742D2*
X14812D1*
X14895D2*
X15934D1*
X16094D2*
X16142D1*
X16289D2*
X16687D1*
X16747D2*
X16890D1*
X11512Y10887D2*
X11635D1*
X11683D2*
X12124D1*
X12289D2*
D3*
X12488D2*
X13427D1*
X13486D2*
D3*
X13541D2*
X13545D1*
X13604D2*
X13605D1*
X13671D2*
X13695D1*
X13755D2*
X13785D1*
X13859D2*
X13875D1*
X13947D2*
X13964D1*
X14029D2*
X14021D1*
X14084D2*
D3*
X14144D2*
X14172D1*
X14264D2*
D3*
X14323D2*
D3*
X14383D2*
X14413D1*
X14473D2*
X14468D1*
X14533D2*
X14542D1*
X14593D2*
D3*
X14653D2*
D3*
X14712D2*
X14772D1*
X14832D2*
X14852D1*
X14934D2*
X15881D1*
X15999D2*
D3*
X16059D2*
X16091D1*
X16243D2*
X16597D1*
X16657D2*
X16656D1*
X16777D2*
X16864D1*
X11541Y10857D2*
X11673D1*
X11760D2*
X11780D1*
X11840D2*
X12180D1*
X12349D2*
D3*
X12543D2*
X13421D1*
X13456D2*
X13516D1*
X13562D2*
X13575D1*
X13629D2*
X13635D1*
X13711D2*
X13736D1*
X13905D2*
X13921D1*
X13986D2*
X13993D1*
X14054D2*
D3*
X14114D2*
D3*
X14353D2*
D3*
X14413D2*
X14431D1*
X14533D2*
X14521D1*
X14623D2*
X14712D1*
X14820D2*
X14888D1*
X14969D2*
X15820D1*
X15999D2*
X16035D1*
X16191D2*
X16508D1*
X16568D2*
X16622D1*
X16725D2*
X16836D1*
X11572Y10827D2*
X11710D1*
X11819D2*
X11900D1*
X11960D2*
X12245D1*
X12384D2*
X12379D1*
X12610D2*
X13336D1*
X13396D2*
X13426D1*
X13486D2*
X13500D1*
X13582D2*
X13575D1*
X13649D2*
X13696D1*
X13755D2*
X13785D1*
X13845D2*
X13882D1*
X13964D2*
D3*
X14024D2*
D3*
X14144D2*
X14174D1*
X14234D2*
D3*
X14294D2*
D3*
X14383D2*
X14392D1*
X14503D2*
X14498D1*
X14563D2*
X14593D1*
X14653D2*
D3*
X14712D2*
X14742D1*
X14824D2*
X14802D1*
X14862D2*
X14922D1*
X15004D2*
X15752D1*
X15939D2*
X15978D1*
X16129D2*
X16587D1*
X16678D2*
X16806D1*
X11606Y10797D2*
X11747D1*
X11876D2*
X12318D1*
X12424D2*
X12408D1*
X12468D2*
D3*
X12688D2*
X13382D1*
X13450D2*
X13486D1*
X13545D2*
D3*
X13604D2*
X13605D1*
X13665D2*
X13664D1*
X13845D2*
X13848D1*
X14084D2*
D3*
X14264D2*
D3*
X14323D2*
X14353D1*
X14413D2*
D3*
X14473D2*
X14471D1*
X14533D2*
D3*
X14623D2*
D3*
X14758D2*
X14772D1*
X14842D2*
X14890D1*
X14952D2*
D3*
X15042D2*
X15681D1*
X15877D2*
X15917D1*
X16061D2*
X16547D1*
X16634D2*
X16776D1*
X11644Y10767D2*
X11784D1*
X11870D2*
D3*
X11931D2*
X11990D1*
X12049D2*
X12404D1*
X12503D2*
X12528D1*
X12772D2*
X13336D1*
X13396D2*
D3*
X13500D2*
X13516D1*
X13632D2*
X13635D1*
X13725D2*
D3*
X13785D2*
X13815D1*
X13934D2*
D3*
X13994D2*
X14054D1*
X14144D2*
D3*
X14204D2*
D3*
X14443D2*
D3*
X14593D2*
D3*
X14682D2*
X14712D1*
X14802D2*
D3*
X14862D2*
D3*
X14922D2*
D3*
X15012D2*
X15561D1*
X15610D2*
D3*
X15700D2*
X15730D1*
X15819D2*
X15849D1*
X15988D2*
X16443D1*
X16508D2*
D3*
X16589D2*
X16742D1*
X11685Y10737D2*
X11828D1*
X11985D2*
X12019D1*
X12079D2*
X12496D1*
X12533D2*
X12558D1*
X12618D2*
D3*
X12861D2*
X13306D1*
X13366D2*
D3*
X13456D2*
X13486D1*
X13545D2*
D3*
X13665D2*
X13695D1*
X13875D2*
D3*
X13964D2*
D3*
X14174D2*
D3*
X14294D2*
D3*
X14353D2*
X14383D1*
X14503D2*
X14533D1*
X14653D2*
D3*
X14707D2*
X14742D1*
X14892D2*
D3*
X14952D2*
D3*
X15024D2*
X15521D1*
X15672D2*
X15778D1*
X15906D2*
X16268D1*
X16339D2*
X16425D1*
X16544D2*
X16705D1*
X11728Y10707D2*
X11878D1*
X11960D2*
D3*
X12043D2*
X12109D1*
X12169D2*
X12558D1*
X12648D2*
X12678D1*
X12958D2*
X13326D1*
X13456D2*
D3*
X13516D2*
D3*
X13635D2*
D3*
X13755D2*
D3*
X14114D2*
D3*
X14413D2*
D3*
X14593D2*
D3*
X14682D2*
D3*
X14726D2*
X14772D1*
X14832D2*
D3*
X14982D2*
D3*
X15032D2*
X15412D1*
X15490D2*
X15489D1*
X15550D2*
X15580D1*
X15640D2*
X15716D1*
X15807D2*
X16298D1*
X16390D2*
X16386D1*
X16496D2*
X16666D1*
X11769Y10677D2*
X11933D1*
X12105D2*
X12169D1*
X12226D2*
X12648D1*
X12738D2*
D3*
X12797D2*
D3*
X13062D2*
X13345D1*
X13396D2*
D3*
X13575D2*
D3*
X13845D2*
D3*
X13905D2*
D3*
X13994D2*
D3*
X14054D2*
D3*
X14234D2*
D3*
X14294D2*
D3*
X14353D2*
D3*
X14503D2*
D3*
X14742D2*
X14737D1*
X14860D2*
X14862D1*
X14922D2*
X14952D1*
X15023D2*
X15281D1*
X15401D2*
X15463D1*
X15564D2*
X15534D1*
X15610D2*
X15658D1*
X15688D2*
X16208D1*
X16268D2*
X16340D1*
X16448D2*
X16626D1*
X11809Y10647D2*
X11991D1*
X12169D2*
X12199D1*
X12252D2*
X12887D1*
X13169D2*
X13366D1*
X13456D2*
D3*
X13516D2*
D3*
X13665D2*
D3*
X13755D2*
D3*
X14443D2*
D3*
X14533D2*
D3*
X14623D2*
D3*
X14712D2*
X14696D1*
X14802D2*
D3*
X15012D2*
X15161D1*
X15251D2*
D3*
X15341D2*
D3*
X15473D2*
X15474D1*
X15610D2*
X16288D1*
X16402D2*
X16582D1*
X11850Y10617D2*
X12049D1*
X12139D2*
X12125D1*
X12284D2*
X12289D1*
X12342D2*
X12859D1*
X12917D2*
D3*
X12977D2*
X13007D1*
X13276D2*
D3*
X13336D2*
D3*
X13396D2*
X13456D1*
X13605D2*
D3*
X13815D2*
D3*
X14174D2*
D3*
X14383D2*
D3*
X14832D2*
X14982D1*
X15031D2*
X15071D1*
X15131D2*
X15161D1*
X15221D2*
D3*
X15281D2*
D3*
X15383D2*
X15408D1*
X15523D2*
X16096D1*
X16141D2*
X16248D1*
X16358D2*
X16536D1*
X11890Y10587D2*
X12034D1*
X12079D2*
D3*
X12229D2*
D3*
X12409D2*
X12468D1*
X12528D2*
D3*
X12618D2*
X12692D1*
X12724D2*
X12738D1*
X12783D2*
X12833D1*
X12882D2*
X12991D1*
X13037D2*
X13067D1*
X13127D2*
D3*
X13486D2*
X13516D1*
X13575D2*
D3*
X13635D2*
X13665D1*
X13875D2*
D3*
X13934D2*
D3*
X14323D2*
D3*
X14473D2*
D3*
X14653D2*
X14772D1*
X15051D2*
X15042D1*
X15251D2*
D3*
X15305D2*
X15351D1*
X15428D2*
X15684D1*
X15716D2*
X15730D1*
X15776D2*
X15790D1*
X15849D2*
X15909D1*
X16045D2*
X16029D1*
X16089D2*
X16120D1*
X16188D2*
X16208D1*
X16328D2*
D3*
X16374D2*
X16492D1*
X11931Y10557D2*
X12139D1*
X12289D2*
X12379D1*
X12457D2*
X12498D1*
X12558D2*
X12814D1*
X12841D2*
X13216D1*
X13306D2*
X13336D1*
X13627D2*
X13607D1*
X13695D2*
X13905D1*
X13974D2*
X14024D1*
X14084D2*
X14114D1*
X14174D2*
D3*
X14234D2*
X14264D1*
X14353D2*
X14443D1*
X14497D2*
X14653D1*
X14712D2*
D3*
X14802D2*
X14832D1*
X14892D2*
D3*
X14952D2*
D3*
X15012D2*
D3*
X15071D2*
D3*
X15131D2*
X15161D1*
X15221D2*
D3*
X15267D2*
X15312D1*
X15325D2*
X15849D1*
X15909D2*
X15999D1*
X16107D2*
X16149D1*
X16281D2*
X16449D1*
X11975Y10527D2*
X12199D1*
X12379D2*
D3*
X12438D2*
D3*
X12494D2*
X12528D1*
X12587D2*
X13484D1*
X13545D2*
D3*
X13688D2*
X13763D1*
X13948D2*
X13934D1*
X14012D2*
X14010D1*
X14084D2*
X14085D1*
X14216D2*
X14196D1*
X14294D2*
X14353D1*
X14443D2*
X14429D1*
X14517D2*
X14533D1*
X14593D2*
X14579D1*
X14682D2*
X14784D1*
X14820D2*
X14892D1*
X14938D2*
X14982D1*
X15042D2*
D3*
X15087D2*
X15131D1*
X15191D2*
X15819D1*
X15879D2*
X15969D1*
X16029D2*
X16071D1*
X16179D2*
D3*
X16243D2*
X16403D1*
X12022Y10498D2*
X12183D1*
X12229D2*
X12289D1*
X12468D2*
D3*
X12527D2*
X12558D1*
X12616D2*
X12678D1*
X12738D2*
X13635D1*
X13755D2*
D3*
X14043D2*
X14060D1*
X14144D2*
X14114D1*
X14526D2*
X14533D1*
X14623D2*
D3*
X14742D2*
X14862D1*
X14922D2*
X15654D1*
X15686D2*
X15904D1*
X15969D2*
X15999D1*
X16110D2*
X16352D1*
X12070Y10468D2*
X12338D1*
X12408D2*
D3*
X12558D2*
X12588D1*
X12651D2*
X12648D1*
X12708D2*
X12811D1*
X12843D2*
X14040D1*
X14066D2*
X14084D1*
X14174D2*
X14996D1*
X15028D2*
X15094D1*
X15160D2*
X15823D1*
X15879D2*
X15863D1*
X16049D2*
X16300D1*
X12119Y10438D2*
X12388D1*
X12424D2*
X12468D1*
X12695D2*
X12887D1*
X12947D2*
X14862D1*
X14922D2*
D3*
X14982D2*
X15112D1*
X15185D2*
X15741D1*
X15909D2*
X15939D1*
X15985D2*
X16251D1*
X12168Y10408D2*
X12303D1*
X12335D2*
X12468D1*
X12528D2*
X12558D1*
X12746D2*
X12858D1*
X12917D2*
D3*
X12977D2*
X13072D1*
X13121D2*
X14892D1*
X14959D2*
X15067D1*
X15131D2*
X15109D1*
X15206D2*
X15431D1*
X15490D2*
X15665D1*
X15760D2*
D3*
X15846D2*
X16203D1*
X12214Y10378D2*
X12528D1*
X12618D2*
X12708D1*
X12797D2*
X12832D1*
X12887D2*
D3*
X12947D2*
X13023D1*
X13081D2*
X13216D1*
X13276D2*
X14853D1*
X14942D2*
X15028D1*
X15101D2*
X15092D1*
X15161D2*
D3*
X15230D2*
X15251D1*
X15311D2*
X15490D1*
X15550D2*
X15603D1*
X15730D2*
D3*
X15776D2*
X15819D1*
X15865D2*
X16157D1*
X12258Y10348D2*
X12422D1*
X12454D2*
X12468D1*
X12528D2*
X12648D1*
X12708D2*
D3*
X12768D2*
X12811D1*
X12857D2*
X12917D1*
X12977D2*
D3*
X13037D2*
X13097D1*
X13157D2*
X13336D1*
X13396D2*
X13426D1*
X13486D2*
X13516D1*
X13575D2*
X13619D1*
X13651D2*
X13845D1*
X13905D2*
X14269D1*
X14329D2*
X14653D1*
X14712D2*
X14822D1*
X14862D2*
D3*
X14940D2*
X14922D1*
X14982D2*
X14986D1*
X15071D2*
D3*
X15131D2*
D3*
X15266D2*
X15401D1*
X15490D2*
X15476D1*
X15550D2*
D3*
X15596D2*
X16112D1*
X12303Y10318D2*
X12618D1*
X12678D2*
X12793D1*
X12887D2*
X12905D1*
X12964D2*
X13127D1*
X13186D2*
D3*
X13246D2*
D3*
X13306D2*
X13396D1*
X13456D2*
X13516D1*
X13575D2*
X13665D1*
X13727D2*
X13755D1*
X13815D2*
D3*
X13875D2*
D3*
X13934D2*
X13964D1*
X14024D2*
X14050D1*
X14114D2*
D3*
X14204D2*
X14280D1*
X14339D2*
X14323D1*
X14408D2*
X14413D1*
X14479D2*
X14473D1*
X14533D2*
D3*
X14623D2*
D3*
X14682D2*
X14712D1*
X14772D2*
X14795D1*
X14974D2*
X14940D1*
X15101D2*
D3*
X15191D2*
D3*
X15311D2*
X15460D1*
X15520D2*
X16067D1*
X12350Y10288D2*
X12588D1*
X12648D2*
X12678D1*
X12768D2*
X12779D1*
X12813D2*
X12897D1*
X12957D2*
X12977D1*
X13127D2*
X13276D1*
X13336D2*
D3*
X13396D2*
X13695D1*
X13767D2*
X13934D1*
X13994D2*
X14007D1*
X14084D2*
X14114D1*
X14174D2*
X14204D1*
X14264D2*
X14294D1*
X14353D2*
X14383D1*
X14459D2*
X14563D1*
X14623D2*
X14639D1*
X14698D2*
X14769D1*
X14832D2*
D3*
X15101D2*
X15341D1*
X15401D2*
X15640D1*
X15730D2*
X16023D1*
X12394Y10258D2*
X12558D1*
X12618D2*
X12708D1*
X12768D2*
X12905D1*
X12965D2*
X12947D1*
X13007D2*
X13037D1*
X13115D2*
X13127D1*
X13306D2*
D3*
X13366D2*
D3*
X13575D2*
D3*
X13665D2*
D3*
X13725D2*
D3*
X13817D2*
X13845D1*
X13905D2*
X13946D1*
X14054D2*
X14098D1*
X14144D2*
X14204D1*
X14264D2*
D3*
X14337D2*
X14369D1*
X14443D2*
D3*
X14503D2*
X14547D1*
X14593D2*
D3*
X14653D2*
D3*
X14712D2*
X14742D1*
X14802D2*
D3*
X14892D2*
X15101D1*
X15167D2*
X15191D1*
X15251D2*
X15311D1*
X15371D2*
X15431D1*
X15490D2*
D3*
X15550D2*
X15610D1*
X15670D2*
X15730D1*
X15789D2*
X15980D1*
X12437Y10228D2*
X12598D1*
X12708D2*
X12827D1*
X12887D2*
X12917D1*
X12977D2*
D3*
X13030D2*
X13026D1*
X13118D2*
X13216D1*
X13875D2*
D3*
X14024D2*
D3*
X14084D2*
D3*
X14234D2*
D3*
X14323D2*
X14353D1*
X14413D2*
D3*
X14533D2*
D3*
X14862D2*
D3*
X15101D2*
X15116D1*
X15178D2*
X15161D1*
X15221D2*
X15281D1*
X15341D2*
X15371D1*
X15431D2*
X15460D1*
X15520D2*
X15651D1*
X15758D2*
X15939D1*
X12482Y10198D2*
X12639D1*
X12797D2*
D3*
X12857D2*
X12887D1*
X12947D2*
X13016D1*
X13047D2*
X13067D1*
X13136D2*
X13127D1*
X13186D2*
D3*
X13246D2*
X13396D1*
X13456D2*
D3*
X15042D2*
X15133D1*
X15194D2*
X15221D1*
X15281D2*
X15341D1*
X15401D2*
X15431D1*
X15490D2*
X15555D1*
X15724D2*
X15894D1*
X12529Y10168D2*
X12683D1*
X12945D2*
X13007D1*
X13044D2*
X13097D1*
X13157D2*
D3*
X13216D2*
X13246D1*
X13306D2*
X13336D1*
X13426D2*
D3*
X13486D2*
X13545D1*
X13605D2*
X13635D1*
X13695D2*
D3*
X14682D2*
X15012D1*
X15094D2*
X15147D1*
X15207D2*
X15221D1*
X15311D2*
X15454D1*
X15682D2*
X15847D1*
X12574Y10139D2*
X12731D1*
X13037D2*
X13067D1*
X13145D2*
X13216D1*
X13276D2*
D3*
X13336D2*
X13396D1*
X13450D2*
X13518D1*
X13648D2*
X13665D1*
X13728D2*
X13755D1*
X13815D2*
X13875D1*
X13934D2*
X13964D1*
X14024D2*
D3*
X14084D2*
D3*
X14174D2*
D3*
X14234D2*
D3*
X14294D2*
D3*
X14353D2*
X14383D1*
X14443D2*
X14473D1*
X14533D2*
X14593D1*
X14653D2*
D3*
X14701D2*
X14712D1*
X14801D2*
X14802D1*
X14858D2*
X14862D1*
X14916D2*
X14957D1*
X15012D2*
X15056D1*
X15101D2*
D3*
X15132D2*
X15161D1*
X15221D2*
X15365D1*
X15635D2*
X15799D1*
X12617Y10109D2*
X12784D1*
X13148D2*
X13186D1*
X13246D2*
X13364D1*
X13426D2*
D3*
X13470D2*
X13511D1*
X13545D2*
X13575D1*
X13635D2*
D3*
X13682D2*
X13695D1*
X13761D2*
X13812D1*
X13994D2*
D3*
X14054D2*
D3*
X14114D2*
D3*
X14204D2*
D3*
X14264D2*
D3*
X14323D2*
D3*
X14533D2*
D3*
X14593D2*
X14653D1*
X14717D2*
X14712D1*
X14766D2*
X14802D1*
X14842D2*
X14892D1*
X14936D2*
X14998D1*
X15028D2*
X15302D1*
X15584D2*
X15748D1*
X12663Y10079D2*
X12839D1*
X13157D2*
D3*
X13216D2*
D3*
X13280D2*
X13589D1*
X13621D2*
X13665D1*
X13706D2*
X13764D1*
X13790D2*
X13815D1*
X13875D2*
X13934D1*
X14084D2*
D3*
X14174D2*
X14204D1*
X14352D2*
X14353D1*
X14413D2*
D3*
X14473D2*
X14503D1*
X14623D2*
X14637D1*
X14682D2*
D3*
X14726D2*
X14786D1*
X14810D2*
X15191D1*
X15251D2*
X15259D1*
X15527D2*
X15696D1*
X12715Y10049D2*
X12897D1*
X13127D2*
X13186D1*
X13246D2*
D3*
X13309D2*
X13875D1*
X13964D2*
D3*
X14024D2*
D3*
X14114D2*
X14144D1*
X14234D2*
D3*
X14294D2*
D3*
X14377D2*
X14383D1*
X14449D2*
X14474D1*
X14533D2*
D3*
X14579D2*
X15101D1*
X15161D2*
X15229D1*
X15466D2*
X15643D1*
X12771Y10019D2*
X12950D1*
X13157D2*
X13216D1*
X13276D2*
D3*
X13336D2*
X13500D1*
X13531D2*
X13934D1*
X13989D2*
X14264D1*
X14323D2*
X14353D1*
X14431D2*
X14449D1*
X14497D2*
X15205D1*
X15407D2*
X15591D1*
X12831Y9989D2*
X12996D1*
X13127D2*
X13157D1*
X13216D2*
X13919D1*
X13964D2*
D3*
X14010D2*
X14024D1*
X14174D2*
X14220D1*
X14294D2*
X14353D1*
X14421D2*
X14429D1*
X14457D2*
X15071D1*
X15131D2*
D3*
X15191D2*
D3*
X15351D2*
X15540D1*
X12887Y9959D2*
X13037D1*
X13097D2*
D3*
X13252D2*
X13246D1*
X13306D2*
X13575D1*
X13635D2*
X13905D1*
X13964D2*
X14024D1*
X14084D2*
X14174D1*
X14264D2*
D3*
X14353D2*
D3*
X14413D2*
X15131D1*
X15299D2*
X15488D1*
X12937Y9929D2*
X13122D1*
X13296D2*
X15056D1*
X15251D2*
X15441D1*
X12961Y9899D2*
X13051D1*
X13083D2*
X13154D1*
X13342D2*
X13396D1*
X13456D2*
X13500D1*
X13531D2*
X13545D1*
X13591D2*
X13695D1*
X13760D2*
X13785D1*
X13845D2*
X13905D1*
X13964D2*
X14068D1*
X14100D2*
X14158D1*
X14190D2*
X14248D1*
X14279D2*
X14337D1*
X14369D2*
X14547D1*
X14579D2*
X14982D1*
X15204D2*
X15401D1*
X12969Y9869D2*
X13192D1*
X13412D2*
X13725D1*
X13801D2*
X13845D1*
X13905D2*
X15012D1*
X15155D2*
X15385D1*
X12974Y9839D2*
X13228D1*
X13486D2*
X13755D1*
X13845D2*
X13869D1*
X13929D2*
X14413D1*
X14473D2*
X14950D1*
X15110D2*
X15372D1*
X12976Y9809D2*
X13258D1*
X13402D2*
X13575D1*
X13650D2*
X13886D1*
X13946D2*
X14891D1*
X15076D2*
X15361D1*
X12975Y9779D2*
X13051D1*
X13083D2*
X13282D1*
X13300D2*
X13486D1*
X13605D2*
D3*
X13708D2*
X13815D1*
X13875D2*
X13897D1*
X13957D2*
X14114D1*
X14174D2*
X14264D1*
X14323D2*
X14383D1*
X14443D2*
X14742D1*
X14802D2*
X14838D1*
X14952D2*
X14982D1*
X15052D2*
X15352D1*
X12971Y9750D2*
X13171D1*
X13202D2*
X13542D1*
X13775D2*
X13905D1*
X13964D2*
X14084D1*
X14144D2*
X14623D1*
X14682D2*
D3*
X14802D2*
X14783D1*
X14862D2*
X14892D1*
X15032D2*
X15346D1*
X12959Y9720D2*
X13470D1*
X13516D2*
X13603D1*
X13665D2*
D3*
X13845D2*
X14024D1*
X14084D2*
X14114D1*
X14174D2*
D3*
X14234D2*
D3*
X14279D2*
X14294D1*
X14353D2*
D3*
X14413D2*
X14503D1*
X14563D2*
D3*
X14623D2*
X14711D1*
X15012D2*
X15042D1*
X15096D2*
X15343D1*
X12940Y9690D2*
X13725D1*
X13785D2*
X13845D1*
X14002D2*
X14084D1*
X14144D2*
X14174D1*
X14234D2*
X14353D1*
X14413D2*
X14473D1*
X14533D2*
X14651D1*
X14982D2*
D3*
X15042D2*
X15085D1*
X15115D2*
X15342D1*
X12917Y9660D2*
X13665D1*
X13845D2*
X13875D1*
X14025D2*
X14024D1*
X14084D2*
X14211D1*
X14413D2*
X14533D1*
X14922D2*
D3*
X15015D2*
X15341D1*
X12941Y9630D2*
X13342D1*
X13420D2*
X13685D1*
X14054D2*
D3*
X14985D2*
X15341D1*
X12959Y9600D2*
X13171D1*
X13202D2*
X13382D1*
X13410D2*
X13708D1*
X14862D2*
D3*
X14945D2*
X15341D1*
X12969Y9570D2*
X13545D1*
X13635D2*
X13739D1*
X14593D2*
D3*
X14742D2*
D3*
X14802D2*
D3*
X14881D2*
X15145D1*
X15177D2*
X15341D1*
X12975Y9540D2*
X13230D1*
X13262D2*
X13486D1*
X13665D2*
X13776D1*
X14503D2*
D3*
X14604D2*
X14623D1*
X14682D2*
D3*
X14788D2*
X15341D1*
X12981Y9510D2*
X13617D1*
X13695D2*
X13813D1*
X14413D2*
D3*
X14473D2*
D3*
X14563D2*
D3*
X14597D2*
X14623D1*
X14684D2*
X15341D1*
X12989Y9480D2*
X13799D1*
X13845D2*
D3*
X13905D2*
D3*
X13964D2*
D3*
X14024D2*
D3*
X14084D2*
D3*
X14144D2*
X14174D1*
X14234D2*
D3*
X14294D2*
X14323D1*
X14383D2*
D3*
X14429D2*
X14533D1*
X14579D2*
X15340D1*
X12997Y9450D2*
X13380D1*
X13412D2*
X13934D1*
X13980D2*
X13994D1*
X14040D2*
X14054D1*
X14100D2*
X14114D1*
X14255D2*
X15336D1*
X13003Y9420D2*
X15328D1*
X13010Y9390D2*
X13530D1*
X13561D2*
X14816D1*
X14848D2*
X15320D1*
X13019Y9361D2*
X14726D1*
X14758D2*
X15311D1*
X13031Y9331D2*
X15300D1*
X13045Y9301D2*
X13948D1*
X13980D2*
X15287D1*
X13060Y9271D2*
X15273D1*
X13074Y9241D2*
X15258D1*
X13089Y9211D2*
X13230D1*
X13262D2*
X13440D1*
X13472D2*
X14068D1*
X14100D2*
X14308D1*
X14339D2*
X14816D1*
X14848D2*
X14862D1*
X14908D2*
X14966D1*
X14998D2*
X15056D1*
X15087D2*
X15243D1*
X13104Y9181D2*
X15228D1*
X13120Y9151D2*
X15212D1*
X13139Y9121D2*
X15194D1*
X13164Y9091D2*
X15170D1*
X13194Y9061D2*
X15143D1*
X13231Y9031D2*
X15111D1*
X13273Y9001D2*
X15077D1*
X13320Y8972D2*
X15038D1*
X13372Y8942D2*
X14993D1*
X13430Y8912D2*
X14937D1*
X13495Y8882D2*
X14867D1*
X13574Y8852D2*
X14775D1*
X13680Y8822D2*
X14660D1*
X13814Y8792D2*
X14525D1*
X13964Y8762D2*
X14383D1*
X17644Y15861D2*
X17571Y15831D1*
X17508Y15801D1*
X17456Y15771D1*
X17414Y15741D1*
X17380Y15711D1*
X17351Y15681D1*
X17329Y15651D1*
X17310Y15621D1*
X17293Y15591D1*
X17279Y15561D1*
X17267Y15531D1*
X17260Y15502D1*
X17252Y15472D1*
X17244Y15442D1*
X17235Y15412D1*
X17230Y15382D1*
X17227Y15352D1*
X17226Y15322D1*
X17225Y15292D1*
Y15262D1*
Y15232D1*
X17226Y15202D1*
X17230Y15172D1*
X17237Y15143D1*
X17246Y15113D1*
X17255Y15083D1*
X17265Y15053D1*
X17275Y15023D1*
X17286Y14993D1*
X17300Y14963D1*
X17317Y14933D1*
X17337Y14903D1*
X17361Y14873D1*
X17393Y14843D1*
X17434Y14813D1*
X17485Y14783D1*
X17546Y14754D1*
X17614Y14724D1*
X17883Y15861D2*
X17925Y15831D1*
X17953Y15801D1*
X17973Y15771D1*
X11869Y15831D2*
Y15801D1*
Y15771D1*
Y15741D1*
Y15711D1*
Y15681D1*
Y15651D1*
Y15621D1*
Y15591D1*
Y15561D1*
Y15531D1*
Y15502D1*
Y15472D1*
Y15442D1*
Y15412D1*
Y15382D1*
Y15352D1*
Y15322D1*
Y15292D1*
Y15262D1*
Y15232D1*
Y15202D1*
Y15172D1*
Y15143D1*
Y15113D1*
Y15083D1*
Y15053D1*
Y15023D1*
Y14993D1*
Y14963D1*
Y14933D1*
Y14903D1*
Y14873D1*
Y14843D1*
Y14813D1*
Y14783D1*
Y14754D1*
X11929Y15831D2*
Y15801D1*
Y15771D1*
Y15741D1*
Y15711D1*
Y15681D1*
Y15651D1*
Y15621D1*
Y15591D1*
Y15561D1*
Y15531D1*
Y15502D1*
Y15472D1*
Y15442D1*
Y15412D1*
Y15382D1*
Y15352D1*
X12557Y15831D2*
Y15801D1*
Y15771D1*
Y15741D1*
Y15711D1*
Y15681D1*
Y15651D1*
Y15621D1*
Y15591D1*
Y15561D1*
Y15531D1*
Y15502D1*
Y15472D1*
Y15442D1*
Y15412D1*
Y15382D1*
Y15352D1*
X12617Y15831D2*
Y15801D1*
Y15771D1*
Y15741D1*
Y15711D1*
Y15681D1*
Y15651D1*
Y15621D1*
Y15591D1*
Y15561D1*
Y15531D1*
Y15502D1*
Y15472D1*
Y15442D1*
Y15412D1*
Y15382D1*
Y15352D1*
Y15322D1*
Y15292D1*
Y15262D1*
Y15232D1*
Y15202D1*
Y15172D1*
Y15143D1*
Y15113D1*
Y15083D1*
Y15053D1*
Y15023D1*
Y14993D1*
Y14963D1*
Y14933D1*
Y14903D1*
Y14873D1*
Y14843D1*
Y14813D1*
Y14783D1*
Y14754D1*
X13814Y15831D2*
X13786Y15801D1*
X13766Y15771D1*
X13760Y15741D1*
X13756Y15711D1*
X13755Y15681D1*
X13754Y15651D1*
Y15621D1*
Y15591D1*
Y15561D1*
Y15531D1*
Y15502D1*
Y15472D1*
Y15442D1*
Y15412D1*
Y15382D1*
Y15352D1*
Y15322D1*
Y15292D1*
Y15262D1*
Y15232D1*
Y15202D1*
Y15172D1*
Y15143D1*
Y15113D1*
Y15083D1*
Y15053D1*
Y15023D1*
Y14993D1*
Y14963D1*
Y14933D1*
Y14903D1*
Y14873D1*
Y14843D1*
Y14813D1*
Y14783D1*
Y14754D1*
X14083Y15831D2*
X14151Y15801D1*
X14207Y15771D1*
X14250Y15741D1*
X14282Y15711D1*
X14304Y15681D1*
X14319Y15651D1*
X14331Y15621D1*
X14341Y15591D1*
X14347Y15561D1*
X14350Y15531D1*
Y15502D1*
X14347Y15472D1*
X14340Y15442D1*
X14331Y15412D1*
X14321Y15382D1*
X14306Y15352D1*
X14285Y15322D1*
X14256Y15292D1*
X14221Y15262D1*
X14127Y15232D1*
X13986Y15202D1*
X13814Y15172D1*
Y15143D1*
Y15113D1*
Y15083D1*
Y15053D1*
Y15023D1*
Y14993D1*
Y14963D1*
Y14933D1*
Y14903D1*
Y14873D1*
Y14843D1*
Y14813D1*
Y14783D1*
Y14754D1*
X15370Y15831D2*
X15328Y15801D1*
X15298Y15771D1*
X15288Y15741D1*
X15283Y15711D1*
X15281Y15681D1*
Y15651D1*
X15280Y15621D1*
Y15591D1*
Y15561D1*
Y15531D1*
Y15502D1*
Y15472D1*
Y15442D1*
Y15412D1*
Y15382D1*
Y15352D1*
Y15322D1*
Y15292D1*
Y15262D1*
Y15232D1*
Y15202D1*
Y15172D1*
Y15143D1*
Y15113D1*
Y15083D1*
Y15053D1*
Y15023D1*
Y14993D1*
Y14963D1*
Y14933D1*
Y14903D1*
Y14873D1*
Y14843D1*
Y14813D1*
Y14783D1*
Y14754D1*
X15669Y15831D2*
X15769Y15801D1*
X15850Y15771D1*
X15910Y15741D1*
X15955Y15711D1*
X15988Y15681D1*
X16013Y15651D1*
X16032Y15621D1*
X16049Y15591D1*
X16064Y15561D1*
X16076Y15531D1*
X16087Y15502D1*
X16098Y15472D1*
X16107Y15442D1*
X16113Y15412D1*
X16116Y15382D1*
X16117Y15352D1*
X16118Y15322D1*
Y15292D1*
X16117Y15262D1*
X16113Y15232D1*
X16106Y15202D1*
X16098Y15172D1*
X16092Y15143D1*
X16085Y15113D1*
X16075Y15083D1*
X16063Y15053D1*
X16050Y15023D1*
X16034Y14993D1*
X16015Y14963D1*
X15992Y14933D1*
X15965Y14903D1*
X15931Y14873D1*
X15886Y14843D1*
X15823Y14813D1*
X15737Y14783D1*
X15639Y14754D1*
X16656Y15831D2*
X16642Y15801D1*
X16629Y15771D1*
X16617Y15741D1*
X16607Y15711D1*
X16597Y15681D1*
X16587Y15651D1*
X16577Y15621D1*
X16567Y15591D1*
X16557Y15561D1*
X16547Y15531D1*
X16537Y15502D1*
X16527Y15472D1*
X16517Y15442D1*
X16507Y15412D1*
X16497Y15382D1*
X16487Y15352D1*
X16477Y15322D1*
X16467Y15292D1*
X16457Y15262D1*
X16447Y15232D1*
X16436Y15202D1*
X16423Y15172D1*
X16410Y15143D1*
X16398Y15113D1*
X16388Y15083D1*
X16377Y15053D1*
X16367Y15023D1*
X16358Y14993D1*
X16347Y14963D1*
X16337Y14933D1*
X16328Y14903D1*
X16317Y14873D1*
X16307Y14843D1*
X16297Y14813D1*
X16283Y14783D1*
X16267Y14754D1*
X16716Y15831D2*
X16727Y15801D1*
X16737Y15771D1*
X16746Y15741D1*
X16757Y15711D1*
X16770Y15681D1*
X16783Y15651D1*
X16795Y15621D1*
X16805Y15591D1*
X16816Y15561D1*
X16826Y15531D1*
X16836Y15502D1*
X16846Y15472D1*
X16856Y15442D1*
X16866Y15412D1*
X16876Y15382D1*
X16886Y15352D1*
X16896Y15322D1*
X16906Y15292D1*
X16916Y15262D1*
X16926Y15232D1*
X16936Y15202D1*
X16946Y15172D1*
X16955Y15143D1*
X16966Y15113D1*
X16976Y15083D1*
X16985Y15053D1*
X16997Y15023D1*
X17010Y14993D1*
X17023Y14963D1*
X17034Y14933D1*
X17045Y14903D1*
X17055Y14873D1*
X17066Y14843D1*
X17076Y14813D1*
X17089Y14783D1*
X17105Y14754D1*
X12916Y15801D2*
X12904Y15771D1*
X12896Y15741D1*
X12905Y15711D1*
X12916Y15681D1*
X12946Y15801D2*
X12959Y15771D1*
X12966Y15741D1*
X12958Y15711D1*
X12946Y15681D1*
X14592Y15801D2*
X14579Y15771D1*
X14572Y15741D1*
X14580Y15711D1*
X14592Y15681D1*
X14622Y15801D2*
X14634Y15771D1*
X14642Y15741D1*
X14634Y15711D1*
X14622Y15681D1*
X17793Y15831D2*
X17687Y15801D1*
X17597Y15771D1*
X17529Y15741D1*
X17479Y15711D1*
X17441Y15681D1*
X17408Y15651D1*
X17380Y15621D1*
X17358Y15591D1*
X17341Y15561D1*
X17327Y15531D1*
X17316Y15502D1*
X17305Y15472D1*
X17296Y15442D1*
X17290Y15412D1*
X17287Y15382D1*
X17286Y15352D1*
X17285Y15322D1*
Y15292D1*
Y15262D1*
Y15232D1*
X17286Y15202D1*
X17290Y15172D1*
X17297Y15143D1*
X17306Y15113D1*
X17315Y15083D1*
X17326Y15053D1*
X17339Y15023D1*
X17353Y14993D1*
X17369Y14963D1*
X17389Y14933D1*
X17417Y14903D1*
X17458Y14873D1*
X17519Y14843D1*
X17606Y14813D1*
X17722Y14783D1*
X17853Y14754D1*
X17704Y15831D2*
X17823Y15801D1*
X17943Y15771D1*
X13934Y15801D2*
X13886Y15771D1*
X13845Y15741D1*
X13829Y15711D1*
X13820Y15681D1*
X13816Y15651D1*
X13815Y15621D1*
X13814Y15591D1*
Y15561D1*
Y15531D1*
Y15502D1*
Y15472D1*
Y15442D1*
Y15412D1*
Y15382D1*
Y15352D1*
Y15322D1*
Y15292D1*
Y15262D1*
X14083Y15232D1*
X13934Y15801D2*
X14036Y15771D1*
X14118Y15741D1*
X14177Y15711D1*
X14217Y15681D1*
X14245Y15651D1*
X14265Y15621D1*
X14279Y15591D1*
X14286Y15561D1*
X14290Y15531D1*
Y15502D1*
X14287Y15472D1*
X14279Y15442D1*
X14267Y15412D1*
X14249Y15382D1*
X14224Y15352D1*
X14193Y15322D1*
X14103Y15292D1*
X13961Y15262D1*
X13784Y15232D1*
X15519Y15801D2*
X15447Y15771D1*
X15387Y15741D1*
X15359Y15711D1*
X15349Y15681D1*
X15344Y15651D1*
X15341Y15621D1*
X15340Y15591D1*
Y15561D1*
Y15531D1*
Y15502D1*
Y15472D1*
Y15442D1*
Y15412D1*
Y15382D1*
Y15352D1*
Y15322D1*
Y15292D1*
Y15262D1*
Y15232D1*
Y15202D1*
Y15172D1*
Y15143D1*
Y15113D1*
Y15083D1*
Y15053D1*
Y15023D1*
Y14993D1*
Y14963D1*
Y14933D1*
X15342Y14903D1*
X15347Y14873D1*
X15383Y14843D1*
X15486Y14813D1*
X15609Y14783D1*
X15490Y15801D2*
X15621Y15771D1*
X15733Y15741D1*
X15817Y15711D1*
X15880Y15681D1*
X15925Y15651D1*
X15958Y15621D1*
X15983Y15591D1*
X16001Y15561D1*
X16016Y15531D1*
X16027Y15502D1*
X16038Y15472D1*
X16047Y15442D1*
X16053Y15412D1*
X16056Y15382D1*
X16057Y15352D1*
X16058Y15322D1*
Y15292D1*
Y15262D1*
X16057Y15232D1*
X16053Y15202D1*
X16046Y15172D1*
X16037Y15143D1*
X16028Y15113D1*
X16017Y15083D1*
X16003Y15053D1*
X15985Y15023D1*
X15962Y14993D1*
X15935Y14963D1*
X15901Y14933D1*
X15855Y14903D1*
X15784Y14873D1*
X15665Y14843D1*
X15489Y14813D1*
X15280Y14783D1*
X16656Y15741D2*
X16652Y15711D1*
X16644Y15681D1*
X16636Y15651D1*
X16626Y15621D1*
X16616Y15591D1*
X16606Y15561D1*
X16597Y15531D1*
X16587Y15502D1*
X16577Y15472D1*
X16567Y15442D1*
X16557Y15412D1*
X16547Y15382D1*
X16537Y15352D1*
X16527Y15322D1*
X16517Y15292D1*
X16506Y15262D1*
X16491Y15232D1*
X16470Y15202D1*
X16447Y15172D1*
X16716Y15741D2*
X16717Y15711D1*
X16721Y15681D1*
X16729Y15651D1*
X16737Y15621D1*
X16746Y15591D1*
X16756Y15561D1*
X16766Y15531D1*
X16776Y15502D1*
X16786Y15472D1*
X16796Y15442D1*
X16806Y15412D1*
X16816Y15382D1*
X16826Y15352D1*
X16836Y15322D1*
X16847Y15292D1*
X16861Y15262D1*
X16879Y15232D1*
X16901Y15202D1*
X16926Y15172D1*
X12886Y15502D2*
Y15472D1*
Y15442D1*
Y15412D1*
Y15382D1*
Y15352D1*
Y15322D1*
Y15292D1*
Y15262D1*
Y15232D1*
Y15202D1*
Y15172D1*
Y15143D1*
Y15113D1*
Y15083D1*
Y15053D1*
Y15023D1*
Y14993D1*
Y14963D1*
Y14933D1*
Y14903D1*
Y14873D1*
Y14843D1*
Y14813D1*
Y14783D1*
Y14754D1*
X12946Y15502D2*
Y15472D1*
Y15442D1*
Y15412D1*
Y15382D1*
Y15352D1*
Y15322D1*
Y15292D1*
Y15262D1*
Y15232D1*
Y15202D1*
Y15172D1*
Y15143D1*
Y15113D1*
Y15083D1*
Y15053D1*
Y15023D1*
Y14993D1*
Y14963D1*
Y14933D1*
Y14903D1*
Y14873D1*
Y14843D1*
Y14813D1*
Y14783D1*
Y14754D1*
X14562Y15502D2*
Y15472D1*
Y15442D1*
Y15412D1*
Y15382D1*
Y15352D1*
Y15322D1*
Y15292D1*
Y15262D1*
Y15232D1*
Y15202D1*
Y15172D1*
Y15143D1*
Y15113D1*
Y15083D1*
Y15053D1*
Y15023D1*
Y14993D1*
Y14963D1*
Y14933D1*
Y14903D1*
Y14873D1*
Y14843D1*
Y14813D1*
Y14783D1*
Y14754D1*
X14622Y15502D2*
Y15472D1*
Y15442D1*
Y15412D1*
Y15382D1*
Y15352D1*
Y15322D1*
Y15292D1*
Y15262D1*
Y15232D1*
Y15202D1*
Y15172D1*
Y15143D1*
Y15113D1*
Y15083D1*
Y15053D1*
Y15023D1*
Y14993D1*
Y14963D1*
Y14933D1*
Y14903D1*
Y14873D1*
Y14843D1*
Y14813D1*
Y14783D1*
Y14754D1*
X11929Y15322D2*
Y15292D1*
Y15262D1*
Y15232D1*
Y15202D1*
Y15172D1*
Y15143D1*
Y15113D1*
Y15083D1*
Y15053D1*
Y15023D1*
Y14993D1*
Y14963D1*
Y14933D1*
Y14903D1*
Y14873D1*
Y14843D1*
Y14813D1*
Y14783D1*
Y14754D1*
X12557Y15322D2*
Y15292D1*
Y15262D1*
Y15232D1*
Y15202D1*
Y15172D1*
Y15143D1*
Y15113D1*
Y15083D1*
Y15053D1*
Y15023D1*
Y14993D1*
Y14963D1*
Y14933D1*
Y14903D1*
Y14873D1*
Y14843D1*
Y14813D1*
Y14783D1*
Y14754D1*
X13186Y15202D2*
Y15172D1*
X13545Y15202D2*
Y15172D1*
X16507Y15143D2*
X16482Y15113D1*
X16460Y15083D1*
X16443Y15053D1*
X16429Y15023D1*
X16418Y14993D1*
X16407Y14963D1*
X16397Y14933D1*
X16387Y14903D1*
X16377Y14873D1*
X16367Y14843D1*
X16357Y14813D1*
X16343Y14783D1*
X16327Y14754D1*
X16866Y15143D2*
X16891Y15113D1*
X16912Y15083D1*
X16930Y15053D1*
X16943Y15023D1*
X16954Y14993D1*
X16965Y14963D1*
X16976Y14933D1*
X16985Y14903D1*
X16996Y14873D1*
X17006Y14843D1*
X17016Y14813D1*
X17030Y14783D1*
X17045Y14754D1*
X17823Y14783D2*
X17793Y14754D1*
X18003Y14783D2*
X17931Y14754D1*
X17853Y14724D1*
X11974Y14455D2*
X12054D2*
X13101D2*
X13131D2*
X11934Y14445D2*
Y14435D1*
Y14425D1*
Y14415D1*
Y14405D1*
Y14395D1*
Y14385D1*
Y14375D1*
Y14365D1*
Y14355D1*
Y14345D1*
Y14335D1*
Y14325D1*
Y14315D1*
Y14305D1*
Y14295D1*
Y14286D1*
Y14276D1*
Y14266D1*
Y14256D1*
Y14246D1*
Y14236D1*
Y14226D1*
Y14216D1*
Y14206D1*
Y14196D1*
Y14186D1*
Y14176D1*
Y14166D1*
Y14156D1*
Y14146D1*
Y14136D1*
Y14126D1*
Y14116D1*
Y14106D1*
Y14096D1*
Y14086D1*
Y14076D1*
Y14066D1*
Y14056D1*
Y14046D1*
Y14036D1*
X11944Y14445D2*
Y14435D1*
Y14425D1*
Y14415D1*
Y14405D1*
Y14395D1*
Y14385D1*
Y14375D1*
Y14365D1*
Y14355D1*
Y14345D1*
Y14335D1*
Y14325D1*
Y14315D1*
Y14305D1*
Y14295D1*
Y14286D1*
Y14276D1*
Y14266D1*
Y14256D1*
Y14246D1*
Y14236D1*
X12084Y14445D2*
X12104Y14435D1*
X12094Y14445D2*
X13061D2*
X13161D2*
X13181Y14435D2*
X13189Y14425D1*
X13196Y14415D1*
X13202Y14405D1*
X13206Y14395D1*
X13209Y14385D1*
X13210Y14375D1*
X13211Y14365D1*
Y14355D1*
Y14345D1*
Y14335D1*
Y14325D1*
X12124Y14425D2*
X12134Y14405D2*
X12139Y14395D1*
X12144Y14385D1*
Y14365D2*
Y14355D1*
Y14345D1*
Y14335D1*
X12154Y14365D2*
Y14355D1*
Y14345D1*
Y14335D1*
X13221Y14365D2*
Y14355D1*
Y14345D1*
Y14335D1*
Y14325D1*
X12343Y14335D2*
X12383D2*
X12413Y14325D2*
X12553D2*
X12556Y14315D1*
X12559Y14305D1*
X12563Y14295D1*
X12566Y14286D1*
X12569Y14276D1*
X12573Y14266D1*
X12782Y14325D2*
Y14315D1*
X12144D2*
Y14305D1*
X12772D2*
Y14295D1*
X13211Y14305D2*
Y14295D1*
X12443D2*
X12449Y14286D1*
X12454Y14276D1*
X12458Y14266D1*
X12461Y14256D1*
X12463Y14246D1*
X12263Y14276D2*
X12762D2*
Y14266D1*
X13201Y14276D2*
Y14266D1*
X12253Y14256D2*
Y14246D1*
X13191Y14256D2*
X12583Y14246D2*
Y14236D1*
X12752Y14246D2*
X12074Y14236D2*
X12243D2*
X12245Y14226D1*
X12249Y14216D1*
X12253Y14206D1*
X13181Y14236D2*
X11944D2*
Y14226D1*
Y14216D1*
Y14206D1*
Y14196D1*
Y14186D1*
Y14176D1*
Y14166D1*
Y14156D1*
Y14146D1*
Y14136D1*
Y14126D1*
Y14116D1*
Y14106D1*
Y14096D1*
Y14086D1*
Y14076D1*
Y14066D1*
Y14056D1*
Y14046D1*
Y14036D1*
X12463Y14226D2*
Y14216D1*
Y14206D1*
Y14196D1*
X12473Y14226D2*
Y14216D1*
Y14206D1*
Y14196D1*
X12742Y14226D2*
Y14216D1*
X12593D2*
X12596Y14206D1*
X12599Y14196D1*
X12602Y14186D1*
X13161Y14206D2*
X12243Y14196D2*
X12732D2*
X12114Y14186D2*
X12119Y14176D1*
X12124Y14166D1*
X12233Y14176D2*
X12243D2*
X12612Y14166D2*
Y14156D1*
X12722Y14166D2*
X12243Y14156D2*
X12244Y14146D1*
X12245Y14136D1*
X12248Y14126D1*
X12250Y14116D1*
X12254Y14106D1*
X12258Y14096D1*
X12263Y14086D1*
X12134Y14146D2*
Y14136D1*
X12135Y14126D1*
X12138Y14116D1*
X12140Y14106D1*
X12142Y14096D1*
X12145Y14086D1*
X12147Y14076D1*
X12150Y14066D1*
X12152Y14056D1*
X12154Y14046D1*
X12622Y14136D2*
X13101D2*
X13091Y14126D2*
X12632Y14116D2*
Y14106D1*
X12702Y14116D2*
X13081D2*
X13071Y14106D2*
X12642Y14086D2*
Y14076D1*
X12652Y14056D2*
X12662Y14046D1*
X12672Y14056D2*
Y14046D1*
X12303D2*
X13021D2*
X13011Y14036D1*
X13031Y14046D2*
Y14036D1*
X12323D2*
X12443D2*
X13231D2*
X12353Y14026D2*
X12403D2*
X14264Y13998D2*
X14167Y13968D1*
X14059Y13939D1*
X13933Y13909D1*
X13806Y13879D1*
X13692Y13849D1*
X13583Y13819D1*
X13476Y13789D1*
X13379Y13759D1*
X13297Y13729D1*
X13231Y13699D1*
X13178Y13669D1*
X13136Y13639D1*
X13099Y13609D1*
X13057Y13579D1*
X12999Y13550D1*
X12922Y13520D1*
X12841Y13490D1*
X12775Y13460D1*
X12729Y13430D1*
X12697Y13400D1*
X12670Y13370D1*
X12644Y13340D1*
X12614Y13310D1*
X12576Y13280D1*
X12527Y13250D1*
X12471Y13220D1*
X12416Y13190D1*
X12369Y13161D1*
X12334Y13131D1*
X12310Y13101D1*
X12293Y13071D1*
X12279Y13041D1*
X12264Y13011D1*
X12246Y12981D1*
X12223Y12951D1*
X12195Y12921D1*
X12163Y12891D1*
X12126Y12861D1*
X12085Y12831D1*
X12047Y12801D1*
X12015Y12772D1*
X11991Y12742D1*
X11976Y12712D1*
X11965Y12682D1*
X11966Y12652D1*
X11978Y12622D1*
X11998Y12592D1*
X12023Y12562D1*
X12050Y12532D1*
X12077Y12502D1*
X12109Y12472D1*
X12150Y12442D1*
X12199Y12413D1*
X12152Y12383D1*
X12098Y12353D1*
X12038Y12323D1*
X11977Y12293D1*
X11917Y12263D1*
X11860Y12233D1*
X11809Y12203D1*
X11760Y12173D1*
X11715Y12143D1*
X11673Y12113D1*
X11636Y12083D1*
X11603Y12053D1*
X11572Y12024D1*
X11541Y11994D1*
X11512Y11964D1*
X11486Y11934D1*
X11464Y11904D1*
X11446Y11874D1*
X11430Y11844D1*
X11414Y11814D1*
X11399Y11784D1*
X11384Y11754D1*
X11369Y11724D1*
X11355Y11694D1*
X11343Y11664D1*
X11332Y11635D1*
X11322Y11605D1*
X11312Y11575D1*
X11307Y11545D1*
X11304Y11515D1*
X11302Y11485D1*
Y11455D1*
X11301Y11425D1*
X11302Y11395D1*
X11303Y11365D1*
X11306Y11335D1*
X11314Y11305D1*
X11321Y11276D1*
X11328Y11246D1*
X11334Y11216D1*
X11344Y11186D1*
X11356Y11156D1*
X11370Y11126D1*
X11384Y11096D1*
X11398Y11066D1*
X11410Y11036D1*
X11421Y11006D1*
X11437Y10976D1*
X11458Y10946D1*
X11484Y10916D1*
X11512Y10887D1*
X11541Y10857D1*
X11572Y10827D1*
X11606Y10797D1*
X11644Y10767D1*
X11685Y10737D1*
X11728Y10707D1*
X11769Y10677D1*
X11809Y10647D1*
X11850Y10617D1*
X11890Y10587D1*
X11931Y10557D1*
X11975Y10527D1*
X12022Y10498D1*
X12070Y10468D1*
X12119Y10438D1*
X12168Y10408D1*
X12214Y10378D1*
X12258Y10348D1*
X12303Y10318D1*
X12350Y10288D1*
X12394Y10258D1*
X12437Y10228D1*
X12482Y10198D1*
X12529Y10168D1*
X12574Y10139D1*
X12617Y10109D1*
X12663Y10079D1*
X12715Y10049D1*
X12771Y10019D1*
X12831Y9989D1*
X12887Y9959D1*
X12937Y9929D1*
X12961Y9899D1*
X12969Y9869D1*
X12974Y9839D1*
X12976Y9809D1*
X12975Y9779D1*
X12971Y9750D1*
X12959Y9720D1*
X12940Y9690D1*
X12917Y9660D1*
X12941Y9630D1*
X12959Y9600D1*
X12969Y9570D1*
X12975Y9540D1*
X12981Y9510D1*
X12989Y9480D1*
X12997Y9450D1*
X13003Y9420D1*
X13010Y9390D1*
X13019Y9361D1*
X13031Y9331D1*
X13045Y9301D1*
X13060Y9271D1*
X13074Y9241D1*
X13089Y9211D1*
X13104Y9181D1*
X13120Y9151D1*
X13139Y9121D1*
X13164Y9091D1*
X13194Y9061D1*
X13231Y9031D1*
X13273Y9001D1*
X13320Y8972D1*
X13372Y8942D1*
X13430Y8912D1*
X13495Y8882D1*
X13574Y8852D1*
X13680Y8822D1*
X13814Y8792D1*
X13964Y8762D1*
X14353Y13998D2*
X14383Y13968D1*
X14443Y13998D2*
X14413Y13968D1*
X14473Y13998D2*
X14506Y13968D1*
X14535Y13939D1*
X14560Y13909D1*
X14582Y13879D1*
X14603Y13849D1*
X14627Y13819D1*
X14650Y13789D1*
X14670Y13759D1*
X14687Y13729D1*
X14699Y13699D1*
X14708Y13669D1*
X14716Y13639D1*
X14729Y13609D1*
X14745Y13579D1*
X14762Y13550D1*
X14779Y13520D1*
X14794Y13490D1*
X14810Y13460D1*
X14826Y13430D1*
X14845Y13400D1*
X14867Y13370D1*
X14889Y13340D1*
X14910Y13310D1*
X14927Y13280D1*
X14943Y13250D1*
X14958Y13220D1*
X14970Y13190D1*
X14983Y13161D1*
X15002Y13131D1*
X15030Y13101D1*
X15059Y13071D1*
X15084Y13041D1*
X15105Y13011D1*
X15125Y12981D1*
X15148Y12951D1*
X15178Y12921D1*
X15208Y12891D1*
X15234Y12861D1*
X15253Y12831D1*
X15268Y12801D1*
X15279Y12772D1*
X15290Y12742D1*
X15301Y12712D1*
X15313Y12682D1*
X15330Y12652D1*
X15382Y12622D1*
X15460Y12592D1*
X15560Y12562D1*
X15667Y12532D1*
X15772Y12502D1*
X15870Y12472D1*
X15961Y12442D1*
X16044Y12413D1*
X16122Y12383D1*
X16195Y12353D1*
X16262Y12323D1*
X16326Y12293D1*
X16387Y12263D1*
X16446Y12233D1*
X16502Y12203D1*
X16554Y12173D1*
X16601Y12143D1*
X16642Y12113D1*
X16675Y12083D1*
X16700Y12053D1*
X16711Y12024D1*
X16723Y11994D1*
X16755Y11964D1*
X16799Y11934D1*
X16844Y11904D1*
X16881Y11874D1*
X16909Y11844D1*
X16930Y11814D1*
X16948Y11784D1*
X16967Y11754D1*
X16986Y11724D1*
X17000Y11694D1*
X17010Y11664D1*
X17018Y11635D1*
X17027Y11605D1*
X17036Y11575D1*
X17041Y11545D1*
X17044Y11515D1*
X17045Y11485D1*
X17046Y11455D1*
Y11425D1*
Y11395D1*
Y11365D1*
Y11335D1*
X17045Y11305D1*
X17041Y11276D1*
X17034Y11246D1*
X17026Y11216D1*
X17020Y11186D1*
X17013Y11156D1*
X17004Y11126D1*
X16991Y11096D1*
X16974Y11066D1*
X16956Y11036D1*
X16941Y11006D1*
X16928Y10976D1*
X16911Y10946D1*
X16890Y10916D1*
X16864Y10887D1*
X16836Y10857D1*
X16806Y10827D1*
X16776Y10797D1*
X16742Y10767D1*
X16705Y10737D1*
X16666Y10707D1*
X16626Y10677D1*
X16582Y10647D1*
X16536Y10617D1*
X16492Y10587D1*
X16449Y10557D1*
X16403Y10527D1*
X16352Y10498D1*
X16300Y10468D1*
X16251Y10438D1*
X16203Y10408D1*
X16157Y10378D1*
X16112Y10348D1*
X16067Y10318D1*
X16023Y10288D1*
X15980Y10258D1*
X15939Y10228D1*
X15894Y10198D1*
X15847Y10168D1*
X15799Y10139D1*
X15748Y10109D1*
X15696Y10079D1*
X15643Y10049D1*
X15591Y10019D1*
X15540Y9989D1*
X15488Y9959D1*
X15441Y9929D1*
X15401Y9899D1*
X15385Y9869D1*
X15372Y9839D1*
X15361Y9809D1*
X15352Y9779D1*
X15346Y9750D1*
X15343Y9720D1*
X15342Y9690D1*
X15341Y9660D1*
Y9630D1*
Y9600D1*
Y9570D1*
Y9540D1*
Y9510D1*
X15340Y9480D1*
X15336Y9450D1*
X15328Y9420D1*
X15320Y9390D1*
X15311Y9361D1*
X15300Y9331D1*
X15287Y9301D1*
X15273Y9271D1*
X15258Y9241D1*
X15243Y9211D1*
X15228Y9181D1*
X15212Y9151D1*
X15194Y9121D1*
X15170Y9091D1*
X15143Y9061D1*
X15111Y9031D1*
X15077Y9001D1*
X15038Y8972D1*
X14993Y8942D1*
X14937Y8912D1*
X14867Y8882D1*
X14775Y8852D1*
X14660Y8822D1*
X14525Y8792D1*
X14383Y8762D1*
X14054Y13819D2*
X14049Y13789D1*
X14038Y13759D1*
X14024Y13729D1*
X14112Y13699D1*
X14204Y13669D1*
X14114Y13819D2*
X14115Y13789D1*
X14120Y13759D1*
X14130Y13729D1*
X14144Y13699D1*
X14533Y13819D2*
X14517Y13789D1*
X14503Y13759D1*
X14533Y13819D2*
X14549Y13789D1*
X14563Y13759D1*
X14174D2*
X14166Y13729D1*
X14143Y13699D1*
X14114Y13669D1*
X14204Y13759D2*
X14220Y13729D1*
X14234Y13699D1*
X13755Y13729D2*
X13731Y13699D1*
X13711Y13669D1*
X13695Y13639D1*
X13755Y13729D2*
X13779Y13699D1*
X13799Y13669D1*
X13815Y13639D1*
X13545Y13699D2*
X13541Y13669D1*
X13533Y13639D1*
X13524Y13609D1*
X13516Y13579D1*
X13575Y13699D2*
X13605Y13669D1*
X13635Y13639D1*
X13561Y13609D1*
X13486Y13579D1*
X13755Y13669D2*
X13725Y13639D1*
X13934Y13699D2*
X13919Y13669D1*
X13905Y13639D1*
X13934Y13699D2*
X13950Y13669D1*
X13964Y13639D1*
X13426Y13669D2*
X13366Y13639D1*
X13307Y13609D1*
X13252Y13579D1*
X13203Y13550D1*
X13157Y13520D1*
X13216Y13490D1*
X13336Y13669D2*
X13426Y13639D1*
X13516Y13609D1*
X13454Y13579D1*
X13407Y13550D1*
X13366Y13520D1*
X13695Y13639D2*
X13665Y13609D1*
X14593Y13639D2*
X14583Y13609D1*
X14568Y13579D1*
X14550Y13550D1*
X14533Y13520D1*
X14712Y13639D2*
X14680Y13609D1*
X14641Y13579D1*
X14590Y13550D1*
X14533Y13520D1*
X13306Y13550D2*
X13234Y13520D1*
X13157Y13490D1*
X13336Y13550D2*
X13366Y13520D1*
X14503Y13579D2*
X14479Y13550D1*
X14459Y13520D1*
X14443Y13490D1*
X14503Y13520D2*
X14473Y13490D1*
X14353Y13520D2*
X14300Y13490D1*
X14253Y13460D1*
X14215Y13430D1*
X14196Y13400D1*
X14195Y13370D1*
X14204Y13340D1*
X14174Y13310D1*
X14264Y13520D2*
X14342Y13490D1*
X14407Y13460D1*
X14458Y13430D1*
X14503Y13400D1*
X14323Y13430D2*
X14353D2*
X14301Y13400D1*
X14241Y13370D1*
X14167Y13340D1*
X14084Y13310D1*
X14563Y13460D2*
X14532Y13430D1*
X14497Y13400D1*
X14457Y13370D1*
X14413Y13340D1*
X14593Y13460D2*
X14670Y13430D1*
X14730Y13400D1*
X14771Y13370D1*
X14802Y13340D1*
X14609Y13310D1*
X14413Y13280D1*
X13127Y13430D2*
X13158Y13400D1*
X13192Y13370D1*
X13232Y13340D1*
X13276Y13310D1*
X13246Y13430D2*
X13251Y13400D1*
X13259Y13370D1*
X13268Y13340D1*
X13276Y13310D1*
X14413Y13400D2*
X14443Y13370D1*
X14563Y13400D2*
X14621Y13370D1*
X14682Y13340D1*
X14593Y13400D2*
X14623Y13370D1*
X14653Y13400D2*
X13007D2*
X13012Y13370D1*
X13023Y13340D1*
X13037Y13310D1*
X13067Y13400D2*
X13061Y13370D1*
X13051Y13340D1*
X13037Y13310D1*
X13127Y13400D2*
X13102Y13370D1*
X13083Y13340D1*
X13067Y13310D1*
X13157Y13370D2*
X13113Y13340D1*
X13067Y13310D1*
X14234Y13370D2*
X14278Y13340D1*
X14320Y13310D1*
X14357Y13280D1*
X14387Y13250D1*
X14413Y13220D1*
X14323Y13370D2*
X14353D2*
X14294Y13340D1*
X12768Y13370D2*
X12816Y13340D1*
X12856Y13310D1*
X12874Y13280D1*
X12887Y13250D1*
X12797D1*
X12811Y13220D1*
X12827Y13190D1*
X12786Y13161D1*
X12736Y13131D1*
X12678Y13101D1*
X12887Y13370D2*
X12917Y13340D1*
X12947Y13310D1*
X12977Y13280D1*
X12917Y13250D1*
X12947Y13220D1*
X12907Y13190D1*
X12867Y13161D1*
X12827Y13131D1*
X12857Y13101D1*
X12678Y13071D1*
X13426Y13370D2*
X13410Y13340D1*
X13396Y13310D1*
X13426Y13370D2*
X13442Y13340D1*
X13456Y13310D1*
X13516Y13370D2*
X13500Y13340D1*
X13486Y13310D1*
X13516Y13370D2*
X13531Y13340D1*
X13545Y13310D1*
X13725Y13370D2*
X13709Y13340D1*
X13695Y13310D1*
X13725Y13370D2*
X13741Y13340D1*
X13755Y13310D1*
X14114Y13370D2*
X14129Y13340D1*
X14176Y13310D1*
X14234Y13280D1*
X14174Y13250D1*
X14232Y13220D1*
X14294Y13190D1*
X14174Y13340D2*
X14443Y13310D2*
X14413Y13280D1*
X14503Y13310D2*
X14444Y13280D1*
X14361Y13250D1*
X14264Y13220D1*
X14294Y13280D2*
X14323Y13250D1*
X14265Y13220D1*
X14204Y13190D1*
X14383Y13280D2*
X14351Y13250D1*
X14323Y13220D1*
X14264Y13250D2*
X14294Y13220D1*
X14264Y13190D1*
X14144Y13250D2*
X14095Y13220D1*
X14056Y13190D1*
X14024Y13161D1*
X14174Y13250D2*
X14133Y13220D1*
X14082Y13190D1*
X14024Y13161D1*
X12678D2*
X12648Y13131D1*
X12618Y13101D1*
X12797Y13071D1*
X12708Y13161D2*
X12766Y13131D1*
X12827Y13101D1*
X14682Y13161D2*
X14667Y13131D1*
X14653Y13101D1*
X14682Y13161D2*
X14698Y13131D1*
X14712Y13101D1*
X14772Y13161D2*
X14748Y13131D1*
X14728Y13101D1*
X14712Y13071D1*
X14832Y13161D2*
X14797Y13131D1*
X14756Y13101D1*
X14712Y13071D1*
X12528Y13131D2*
X12512Y13101D1*
X12498Y13071D1*
X12528Y13131D2*
X12544Y13101D1*
X12558Y13071D1*
X12887Y13131D2*
X12903Y13101D1*
X12917Y13071D1*
X14593Y13131D2*
X14563Y13101D1*
X14593Y13131D2*
X14623Y13101D1*
X14952Y13131D2*
X14862Y13101D1*
X14772Y13071D1*
X14862Y13041D1*
X14922Y13131D2*
X14952Y13101D1*
X14982Y13071D1*
X14832Y13041D1*
X14563Y13071D2*
X14547Y13041D1*
X14533Y13011D1*
X14563Y13071D2*
X14579Y13041D1*
X14593Y13011D1*
X14653Y13071D2*
X14637Y13041D1*
X14623Y13011D1*
X14653Y13071D2*
X14668Y13041D1*
X14682Y13011D1*
X13725Y12981D2*
X13676Y12951D1*
X13636Y12921D1*
X13603Y12891D1*
X13574Y12861D1*
X13546Y12831D1*
X13521Y12801D1*
X13502Y12772D1*
X13486Y12742D1*
X13815Y12981D2*
X13845Y12951D1*
X13994Y12981D2*
X13964Y12951D1*
X14264Y12981D2*
X14214Y12951D1*
X14174Y12921D1*
X14143Y12891D1*
X14114Y12861D1*
X13725Y12921D2*
X13755D2*
X13707Y12891D1*
X13661Y12861D1*
X13620Y12831D1*
X13585Y12801D1*
X13567Y12772D1*
X13569Y12742D1*
X13575Y12712D1*
X14024Y12921D2*
X14052Y12891D1*
X14059Y12861D1*
X14054Y12831D1*
X14084Y12921D2*
X14098Y12891D1*
X14114Y12861D1*
X13426Y12921D2*
X13396Y12891D1*
X13367Y12861D1*
X13342Y12831D1*
X13322Y12801D1*
X13306Y12772D1*
X13456Y12921D2*
X13486Y12891D1*
X13516Y12861D1*
X13545Y12831D1*
X13575Y12801D1*
X13665Y12891D2*
X13635Y12861D1*
X13695Y12831D1*
X13815Y12891D2*
Y12861D1*
X13875Y12891D2*
X13964D2*
X13994Y12861D1*
X14024Y12831D1*
X13966Y12801D1*
X13905Y12772D1*
X14772Y12921D2*
X14747Y12891D1*
X14725Y12861D1*
X14704Y12831D1*
X14682Y12801D1*
X14742Y12921D2*
X14802Y12891D1*
X14862Y12861D1*
X13456D2*
X13484Y12831D1*
X13510Y12801D1*
X13529Y12772D1*
X13545Y12742D1*
X13725Y12861D2*
X13934D2*
X13964Y12831D1*
X13994Y12801D1*
X13964Y12772D1*
X14024Y12861D2*
X14054Y12831D1*
X14772Y12861D2*
X14892Y12891D2*
X14922Y12861D1*
X14952Y12891D2*
X14982Y12861D1*
X15012Y12831D1*
X15042Y12801D1*
X14982Y12772D1*
X15012Y12742D1*
X14968Y12712D1*
X14927Y12682D1*
X14885Y12652D1*
X14835Y12622D1*
X14768Y12592D1*
X14668Y12562D1*
X14523Y12532D1*
X14353Y12502D1*
X15012Y12891D2*
X15040Y12861D1*
X15066Y12831D1*
X15085Y12801D1*
X15101Y12772D1*
X12558Y12861D2*
X12542Y12831D1*
X12528Y12801D1*
X12558Y12861D2*
X12574Y12831D1*
X12588Y12801D1*
X13246Y12861D2*
X13282Y12831D1*
X13322Y12801D1*
X13366Y12772D1*
X13426Y12831D2*
X13440Y12801D1*
X13421Y12772D1*
X13396Y12742D1*
X13785Y12831D2*
X13875D2*
X13891Y12801D1*
X13905Y12772D1*
X13731Y12742D1*
X13545Y12712D1*
X14413Y12861D2*
X14443Y12831D1*
X14473Y12801D1*
X14413Y12772D1*
X14357Y12742D1*
X14299Y12712D1*
X14237Y12682D1*
X14174Y12652D1*
X14204Y12622D1*
X14191Y12592D1*
X14184Y12562D1*
X14192Y12532D1*
X14204Y12502D1*
X14413Y12861D2*
X14503Y12831D1*
X14593Y12801D1*
X14653Y12861D2*
X14565Y12831D1*
X14485Y12801D1*
X14418Y12772D1*
X14359Y12742D1*
X14300Y12712D1*
X14237Y12682D1*
X14174Y12652D1*
X14204Y12622D1*
X14191Y12592D1*
X14184Y12562D1*
X14192Y12532D1*
X14204Y12502D1*
X14593Y12861D2*
X14623Y12831D1*
X15161Y12861D2*
X15126Y12831D1*
X15085Y12801D1*
X15042Y12772D1*
X13366Y12801D2*
X13336Y12772D1*
X13396Y12801D2*
X13366Y12772D1*
X13396Y12742D1*
X13635Y12801D2*
X13693Y12772D1*
X13755Y12742D1*
X13665Y12801D2*
X13695Y12772D1*
X13665Y12742D1*
X13845Y12801D2*
X13815Y12772D1*
X14832Y12801D2*
X14862D2*
X14922D2*
X14968Y12772D1*
X15012Y12742D1*
X14968Y12712D1*
X14927Y12682D1*
X14885Y12652D1*
X14835Y12622D1*
X14768Y12592D1*
X14668Y12562D1*
X14523Y12532D1*
X14353Y12502D1*
X14952Y12801D2*
X13186D2*
X13171Y12772D1*
X13157Y12742D1*
X13186Y12801D2*
X13202Y12772D1*
X13216Y12742D1*
X13246Y12801D2*
X13262Y12772D1*
X13276Y12742D1*
X13755Y12772D2*
X13815Y12742D1*
X13695Y12712D1*
X13785Y12772D2*
X13815Y12742D1*
X14503Y12772D2*
X14533Y12742D1*
X14503Y12712D1*
X14563Y12682D1*
X14533Y12772D2*
X14563Y12742D1*
X14533Y12712D1*
X14742Y12772D2*
X14772Y12742D1*
X13605D2*
X13575Y12712D1*
X14264Y12772D2*
X14294Y12742D1*
X14323Y12712D1*
X14248Y12682D1*
X14174Y12652D1*
X14204Y12622D1*
X14191Y12592D1*
X14184Y12562D1*
X14192Y12532D1*
X14204Y12502D1*
X14413Y12742D2*
X14489Y12712D1*
X14563Y12682D1*
X14473Y12742D2*
X14415Y12712D1*
X14367Y12682D1*
X14323Y12652D1*
X14340Y12622D1*
X14358Y12592D1*
X14383Y12562D1*
X14413Y12532D1*
X14653Y12742D2*
Y12712D1*
X14712Y12742D2*
X14742Y12712D1*
X14712Y12682D1*
X14742Y12652D1*
X14832Y12742D2*
X14862Y12712D1*
X14922Y12742D2*
X14952Y12712D1*
X14920Y12682D1*
X14882Y12652D1*
X14833Y12622D1*
X14767Y12592D1*
X14668Y12562D1*
X14523Y12532D1*
X14353Y12502D1*
X14593Y12712D2*
X14413Y12682D2*
X14383Y12652D1*
X14443Y12682D2*
X14405Y12652D1*
X14376Y12622D1*
X14362Y12592D1*
X14385Y12562D1*
X14413Y12532D1*
X14742Y12682D2*
Y12652D1*
X14832Y12682D2*
X12199D2*
X12183Y12652D1*
X12169Y12622D1*
X12199Y12682D2*
X12215Y12652D1*
X12229Y12622D1*
X12349Y12682D2*
X12333Y12652D1*
X12319Y12622D1*
X12349Y12682D2*
X12365Y12652D1*
X12379Y12622D1*
X12438Y12682D2*
X12422Y12652D1*
X12408Y12622D1*
X12438Y12682D2*
X12454Y12652D1*
X12468Y12622D1*
X14114Y12682D2*
X14098Y12652D1*
X14084Y12622D1*
X14114Y12682D2*
X14130Y12652D1*
X14144Y12622D1*
X14623Y12652D2*
X14682D2*
X15251Y12682D2*
X15221Y12652D1*
X15251Y12682D2*
X15281Y12652D1*
X14294Y12622D2*
X14268Y12592D1*
X14246Y12562D1*
X14225Y12532D1*
X14204Y12502D1*
X14413Y12622D2*
X14427Y12592D1*
X14443Y12562D1*
X14413Y12532D1*
X14533Y12622D2*
X14511Y12592D1*
X14480Y12562D1*
X14443Y12532D1*
X14593Y12622D2*
X14637Y12592D1*
X14682Y12562D1*
X14503Y12622D2*
X14479Y12592D1*
X14459Y12562D1*
X14443Y12532D1*
X14593Y12502D1*
X14682Y12592D2*
X14742Y12562D1*
X14553Y12532D1*
X14353Y12502D1*
X14712Y12592D2*
X14742Y12562D1*
X15221Y12622D2*
X15162Y12592D1*
X15108Y12562D1*
X15060Y12532D1*
X15019Y12502D1*
X14982Y12472D1*
X15042Y12442D1*
X15251Y12622D2*
X15280Y12592D1*
X15306Y12562D1*
X15329Y12532D1*
X15351Y12502D1*
X15375Y12472D1*
X15401Y12442D1*
X15311Y12413D1*
X14563Y12562D2*
X14533Y12532D1*
X15251Y12562D2*
X15281Y12532D1*
X15221D2*
X15071Y12502D1*
X15101Y12472D1*
X15042Y12442D1*
X15251Y12502D2*
X15191Y12472D1*
X15307Y12442D1*
X15431Y12413D1*
X13067Y12502D2*
X13009Y12472D1*
X12958Y12442D1*
X12918Y12413D1*
X12885Y12383D1*
X12856Y12353D1*
X12827Y12323D1*
X12797Y12293D1*
X12768Y12263D1*
X12783Y12233D1*
X12796Y12203D1*
X12813Y12173D1*
X12835Y12143D1*
X12862Y12113D1*
X12894Y12083D1*
X12934Y12053D1*
X12977Y12024D1*
X13037Y12502D2*
X13067Y12472D1*
X13097Y12502D2*
X13145Y12472D1*
X13184Y12442D1*
X13216Y12413D1*
Y12502D2*
X13186Y12472D1*
X13306Y12502D2*
X13336Y12472D1*
X13396Y12502D2*
X13366Y12472D1*
X13246Y12502D2*
X13400Y12472D1*
X13521Y12442D1*
X13603Y12413D1*
X13665Y12383D1*
X13629Y12353D1*
X13578Y12323D1*
X13516Y12293D1*
X15311Y12472D2*
X15281Y12442D1*
X15401Y12472D2*
X15431Y12442D1*
X15460Y12413D1*
X15490Y12383D1*
X15460Y12353D1*
X15490Y12323D1*
X15520Y12293D1*
X15550Y12263D1*
X15580Y12233D1*
X15550Y12203D1*
X15586Y12173D1*
X15626Y12143D1*
X15670Y12113D1*
X15640Y12083D1*
X15656Y12053D1*
X15670Y12024D1*
X15460Y12472D2*
X15490Y12442D1*
X15520Y12413D1*
X15550Y12383D1*
X15580Y12353D1*
X15610Y12323D1*
X15520Y12472D2*
X15550Y12442D1*
X15580Y12413D1*
X15550Y12383D1*
X15580Y12353D1*
X15610Y12323D1*
X13246Y12413D2*
X13396D2*
X13486D2*
X12947Y12383D2*
X13007D2*
X13127D2*
X13097Y12353D1*
X13157Y12383D2*
Y12353D1*
X13336Y12383D2*
Y12353D1*
X13366Y12383D2*
X13336Y12353D1*
X13306Y12323D1*
X13575Y12383D2*
X13545Y12353D1*
X13575Y12323D1*
X15580Y12383D2*
Y12353D1*
X15610Y12413D2*
X15640Y12383D1*
X15670Y12413D2*
X15730Y12383D1*
X15790Y12353D1*
X15849Y12323D1*
X12678Y12383D2*
X12662Y12353D1*
X12648Y12323D1*
X12678Y12383D2*
X12694Y12353D1*
X12708Y12323D1*
X12738Y12383D2*
X12739Y12353D1*
X12744Y12323D1*
X12755Y12293D1*
X12770Y12263D1*
X12784Y12233D1*
X12797Y12203D1*
X12813Y12173D1*
X12835Y12143D1*
X12862Y12113D1*
X12894Y12083D1*
X12934Y12053D1*
X12977Y12024D1*
X12797Y12383D2*
Y12353D1*
Y12323D1*
Y12293D1*
X12917Y12353D2*
X12947Y12323D1*
X13486Y12353D2*
X13442Y12323D1*
X13396Y12293D1*
X13456Y12263D1*
X13396Y12233D1*
X13486Y12203D1*
X13575Y12353D2*
X13605Y12323D1*
X15520Y12353D2*
X15700D2*
X15730Y12323D1*
X12528Y12353D2*
X12440Y12323D1*
X12355Y12293D1*
X12277Y12263D1*
X12209Y12233D1*
X12148Y12203D1*
X12097Y12173D1*
X12049Y12143D1*
X12468Y12353D2*
X12503Y12323D1*
X12540Y12293D1*
X12576Y12263D1*
X12606Y12233D1*
X12631Y12203D1*
X12612Y12173D1*
X12588Y12143D1*
X12607Y12113D1*
X12627Y12083D1*
X12648Y12053D1*
X12618Y12024D1*
X12676Y11994D1*
X12738Y11964D1*
X12708Y11934D1*
X12977Y12323D2*
X12938Y12293D1*
X12907Y12263D1*
X12881Y12233D1*
X12857Y12203D1*
X12917Y12173D1*
X12887Y12143D1*
X12857Y12113D1*
X12893Y12083D1*
X12933Y12053D1*
X12977Y12024D1*
X13216Y12323D2*
X13276D2*
X13336Y12293D1*
X13486Y12323D2*
X13516Y12293D1*
X15670Y12323D2*
X15760D2*
X15849Y12353D2*
X15914Y12323D1*
X15982Y12293D1*
X16053Y12263D1*
X16121Y12233D1*
X16183Y12203D1*
X16238Y12173D1*
X16287Y12143D1*
X16333Y12113D1*
X16377Y12083D1*
X16423Y12053D1*
X16476Y12024D1*
X16536Y11994D1*
X16597Y11964D1*
X16568Y11934D1*
X16597Y11904D1*
X16626Y11874D1*
X16652Y11844D1*
X16675Y11814D1*
X16696Y11784D1*
X16716Y11754D1*
X16732Y11724D1*
X16745Y11694D1*
X16760Y11664D1*
X16777Y11635D1*
X16747Y11605D1*
X16759Y11575D1*
Y11545D1*
X16760Y11515D1*
X16763Y11485D1*
X16753Y11455D1*
X16723Y11425D1*
X16687Y11395D1*
X12468Y12293D2*
X12454Y12263D1*
X12438Y12233D1*
X13067Y12293D2*
X13964Y12323D2*
Y12293D1*
Y12263D1*
X13994Y12323D2*
X14024Y12293D1*
X14054Y12263D1*
X13994Y12233D1*
X14024Y12203D1*
X14264Y12323D2*
X14234Y12293D1*
X14204Y12263D1*
X14174Y12233D1*
X14186Y12203D1*
Y12173D1*
X14187Y12143D1*
X14193Y12113D1*
X14204Y12083D1*
X14189Y12053D1*
X14209Y12024D1*
X14234Y11994D1*
X14214Y11964D1*
X14194Y11934D1*
X14174Y11904D1*
X14204Y11874D1*
X14192Y11844D1*
X14191Y11814D1*
X14190Y11784D1*
X14178Y11754D1*
X14162Y11724D1*
X14144Y11694D1*
X14323Y12323D2*
X14294Y12293D1*
X14264Y12263D1*
X14234Y12233D1*
X14258Y12203D1*
X14278Y12173D1*
X14294Y12143D1*
X14323Y12323D2*
X14353Y12293D1*
X15819D2*
X15849Y12263D1*
X12379D2*
Y12233D1*
X12408Y12263D2*
X12379Y12233D1*
X12349Y12203D1*
X12498Y12263D2*
X12468Y12233D1*
X12857Y12263D2*
X12887Y12233D1*
X12977Y12263D2*
X12947Y12233D1*
X12972Y12203D1*
X12995Y12173D1*
X13017Y12143D1*
X13041Y12113D1*
X13066Y12083D1*
X13097Y12053D1*
X13138Y12024D1*
X13186Y11994D1*
X13007Y12263D2*
X12977Y12233D1*
X13007Y12203D1*
X13157Y12263D2*
X13216D2*
X13246D2*
X13306D2*
X13336Y12233D1*
X13934Y12293D2*
X13905Y12263D1*
X13875Y12233D1*
X13845Y12203D1*
X13815Y12173D1*
X13785Y12143D1*
X14084Y12293D2*
X14100Y12263D1*
X14114Y12233D1*
X14353Y12263D2*
X14323Y12233D1*
X14383Y12293D2*
X14413Y12263D1*
X14473Y12293D2*
X14474Y12263D1*
X14479Y12233D1*
X14489Y12203D1*
X14503Y12173D1*
X14429Y12143D1*
X14353Y12113D1*
X14372Y12083D1*
X14387Y12053D1*
X14398Y12024D1*
X14396Y11994D1*
X14380Y11964D1*
X14345Y11934D1*
X14305Y11904D1*
X14264Y11874D1*
X14323Y11844D1*
X15071Y12293D2*
X15101Y12263D1*
X15131Y12233D1*
X15101Y12203D1*
X15071Y12173D1*
X15131Y12293D2*
X15161Y12263D1*
Y12293D2*
X15221Y12263D1*
X15281Y12233D1*
X15909Y12263D2*
X15939Y12233D1*
X12289D2*
X12349Y12203D1*
X12319Y12233D2*
X12275Y12203D1*
X12236Y12173D1*
X12202Y12143D1*
X12169Y12113D1*
X12528Y12233D2*
X13037D2*
X13007Y12203D1*
X13067Y12233D2*
X13007Y12203D1*
X14264Y12233D2*
Y12203D1*
X15071Y12263D2*
X14988Y12233D1*
X14912Y12203D1*
X14847Y12173D1*
X14795Y12143D1*
X14758Y12113D1*
X14732Y12083D1*
X14712Y12053D1*
X15101Y12233D2*
X15057Y12203D1*
X15012Y12173D1*
X15101Y12143D1*
X15191Y12113D1*
X15147Y12083D1*
X15101Y12053D1*
X15251Y12263D2*
X15324Y12233D1*
X15383Y12203D1*
X15431Y12173D1*
X15417Y12143D1*
X15407Y12113D1*
X15398Y12083D1*
X15385Y12053D1*
X15368Y12024D1*
X15350Y11994D1*
X15329Y11964D1*
X15306Y11934D1*
X15281Y11904D1*
X15300Y11874D1*
X15320Y11844D1*
X15341Y11814D1*
X15670Y12233D2*
X15694Y12203D1*
X15714Y12173D1*
X15730Y12143D1*
X15999Y12233D2*
X16029Y12203D1*
X16059Y12173D1*
X12588Y12203D2*
X12558Y12173D1*
X13157Y12203D2*
X13545Y12233D2*
Y12203D1*
Y12173D1*
Y12143D1*
X13934Y12203D2*
X13955Y12173D1*
X13973Y12143D1*
X13985Y12113D1*
X13995Y12083D1*
X14007Y12053D1*
X14025Y12024D1*
X14052Y11994D1*
X14084Y11964D1*
X14070Y11934D1*
X14089Y11904D1*
X14114Y11874D1*
X14084Y11844D1*
X14113Y11814D1*
X14139Y11784D1*
X14161Y11754D1*
X14182Y11724D1*
X14204Y11694D1*
X14353Y12203D2*
X14367Y12173D1*
X14383Y12143D1*
X14413Y12203D2*
X15640D2*
Y12173D1*
X15760Y12203D2*
X15790Y12173D1*
X12169D2*
X12199Y12143D1*
X12289Y12173D2*
Y12143D1*
X12468Y12173D2*
Y12143D1*
X12528Y12173D2*
X12567Y12143D1*
X12598Y12113D1*
X12624Y12083D1*
X12648Y12053D1*
X12618Y12024D1*
X12676Y11994D1*
X12738Y11964D1*
X12708Y11934D1*
X12558Y12173D2*
X12512Y12143D1*
X12468Y12113D1*
X12528Y12083D1*
X12498Y12053D1*
X12857Y12173D2*
X12887Y12143D1*
X12916Y12113D1*
X12941Y12083D1*
X12961Y12053D1*
X12977Y12024D1*
X13186Y12173D2*
X13167Y12143D1*
X13147Y12113D1*
X13127Y12083D1*
X13246Y12173D2*
X13276Y12143D1*
X13306Y12173D2*
X13456D2*
X13875D2*
X13905Y12143D1*
X13934Y12113D1*
X13919Y12083D1*
X13905Y12053D1*
X15131Y12173D2*
X15101Y12143D1*
X15191Y12113D1*
X15147Y12083D1*
X15101Y12053D1*
X15221Y12173D2*
X15204Y12143D1*
X15178Y12113D1*
X15142Y12083D1*
X15101Y12053D1*
X15311Y12173D2*
X15251Y12143D1*
X15281Y12113D1*
X15261Y12083D1*
X15239Y12053D1*
X15210Y12024D1*
X15173Y11994D1*
X15131Y11964D1*
X15161Y11934D1*
X15191Y11904D1*
X15147Y11874D1*
X15101Y11844D1*
X15371Y12173D2*
X15384Y12143D1*
X15392Y12113D1*
X15394Y12083D1*
X15383Y12053D1*
X15367Y12024D1*
X15349Y11994D1*
X15329Y11964D1*
X15306Y11934D1*
X15281Y11904D1*
X15300Y11874D1*
X15320Y11844D1*
X15341Y11814D1*
X15670Y12173D2*
X15610Y12143D1*
X15670Y12113D1*
X15640Y12083D1*
X15656Y12053D1*
X15670Y12024D1*
X15849Y12173D2*
X15888Y12143D1*
X15923Y12113D1*
X15952Y12083D1*
X15977Y12053D1*
X16003Y12024D1*
X16032Y11994D1*
X16065Y11964D1*
X16101Y11934D1*
X16139Y11904D1*
X16174Y11874D1*
X16208Y11844D1*
X16242Y11814D1*
X16279Y11784D1*
X16312Y11754D1*
X16339Y11724D1*
X16350Y11694D1*
X16358Y11664D1*
X16418D1*
X16423Y11635D1*
X16430Y11605D1*
X16438Y11575D1*
X16444Y11545D1*
X16452Y11515D1*
X16463Y11485D1*
X16478Y11455D1*
X16448Y11425D1*
X16478Y11395D1*
X16089Y12173D2*
X16149D2*
X16179Y12143D1*
X16208Y12113D1*
X11990Y12173D2*
X11983Y12143D1*
X11970Y12113D1*
X11939Y12083D1*
X11902Y12053D1*
X11863Y12024D1*
X11827Y11994D1*
X11798Y11964D1*
X11772Y11934D1*
X11746Y11904D1*
X11719Y11874D1*
X11690Y11844D1*
X11660Y11814D1*
X11690Y11784D1*
X11645Y11754D1*
X11601Y11724D1*
X12139Y12143D2*
X12169Y12113D1*
X12408Y12143D2*
Y12113D1*
Y12083D1*
X12468D1*
Y12053D1*
Y12024D1*
X12947Y12143D2*
X12977Y12113D1*
X12947Y12083D1*
X12963Y12053D1*
X12977Y12024D1*
X13037Y12173D2*
X13031Y12143D1*
X13019Y12113D1*
X12999Y12083D1*
X12977Y12053D1*
X13007Y12024D1*
X12977Y11994D1*
X13007Y11964D1*
X13067Y12173D2*
X13097Y12143D1*
X13575Y12173D2*
X13703Y12143D1*
X13845Y12113D1*
Y12143D2*
Y12113D1*
X13721Y12083D1*
X13605Y12053D1*
X13637Y12024D1*
X13665Y11994D1*
X14234Y12143D2*
X14248Y12113D1*
X14264Y12083D1*
X14862Y12143D2*
X14842Y12113D1*
X14821Y12083D1*
X14798Y12053D1*
X14778Y12024D1*
X14761Y11994D1*
X14765Y11964D1*
X14772Y11934D1*
X14892Y12143D2*
X14867Y12113D1*
X14844Y12083D1*
X14822Y12053D1*
X14796Y12024D1*
X14764Y11994D1*
X14725Y11964D1*
X14682Y11934D1*
X14952Y12143D2*
X15161D2*
X15760D2*
X15909D2*
X15865Y12113D1*
X15826Y12083D1*
X15790Y12053D1*
X12109Y12113D2*
X12049Y12083D1*
X12349Y12113D2*
X12364Y12083D1*
X12377Y12053D1*
X12393Y12024D1*
X12410Y11994D1*
X12425Y11964D1*
X12438Y11934D1*
X12558Y12113D2*
X13216D2*
X13246Y12083D1*
Y12113D2*
X13276Y12083D1*
X13246Y12053D1*
X13216Y12024D1*
X13186Y11994D1*
X13336Y12113D2*
X13379Y12083D1*
X13441Y12053D1*
X13516Y12024D1*
X13396Y12113D2*
X13486D2*
X13875D2*
X13863Y12083D1*
X13866Y12053D1*
X13884Y12024D1*
X13905Y11994D1*
X13845Y11964D1*
X13857Y11934D1*
X13855Y11904D1*
X13846Y11874D1*
X13832Y11844D1*
X13815Y11814D1*
X14264Y12113D2*
X14242Y12083D1*
X14211Y12053D1*
X14174Y12024D1*
X15012Y12113D2*
X14982Y12083D1*
X15042Y12113D2*
X14989Y12083D1*
X14944Y12053D1*
X14907Y12024D1*
X14870Y11994D1*
X14832Y11964D1*
X15819Y12113D2*
X15834Y12083D1*
X15849Y12053D1*
X12109Y12083D2*
X12289D2*
X12229Y12053D1*
X12259Y12024D1*
X12289Y11994D1*
X12248Y11964D1*
X12208Y11934D1*
X12169Y11904D1*
X12194Y11874D1*
X12213Y11844D1*
X12229Y11814D1*
X12319Y12083D2*
X12305Y12053D1*
X12289Y12024D1*
X12349Y11994D1*
X12305Y11964D1*
X12266Y11934D1*
X12233Y11904D1*
X12206Y11874D1*
X12186Y11844D1*
X12169Y11814D1*
X13097Y12083D2*
X13186D2*
X13157Y12053D1*
X13366Y12083D2*
X13306Y12053D1*
X13338Y12024D1*
X13366Y11994D1*
X13306Y11964D1*
X13934Y12083D2*
X13906Y12053D1*
X13875Y12024D1*
X13905Y11994D1*
X13845Y11964D1*
X13857Y11934D1*
X13855Y11904D1*
X13846Y11874D1*
X13832Y11844D1*
X13815Y11814D1*
X14054Y12113D2*
X14038Y12083D1*
X14024Y12053D1*
X14054Y12113D2*
X14070Y12083D1*
X14084Y12053D1*
X14144Y12113D2*
X14119Y12083D1*
X14096Y12053D1*
X14075Y12024D1*
X14054Y11994D1*
X14174Y12083D2*
X14162Y12053D1*
X14165Y12024D1*
X14183Y11994D1*
X14204Y11964D1*
X14323Y12083D2*
X14892D2*
X14884Y12053D1*
X14880Y12024D1*
X14898Y11994D1*
X14922Y11964D1*
X15101Y12083D2*
X15042Y12053D1*
X15055Y12024D1*
X15064Y11994D1*
X15071Y11964D1*
X15079Y11934D1*
X15107Y11904D1*
X15146Y11874D1*
X15191Y11844D1*
X15341Y12083D2*
X15700D2*
X15711Y12053D1*
X15708Y12024D1*
X15690Y11994D1*
X15670Y11964D1*
X15714Y11934D1*
X15753Y11904D1*
X15790Y11874D1*
X15760Y11844D1*
X15790Y11814D1*
X15760Y12083D2*
X15744Y12053D1*
X15730Y12024D1*
X15909Y12083D2*
X16029D2*
X16089Y12053D1*
X16149Y12024D1*
X16208Y11994D1*
X16059Y12083D2*
X15999Y12053D1*
X16059Y12024D1*
X16015Y11994D1*
X15969Y11964D1*
X16268Y12083D2*
X16298Y12053D1*
X11990D2*
X12408D2*
Y12024D1*
X12558Y12053D2*
X12588D2*
X12558Y12024D1*
X12594Y11994D1*
X12645Y11964D1*
X12708Y11934D1*
X12678Y12083D2*
X12694Y12053D1*
X12708Y12024D1*
X13037Y12053D2*
X13426D2*
X13387Y12024D1*
X13347Y11994D1*
X13306Y11964D1*
X13486Y12053D2*
X13516D2*
X13545Y12024D1*
X14653Y12083D2*
X14647Y12053D1*
X14637Y12024D1*
X14623Y11994D1*
X15161Y12053D2*
X15175Y12024D1*
X15191Y11994D1*
X15131Y11964D1*
X15161Y11934D1*
X15191Y11904D1*
X15147Y11874D1*
X15101Y11844D1*
X15221Y12083D2*
Y12053D1*
Y12024D1*
X15879Y12053D2*
X16119D2*
X16069Y12024D1*
X16020Y11994D1*
X15969Y11964D1*
X16508Y12083D2*
X16478Y12053D1*
X16448Y12024D1*
X16524Y11994D1*
X16597Y11964D1*
X16568Y11934D1*
X16597Y11904D1*
X16626Y11874D1*
X16652Y11844D1*
X16675Y11814D1*
X16696Y11784D1*
X16716Y11754D1*
X16732Y11724D1*
X16745Y11694D1*
X16760Y11664D1*
X16777Y11635D1*
X16747Y11605D1*
X16759Y11575D1*
Y11545D1*
X16760Y11515D1*
X16763Y11485D1*
X16753Y11455D1*
X16723Y11425D1*
X16687Y11395D1*
X11960Y12024D2*
X12049D2*
X12169D2*
X12213Y11994D1*
X12259Y11964D1*
X12199Y12024D2*
Y11994D1*
X13186Y12053D2*
X13157Y12024D1*
X13306D2*
X13350Y11994D1*
X13396Y11964D1*
X14294Y12024D2*
X14332Y11994D1*
X14361Y11964D1*
X14383Y11934D1*
X14322Y11904D1*
X14264Y11874D1*
X14323Y11844D1*
X14353Y12024D2*
Y11994D1*
X14503Y12053D2*
X14473Y12024D1*
X14503Y12053D2*
X14533Y12024D1*
X14563Y12053D2*
X14593Y12024D1*
X14623Y11994D1*
X14982Y12024D2*
X15012D2*
X14978Y11994D1*
X14949Y11964D1*
X14922Y11934D1*
X14952Y11904D1*
X14922Y11874D1*
X14892Y11844D1*
X14862Y11814D1*
X14922Y11784D1*
X14892Y11754D1*
X14862Y11724D1*
X15311Y12024D2*
X15322Y11994D1*
X15319Y11964D1*
X15301Y11934D1*
X15281Y11904D1*
X15300Y11874D1*
X15320Y11844D1*
X15341Y11814D1*
X15580Y12053D2*
X15575Y12024D1*
X15568Y11994D1*
X15560Y11964D1*
X15555Y11934D1*
X15552Y11904D1*
X15551Y11874D1*
X15550Y11844D1*
Y11814D1*
X15790Y12024D2*
X15939D2*
X15909Y11994D1*
X15960Y11964D1*
X16009Y11934D1*
X16054Y11904D1*
X16096Y11874D1*
X16135Y11844D1*
X16166Y11814D1*
X16188Y11784D1*
Y11754D1*
X16184Y11724D1*
X16179Y11694D1*
Y12024D2*
X16124Y11994D1*
X16075Y11964D1*
X16029Y11934D1*
X16063Y11904D1*
X16101Y11874D1*
X16137Y11844D1*
X16166Y11814D1*
X16188Y11784D1*
Y11754D1*
X16184Y11724D1*
X16179Y11694D1*
X12139Y11994D2*
X12468D2*
X12526Y11964D1*
X12588Y11934D1*
X12468Y12024D2*
X12517Y11994D1*
X12556Y11964D1*
X12588Y11934D1*
X13037Y11994D2*
X13007Y11964D1*
X13276Y11994D2*
X13306Y11964D1*
X13336Y11934D1*
X13304Y11904D1*
X13276Y11874D1*
X13426Y11994D2*
X13516D2*
X13396Y11964D1*
X13575Y11994D2*
X13605D2*
X13755Y12024D2*
X13725Y11994D1*
X13785Y12024D2*
X13790Y11994D1*
X13798Y11964D1*
X13811Y11934D1*
X13827Y11904D1*
X13845Y11874D1*
X13815Y11844D1*
X13785Y11814D1*
X13815Y11784D1*
X13845Y11754D1*
Y12024D2*
X13816Y11994D1*
X13792Y11964D1*
X13774Y11934D1*
X13777Y11904D1*
X13785Y11874D1*
X13756Y11844D1*
X13733Y11814D1*
X13715Y11784D1*
X13718Y11754D1*
X13725Y11724D1*
X13875Y11994D2*
X13964D2*
X14114D2*
X14084Y11964D1*
X14563Y11994D2*
X14517Y11964D1*
X14473Y11934D1*
X15849Y12024D2*
X15819Y11994D1*
X15849Y11964D1*
X15969Y11994D2*
X15939Y11964D1*
X16089Y11994D2*
X16238D2*
X16193Y11964D1*
X16149Y11934D1*
X16160Y11904D1*
X16157Y11874D1*
X16149Y11844D1*
X16172Y11814D1*
X16189Y11784D1*
Y11754D1*
X16184Y11724D1*
X16179Y11694D1*
X16388Y11994D2*
X11631D2*
X11615Y11964D1*
X11601Y11934D1*
X11631Y11994D2*
X11646Y11964D1*
X11660Y11934D1*
X11720Y11994D2*
X11690Y11964D1*
X11900D2*
X12109D2*
X12135Y11934D1*
X12165Y11904D1*
X12191Y11874D1*
X12212Y11844D1*
X12229Y11814D1*
X12379Y11964D2*
X12335Y11934D1*
X12295Y11904D1*
X12256Y11874D1*
X12214Y11844D1*
X12169Y11814D1*
X13097Y11964D2*
X14294D2*
X14264Y11934D1*
X15281Y11964D2*
X15311Y11934D1*
X15281Y11904D1*
X15300Y11874D1*
X15320Y11844D1*
X15341Y11814D1*
X15790Y11994D2*
X15774Y11964D1*
X15760Y11934D1*
X15819Y11964D2*
X15790Y11934D1*
X11840D2*
X12049D2*
X12079Y11904D1*
X12049Y11874D1*
X12109Y11844D1*
X12066Y11814D1*
X12028Y11784D1*
X11998Y11754D1*
X11973Y11724D1*
X11951Y11694D1*
X11930Y11664D1*
X11910Y11635D1*
X11890Y11605D1*
X11870Y11575D1*
X11900Y11545D1*
X11840Y11515D1*
X11900Y11485D1*
X11887Y11455D1*
X11879Y11425D1*
X11885Y11395D1*
X11892Y11365D1*
X11900Y11335D1*
X11911Y11305D1*
X11924Y11276D1*
X11938Y11246D1*
X11953Y11216D1*
X11968Y11186D1*
X11988Y11156D1*
X12014Y11126D1*
X12044Y11096D1*
X12072Y11066D1*
X12097Y11036D1*
X12124Y11006D1*
X12157Y10976D1*
X12197Y10946D1*
X12241Y10916D1*
X12289Y10887D1*
X12139Y11934D2*
X12079Y11904D1*
X12129Y11874D1*
X12178Y11844D1*
X12229Y11814D1*
X13157Y11934D2*
X13111Y11904D1*
X13067Y11874D1*
X13111Y11844D1*
X13157Y11814D1*
X13216Y11934D2*
X13248Y11904D1*
X13276Y11874D1*
X13246Y11934D2*
X13200Y11904D1*
X13157Y11874D1*
X13186Y11844D1*
X13171Y11814D1*
X13157Y11784D1*
X13545Y11934D2*
X13486Y11904D1*
X13575Y11934D2*
X13558Y11904D1*
X13533Y11874D1*
X13500Y11844D1*
X13466Y11814D1*
X13436Y11784D1*
X13414Y11754D1*
X13396Y11724D1*
X13665Y11934D2*
X13635Y11904D1*
X13605Y11874D1*
X13635Y11844D1*
X13605Y11814D1*
X13635Y11784D1*
X13665Y11754D1*
X13694Y11724D1*
X13719Y11694D1*
X13739Y11664D1*
X13755Y11635D1*
X13934Y11934D2*
X13964Y11904D1*
X13905Y11874D1*
X13934Y11844D1*
X13964Y11814D1*
X13953Y11784D1*
X13956Y11754D1*
X13964Y11724D1*
X13994Y11934D2*
X14004Y11904D1*
X14012Y11874D1*
X14016Y11844D1*
X14007Y11814D1*
X13994Y11784D1*
X14019Y11754D1*
X14049Y11724D1*
X14084Y11694D1*
X14052Y11664D1*
X14024Y11635D1*
X14264Y11934D2*
X14294Y11904D1*
X14264Y11874D1*
X14323Y11844D1*
X14533Y11934D2*
X14593D2*
X14547Y11904D1*
X14503Y11874D1*
X14533Y11844D1*
X14563Y11814D1*
X14533Y11784D1*
X14563Y11754D1*
X14593Y11724D1*
X14802Y11934D2*
X14730Y11904D1*
X14673Y11874D1*
X14623Y11844D1*
X14653Y11814D1*
X14593Y11784D1*
X14623Y11754D1*
X14653Y11724D1*
X15012Y11934D2*
X15221D2*
X15610D2*
X15615Y11904D1*
X15622Y11874D1*
X15631Y11844D1*
X15640Y11814D1*
Y11934D2*
X15626Y11904D1*
X15610Y11874D1*
X16208Y11934D2*
X16268Y11904D1*
Y11934D2*
X16254Y11904D1*
X16238Y11874D1*
X16268Y11844D1*
X16298Y11814D1*
X16328Y11784D1*
X16357Y11754D1*
X16383Y11724D1*
X16406Y11694D1*
X16428Y11664D1*
X16452Y11635D1*
X16478Y11605D1*
X16448Y11575D1*
X16508Y11545D1*
X16494Y11515D1*
X16485Y11485D1*
X16481Y11455D1*
X16478Y11425D1*
X16472Y11395D1*
X16462Y11365D1*
X16448Y11335D1*
X16478Y11305D1*
X16463Y11276D1*
X16449Y11246D1*
X16434Y11216D1*
X16416Y11186D1*
X16397Y11156D1*
X16377Y11126D1*
X16353Y11096D1*
X16326Y11066D1*
X16296Y11036D1*
X16263Y11006D1*
X16226Y10976D1*
X16186Y10946D1*
X16142Y10916D1*
X16091Y10887D1*
X16035Y10857D1*
X15978Y10827D1*
X15917Y10797D1*
X15849Y10767D1*
X15778Y10737D1*
X15710Y10707D1*
X15656Y10677D1*
X15610Y10647D1*
X16328Y11934D2*
X16342Y11904D1*
X16358Y11874D1*
X16328Y11844D1*
X16385Y11814D1*
X16429Y11784D1*
X16465Y11754D1*
X16500Y11724D1*
X16538Y11694D1*
X16508Y11664D1*
X16536Y11635D1*
X16561Y11605D1*
X16579Y11575D1*
X16590Y11545D1*
X16600Y11515D1*
X16612Y11485D1*
X16627Y11455D1*
X16568Y11425D1*
X16627Y11395D1*
X16600Y11365D1*
X16591Y11335D1*
X16593Y11305D1*
X16596Y11276D1*
X16601Y11246D1*
X16608Y11216D1*
X16613Y11186D1*
X16604Y11156D1*
X16573Y11126D1*
X16538Y11096D1*
X16448Y11934D2*
X16508D2*
X16597D2*
X16627Y11964D2*
X16657Y11934D1*
X11810Y11904D2*
X11840Y11874D1*
X11990Y11904D2*
X12049Y11874D1*
X12109Y11844D1*
X12066Y11814D1*
X12028Y11784D1*
X11998Y11754D1*
X11973Y11724D1*
X11951Y11694D1*
X11930Y11664D1*
X11910Y11635D1*
X11890Y11605D1*
X11870Y11575D1*
X11900Y11545D1*
X11840Y11515D1*
X11900Y11485D1*
X11887Y11455D1*
X11879Y11425D1*
X11885Y11395D1*
X11892Y11365D1*
X11900Y11335D1*
X11911Y11305D1*
X11924Y11276D1*
X11938Y11246D1*
X11953Y11216D1*
X11968Y11186D1*
X11988Y11156D1*
X12014Y11126D1*
X12044Y11096D1*
X12072Y11066D1*
X12097Y11036D1*
X12124Y11006D1*
X12157Y10976D1*
X12197Y10946D1*
X12241Y10916D1*
X12289Y10887D1*
X12019Y11904D2*
X11960Y11874D1*
X12019Y11844D1*
X11990Y11814D1*
X11960Y11784D1*
X11928Y11754D1*
X11894Y11724D1*
X11854Y11694D1*
X11810Y11664D1*
X11840Y11635D1*
X11812Y11605D1*
X11794Y11575D1*
X11781Y11545D1*
X11766Y11515D1*
X11750Y11485D1*
X11810Y11455D1*
X11779Y11425D1*
X11766Y11395D1*
X11771Y11365D1*
X11780Y11335D1*
X11750Y11305D1*
X13007Y11934D2*
X13038Y11904D1*
X13073Y11874D1*
X13113Y11844D1*
X13157Y11814D1*
X13366Y11904D2*
X13665D2*
X13651Y11874D1*
X13635Y11844D1*
X13661Y11814D1*
X13683Y11784D1*
X13704Y11754D1*
X13725Y11724D1*
X13695Y11934D2*
X13720Y11904D1*
X13743Y11874D1*
X13765Y11844D1*
X13790Y11814D1*
X13817Y11784D1*
X13845Y11754D1*
X14144Y11934D2*
X14096Y11904D1*
X14060Y11874D1*
X14035Y11844D1*
X14014Y11814D1*
X13994Y11784D1*
X14019Y11754D1*
X14049Y11724D1*
X14084Y11694D1*
X14052Y11664D1*
X14024Y11635D1*
X14114Y11934D2*
X14138Y11904D1*
X14158Y11874D1*
X14174Y11844D1*
X14234Y11904D2*
X14278Y11874D1*
X14323Y11844D1*
X14383Y11934D2*
X14413Y11904D1*
X14443Y11874D1*
X14473Y11904D2*
X14503Y11874D1*
X14491Y11844D1*
X14494Y11814D1*
X14512Y11784D1*
X14533Y11754D1*
X14508Y11724D1*
X14478Y11694D1*
X14443Y11664D1*
X14892Y11934D2*
X14862Y11904D1*
X14922D2*
X15700D2*
X15730Y11874D1*
X15760Y11844D1*
X15790Y11814D1*
X16657Y11904D2*
X16687Y11874D1*
Y11934D2*
X16703Y11904D1*
X16717Y11874D1*
X11780D2*
X13127D2*
X13142Y11844D1*
X13157Y11814D1*
X13216Y11874D2*
X13246Y11844D1*
X13306Y11904D2*
X13336Y11874D1*
X13366Y11844D1*
X13395Y11814D1*
X13420Y11784D1*
X13440Y11754D1*
X13456Y11724D1*
X14294Y11874D2*
X14260Y11844D1*
X14232Y11814D1*
X14207Y11784D1*
X14185Y11754D1*
X14165Y11724D1*
X14144Y11694D1*
X14383Y11904D2*
X14353Y11874D1*
X14323Y11844D1*
X14413Y11874D2*
X14447Y11844D1*
X14476Y11814D1*
X14505Y11784D1*
X14533Y11754D1*
X14508Y11724D1*
X14478Y11694D1*
X14443Y11664D1*
X14563Y11874D2*
X14982D2*
X15012D2*
X15251D2*
X15670D2*
X15654Y11844D1*
X15640Y11814D1*
X16029Y11904D2*
X16013Y11874D1*
X15999Y11844D1*
X16059Y11874D2*
X16029Y11844D1*
X16388Y11874D2*
X16404Y11844D1*
X16418Y11814D1*
X16538Y11874D2*
X16568Y11844D1*
X11930D2*
X11918Y11814D1*
X11923Y11784D1*
X11933Y11754D1*
X11943Y11724D1*
X11939Y11694D1*
X11924Y11664D1*
X11908Y11635D1*
X11890Y11605D1*
X11870Y11575D1*
X11900Y11545D1*
X11840Y11515D1*
X11900Y11485D1*
X11887Y11455D1*
X11879Y11425D1*
X11885Y11395D1*
X11892Y11365D1*
X11900Y11335D1*
X11911Y11305D1*
X11924Y11276D1*
X11938Y11246D1*
X11953Y11216D1*
X11968Y11186D1*
X11988Y11156D1*
X12014Y11126D1*
X12044Y11096D1*
X12072Y11066D1*
X12097Y11036D1*
X12124Y11006D1*
X12157Y10976D1*
X12197Y10946D1*
X12241Y10916D1*
X12289Y10887D1*
X13396Y11874D2*
X13426Y11844D1*
X13456Y11814D1*
X13486Y11784D1*
X13442Y11754D1*
X13396Y11724D1*
X13426Y11874D2*
X13479Y11844D1*
X13522Y11814D1*
X13555Y11784D1*
X13581Y11754D1*
X13605Y11724D1*
X13561Y11694D1*
X13516Y11664D1*
X13575Y11844D2*
X13605Y11814D1*
X13635Y11784D1*
X13665Y11754D1*
X13694Y11724D1*
X13719Y11694D1*
X13739Y11664D1*
X13755Y11635D1*
X13695Y11844D2*
X13720Y11814D1*
X13743Y11784D1*
X13764Y11754D1*
X13785Y11724D1*
X13964Y11874D2*
X13994Y11844D1*
X14024Y11814D1*
X14054Y11784D1*
X14084Y11754D1*
X14114Y11724D1*
X14144Y11694D1*
X14086Y11664D1*
X14024Y11635D1*
X14353Y11844D2*
X14320Y11814D1*
X14291Y11784D1*
X14264Y11754D1*
X14653Y11844D2*
X14690Y11814D1*
X14742Y11784D1*
X14802Y11754D1*
X14712Y11874D2*
X14735Y11844D1*
X14753Y11814D1*
X14750Y11784D1*
X14742Y11754D1*
X14832Y11874D2*
X14802Y11844D1*
X14832Y11874D2*
X14862Y11844D1*
X15221D2*
X15670D2*
X15640Y11814D1*
X15610Y11784D1*
X16597Y11844D2*
X11750Y11814D2*
Y11784D1*
X11780Y11814D2*
X11750Y11784D1*
X13216Y11814D2*
X13186Y11784D1*
X13306Y11814D2*
X13322Y11784D1*
X13336Y11754D1*
Y11814D2*
X13374Y11784D1*
X13425Y11754D1*
X13486Y11724D1*
X13875Y11814D2*
X13905D2*
X13893Y11784D1*
X13897Y11754D1*
X13905Y11724D1*
X14413Y11814D2*
X14443Y11784D1*
X14413Y11754D1*
X14457Y11724D1*
X14503Y11694D1*
X14952Y11814D2*
X14971Y11784D1*
X14992Y11754D1*
X15016Y11724D1*
X15042Y11694D1*
X15012Y11814D2*
X15042Y11784D1*
X15131Y11814D2*
X15281D2*
X15311Y11784D1*
X15281Y11754D1*
X15314Y11724D1*
X15343Y11694D1*
X15371Y11664D1*
X15341Y11635D1*
X15311Y11605D1*
X15550Y11844D2*
X15431Y11814D1*
X15311Y11784D1*
X15371Y11754D1*
X15355Y11724D1*
X15341Y11694D1*
X15700Y11814D2*
X15712Y11784D1*
X15708Y11754D1*
X15700Y11724D1*
X15730Y11814D2*
X16478D2*
X16448Y11784D1*
X16473Y11754D1*
X16503Y11724D1*
X16538Y11694D1*
X16508Y11664D1*
X16536Y11635D1*
X16561Y11605D1*
X16579Y11575D1*
X16590Y11545D1*
X16600Y11515D1*
X16612Y11485D1*
X16627Y11455D1*
X16568Y11425D1*
X16627Y11395D1*
X16600Y11365D1*
X16591Y11335D1*
X16593Y11305D1*
X16596Y11276D1*
X16601Y11246D1*
X16608Y11216D1*
X16613Y11186D1*
X16604Y11156D1*
X16573Y11126D1*
X16538Y11096D1*
X11840Y11784D2*
X11870Y11754D1*
X11900Y11724D1*
X12049Y11784D2*
X12030Y11754D1*
X12010Y11724D1*
X11990Y11694D1*
X11971Y11664D1*
X11954Y11635D1*
X11938Y11605D1*
X11924Y11575D1*
X11912Y11545D1*
X11906Y11515D1*
X11901Y11485D1*
X11895Y11455D1*
X11884Y11425D1*
X11870Y11395D1*
X12139Y11814D2*
X12109Y11784D1*
X12079Y11754D1*
X12109Y11724D1*
X12084Y11694D1*
X12062Y11664D1*
X12041Y11635D1*
X12019Y11605D1*
X12049Y11575D1*
X12036Y11545D1*
X12027Y11515D1*
X12023Y11485D1*
X12021Y11455D1*
Y11425D1*
X12025Y11395D1*
X12034Y11365D1*
X12051Y11335D1*
X12077Y11305D1*
X12109Y11276D1*
X12098Y11246D1*
X12100Y11216D1*
X12115Y11186D1*
X12133Y11156D1*
X12157Y11126D1*
X12191Y11096D1*
X12230Y11066D1*
X12268Y11036D1*
X12307Y11006D1*
X12349Y10976D1*
X12395Y10946D1*
X12441Y10916D1*
X12488Y10887D1*
X12543Y10857D1*
X12610Y10827D1*
X12688Y10797D1*
X12772Y10767D1*
X12861Y10737D1*
X12958Y10707D1*
X13062Y10677D1*
X13169Y10647D1*
X13276Y10617D1*
Y11784D2*
X13306Y11754D1*
X13516Y11784D2*
X13530Y11754D1*
X13545Y11724D1*
X13530Y11694D1*
X13516Y11664D1*
X14084Y11784D2*
X14095Y11754D1*
X14089Y11724D1*
X14067Y11694D1*
X14045Y11664D1*
X14024Y11635D1*
X14264Y11784D2*
X14234Y11754D1*
X14278Y11724D1*
X14317Y11694D1*
X14353Y11664D1*
Y11784D2*
X14323Y11754D1*
X14359Y11724D1*
X14399Y11694D1*
X14443Y11664D1*
X14383Y11784D2*
X14353Y11754D1*
X14383Y11724D1*
X14413Y11694D1*
X14353Y11664D1*
X14832Y11814D2*
X14816Y11784D1*
X14802Y11754D1*
X14862Y11784D2*
X14832Y11754D1*
X15221Y11784D2*
X15227Y11754D1*
X15239Y11724D1*
X15258Y11694D1*
X15281Y11664D1*
X15490Y11784D2*
X15460Y11754D1*
X16478Y11784D2*
X16538Y11754D1*
X16508Y11724D1*
X16627Y11784D2*
X13785Y11754D2*
X14473D2*
X14438Y11724D1*
X14397Y11694D1*
X14353Y11664D1*
X15161Y11754D2*
X15175Y11724D1*
X15191Y11694D1*
X15431Y11754D2*
X15550D2*
X15490Y11724D1*
X15550Y11694D1*
X15520Y11664D1*
X15550Y11635D1*
X15520Y11605D1*
X15490Y11575D1*
X15514Y11545D1*
X15534Y11515D1*
X15515Y11485D1*
X15490Y11455D1*
X15670Y11754D2*
X15700Y11724D1*
X15760Y11784D2*
X15790Y11754D1*
X16418D2*
X11660Y11724D2*
X11720D2*
X11810D2*
X11791Y11694D1*
X11771Y11664D1*
X11750Y11635D1*
X11762Y11605D1*
X11761Y11575D1*
X11757Y11545D1*
X11754Y11515D1*
X11752Y11485D1*
X11751Y11455D1*
X11750Y11425D1*
Y11395D1*
X11751Y11365D1*
X11755Y11335D1*
X11762Y11305D1*
X11770Y11276D1*
X11778Y11246D1*
X11789Y11216D1*
X11809Y11186D1*
X11832Y11156D1*
X11852Y11126D1*
X11870Y11096D1*
X11840Y11724D2*
X11870Y11694D1*
X11810Y11664D1*
X11840Y11635D1*
X11812Y11605D1*
X11794Y11575D1*
X11781Y11545D1*
X11766Y11515D1*
X11750Y11485D1*
X11810Y11455D1*
X11779Y11425D1*
X11766Y11395D1*
X11771Y11365D1*
X11780Y11335D1*
X11750Y11305D1*
X13366Y11754D2*
X13350Y11724D1*
X13336Y11694D1*
X13396Y11724D2*
X13366Y11694D1*
X13456Y11724D2*
X13486Y11694D1*
X13516Y11724D2*
X13486Y11694D1*
X13635Y11724D2*
X13671Y11694D1*
X13711Y11664D1*
X13755Y11635D1*
X14682Y11754D2*
X14712Y11724D1*
X14922D2*
X14952D2*
X14923Y11694D1*
X14898Y11664D1*
X14877Y11635D1*
X14853Y11605D1*
X14817Y11575D1*
X14772Y11545D1*
X15071Y11724D2*
X15101Y11694D1*
X15401Y11724D2*
X15431Y11694D1*
X15460Y11664D1*
X15490Y11635D1*
X15520Y11605D1*
X15490Y11575D1*
X15514Y11545D1*
X15534Y11515D1*
X15515Y11485D1*
X15490Y11455D1*
X15580Y11724D2*
X15568Y11694D1*
X15560Y11664D1*
X15568Y11635D1*
X15580Y11605D1*
X15550Y11575D1*
X15520Y11545D1*
X15490Y11515D1*
X15460Y11485D1*
X15490Y11455D1*
X15640Y11724D2*
X15610Y11694D1*
X15643Y11664D1*
X15672Y11635D1*
X15700Y11605D1*
X15664Y11575D1*
X15624Y11545D1*
X15580Y11515D1*
X16238Y11724D2*
X16208Y11694D1*
X16568Y11724D2*
X16597Y11694D1*
X16627Y11664D1*
X16657Y11635D1*
Y11724D2*
X16687Y11694D1*
X11660D2*
X11601Y11664D1*
X11690Y11635D1*
X11643Y11605D1*
X11601Y11575D1*
X11620Y11545D1*
X11641Y11515D1*
X11665Y11485D1*
X11690Y11455D1*
X11677Y11425D1*
X11669Y11395D1*
Y11365D1*
X11674Y11335D1*
X11682Y11305D1*
X11691Y11276D1*
X11702Y11246D1*
X11717Y11216D1*
X11736Y11186D1*
X11779Y11156D1*
X11836Y11126D1*
X11900Y11096D1*
X13785Y11694D2*
X13769Y11664D1*
X13755Y11635D1*
X13875Y11724D2*
X13839Y11694D1*
X13799Y11664D1*
X13755Y11635D1*
X13964Y11694D2*
X13934Y11664D1*
X13964Y11635D1*
X14024Y11694D2*
X13996Y11664D1*
X13964Y11635D1*
X14264Y11694D2*
X14712D2*
X14726Y11664D1*
X14742Y11635D1*
X14728Y11605D1*
X14719Y11575D1*
X14712Y11545D1*
X14876Y11515D1*
X15042Y11485D1*
X14772Y11724D2*
X14780Y11694D1*
X14802Y11664D1*
X14831Y11635D1*
X14862Y11605D1*
X14832Y11724D2*
X14802Y11694D1*
X14862D2*
X14982D2*
X14952Y11664D1*
X14982Y11635D1*
X15010Y11605D1*
X15036Y11575D1*
X15055Y11545D1*
X15071Y11515D1*
X15281Y11694D2*
X15270Y11664D1*
X15260Y11635D1*
X15251Y11605D1*
X15700Y11694D2*
X15680Y11664D1*
X15659Y11635D1*
X15636Y11605D1*
X15614Y11575D1*
X15595Y11545D1*
X15580Y11515D1*
X15730Y11724D2*
X15760Y11694D1*
X15790Y11664D1*
X15749Y11635D1*
X15709Y11605D1*
X15669Y11575D1*
X15626Y11545D1*
X15580Y11515D1*
X16298Y11694D2*
X16307Y11664D1*
X16321Y11635D1*
X16336Y11605D1*
X16339Y11575D1*
X16342Y11545D1*
X16362Y11515D1*
X16388Y11485D1*
X16328Y11455D1*
X16358Y11425D1*
X16343Y11395D1*
X16329Y11365D1*
X16313Y11335D1*
X16292Y11305D1*
X16268Y11276D1*
X16298Y11246D1*
X16279Y11216D1*
X16259Y11186D1*
X16237Y11156D1*
X16213Y11126D1*
X16185Y11096D1*
X16153Y11066D1*
X16119Y11036D1*
X16080Y11006D1*
X16034Y10976D1*
X15984Y10946D1*
X15934Y10916D1*
X15881Y10887D1*
X15820Y10857D1*
X15752Y10827D1*
X15681Y10797D1*
X15610Y10767D1*
X11720Y11664D2*
X11743Y11635D1*
X11761Y11605D1*
Y11575D1*
X11757Y11545D1*
X11754Y11515D1*
X11752Y11485D1*
X11751Y11455D1*
X11750Y11425D1*
Y11395D1*
X11751Y11365D1*
X11755Y11335D1*
X11762Y11305D1*
X11770Y11276D1*
X11778Y11246D1*
X11789Y11216D1*
X11809Y11186D1*
X11832Y11156D1*
X11852Y11126D1*
X11870Y11096D1*
X13905Y11694D2*
X13889Y11664D1*
X13875Y11635D1*
X14294Y11664D2*
X14593Y11694D2*
X14563Y11664D1*
X14533Y11635D1*
X14593Y11694D2*
X14628Y11664D1*
X14669Y11635D1*
X14712Y11605D1*
X14625Y11575D1*
X14533Y11545D1*
X15101Y11664D2*
X15071Y11635D1*
X15101Y11605D1*
X15063Y11575D1*
X15034Y11545D1*
X15012Y11515D1*
X15161Y11664D2*
X15131Y11635D1*
X15161Y11605D1*
X15191Y11575D1*
X15161Y11545D1*
X15189Y11515D1*
X15196Y11485D1*
X15191Y11455D1*
X15221Y11664D2*
X15237Y11635D1*
X15251Y11605D1*
X15401Y11664D2*
X15371Y11635D1*
X15341Y11605D1*
X15311Y11575D1*
X15282Y11545D1*
X15257Y11515D1*
X15237Y11485D1*
X15221Y11455D1*
X15730Y11664D2*
X15760Y11635D1*
X15715Y11605D1*
X15671Y11575D1*
X15627Y11545D1*
X15580Y11515D1*
X16568Y11664D2*
X16596Y11635D1*
X16627Y11605D1*
X16616Y11575D1*
X16619Y11545D1*
X16627Y11515D1*
X16597Y11485D1*
X14204Y11664D2*
X14188Y11635D1*
X14174Y11605D1*
X14204Y11664D2*
X14220Y11635D1*
X14234Y11605D1*
X14294Y11635D2*
X14318Y11605D1*
X14337Y11575D1*
X14353Y11545D1*
X14443Y11635D2*
X14463Y11605D1*
X14482Y11575D1*
X14503Y11545D1*
X14593Y11635D2*
X14922D2*
Y11605D1*
X15042Y11664D2*
X15012Y11635D1*
X15161D2*
X15147Y11605D1*
X15131Y11575D1*
X15116Y11545D1*
X15140Y11515D1*
X15192Y11485D1*
X15251Y11455D1*
X15221Y11635D2*
X15235Y11605D1*
X15251Y11575D1*
X15431Y11635D2*
X15460Y11605D1*
X15489Y11575D1*
X15513Y11545D1*
X15534Y11515D1*
X15515Y11485D1*
X15490Y11455D1*
X15610Y11635D2*
X15640Y11605D1*
X15670Y11575D1*
X15626Y11545D1*
X15580Y11515D1*
X16717Y11635D2*
X16740Y11605D1*
X16757Y11575D1*
X16759Y11545D1*
X16760Y11515D1*
X16763Y11485D1*
X16753Y11455D1*
X16723Y11425D1*
X16687Y11395D1*
X11720Y11605D2*
X14264D2*
X14308Y11575D1*
X14353Y11545D1*
X14383Y11635D2*
X14367Y11605D1*
X14353Y11575D1*
X14383Y11635D2*
X14399Y11605D1*
X14413Y11575D1*
X14533Y11605D2*
X14519Y11575D1*
X14503Y11545D1*
X14623Y11605D2*
X14591Y11575D1*
X14563Y11545D1*
X14772Y11605D2*
X14821Y11575D1*
X14865Y11545D1*
X14897Y11515D1*
X14922Y11485D1*
X14802Y11605D2*
X14952D2*
X15401D2*
X15371Y11575D1*
X15339Y11545D1*
X15305Y11515D1*
X15265Y11485D1*
X15221Y11455D1*
X11660Y11575D2*
X11676Y11545D1*
X11690Y11515D1*
Y11575D2*
X11685Y11545D1*
X11674Y11515D1*
X11660Y11485D1*
X11690Y11455D1*
X11677Y11425D1*
X11669Y11395D1*
Y11365D1*
X11674Y11335D1*
X11682Y11305D1*
X11691Y11276D1*
X11702Y11246D1*
X11717Y11216D1*
X11736Y11186D1*
X11779Y11156D1*
X11836Y11126D1*
X11900Y11096D1*
X11990Y11575D2*
X12003Y11545D1*
X12012Y11515D1*
X12016Y11485D1*
X12018Y11455D1*
X12020Y11425D1*
X12025Y11395D1*
X12034Y11365D1*
X12051Y11335D1*
X12077Y11305D1*
X12109Y11276D1*
X12098Y11246D1*
X12100Y11216D1*
X12115Y11186D1*
X12133Y11156D1*
X12157Y11126D1*
X12191Y11096D1*
X12230Y11066D1*
X12268Y11036D1*
X12307Y11006D1*
X12349Y10976D1*
X12395Y10946D1*
X12441Y10916D1*
X12488Y10887D1*
X12543Y10857D1*
X12610Y10827D1*
X12688Y10797D1*
X12772Y10767D1*
X12861Y10737D1*
X12958Y10707D1*
X13062Y10677D1*
X13169Y10647D1*
X13276Y10617D1*
X15431Y11575D2*
X15401Y11545D1*
X15431Y11515D1*
X15415Y11485D1*
X15401Y11455D1*
X16268Y11605D2*
X16295Y11575D1*
X16322Y11545D1*
X16353Y11515D1*
X16388Y11485D1*
X16328Y11455D1*
X16358Y11425D1*
X16343Y11395D1*
X16329Y11365D1*
X16313Y11335D1*
X16292Y11305D1*
X16268Y11276D1*
X16298Y11246D1*
X16279Y11216D1*
X16259Y11186D1*
X16237Y11156D1*
X16213Y11126D1*
X16185Y11096D1*
X16153Y11066D1*
X16119Y11036D1*
X16080Y11006D1*
X16034Y10976D1*
X15984Y10946D1*
X15934Y10916D1*
X15881Y10887D1*
X15820Y10857D1*
X15752Y10827D1*
X15681Y10797D1*
X15610Y10767D1*
X16657Y11575D2*
X16671Y11545D1*
X16680Y11515D1*
X16684Y11485D1*
X16686Y11455D1*
X16688Y11425D1*
X16693Y11395D1*
X16703Y11365D1*
X16717Y11335D1*
X16699Y11305D1*
X16682Y11276D1*
X16665Y11246D1*
X16650Y11216D1*
X16633Y11186D1*
X16609Y11156D1*
X16576Y11126D1*
X16538Y11096D1*
X16687Y11575D2*
X16717Y11545D1*
X16687Y11515D1*
X16699Y11485D1*
X16698Y11455D1*
X16693Y11425D1*
X16687Y11395D1*
X14952Y11545D2*
X14922Y11515D1*
X14952Y11485D1*
X15460Y11545D2*
X15504Y11515D1*
X15550Y11485D1*
X16388Y11545D2*
X11960Y11515D2*
X15012D2*
X14982Y11485D1*
X15341Y11515D2*
X15311Y11485D1*
X15341Y11455D1*
X15401Y11515D2*
X15373Y11485D1*
X15341Y11455D1*
X16538Y11515D2*
X11361Y11485D2*
Y11455D1*
Y11425D1*
Y11395D1*
Y11365D1*
X11362Y11335D1*
X11367Y11305D1*
X11377Y11276D1*
X11391Y11246D1*
X11421Y11485D2*
Y11455D1*
Y11425D1*
X11451Y11485D2*
Y11455D1*
Y11425D1*
Y11485D2*
X11500Y11455D1*
X11539Y11425D1*
X11571Y11395D1*
X11514Y11365D1*
X11471Y11335D1*
X11440Y11305D1*
X11415Y11276D1*
X11391Y11246D1*
X11960Y11455D2*
Y11425D1*
X16418Y11455D2*
X16448Y11425D1*
X16478Y11395D1*
X16538Y11455D2*
X16582Y11425D1*
X16627Y11395D1*
X16600Y11365D1*
X16591Y11335D1*
X16593Y11305D1*
X16596Y11276D1*
X16601Y11246D1*
X16608Y11216D1*
X16613Y11186D1*
X16604Y11156D1*
X16573Y11126D1*
X16538Y11096D1*
X16627Y11425D2*
X16622Y11395D1*
X16611Y11365D1*
X16597Y11335D1*
X16627Y11305D1*
X16612Y11276D1*
X16600Y11246D1*
X16587Y11216D1*
X16574Y11186D1*
X16560Y11156D1*
X16548Y11126D1*
X16538Y11096D1*
X11631Y11425D2*
X11615Y11395D1*
X11601Y11365D1*
X11810Y11395D2*
Y11365D1*
X16418Y11395D2*
X16419Y11365D1*
X16423Y11335D1*
X16430Y11305D1*
X16439Y11276D1*
X16448Y11246D1*
X11960Y11365D2*
Y11335D1*
X11810Y11305D2*
X11481D2*
X11465Y11276D1*
X11451Y11246D1*
X11481Y11305D2*
X11497Y11276D1*
X11511Y11246D1*
X11660Y11305D2*
X11645Y11276D1*
X11631Y11246D1*
X11960Y11276D2*
X11930Y11246D1*
X16538Y11276D2*
X16717Y11305D2*
X16733Y11276D1*
X16747Y11246D1*
X16807Y11305D2*
X16791Y11276D1*
X16777Y11246D1*
X16807Y11305D2*
X16823Y11276D1*
X16837Y11246D1*
X16897Y11305D2*
X16881Y11276D1*
X16867Y11246D1*
X16897Y11305D2*
X16913Y11276D1*
X16927Y11246D1*
X11810D2*
X11780Y11216D1*
X11810Y11186D1*
X11750Y11156D1*
X11824Y11126D1*
X11900Y11096D1*
X16388Y11246D2*
X16402Y11216D1*
X16418Y11186D1*
X11840Y11216D2*
X11990D2*
X12000Y11186D1*
X12010Y11156D1*
X12019Y11126D1*
X16538Y11216D2*
X16552Y11186D1*
X16569Y11156D1*
X16584Y11126D1*
X16597Y11096D1*
X16957Y11216D2*
X16927Y11186D1*
X16957Y11216D2*
X16986Y11186D1*
X16358Y11156D2*
X16344Y11126D1*
X16335Y11096D1*
X16328Y11066D1*
X16268D1*
X16254Y11036D1*
X16238Y11006D1*
X11451Y11156D2*
X11421Y11126D1*
X11451Y11156D2*
X11481Y11126D1*
X11511Y11156D2*
X11541Y11126D1*
X16508D2*
X16485Y11096D1*
X16460Y11066D1*
X16434Y11036D1*
X16405Y11006D1*
X16371Y10976D1*
X16332Y10946D1*
X16289Y10916D1*
X16243Y10887D1*
X16191Y10857D1*
X16129Y10827D1*
X16061Y10797D1*
X15988Y10767D1*
X15906Y10737D1*
X15807Y10707D1*
X15685Y10677D1*
X15550Y10647D1*
X16927Y11156D2*
X16897Y11126D1*
X16927Y11156D2*
X16957Y11126D1*
X11870Y11096D2*
X11900Y11066D1*
X11930Y11036D1*
X11961Y11006D1*
X11995Y10976D1*
X12033Y10946D1*
X12076Y10916D1*
X12124Y10887D1*
X12180Y10857D1*
X12245Y10827D1*
X12318Y10797D1*
X12404Y10767D1*
X12506Y10737D1*
X12618Y10707D1*
X14054Y11126D2*
X14084Y11096D1*
X14114Y11066D1*
Y11126D2*
X14144Y11096D1*
X14174Y11066D1*
X11421Y11096D2*
X11451Y11066D1*
X11481Y11036D1*
X11511Y11006D1*
X11541Y10976D1*
X11571Y10946D1*
X11602Y10916D1*
X11635Y10887D1*
X11673Y10857D1*
X11710Y10827D1*
X11747Y10797D1*
X11784Y10767D1*
X11828Y10737D1*
X11878Y10707D1*
X11933Y10677D1*
X11991Y10647D1*
X12049Y10617D1*
X12034Y10587D1*
X12019Y10557D1*
X11481Y11096D2*
X11512Y11066D1*
X11546Y11036D1*
X11583Y11006D1*
X11619Y10976D1*
X11649Y10946D1*
X11673Y10916D1*
X11683Y10887D1*
X11690Y10857D1*
X11760D1*
X11819Y10827D1*
X11876Y10797D1*
X11931Y10767D1*
X11985Y10737D1*
X12043Y10707D1*
X12105Y10677D1*
X12169Y10647D1*
X13994Y11096D2*
X14024Y11066D1*
X14054Y11036D1*
X14084Y11006D1*
X14054Y10976D1*
X14084Y10946D1*
X14051Y10916D1*
X14021Y10887D1*
X13993Y10857D1*
X13964Y10827D1*
X14084Y11066D2*
X14114Y11036D1*
X14144Y11006D1*
X14174Y10976D1*
X14144Y10946D1*
X14174Y10916D1*
X14144Y10887D1*
X14204Y11096D2*
X14234Y11066D1*
X14264Y11036D1*
X14294Y11006D1*
Y11096D2*
X14264Y11066D1*
X14294Y11096D2*
X14323Y11066D1*
X14413Y11096D2*
X14390Y11066D1*
X14373Y11036D1*
X14376Y11006D1*
X14383Y10976D1*
X14353Y10946D1*
X14383Y10916D1*
X14413Y10887D1*
X14443Y10857D1*
X14397Y10827D1*
X14353Y10797D1*
X14413Y11096D2*
X14444Y11066D1*
X14478Y11036D1*
X14515Y11006D1*
X14553Y10976D1*
X14588Y10946D1*
X14621Y10916D1*
X14653Y10887D1*
X14623Y10857D1*
X14653Y10827D1*
X16897Y11096D2*
X16867Y11066D1*
X16837Y11036D1*
X16807Y11006D1*
X16777Y10976D1*
X16747Y10946D1*
X16957Y11096D2*
X16927Y11066D1*
X16897Y11036D1*
X16867Y11006D1*
X16837Y10976D1*
X16807Y10946D1*
X11631Y11066D2*
X11601Y11036D1*
X11571Y11006D1*
X11613Y10976D1*
X11647Y10946D1*
X11673Y10916D1*
X11683Y10887D1*
X11690Y10857D1*
X11760D1*
X11819Y10827D1*
X11876Y10797D1*
X11931Y10767D1*
X11985Y10737D1*
X12043Y10707D1*
X12105Y10677D1*
X12169Y10647D1*
X12049Y11036D2*
X13785Y11066D2*
X13755Y11036D1*
X13785Y11066D2*
X13815Y11036D1*
X13875Y11066D2*
X13905Y11036D1*
X13934Y11006D1*
X13905Y10976D1*
X13875Y10946D1*
X13845Y10916D1*
X13875Y10887D1*
X13934Y11066D2*
X13964Y11036D1*
X13994Y11006D1*
X13964Y10976D1*
X13984Y10946D1*
X14005Y10916D1*
X14029Y10887D1*
X14054Y10857D1*
X14204Y11036D2*
X14234Y11006D1*
X14413Y11036D2*
X14428Y11006D1*
X14444Y10976D1*
X14458Y10946D1*
X14467Y10916D1*
X14473Y10887D1*
X16568Y11066D2*
X16603Y11036D1*
X16643Y11006D1*
X16687Y10976D1*
X16627Y11066D2*
X16652Y11036D1*
X16671Y11006D1*
X16687Y10976D1*
X13605Y11036D2*
X13635Y11006D1*
X13665Y10976D1*
X13695Y10946D1*
X13665Y10916D1*
X13695Y10887D1*
X13725Y10857D1*
X13692Y10827D1*
X13663Y10797D1*
X13635Y10767D1*
X13665Y11036D2*
X13700Y11006D1*
X13737Y10976D1*
X13776Y10946D1*
X13816Y10916D1*
X13859Y10887D1*
X13905Y10857D1*
X13875Y11036D2*
X13845Y11006D1*
X13905D2*
X14204D2*
X14234Y10976D1*
X14264Y10946D1*
X14294Y10916D1*
X14323Y10887D1*
X14353Y10857D1*
X14383Y10827D1*
X14413Y10797D1*
X14443Y10767D1*
Y11006D2*
X14487Y10976D1*
X14533Y10946D1*
X14502Y10916D1*
X14468Y10887D1*
X14431Y10857D1*
X14392Y10827D1*
X14353Y10797D1*
X14653Y11036D2*
X14685Y11006D1*
X14722Y10976D1*
X14767Y10946D1*
X14812Y10916D1*
X14852Y10887D1*
X14888Y10857D1*
X14922Y10827D1*
X14890Y10797D1*
X14862Y10767D1*
X14682Y11036D2*
X14741Y11006D1*
X14797Y10976D1*
X14848Y10946D1*
X14895Y10916D1*
X14934Y10887D1*
X14969Y10857D1*
X15004Y10827D1*
X15042Y10797D1*
X15012Y10767D1*
X15024Y10737D1*
X15032Y10707D1*
X15023Y10677D1*
X15012Y10647D1*
X15031Y10617D1*
X15051Y10587D1*
X15071Y10557D1*
X15087Y10527D1*
X15101Y10498D1*
X16179Y11006D2*
X16158Y10976D1*
X16129Y10946D1*
X16094Y10916D1*
X16059Y10887D1*
X11690Y11006D2*
X11660Y10976D1*
X11690Y11006D2*
X11720Y10976D1*
X12169D2*
X13605Y11006D2*
X13550Y10976D1*
X13500Y10946D1*
X13459Y10916D1*
X13427Y10887D1*
X13421Y10857D1*
X13426Y10827D1*
X13382Y10797D1*
X13343Y10767D1*
X13306Y10737D1*
X13326Y10707D1*
X13345Y10677D1*
X13366Y10647D1*
X13336Y10617D1*
X13635Y10976D2*
X13665Y10946D1*
X13635Y10916D1*
X13671Y10887D1*
X13711Y10857D1*
X13755Y10827D1*
X13815Y11006D2*
X13760Y10976D1*
X13711Y10946D1*
X13665Y10916D1*
X13695Y10887D1*
X13725Y10857D1*
X13692Y10827D1*
X13663Y10797D1*
X13635Y10767D1*
X13845Y10976D2*
X13876Y10946D1*
X13910Y10916D1*
X13947Y10887D1*
X13986Y10857D1*
X14024Y10827D1*
X14114Y10976D2*
X14144Y10946D1*
X14174Y10916D1*
X14144Y10887D1*
X14294Y10976D2*
X14261Y10946D1*
X14222Y10916D1*
X14172Y10887D1*
X14114Y10857D1*
X14353Y10976D2*
X14323Y10946D1*
X14353Y10916D1*
X14383Y10887D1*
X14413Y10857D1*
X14593Y11006D2*
X14587Y10976D1*
X14576Y10946D1*
X14559Y10916D1*
X14542Y10887D1*
X14521Y10857D1*
X14498Y10827D1*
X14471Y10797D1*
X14443Y10767D1*
X14623Y11006D2*
X14653Y10976D1*
X14682Y10946D1*
X14623Y10916D1*
X14653Y10887D1*
X14623Y10857D1*
X14653Y10827D1*
X16687Y11006D2*
X16717Y10976D1*
X16747Y10946D1*
X13605D2*
X13636Y10916D1*
X13671Y10887D1*
X13711Y10857D1*
X13755Y10827D1*
X13934Y10946D2*
X14054D2*
X14100Y10916D1*
X14144Y10887D1*
X14204Y10946D2*
X14174Y10916D1*
X14204Y10887D1*
X14114Y10857D1*
X14413Y10946D2*
X11720D2*
X11750Y10916D1*
X12259D2*
X13516D2*
X13541Y10887D1*
X13562Y10857D1*
X13582Y10827D1*
X13604Y10797D1*
X13632Y10767D1*
X13665Y10737D1*
X13575Y10916D2*
X13604Y10887D1*
X13629Y10857D1*
X13649Y10827D1*
X13665Y10797D1*
X13755Y10916D2*
Y10887D1*
X14682Y10916D2*
X14653Y10887D1*
X14742Y10916D2*
X14712Y10887D1*
X16717Y10946D2*
X16687Y10916D1*
X16656Y10887D1*
X16622Y10857D1*
X16585Y10827D1*
X16546Y10797D1*
X16508Y10767D1*
X16747Y10916D2*
X16777Y10887D1*
X16725Y10857D1*
X16678Y10827D1*
X16634Y10797D1*
X16589Y10767D1*
X16544Y10737D1*
X16496Y10707D1*
X16448Y10677D1*
X16402Y10647D1*
X16358Y10617D1*
X16374Y10587D1*
X16388Y10557D1*
X13486Y10887D2*
X13456Y10857D1*
X13486Y10827D1*
X13456Y10797D1*
X13502Y10767D1*
X13545Y10737D1*
X13785Y10887D2*
X13736Y10857D1*
X13696Y10827D1*
X13664Y10797D1*
X13635Y10767D1*
X13964Y10887D2*
X13921Y10857D1*
X13882Y10827D1*
X13848Y10797D1*
X13815Y10767D1*
X14084Y10887D2*
X14114Y10857D1*
X14144Y10827D1*
X14264Y10887D2*
X14593D2*
X14623Y10857D1*
X14653Y10827D1*
X14832Y10916D2*
X14772Y10887D1*
X14712Y10857D1*
X14742Y10827D1*
X14832Y10887D2*
X14820Y10857D1*
X14824Y10827D1*
X14842Y10797D1*
X14866Y10767D1*
X14892Y10737D1*
X15999Y10887D2*
Y10857D1*
X16568Y10916D2*
X16597Y10887D1*
X16627Y10857D1*
X16587Y10827D1*
X16547Y10797D1*
X16508Y10767D1*
X11810Y10887D2*
X11840Y10857D1*
X12349D2*
X12384Y10827D1*
X12424Y10797D1*
X12468Y10767D1*
X13516Y10857D2*
X13500Y10827D1*
X13486Y10797D1*
X16538Y10887D2*
X16508Y10857D1*
X16538Y10887D2*
X16568Y10857D1*
X11930D2*
X11900Y10827D1*
X11930Y10857D2*
X11960Y10827D1*
X13306Y10857D2*
X13336Y10827D1*
X13366Y10797D1*
X13336Y10767D1*
X13306Y10737D1*
X13326Y10707D1*
X13345Y10677D1*
X13366Y10647D1*
X13336Y10617D1*
X13396Y10827D2*
X13450Y10797D1*
X13500Y10767D1*
X13545Y10737D1*
X13785Y10827D2*
X13845D2*
Y10797D1*
X14174Y10827D2*
X14234D2*
X14264Y10797D1*
X14294Y10827D2*
X14323Y10797D1*
X14563Y10827D2*
X14623Y10797D1*
X14593Y10827D2*
X14533Y10797D1*
X14712Y10827D2*
X14758Y10797D1*
X14802Y10767D1*
X14892Y10857D2*
X14862Y10827D1*
X14832Y10797D1*
X14862Y10767D1*
X14892Y10737D1*
X15939Y10827D2*
X15877Y10797D1*
X15819Y10767D1*
X15849Y10737D1*
X12468Y10797D2*
X12503Y10767D1*
X12533Y10737D1*
X12558Y10707D1*
X13545Y10797D2*
X14084D2*
X14952D2*
X11870Y10767D2*
X11960Y10797D2*
X11990Y10767D1*
X12019Y10737D1*
Y10797D2*
X12049Y10767D1*
X12079Y10737D1*
X12528Y10767D2*
X12496Y10737D1*
X12468Y10707D1*
X13396Y10767D2*
X13725D2*
X13785D2*
X13934D2*
X13964Y10737D1*
X13994Y10767D2*
X14054D2*
X13964Y10737D1*
X14144Y10767D2*
X14174Y10737D1*
X14204Y10767D2*
X14593D2*
X14682D2*
X14707Y10737D1*
X14726Y10707D1*
X14742Y10677D1*
X14712Y10767D2*
X14742Y10737D1*
X14772Y10707D1*
X14737Y10677D1*
X14696Y10647D1*
X14653Y10617D1*
X14922Y10767D2*
X14952Y10737D1*
X14982Y10707D1*
X15610Y10797D2*
X15561Y10767D1*
X15521Y10737D1*
X15489Y10707D1*
X15460Y10677D1*
X15700Y10767D2*
X15672Y10737D1*
X15640Y10707D1*
X15688Y10677D1*
X15730Y10647D1*
Y10767D2*
X15790Y10737D1*
X15716Y10707D1*
X15658Y10677D1*
X15610Y10647D1*
X16448Y10797D2*
X16443Y10767D1*
X16425Y10737D1*
X16386Y10707D1*
X16340Y10677D1*
X16294Y10647D1*
X16250Y10617D1*
X16208Y10587D1*
X12618Y10737D2*
X12648Y10707D1*
X12618Y10677D1*
X13366Y10737D2*
X13456D2*
Y10707D1*
X13486Y10737D2*
X13456Y10707D1*
X13695Y10737D2*
X13635Y10707D1*
X13875Y10737D2*
X14294D2*
X14353D2*
X14413Y10707D1*
X14383Y10737D2*
X14503D2*
X14533D2*
X14653D2*
X14682Y10707D1*
X16238Y10767D2*
X16268Y10737D1*
X16298Y10707D1*
X16328Y10677D1*
X16288Y10647D1*
X16248Y10617D1*
X16208Y10587D1*
X16298Y10767D2*
X16339Y10737D1*
X16390Y10707D1*
X16448Y10677D1*
X16402Y10647D1*
X16358Y10617D1*
X16374Y10587D1*
X16388Y10557D1*
X11960Y10707D2*
X12139Y10737D2*
X12109Y10707D1*
X12139Y10737D2*
X12169Y10707D1*
X12558D2*
X12588Y10677D1*
X12678Y10707D2*
X12648Y10677D1*
X12678Y10647D1*
X13516Y10707D2*
X13755D2*
X14114D2*
X14593D2*
X14832D2*
X14860Y10677D1*
X14892Y10647D1*
X15371Y10737D2*
X15412Y10707D1*
X15463Y10677D1*
X15520Y10647D1*
X15430Y10617D1*
X15361Y10587D1*
X15315Y10557D1*
X15281Y10527D1*
X15550Y10707D2*
X15564Y10677D1*
X15580Y10647D1*
Y10707D2*
X15534Y10677D1*
X15474Y10647D1*
X15408Y10617D1*
X15351Y10587D1*
X15312Y10557D1*
X15281Y10527D1*
X12169Y10677D2*
X12199Y10647D1*
X12125Y10617D1*
X12049Y10587D1*
X12199Y10707D2*
X12226Y10677D1*
X12252Y10647D1*
X12284Y10617D1*
X12319Y10587D1*
X12738Y10677D2*
X12708Y10647D1*
X12797Y10677D2*
X12768Y10647D1*
X13396Y10677D2*
X13366Y10647D1*
X13575Y10677D2*
X13845D2*
X13905D2*
X13994D2*
X14054D2*
X14234D2*
X14294D2*
X14353D2*
X14503D2*
X14533Y10647D1*
X14862Y10677D2*
X14802Y10647D1*
X14922Y10677D2*
X14952D2*
X14982Y10647D1*
X15311Y10707D2*
X15281Y10677D1*
X15251Y10647D1*
X15221Y10617D1*
X15401Y10677D2*
X15473Y10647D1*
X15550Y10617D1*
X15441Y10587D1*
X15332Y10557D1*
X15221Y10527D1*
X16238Y10707D2*
X16208Y10677D1*
X16238Y10707D2*
X16268Y10677D1*
X12887Y10647D2*
X12859Y10617D1*
X12833Y10587D1*
X12814Y10557D1*
X12797Y10527D1*
X13456Y10647D2*
X13396Y10617D1*
X13486Y10587D1*
X13516Y10647D2*
X13665D2*
X13755D2*
X14443D2*
X14623D2*
X15161Y10677D2*
Y10647D1*
Y10617D1*
X15341Y10647D2*
X15383Y10617D1*
X15431Y10587D1*
X15327Y10557D1*
X15221Y10527D1*
X15610Y10647D2*
X15523Y10617D1*
X15428Y10587D1*
X15326Y10557D1*
X15221Y10527D1*
X12349Y10647D2*
X12289Y10617D1*
X12229Y10587D1*
X12259Y10647D2*
X12342Y10617D1*
X12409Y10587D1*
X12457Y10557D1*
X12494Y10527D1*
X12527Y10498D1*
X12558Y10468D1*
X12917Y10617D2*
X12882Y10587D1*
X12841Y10557D1*
X12797Y10527D1*
X12977Y10617D2*
X12947Y10587D1*
X13007Y10617D2*
X12991Y10587D1*
X12977Y10557D1*
X13456Y10617D2*
X13605D2*
X13635Y10587D1*
X13605Y10557D1*
X13679Y10527D1*
X13755Y10498D1*
X13815Y10617D2*
X13785Y10587D1*
X14174Y10617D2*
X14383D2*
X14353Y10587D1*
X14832Y10617D2*
X14982D2*
X15101Y10647D2*
X15071Y10617D1*
X15042Y10587D1*
X15012Y10557D1*
X14982Y10527D1*
X15101Y10647D2*
X15131Y10617D1*
X15281D2*
X15305Y10587D1*
X15325Y10557D1*
X15341Y10527D1*
X16089Y10647D2*
X16096Y10617D1*
X16120Y10587D1*
X16149Y10557D1*
X16071Y10527D1*
X15999Y10498D1*
X16089Y10647D2*
X16141Y10617D1*
X16188Y10587D1*
X16213Y10557D1*
X16216Y10527D1*
X16208Y10498D1*
X12079Y10587D2*
X12049Y10557D1*
X12498Y10617D2*
X12528Y10587D1*
X12558Y10557D1*
X12587Y10527D1*
X12616Y10498D1*
X12651Y10468D1*
X12695Y10438D1*
X12746Y10408D1*
X12797Y10378D1*
X12768Y10348D1*
X12678Y10617D2*
X12618Y10587D1*
X12558Y10557D1*
X12587Y10527D1*
X12616Y10498D1*
X12651Y10468D1*
X12695Y10438D1*
X12746Y10408D1*
X12797Y10378D1*
X12768Y10348D1*
X12708Y10617D2*
X12692Y10587D1*
X12678Y10557D1*
X12708Y10617D2*
X12724Y10587D1*
X12738Y10557D1*
X12768Y10617D2*
X12783Y10587D1*
X12797Y10557D1*
X13037Y10587D2*
X13007Y10557D1*
X13067Y10587D2*
X13097Y10557D1*
X13127Y10587D2*
X13097Y10557D1*
X13516Y10587D2*
X13575D2*
X13627Y10557D1*
X13688Y10527D1*
X13755Y10498D1*
X13665Y10587D2*
X13607Y10557D1*
X13545Y10527D1*
X13875Y10587D2*
X13695Y10557D1*
X13948Y10527D1*
X14204Y10498D1*
X13934Y10587D2*
X13974Y10557D1*
X14012Y10527D1*
X14043Y10498D1*
X14066Y10468D1*
X14084Y10438D1*
X14323Y10587D2*
X14353Y10557D1*
X14294Y10527D1*
X14323Y10498D1*
X14473Y10587D2*
X14497Y10557D1*
X14515Y10527D1*
X14525Y10498D1*
X14533Y10468D1*
X14653Y10587D2*
X14503Y10557D1*
X14517Y10527D1*
X14526Y10498D1*
X14533Y10468D1*
X14772Y10587D2*
X14712Y10557D1*
X14784Y10527D1*
X14862Y10498D1*
X15251Y10587D2*
X15267Y10557D1*
X15281Y10527D1*
X15700Y10617D2*
X15684Y10587D1*
X15670Y10557D1*
X15700Y10617D2*
X15716Y10587D1*
X15730Y10557D1*
X15760Y10617D2*
X15776Y10587D1*
X15790Y10557D1*
X15819Y10617D2*
X15849Y10587D1*
X15819Y10617D2*
X15909Y10587D1*
X15999Y10557D1*
X15969Y10527D1*
X15999Y10498D1*
Y10617D2*
X16045Y10587D1*
X16107Y10557D1*
X16179Y10527D1*
X16110Y10498D1*
X16049Y10468D1*
X15993Y10438D1*
X15939Y10408D1*
X16328Y10587D2*
X16281Y10557D1*
X16243Y10527D1*
X16208Y10498D1*
X12139Y10557D2*
X12199Y10527D1*
X12183Y10498D1*
X12169Y10468D1*
X12289Y10557D2*
X12379Y10527D1*
Y10557D2*
Y10527D1*
X12498Y10557D2*
X12528Y10527D1*
X12558Y10498D1*
X12588Y10468D1*
X13216Y10557D2*
X13246Y10527D1*
X13306Y10557D2*
X13276Y10527D1*
X13336Y10557D2*
X13484Y10527D1*
X13635Y10498D1*
X13905Y10557D2*
X13763Y10527D1*
X13635Y10498D1*
X13695Y10468D1*
X14024Y10557D2*
X14010Y10527D1*
X13994Y10498D1*
X14084Y10557D2*
Y10527D1*
X14114Y10557D2*
X14085Y10527D1*
X14060Y10498D1*
X14040Y10468D1*
X14024Y10438D1*
X14174Y10557D2*
X14216Y10527D1*
X14264Y10498D1*
X14234Y10557D2*
X14264D2*
X14196Y10527D1*
X14114Y10498D1*
X14024Y10468D1*
X14443Y10557D2*
X14429Y10527D1*
X14413Y10498D1*
X14653Y10557D2*
X14579Y10527D1*
X14503Y10498D1*
X14802Y10557D2*
X14862Y10527D1*
X14832Y10498D1*
Y10557D2*
X14862Y10527D1*
X14892Y10557D2*
X14820Y10527D1*
X14742Y10498D1*
X14952Y10557D2*
X14938Y10527D1*
X14922Y10498D1*
X15131Y10557D2*
X15087Y10527D1*
X15042Y10498D1*
X15161Y10557D2*
X15131Y10527D1*
X15221Y10557D2*
X15191Y10527D1*
X15849Y10557D2*
X15819Y10527D1*
X15909Y10557D2*
X15879Y10527D1*
X12438D2*
X12468Y10498D1*
X13545Y10527D2*
X13516Y10498D1*
X14353Y10527D2*
X14383Y10498D1*
X14682Y10527D2*
X14742Y10498D1*
X14712Y10468D1*
X14892Y10527D2*
X14862Y10498D1*
X15042Y10527D2*
X12229Y10498D2*
X12199Y10468D1*
X12289Y10498D2*
X12338Y10468D1*
X12388Y10438D1*
X12438Y10408D1*
X12708Y10527D2*
X12678Y10498D1*
X12648Y10468D1*
X12768Y10527D2*
X12738Y10498D1*
X12708Y10468D1*
X13755Y10498D2*
X13725Y10468D1*
X14623Y10498D2*
X14593Y10468D1*
X15670Y10527D2*
X15654Y10498D1*
X15640Y10468D1*
X15670Y10527D2*
X15686Y10498D1*
X15700Y10468D1*
X15939Y10527D2*
X15904Y10498D1*
X15863Y10468D1*
X15819Y10438D1*
X15969Y10498D2*
X16029Y10468D1*
X15985Y10438D1*
X15939Y10408D1*
X12408Y10468D2*
X12424Y10438D1*
X12438Y10408D1*
X12827Y10498D2*
X12811Y10468D1*
X12797Y10438D1*
X12827Y10498D2*
X12843Y10468D1*
X12857Y10438D1*
X14174Y10468D2*
X14144Y10438D1*
X15012Y10498D2*
X14996Y10468D1*
X14982Y10438D1*
X15012Y10498D2*
X15028Y10468D1*
X15042Y10438D1*
X15071Y10498D2*
X15094Y10468D1*
X15112Y10438D1*
X15109Y10408D1*
X15092Y10378D1*
X15071Y10348D1*
X15131Y10498D2*
X15160Y10468D1*
X15185Y10438D1*
X15206Y10408D1*
X15230Y10378D1*
X15266Y10348D1*
X15311Y10318D1*
X15909Y10498D2*
X15823Y10468D1*
X15741Y10438D1*
X15665Y10408D1*
X15603Y10378D1*
X15550Y10348D1*
X15580Y10318D1*
X12468Y10438D2*
Y10408D1*
X12917Y10468D2*
X12887Y10438D1*
X12858Y10408D1*
X12832Y10378D1*
X12811Y10348D1*
X12793Y10318D1*
X12779Y10288D1*
X12768Y10258D1*
X12917Y10468D2*
X12947Y10438D1*
X12977Y10408D1*
X12947Y10378D1*
X12977Y10348D1*
X12964Y10318D1*
X12957Y10288D1*
X12965Y10258D1*
X12977Y10228D1*
X12947Y10198D1*
X12917Y10168D1*
X13037Y10139D1*
X14832Y10468D2*
X14862Y10438D1*
X14892Y10408D1*
X14853Y10378D1*
X14822Y10348D1*
X14795Y10318D1*
X14769Y10288D1*
X14742Y10258D1*
X14892Y10468D2*
X14922Y10438D1*
X14952Y10408D1*
X14941Y10378D1*
X14947Y10348D1*
X14977Y10318D1*
X15012Y10288D1*
X14982Y10438D2*
X14959Y10408D1*
X14942Y10378D1*
X14940Y10348D1*
X14974Y10318D1*
X15012Y10288D1*
X15909Y10438D2*
X15846Y10408D1*
X15787Y10378D1*
X15730Y10348D1*
X15939Y10438D2*
X15969Y10408D1*
X12319Y10438D2*
X12303Y10408D1*
X12289Y10378D1*
X12319Y10438D2*
X12335Y10408D1*
X12349Y10378D1*
X12528Y10408D2*
X12558D2*
X12528Y10378D1*
X12558Y10348D1*
X12917Y10408D2*
X12947Y10378D1*
X12977Y10348D1*
X12964Y10318D1*
X12957Y10288D1*
X12965Y10258D1*
X12977Y10228D1*
X12947Y10198D1*
X12917Y10168D1*
X13037Y10139D1*
X13127Y10438D2*
X13072Y10408D1*
X13023Y10378D1*
X12977Y10348D1*
X13157Y10438D2*
X13121Y10408D1*
X13081Y10378D1*
X13037Y10348D1*
X15101Y10438D2*
X15067Y10408D1*
X15028Y10378D1*
X14986Y10348D1*
X14940Y10318D1*
X14892Y10288D1*
X15460Y10438D2*
X15431Y10408D1*
X15460Y10438D2*
X15490Y10408D1*
X15760D2*
X15776Y10378D1*
X15790Y10348D1*
X12618Y10378D2*
X12588Y10348D1*
X12708Y10378D2*
Y10348D1*
X12887Y10378D2*
X12857Y10348D1*
X12887Y10318D1*
X12813Y10288D1*
X12738Y10258D1*
X13246Y10408D2*
X13216Y10378D1*
X13246Y10408D2*
X13276Y10378D1*
X15161D2*
X15281Y10408D2*
X15251Y10378D1*
X15281Y10408D2*
X15311Y10378D1*
X15490D2*
X15476Y10348D1*
X15460Y10318D1*
X15730Y10378D2*
X15596Y10348D1*
X15460Y10318D1*
X15819Y10378D2*
X15849Y10348D1*
Y10408D2*
X15865Y10378D1*
X15879Y10348D1*
X12438Y10378D2*
X12422Y10348D1*
X12408Y10318D1*
X12438Y10378D2*
X12454Y10348D1*
X12468Y10318D1*
X12528Y10348D2*
X12498Y10318D1*
X12678Y10378D2*
X12648Y10348D1*
X12618Y10318D1*
X12588Y10288D1*
X12558Y10258D1*
X12598Y10228D1*
X12639Y10198D1*
X12683Y10168D1*
X12731Y10139D1*
X12784Y10109D1*
X12839Y10079D1*
X12897Y10049D1*
X12950Y10019D1*
X12996Y9989D1*
X13037Y9959D1*
X12917Y10348D2*
X12905Y10318D1*
X12897Y10288D1*
X12905Y10258D1*
X12917Y10228D1*
X12887Y10198D1*
X13097Y10348D2*
X13127Y10318D1*
Y10378D2*
X13157Y10348D1*
X13186Y10318D1*
X13366Y10378D2*
X13336Y10348D1*
X13366Y10378D2*
X13396Y10348D1*
X13456Y10378D2*
X13426Y10348D1*
X13396Y10318D1*
X13516Y10378D2*
X13486Y10348D1*
X13456Y10318D1*
X13516Y10378D2*
Y10348D1*
Y10318D1*
X13575Y10378D2*
Y10348D1*
Y10318D1*
X13635Y10378D2*
X13619Y10348D1*
X13605Y10318D1*
X13635Y10378D2*
X13651Y10348D1*
X13665Y10318D1*
X13875Y10378D2*
X13845Y10348D1*
X13815Y10318D1*
X13875Y10378D2*
X13905Y10348D1*
X13934Y10318D1*
X14264Y10378D2*
X14269Y10348D1*
X14280Y10318D1*
X14294Y10288D1*
X14264Y10258D1*
X14234Y10228D1*
X14323Y10378D2*
X14329Y10348D1*
X14339Y10318D1*
X14353Y10288D1*
X14337Y10258D1*
X14323Y10228D1*
X14682Y10378D2*
X14653Y10348D1*
X14623Y10318D1*
X14639Y10288D1*
X14653Y10258D1*
X14742Y10378D2*
X14712Y10348D1*
X14682Y10318D1*
X14698Y10288D1*
X14712Y10258D1*
X14862Y10348D2*
X15131D2*
X15101Y10318D1*
X15341Y10378D2*
X15401Y10348D1*
X15460Y10318D1*
X12678D2*
X12648Y10288D1*
X12618Y10258D1*
X12708Y10228D1*
X12797Y10198D1*
X13216Y10348D2*
X13246Y10318D1*
X13276Y10348D2*
X13306Y10318D1*
X13336Y10288D1*
X13366Y10258D1*
X13665Y10318D2*
X13695Y10288D1*
X13665Y10258D1*
X13695Y10348D2*
X13727Y10318D1*
X13767Y10288D1*
X13817Y10258D1*
X13875Y10228D1*
X13785Y10348D2*
X13755Y10318D1*
X13875D2*
X13994Y10348D2*
X13964Y10318D1*
X13934Y10288D1*
X14054Y10348D2*
X14024Y10318D1*
X13994Y10288D1*
X14084Y10348D2*
X14050Y10318D1*
X14007Y10288D1*
X13946Y10258D1*
X13875Y10228D1*
X14144Y10348D2*
X14114Y10318D1*
X14084Y10288D1*
X14054Y10258D1*
X14084Y10228D1*
X14234Y10348D2*
X14204Y10318D1*
X14174Y10288D1*
X14144Y10258D1*
X14234Y10228D1*
X14383Y10348D2*
X14408Y10318D1*
X14427Y10288D1*
X14443Y10258D1*
X14503Y10348D2*
X14479Y10318D1*
X14459Y10288D1*
X14443Y10258D1*
X14503Y10348D2*
X14533Y10318D1*
X14712D2*
X14742Y10348D2*
X14772Y10318D1*
X15101D2*
Y10288D1*
X14892Y10258D1*
X15101Y10228D1*
X15042Y10198D1*
X15094Y10168D1*
X15132Y10139D1*
X15161Y10109D1*
X15191Y10318D2*
X15520D2*
X12678Y10288D2*
X12708Y10258D1*
X13007Y10318D2*
X12977Y10288D1*
X12947Y10258D1*
X12917Y10228D1*
X12887Y10198D1*
X13127Y10288D2*
X13115Y10258D1*
X13118Y10228D1*
X13136Y10198D1*
X13157Y10168D1*
X13145Y10139D1*
X13148Y10109D1*
X13157Y10079D1*
X13127Y10049D1*
X13157Y10019D1*
X13127Y9989D1*
X13276Y10288D2*
X13127Y10258D1*
X13216Y10228D1*
X13186Y10198D1*
X13157Y10168D1*
X13396Y10288D2*
X13575Y10258D1*
X14114Y10288D2*
X14098Y10258D1*
X14084Y10228D1*
X14204Y10288D2*
Y10258D1*
X14264Y10288D2*
Y10258D1*
X14383Y10288D2*
X14369Y10258D1*
X14353Y10228D1*
X14563Y10288D2*
X14547Y10258D1*
X14533Y10228D1*
X14623Y10288D2*
X14653Y10258D1*
X14832Y10288D2*
X15371Y10318D2*
X15341Y10288D1*
X15311Y10258D1*
X15281Y10228D1*
X15431Y10318D2*
X15401Y10288D1*
X15371Y10258D1*
X15341Y10228D1*
X15670Y10318D2*
X15640Y10288D1*
X15610Y10258D1*
X15790Y10318D2*
X15730Y10288D1*
X15670Y10258D1*
X12768D2*
X13007D2*
X13030Y10228D1*
X13047Y10198D1*
X13044Y10168D1*
X13037Y10139D1*
Y10258D2*
X13026Y10228D1*
X13016Y10198D1*
X13007Y10168D1*
X13306Y10258D2*
X13276Y10228D1*
X13725Y10258D2*
X13875Y10288D2*
X13845Y10258D1*
X13785Y10288D2*
X13905Y10258D1*
X14024Y10228D1*
X14473Y10288D2*
X14503Y10258D1*
X14533Y10228D1*
X14593Y10258D2*
X14802D2*
X15101D2*
X15116Y10228D1*
X15133Y10198D1*
X15148Y10168D1*
X15161Y10139D1*
Y10288D2*
X15167Y10258D1*
X15178Y10228D1*
X15194Y10198D1*
X15208Y10168D1*
X15221Y10139D1*
Y10288D2*
X15191Y10258D1*
X15161Y10228D1*
X15131Y10198D1*
X15147Y10168D1*
X15161Y10139D1*
X15281Y10288D2*
X15251Y10258D1*
X15221Y10228D1*
X15191Y10198D1*
X15207Y10168D1*
X15221Y10139D1*
X15401Y10288D2*
X15431Y10258D1*
X15460Y10228D1*
X15431Y10198D1*
X15460Y10168D1*
X15370Y10139D1*
X15304Y10109D1*
X15260Y10079D1*
X15229Y10049D1*
X15208Y10019D1*
X15191Y9989D1*
X15460Y10288D2*
X15490Y10258D1*
X15520Y10228D1*
X15490Y10198D1*
X15580Y10288D2*
X15550Y10258D1*
X15520Y10228D1*
X15490Y10198D1*
X15730Y10258D2*
X15651Y10228D1*
X15555Y10198D1*
X15454Y10168D1*
X15365Y10139D1*
X15302Y10109D1*
X15259Y10079D1*
X15229Y10049D1*
X15208Y10019D1*
X15191Y9989D1*
X15819Y10288D2*
X15789Y10258D1*
X15758Y10228D1*
X15724Y10198D1*
X15682Y10168D1*
X15635Y10139D1*
X15584Y10109D1*
X15527Y10079D1*
X15466Y10049D1*
X15407Y10019D1*
X15351Y9989D1*
X15299Y9959D1*
X15251Y9929D1*
X15204Y9899D1*
X15155Y9869D1*
X15110Y9839D1*
X15076Y9809D1*
X15052Y9779D1*
X15032Y9750D1*
X15012Y9720D1*
X15042Y9690D1*
X15015Y9660D1*
X14986Y9630D1*
X14945Y9600D1*
X14881Y9570D1*
X14788Y9540D1*
X14667Y9510D1*
X14533Y9480D1*
X12857Y10258D2*
X12827Y10228D1*
X12797Y10198D1*
X12887Y10228D2*
X12857Y10198D1*
X12945Y10168D1*
X13037Y10139D1*
X14413Y10228D2*
X14862D2*
X14832Y10198D1*
X15371Y10228D2*
X15341Y10198D1*
X15431Y10228D2*
X15401Y10198D1*
X13246D2*
X13216Y10168D1*
X13396Y10198D2*
X13336Y10168D1*
X13396Y10139D1*
X13364Y10109D1*
X13336Y10079D1*
X13456Y10198D2*
X13486Y10168D1*
X13456Y10139D1*
X13472Y10109D1*
X13486Y10079D1*
X15221Y10198D2*
Y10168D1*
X15281Y10198D2*
X15311Y10168D1*
X13097D2*
X13067Y10139D1*
X13246Y10168D2*
X13216Y10139D1*
X13186Y10109D1*
X13157Y10079D1*
X13186Y10049D1*
X13216Y10019D1*
X13276Y10198D2*
X13306Y10168D1*
X13336Y10139D1*
X13426Y10168D2*
X13450Y10139D1*
X13470Y10109D1*
X13486Y10079D1*
X13545Y10168D2*
X13518Y10139D1*
X13511Y10109D1*
X13516Y10079D1*
X13605Y10168D2*
X13648Y10139D1*
X13682Y10109D1*
X13706Y10079D1*
X13725Y10049D1*
X13635Y10168D2*
X13695D2*
X13728Y10139D1*
X13761Y10109D1*
X13790Y10079D1*
X13815Y10049D1*
X14682Y10168D2*
X14701Y10139D1*
X14717Y10109D1*
X14731Y10079D1*
X14742Y10049D1*
X15012Y10168D2*
X15056Y10139D1*
X15101Y10109D1*
X13276Y10139D2*
X13246Y10109D1*
X13280Y10079D1*
X13309Y10049D1*
X13336Y10019D1*
X13755Y10139D2*
X13785Y10109D1*
X13753Y10079D1*
X13725Y10049D1*
X13815Y10139D2*
X13785Y10109D1*
X13875Y10139D2*
X13812Y10109D1*
X13764Y10079D1*
X13725Y10049D1*
X13934Y10139D2*
X13994Y10109D1*
X13964Y10139D2*
X13994Y10109D1*
X14024Y10139D2*
X14054Y10109D1*
X14084Y10079D1*
X14114Y10049D1*
X14084Y10139D2*
X14114Y10109D1*
X14174Y10139D2*
X14204Y10109D1*
X14174Y10079D1*
X14234Y10049D1*
Y10139D2*
X14264Y10109D1*
X14294Y10139D2*
X14323Y10109D1*
X14352Y10079D1*
X14377Y10049D1*
X14395Y10019D1*
X14406Y9989D1*
X14413Y9959D1*
X14353Y10139D2*
X14383D2*
X14323Y10109D1*
X14443Y10139D2*
X14473D2*
X14533D2*
Y10109D1*
X14593Y10139D2*
X14653D2*
X14832Y10168D2*
X14801Y10139D1*
X14766Y10109D1*
X14726Y10079D1*
X14682Y10049D1*
X14862Y10168D2*
X14858Y10139D1*
X14842Y10109D1*
X14810Y10079D1*
X14772Y10049D1*
X14892Y10168D2*
X14916Y10139D1*
X14936Y10109D1*
X14952Y10079D1*
X14922Y10168D2*
X14957Y10139D1*
X14998Y10109D1*
X15042Y10079D1*
X15012Y10139D2*
X15028Y10109D1*
X15042Y10079D1*
X15101Y10139D2*
X15071Y10109D1*
X13426D2*
X13396Y10079D1*
X13545Y10109D2*
X13516Y10079D1*
X13575Y10109D2*
X13589Y10079D1*
X13605Y10049D1*
X13635Y10109D2*
X13621Y10079D1*
X13605Y10049D1*
X14593Y10109D2*
X14623Y10079D1*
X14579Y10049D1*
X14533Y10019D1*
X14653Y10109D2*
X14637Y10079D1*
X14623Y10049D1*
X14802Y10109D2*
X14786Y10079D1*
X14772Y10049D1*
X14892Y10109D2*
X14922Y10079D1*
X13216D2*
X13246Y10049D1*
X13276Y10019D1*
X13665Y10079D2*
X13695Y10049D1*
X13875Y10079D2*
X13845Y10049D1*
X13934Y10079D2*
X13875Y10049D1*
X13934Y10019D1*
X13919Y9989D1*
X13905Y9959D1*
X14204Y10079D2*
X14144Y10049D1*
X14174Y10019D1*
X14413Y10079D2*
X14443Y10049D1*
X14429Y10019D1*
X14420Y9989D1*
X14413Y9959D1*
X14473Y10079D2*
X14449Y10049D1*
X14431Y10019D1*
X14421Y9989D1*
X14413Y9959D1*
X14503Y10079D2*
X14474Y10049D1*
X14449Y10019D1*
X14429Y9989D1*
X14413Y9959D1*
X14682Y10079D2*
X14653Y10049D1*
X15161Y10109D2*
X15191Y10079D1*
X15221Y10049D1*
X15205Y10019D1*
X15191Y9989D1*
X13964Y10049D2*
X13989Y10019D1*
X14008Y9989D1*
X14024Y9959D1*
Y10049D2*
X13994Y10019D1*
X14010Y9989D1*
X14024Y9959D1*
X14294Y10049D2*
X14323Y10019D1*
X14294Y9989D1*
X14353Y9959D1*
X14533Y10049D2*
X14497Y10019D1*
X14457Y9989D1*
X14413Y9959D1*
X15131Y10079D2*
X15101Y10049D1*
X15131Y10079D2*
X15161Y10049D1*
X13516D2*
X13500Y10019D1*
X13486Y9989D1*
X13516Y10049D2*
X13531Y10019D1*
X13545Y9989D1*
X14264Y10019D2*
X14220Y9989D1*
X14174Y9959D1*
X14353Y10019D2*
Y9989D1*
Y9959D1*
X13157Y9989D2*
X13097Y9959D1*
X13122Y9929D1*
X13154Y9899D1*
X13192Y9869D1*
X13228Y9839D1*
X13258Y9809D1*
X13282Y9779D1*
X13306Y9750D1*
X13216Y9989D2*
X13252Y9959D1*
X13296Y9929D1*
X13350Y9899D1*
X13415Y9869D1*
X13486Y9839D1*
X13402Y9809D1*
X13300Y9779D1*
X13186Y9750D1*
X13964Y9989D2*
Y9959D1*
X14264Y10019D2*
X14174Y9989D1*
X14084Y9959D1*
X15101Y10019D2*
X15071Y9989D1*
X15101Y10019D2*
X15131Y9989D1*
X13336D2*
X13306Y9959D1*
X13276Y9929D1*
X13342Y9899D1*
X13412Y9869D1*
X13486Y9839D1*
X13402Y9809D1*
X13300Y9779D1*
X13186Y9750D1*
X13605Y9989D2*
X13575Y9959D1*
X13605Y9989D2*
X13635Y9959D1*
X14024D2*
X14264D2*
X15131D2*
X15056Y9929D1*
X14982Y9899D1*
X15012Y9869D1*
X14950Y9839D1*
X14891Y9809D1*
X14838Y9779D1*
X14783Y9750D1*
X14711Y9720D1*
X14625Y9690D1*
X14533Y9660D1*
X13067Y9929D2*
X13051Y9899D1*
X13037Y9869D1*
X13067Y9929D2*
X13083Y9899D1*
X13097Y9869D1*
X13426Y9929D2*
X13396Y9899D1*
X13426Y9929D2*
X13456Y9899D1*
X13516Y9929D2*
X13500Y9899D1*
X13486Y9869D1*
X13516Y9929D2*
X13531Y9899D1*
X13545Y9869D1*
X13575Y9929D2*
X13591Y9899D1*
X13605Y9869D1*
X13665Y9929D2*
X13695Y9899D1*
X13725Y9869D1*
X13755Y9839D1*
X13725Y9929D2*
X13760Y9899D1*
X13801Y9869D1*
X13845Y9839D1*
X13815Y9809D1*
Y9929D2*
X13785Y9899D1*
X13815Y9929D2*
X13845Y9899D1*
X13934Y9929D2*
X13905Y9899D1*
X13934Y9929D2*
X13964Y9899D1*
X14084Y9929D2*
X14068Y9899D1*
X14054Y9869D1*
X14084Y9929D2*
X14100Y9899D1*
X14114Y9869D1*
X14174Y9929D2*
X14158Y9899D1*
X14144Y9869D1*
X14174Y9929D2*
X14190Y9899D1*
X14204Y9869D1*
X14264Y9929D2*
X14248Y9899D1*
X14234Y9869D1*
X14264Y9929D2*
X14279Y9899D1*
X14294Y9869D1*
X14353Y9929D2*
X14337Y9899D1*
X14323Y9869D1*
X14353Y9929D2*
X14369Y9899D1*
X14383Y9869D1*
X14563Y9929D2*
X14547Y9899D1*
X14533Y9869D1*
X14563Y9929D2*
X14579Y9899D1*
X14593Y9869D1*
X13845D2*
X13869Y9839D1*
X13886Y9809D1*
X13897Y9779D1*
X13905Y9750D1*
Y9869D2*
X13929Y9839D1*
X13946Y9809D1*
X13957Y9779D1*
X13964Y9750D1*
X14443Y9869D2*
X14413Y9839D1*
X14443Y9869D2*
X14473Y9839D1*
X13665D2*
X13575Y9809D1*
X13486Y9779D1*
X13542Y9750D1*
X13603Y9720D1*
X13665Y9690D1*
X13605Y9839D2*
X13650Y9809D1*
X13708Y9779D1*
X13775Y9750D1*
X13845Y9720D1*
X13785Y9690D1*
X13845Y9660D1*
X13067Y9809D2*
X13051Y9779D1*
X13037Y9750D1*
X13067Y9809D2*
X13083Y9779D1*
X13097Y9750D1*
X13605Y9779D2*
X13845Y9809D2*
X13815Y9779D1*
X13845Y9809D2*
X13875Y9779D1*
X14144Y9809D2*
X14114Y9779D1*
X14084Y9750D1*
X14114Y9720D1*
X14084Y9690D1*
X14204Y9809D2*
X14174Y9779D1*
X14144Y9750D1*
X14174Y9720D1*
X14144Y9690D1*
X14294Y9809D2*
X14264Y9779D1*
X14294Y9809D2*
X14323Y9779D1*
X14413Y9809D2*
X14383Y9779D1*
X14413Y9809D2*
X14443Y9779D1*
X14802Y9809D2*
X14742Y9779D1*
X14682Y9750D1*
X14772Y9720D1*
X14651Y9690D1*
X14533Y9660D1*
X14952Y9779D2*
X14982D2*
X13186D2*
X13171Y9750D1*
X13157Y9720D1*
X13186Y9779D2*
X13202Y9750D1*
X13216Y9720D1*
X14653Y9779D2*
X14623Y9750D1*
X14862D2*
X14892D2*
X13486D2*
X13470Y9720D1*
X13456Y9690D1*
X13516Y9720D2*
X13486Y9690D1*
X13665Y9720D2*
X13635Y9690D1*
X14054Y9750D2*
X14024Y9720D1*
X14084D2*
X14234Y9750D2*
Y9720D1*
Y9690D1*
X14264Y9750D2*
X14279Y9720D1*
X14294Y9690D1*
X14323Y9750D2*
X14353Y9720D1*
X14413Y9750D2*
Y9720D1*
Y9690D1*
Y9660D1*
X14533Y9750D2*
X14503Y9720D1*
X14473Y9690D1*
X14593Y9750D2*
X14563Y9720D1*
X14533Y9690D1*
X14623Y9720D2*
X15042D2*
X15085Y9690D1*
X15131Y9660D1*
X15071Y9750D2*
X15096Y9720D1*
X15115Y9690D1*
X15131Y9660D1*
X13725Y9690D2*
X13665Y9660D1*
X13685Y9630D1*
X13708Y9600D1*
X13739Y9570D1*
X13776Y9540D1*
X13813Y9510D1*
X13845Y9480D1*
X13875Y9450D1*
X13845Y9690D2*
X13875Y9660D1*
X13994Y9720D2*
X14002Y9690D1*
X14025Y9660D1*
X14054Y9630D1*
X14174Y9690D2*
X14353D2*
X14211Y9660D1*
X14054Y9630D1*
X14982Y9690D2*
X15012Y9660D1*
X14985Y9630D1*
X14945Y9600D1*
X14881Y9570D1*
X14788Y9540D1*
X14667Y9510D1*
X14533Y9480D1*
X14054Y9690D2*
X14024Y9660D1*
X14084D2*
X14922D2*
X13306D2*
X13342Y9630D1*
X13382Y9600D1*
X13426Y9570D1*
Y9660D2*
X13420Y9630D1*
X13410Y9600D1*
X13396Y9570D1*
X13186Y9630D2*
X13171Y9600D1*
X13157Y9570D1*
X13186Y9630D2*
X13202Y9600D1*
X13216Y9570D1*
X14862Y9600D2*
X14832Y9570D1*
X13605Y9600D2*
X13545Y9570D1*
X13486Y9540D1*
X13617Y9510D1*
X13755Y9480D1*
X13605Y9600D2*
X13635Y9570D1*
X13665Y9540D1*
X13695Y9510D1*
X13635Y9480D1*
X14593Y9570D2*
X14604Y9540D1*
X14597Y9510D1*
X14568Y9480D1*
X14533Y9450D1*
X14742Y9570D2*
X14712Y9540D1*
X14802Y9570D2*
X14832Y9540D1*
X14684Y9510D1*
X14533Y9480D1*
X15161Y9600D2*
X15145Y9570D1*
X15131Y9540D1*
X15161Y9600D2*
X15177Y9570D1*
X15191Y9540D1*
X13246Y9570D2*
X13230Y9540D1*
X13216Y9510D1*
X13246Y9570D2*
X13262Y9540D1*
X13276Y9510D1*
X14503Y9540D2*
X14682D2*
X14712Y9510D1*
X14682Y9480D1*
X14413Y9510D2*
X14429Y9480D1*
X14443Y9450D1*
X14473Y9510D2*
X14429Y9480D1*
X14383Y9450D1*
X14563Y9510D2*
X14579Y9480D1*
X14593Y9450D1*
X13815Y9510D2*
X13799Y9480D1*
X13785Y9450D1*
X13905Y9480D2*
X13875Y9450D1*
X13964Y9480D2*
X13980Y9450D1*
X13994Y9420D1*
X14024Y9480D2*
X14040Y9450D1*
X14054Y9420D1*
X14084Y9480D2*
X14100Y9450D1*
X14114Y9420D1*
X14144Y9480D2*
X14114Y9450D1*
X14174Y9480D2*
X14114Y9450D1*
X14264Y9420D1*
X14234Y9480D2*
X14204Y9450D1*
X14294Y9480D2*
X14353Y9450D1*
X14204Y9420D1*
X14323Y9480D2*
X14353Y9450D1*
X14383Y9480D2*
X14255Y9450D1*
X14114Y9420D1*
X14533Y9480D2*
X14563Y9450D1*
X13396Y9480D2*
X13380Y9450D1*
X13366Y9420D1*
X13396Y9480D2*
X13412Y9450D1*
X13426Y9420D1*
X13934Y9450D2*
X13964Y9420D1*
X13545D2*
X13530Y9390D1*
X13516Y9361D1*
X13545Y9420D2*
X13561Y9390D1*
X13575Y9361D1*
X14832Y9420D2*
X14816Y9390D1*
X14802Y9361D1*
X14832Y9420D2*
X14848Y9390D1*
X14862Y9361D1*
X14742Y9390D2*
X14726Y9361D1*
X14712Y9331D1*
X14742Y9390D2*
X14758Y9361D1*
X14772Y9331D1*
X13964D2*
X13948Y9301D1*
X13934Y9271D1*
X13964Y9331D2*
X13980Y9301D1*
X13994Y9271D1*
X13246Y9241D2*
X13230Y9211D1*
X13216Y9181D1*
X13246Y9241D2*
X13262Y9211D1*
X13276Y9181D1*
X13456Y9241D2*
X13440Y9211D1*
X13426Y9181D1*
X13456Y9241D2*
X13472Y9211D1*
X13486Y9181D1*
X14084Y9241D2*
X14068Y9211D1*
X14054Y9181D1*
X14084Y9241D2*
X14100Y9211D1*
X14114Y9181D1*
X14323Y9241D2*
X14308Y9211D1*
X14294Y9181D1*
X14323Y9241D2*
X14339Y9211D1*
X14353Y9181D1*
X14832Y9241D2*
X14816Y9211D1*
X14802Y9181D1*
X14832Y9241D2*
X14848Y9211D1*
X14862Y9181D1*
X14892Y9241D2*
X14908Y9211D1*
X14922Y9181D1*
X14982Y9241D2*
X14966Y9211D1*
X14952Y9181D1*
X14982Y9241D2*
X14998Y9211D1*
X15012Y9181D1*
X15071Y9241D2*
X15056Y9211D1*
X15042Y9181D1*
X15071Y9241D2*
X15087Y9211D1*
X15101Y9181D1*
X19376Y6549D2*
D100*
X19353Y6596D1*
X19305Y6644D1*
X19257Y6668D1*
X19161D1*
X19113Y6644D1*
X19066Y6596D1*
X19041Y6549D1*
X19018Y6477D1*
Y6357D1*
X19041Y6285D1*
X19066Y6237D1*
X19113Y6190D1*
X19161Y6165D1*
X19257D1*
X19305Y6190D1*
X19353Y6237D1*
X19376Y6285D1*
X19531Y6572D2*
X19579Y6596D1*
X19651Y6667D1*
Y6165D1*
X25019Y8736D2*
X24995Y8784D1*
X24947Y8832D1*
X24899Y8855D1*
X24804D1*
X24756Y8832D1*
X24708Y8784D1*
X24684Y8736D1*
X24660Y8664D1*
Y8544D1*
X24684Y8473D1*
X24708Y8425D1*
X24756Y8377D1*
X24804Y8353D1*
X24899D1*
X24947Y8377D1*
X24995Y8425D1*
X25019Y8473D1*
X25198Y8735D2*
Y8759D1*
X25221Y8807D1*
X25245Y8831D1*
X25293Y8855D1*
X25389D1*
X25436Y8831D1*
X25460Y8807D1*
X25484Y8759D1*
Y8712D1*
X25460Y8664D1*
X25413Y8592D1*
X25173Y8353D1*
X25508D1*
X25023Y11673D2*
X24999Y11721D1*
X24951Y11769D1*
X24903Y11793D1*
X24808D1*
X24760Y11769D1*
X24712Y11721D1*
X24688Y11673D1*
X24664Y11602D1*
Y11482D1*
X24688Y11410D1*
X24712Y11362D1*
X24760Y11315D1*
X24808Y11290D1*
X24903D1*
X24951Y11315D1*
X24999Y11362D1*
X25023Y11410D1*
X25225Y11792D2*
X25488D1*
X25345Y11601D1*
X25416D1*
X25464Y11577D1*
X25488Y11554D1*
X25512Y11482D1*
Y11434D1*
X25488Y11362D1*
X25440Y11314D1*
X25368Y11290D1*
X25297D1*
X25225Y11314D1*
X25201Y11339D1*
X25177Y11386D1*
X25007Y10923D2*
X24983Y10971D1*
X24935Y11019D1*
X24888Y11043D1*
X24792D1*
X24744Y11019D1*
X24696Y10971D1*
X24672Y10923D1*
X24648Y10852D1*
Y10732D1*
X24672Y10660D1*
X24696Y10612D1*
X24744Y10565D1*
X24792Y10540D1*
X24888D1*
X24935Y10565D1*
X24983Y10612D1*
X25007Y10660D1*
X25401Y10540D2*
Y11042D1*
X25161Y10708D1*
X25520D1*
X17706Y9361D2*
X17683Y9409D1*
X17635Y9457D1*
X17587Y9480D1*
X17491D1*
X17443Y9457D1*
X17396Y9409D1*
X17371Y9361D1*
X17348Y9289D1*
Y9169D1*
X17371Y9098D1*
X17396Y9050D1*
X17443Y9002D1*
X17491Y8978D1*
X17587D1*
X17635Y9002D1*
X17683Y9050D1*
X17706Y9098D1*
X18148Y9480D2*
X17909D1*
X17885Y9265D1*
X17909Y9289D1*
X17981Y9313D1*
X18052D1*
X18124Y9289D1*
X18172Y9241D1*
X18196Y9169D1*
Y9122D1*
X18172Y9050D1*
X18124Y9002D1*
X18052Y8978D1*
X17981D1*
X17909Y9002D1*
X17885Y9026D1*
X17861Y9074D1*
X17737Y10049D2*
X17713Y10096D1*
X17665Y10144D1*
X17617Y10168D1*
X17522D1*
X17474Y10144D1*
X17426Y10096D1*
X17402Y10049D1*
X17378Y9977D1*
Y9857D1*
X17402Y9785D1*
X17426Y9737D1*
X17474Y9690D1*
X17522Y9665D1*
X17617D1*
X17665Y9690D1*
X17713Y9737D1*
X17737Y9785D1*
X18178Y10096D2*
X18154Y10144D1*
X18082Y10167D1*
X18035D1*
X17963Y10144D1*
X17915Y10072D1*
X17891Y9952D1*
Y9833D1*
X17915Y9737D1*
X17963Y9689D1*
X18035Y9665D1*
X18059D1*
X18130Y9689D1*
X18178Y9737D1*
X18202Y9809D1*
Y9833D1*
X18178Y9905D1*
X18130Y9952D1*
X18059Y9976D1*
X18035D1*
X17963Y9952D1*
X17915Y9905D1*
X17891Y9833D1*
X17725Y11236D2*
X17701Y11284D1*
X17653Y11332D1*
X17605Y11355D1*
X17510D1*
X17461Y11332D1*
X17414Y11284D1*
X17390Y11236D1*
X17366Y11164D1*
Y11044D1*
X17390Y10973D1*
X17414Y10925D1*
X17461Y10877D1*
X17510Y10853D1*
X17605D1*
X17653Y10877D1*
X17701Y10925D1*
X17725Y10973D1*
X17975Y10853D2*
X18214Y11355D1*
X17879D1*
X19384Y18328D2*
X19337Y18304D1*
X19289Y18256D1*
X19265Y18208D1*
Y18113D1*
X19289Y18065D1*
X19337Y18017D1*
X19384Y17993D1*
X19456Y17969D1*
X19576D1*
X19647Y17993D1*
X19695Y18017D1*
X19743Y18065D1*
X19767Y18113D1*
Y18208D1*
X19743Y18256D1*
X19695Y18304D1*
X19647Y18328D1*
X19265Y18602D2*
X19289Y18530D1*
X19337Y18506D1*
X19385D1*
X19432Y18530D1*
X19457Y18578D1*
X19480Y18673D1*
X19504Y18745D1*
X19552Y18793D1*
X19600Y18817D1*
X19672D1*
X19719Y18793D1*
X19743Y18769D1*
X19767Y18697D1*
Y18602D1*
X19743Y18530D1*
X19719Y18506D1*
X19672Y18482D1*
X19600D1*
X19552Y18506D1*
X19504Y18554D1*
X19480Y18625D1*
X19457Y18721D1*
X19432Y18769D1*
X19385Y18793D1*
X19337D1*
X19289Y18769D1*
X19265Y18697D1*
Y18602D1*
X18449Y18316D2*
X18402Y18293D1*
X18354Y18244D1*
X18330Y18197D1*
Y18101D1*
X18354Y18053D1*
X18402Y18006D1*
X18449Y17981D1*
X18521Y17958D1*
X18641D1*
X18712Y17981D1*
X18760Y18006D1*
X18808Y18053D1*
X18832Y18101D1*
Y18197D1*
X18808Y18244D1*
X18760Y18293D1*
X18712Y18316D1*
X18497Y18782D2*
X18569Y18758D1*
X18617Y18710D1*
X18641Y18638D1*
Y18614D1*
X18617Y18543D1*
X18569Y18495D1*
X18497Y18471D1*
X18473D1*
X18402Y18495D1*
X18354Y18543D1*
X18330Y18614D1*
Y18638D1*
X18354Y18710D1*
X18402Y18758D1*
X18497Y18782D1*
X18617D1*
X18737Y18758D1*
X18808Y18710D1*
X18832Y18638D1*
Y18591D1*
X18808Y18519D1*
X18760Y18495D1*
X20197Y18334D2*
X20149Y18310D1*
X20101Y18262D1*
X20077Y18214D1*
Y18119D1*
X20101Y18070D1*
X20149Y18023D1*
X20197Y17999D1*
X20269Y17975D1*
X20388D1*
X20460Y17999D1*
X20508Y18023D1*
X20555Y18070D1*
X20580Y18119D1*
Y18214D1*
X20555Y18262D1*
X20508Y18310D1*
X20460Y18334D1*
X20173Y18488D2*
X20149Y18536D1*
X20078Y18608D1*
X20580D1*
X20078Y18906D2*
X20102Y18834D1*
X20173Y18786D1*
X20293Y18762D1*
X20365D1*
X20484Y18786D1*
X20556Y18834D1*
X20580Y18906D1*
Y18954D1*
X20556Y19025D1*
X20484Y19073D1*
X20365Y19097D1*
X20293D1*
X20173Y19073D1*
X20102Y19025D1*
X20078Y18954D1*
Y18906D1*
X20173Y19073D2*
X20484Y18786D1*
X26072Y13504D2*
X26024Y13480D1*
X25976Y13432D1*
X25952Y13384D1*
Y13289D1*
X25976Y13240D1*
X26024Y13193D1*
X26072Y13169D1*
X26144Y13145D1*
X26263D1*
X26335Y13169D1*
X26383Y13193D1*
X26430Y13240D1*
X26455Y13289D1*
Y13384D1*
X26430Y13432D1*
X26383Y13480D1*
X26335Y13504D1*
X26048Y13658D2*
X26024Y13706D1*
X25953Y13778D1*
X26455D1*
X26048Y13932D2*
X26024Y13980D1*
X25953Y14052D1*
X26455D1*
X25069Y12486D2*
X25045Y12534D1*
X24997Y12582D1*
X24950Y12605D1*
X24854D1*
X24806Y12582D1*
X24759Y12534D1*
X24734Y12486D1*
X24710Y12414D1*
Y12294D1*
X24734Y12223D1*
X24759Y12175D1*
X24806Y12127D1*
X24854Y12103D1*
X24950D1*
X24997Y12127D1*
X25045Y12175D1*
X25069Y12223D1*
X25224Y12509D2*
X25272Y12534D1*
X25344Y12605D1*
Y12103D1*
X25522Y12485D2*
Y12509D1*
X25546Y12557D1*
X25570Y12581D1*
X25618Y12605D1*
X25713D1*
X25761Y12581D1*
X25785Y12557D1*
X25809Y12509D1*
Y12462D1*
X25785Y12414D1*
X25737Y12342D1*
X25498Y12103D1*
X25833D1*
X16634Y13334D2*
X16587Y13310D1*
X16539Y13262D1*
X16515Y13214D1*
Y13119D1*
X16539Y13070D1*
X16587Y13023D1*
X16634Y12999D1*
X16706Y12975D1*
X16826D1*
X16897Y12999D1*
X16945Y13023D1*
X16993Y13070D1*
X17017Y13119D1*
Y13214D1*
X16993Y13262D1*
X16945Y13310D1*
X16897Y13334D1*
X16611Y13488D2*
X16587Y13536D1*
X16515Y13608D1*
X17017D1*
X16515Y13810D2*
Y14073D1*
X16707Y13930D1*
Y14002D1*
X16730Y14049D1*
X16754Y14073D1*
X16826Y14097D1*
X16874D1*
X16945Y14073D1*
X16993Y14025D1*
X17017Y13954D1*
Y13882D1*
X16993Y13810D1*
X16969Y13787D1*
X16922Y13762D1*
X17513Y11924D2*
X17489Y11971D1*
X17441Y12019D1*
X17394Y12043D1*
X17298D1*
X17250Y12019D1*
X17202Y11971D1*
X17178Y11924D1*
X17154Y11852D1*
Y11732D1*
X17178Y11660D1*
X17202Y11612D1*
X17250Y11565D1*
X17298Y11540D1*
X17394D1*
X17441Y11565D1*
X17489Y11612D1*
X17513Y11660D1*
X17667Y11947D2*
X17715Y11971D1*
X17787Y12042D1*
Y11540D1*
X18181D2*
Y12042D1*
X17942Y11708D1*
X18300D1*
X19947Y20396D2*
X19899Y20372D1*
X19851Y20324D1*
X19827Y20277D1*
Y20181D1*
X19851Y20133D1*
X19899Y20085D1*
X19947Y20061D1*
X20019Y20037D1*
X20138D1*
X20210Y20061D1*
X20258Y20085D1*
X20305Y20133D1*
X20330Y20181D1*
Y20277D1*
X20305Y20324D1*
X20258Y20372D1*
X20210Y20396D1*
X19923Y20550D2*
X19899Y20599D1*
X19828Y20670D1*
X20330D1*
X19828Y21112D2*
Y20873D1*
X20043Y20849D1*
X20019Y20873D1*
X19995Y20945D1*
Y21016D1*
X20019Y21088D1*
X20067Y21136D1*
X20138Y21160D1*
X20186D1*
X20258Y21136D1*
X20306Y21088D1*
X20330Y21016D1*
Y20945D1*
X20306Y20873D1*
X20282Y20849D1*
X20234Y20825D1*
X5748Y9859D2*
X5724Y9906D1*
X5676Y9954D1*
X5628Y9978D1*
X5533D1*
X5485Y9954D1*
X5437Y9906D1*
X5413Y9859D1*
X5389Y9787D1*
Y9667D1*
X5413Y9595D1*
X5437Y9547D1*
X5485Y9500D1*
X5533Y9476D1*
X5628D1*
X5676Y9500D1*
X5724Y9547D1*
X5748Y9595D1*
X5902Y9882D2*
X5950Y9906D1*
X6022Y9977D1*
Y9476D1*
X6463Y9906D2*
X6439Y9954D1*
X6368Y9977D1*
X6320D1*
X6248Y9954D1*
X6200Y9882D1*
X6176Y9762D1*
Y9643D1*
X6200Y9547D1*
X6248Y9499D1*
X6320Y9476D1*
X6344D1*
X6415Y9499D1*
X6463Y9547D1*
X6487Y9619D1*
Y9643D1*
X6463Y9715D1*
X6415Y9762D1*
X6344Y9786D1*
X6320D1*
X6248Y9762D1*
X6200Y9715D1*
X6176Y9643D1*
X9824Y18480D2*
X9777Y18456D1*
X9729Y18408D1*
X9705Y18360D1*
Y18265D1*
X9729Y18217D1*
X9777Y18169D1*
X9824Y18145D1*
X9896Y18121D1*
X10016D1*
X10087Y18145D1*
X10135Y18169D1*
X10183Y18217D1*
X10207Y18265D1*
Y18360D1*
X10183Y18408D1*
X10135Y18456D1*
X10087Y18480D1*
X9801Y18634D2*
X9777Y18682D1*
X9705Y18754D1*
X10207D1*
Y19004D2*
X9705Y19243D1*
Y18908D1*
X6673Y16859D2*
X6650Y16906D1*
X6601Y16954D1*
X6554Y16978D1*
X6458D1*
X6410Y16954D1*
X6363Y16906D1*
X6338Y16859D1*
X6315Y16787D1*
Y16667D1*
X6338Y16595D1*
X6363Y16547D1*
X6410Y16500D1*
X6458Y16476D1*
X6554D1*
X6601Y16500D1*
X6650Y16547D1*
X6673Y16595D1*
X6828Y16882D2*
X6876Y16906D1*
X6948Y16977D1*
Y16476D1*
X7221Y16977D2*
X7150Y16954D1*
X7126Y16906D1*
Y16858D1*
X7150Y16810D1*
X7198Y16786D1*
X7293Y16762D1*
X7365Y16739D1*
X7413Y16691D1*
X7436Y16643D1*
Y16571D1*
X7413Y16524D1*
X7389Y16499D1*
X7317Y16476D1*
X7221D1*
X7150Y16499D1*
X7126Y16524D1*
X7102Y16571D1*
Y16643D1*
X7126Y16691D1*
X7174Y16739D1*
X7245Y16762D1*
X7341Y16786D1*
X7389Y16810D1*
X7413Y16858D1*
Y16906D1*
X7389Y16954D1*
X7317Y16977D1*
X7221D1*
X6072Y10577D2*
X6024Y10553D1*
X5976Y10505D1*
X5952Y10458D1*
Y10362D1*
X5976Y10314D1*
X6024Y10267D1*
X6072Y10242D1*
X6144Y10219D1*
X6263D1*
X6335Y10242D1*
X6383Y10267D1*
X6430Y10314D1*
X6455Y10362D1*
Y10458D1*
X6430Y10505D1*
X6383Y10553D1*
X6335Y10577D1*
X6048Y10732D2*
X6024Y10780D1*
X5953Y10852D1*
X6455D1*
X6120Y11317D2*
X6192Y11293D1*
X6240Y11245D1*
X6263Y11173D1*
Y11150D1*
X6240Y11078D1*
X6192Y11030D1*
X6120Y11006D1*
X6096D1*
X6024Y11030D1*
X5977Y11078D1*
X5953Y11150D1*
Y11173D1*
X5977Y11245D1*
X6024Y11293D1*
X6120Y11317D1*
X6240D1*
X6359Y11293D1*
X6431Y11245D1*
X6455Y11173D1*
Y11126D1*
X6431Y11054D1*
X6383Y11030D1*
X6697Y21833D2*
X6649Y21809D1*
X6601Y21761D1*
X6577Y21713D1*
Y21618D1*
X6601Y21570D1*
X6649Y21522D1*
X6697Y21498D1*
X6769Y21474D1*
X6888D1*
X6960Y21498D1*
X7008Y21522D1*
X7055Y21570D1*
X7080Y21618D1*
Y21713D1*
X7055Y21761D1*
X7008Y21809D1*
X6960Y21833D1*
X6697Y22012D2*
X6673D1*
X6625Y22035D1*
X6602Y22059D1*
X6578Y22107D1*
Y22203D1*
X6602Y22250D1*
X6625Y22274D1*
X6673Y22298D1*
X6721D1*
X6769Y22274D1*
X6840Y22227D1*
X7080Y21987D1*
Y22322D1*
X6578Y22620D2*
X6602Y22548D1*
X6673Y22500D1*
X6793Y22477D1*
X6865D1*
X6984Y22500D1*
X7056Y22548D1*
X7080Y22620D1*
Y22668D1*
X7056Y22740D1*
X6984Y22787D1*
X6865Y22812D1*
X6793D1*
X6673Y22787D1*
X6602Y22740D1*
X6578Y22668D1*
Y22620D1*
X6673Y22787D2*
X6984Y22500D1*
X15072Y21396D2*
X15024Y21372D1*
X14976Y21324D1*
X14952Y21277D1*
Y21181D1*
X14976Y21133D1*
X15024Y21085D1*
X15072Y21061D1*
X15144Y21037D1*
X15263D1*
X15335Y21061D1*
X15383Y21085D1*
X15430Y21133D1*
X15455Y21181D1*
Y21277D1*
X15430Y21324D1*
X15383Y21372D1*
X15335Y21396D1*
X15072Y21575D2*
X15048D1*
X15000Y21599D1*
X14977Y21622D1*
X14953Y21670D1*
Y21766D1*
X14977Y21814D1*
X15000Y21837D1*
X15048Y21862D1*
X15096D1*
X15144Y21837D1*
X15215Y21790D1*
X15455Y21550D1*
Y21885D1*
X15048Y22040D2*
X15024Y22088D1*
X14953Y22160D1*
X15455D1*
X6695Y15647D2*
Y15144D1*
X6862D1*
X6934Y15169D1*
X6982Y15216D1*
X7006Y15264D1*
X7030Y15336D1*
Y15455D1*
X7006Y15527D1*
X6982Y15575D1*
X6934Y15623D1*
X6862Y15647D1*
X6695D1*
X7184Y15551D2*
X7232Y15575D1*
X7304Y15646D1*
Y15144D1*
X15717Y8672D2*
Y8289D1*
X15693Y8217D1*
X15669Y8193D1*
X15622Y8169D1*
X15574D1*
X15526Y8193D1*
X15502Y8217D1*
X15478Y8289D1*
Y8337D1*
X15872Y8575D2*
X15920Y8600D1*
X15992Y8671D1*
Y8169D1*
X26128Y8734D2*
Y8352D1*
X26105Y8280D1*
X26080Y8256D1*
X26033Y8232D1*
X25985D1*
X25937Y8256D1*
X25913Y8280D1*
X25889Y8352D1*
Y8399D1*
X26307Y8614D2*
Y8638D1*
X26331Y8686D1*
X26355Y8710D1*
X26403Y8733D1*
X26498D1*
X26546Y8710D1*
X26570Y8686D1*
X26594Y8638D1*
Y8590D1*
X26570Y8542D1*
X26522Y8471D1*
X26283Y8232D1*
X26618D1*
X16521Y23019D2*
Y22636D1*
X16497Y22564D1*
X16473Y22541D1*
X16426Y22516D1*
X16377D1*
X16330Y22541D1*
X16306Y22564D1*
X16282Y22636D1*
Y22684D1*
X16724Y23018D2*
X16986D1*
X16843Y22827D1*
X16915D1*
X16962Y22803D1*
X16986Y22779D1*
X17010Y22708D1*
Y22660D1*
X16986Y22588D1*
X16939Y22540D1*
X16867Y22516D1*
X16795D1*
X16724Y22540D1*
X16700Y22564D1*
X16676Y22612D1*
X20925Y20540D2*
Y20158D1*
X20901Y20086D1*
X20877Y20062D1*
X20829Y20038D1*
X20781D1*
X20734Y20062D1*
X20710Y20086D1*
X20686Y20158D1*
Y20206D1*
X21319Y20038D2*
Y20540D1*
X21080Y20206D1*
X21438D1*
X24500Y18478D2*
Y18095D1*
X24476Y18024D1*
X24451Y18000D1*
X24404Y17976D1*
X24356D1*
X24308Y18000D1*
X24285Y18024D1*
X24260Y18095D1*
Y18143D1*
X24941Y18477D2*
X24702D1*
X24678Y18262D1*
X24702Y18286D1*
X24774Y18310D1*
X24845D1*
X24917Y18286D1*
X24965Y18239D1*
X24989Y18167D1*
Y18119D1*
X24965Y18047D1*
X24917Y17999D1*
X24845Y17976D1*
X24774D1*
X24702Y17999D1*
X24678Y18024D1*
X24654Y18071D1*
X5756Y7465D2*
Y7082D1*
X5732Y7010D1*
X5708Y6987D1*
X5660Y6962D1*
X5612D1*
X5565Y6987D1*
X5541Y7010D1*
X5516Y7082D1*
Y7130D1*
X6197Y7393D2*
X6173Y7440D1*
X6101Y7464D1*
X6054D1*
X5982Y7440D1*
X5934Y7368D1*
X5910Y7249D1*
Y7130D1*
X5934Y7034D1*
X5982Y6986D1*
X6054Y6962D1*
X6078D1*
X6149Y6986D1*
X6197Y7034D1*
X6221Y7106D1*
Y7130D1*
X6197Y7202D1*
X6149Y7249D1*
X6078Y7273D1*
X6054D1*
X5982Y7249D1*
X5934Y7202D1*
X5910Y7130D1*
X16607Y26845D2*
Y26463D1*
X16584Y26391D1*
X16559Y26367D1*
X16512Y26343D1*
X16464D1*
X16416Y26367D1*
X16392Y26391D1*
X16368Y26463D1*
Y26510D1*
X16857Y26343D2*
X17097Y26845D1*
X16762D1*
X6750Y16344D2*
Y15842D1*
X7037D1*
X7191Y16248D2*
X7239Y16273D1*
X7311Y16344D1*
Y15842D1*
X9160Y20115D2*
X9662D1*
Y20402D1*
X9160Y20867D2*
Y20557D1*
X9662D1*
Y20867D1*
X9399Y20557D2*
Y20748D1*
X9160Y21022D2*
X9662D1*
Y21189D1*
X9638Y21261D1*
X9590Y21309D1*
X9542Y21333D1*
X9471Y21357D1*
X9351D1*
X9279Y21333D1*
X9231Y21309D1*
X9183Y21261D1*
X9160Y21189D1*
Y21022D1*
X9256Y21511D2*
X9231Y21559D1*
X9160Y21631D1*
X9662D1*
X10742Y21069D2*
X11244D1*
Y21356D1*
X10742Y21821D2*
Y21511D1*
X11244D1*
Y21821D1*
X10981Y21511D2*
Y21702D1*
X10742Y21976D2*
X11244D1*
Y22143D1*
X11220Y22215D1*
X11172Y22263D1*
X11124Y22287D1*
X11053Y22311D1*
X10933D1*
X10861Y22287D1*
X10814Y22263D1*
X10765Y22215D1*
X10742Y22143D1*
Y21976D1*
X10862Y22489D2*
X10838D1*
X10790Y22513D1*
X10766Y22537D1*
X10742Y22585D1*
Y22681D1*
X10766Y22728D1*
X10790Y22752D1*
X10838Y22776D1*
X10885D1*
X10933Y22752D1*
X11005Y22704D1*
X11244Y22465D1*
Y22800D1*
X10871Y28759D2*
Y29261D1*
X10680Y28759D1*
X10489Y29261D1*
Y28759D1*
X11026Y28998D2*
X11241D1*
X11313Y29022D1*
X11337Y29046D1*
X11361Y29094D1*
Y29166D1*
X11337Y29213D1*
X11313Y29237D1*
X11241Y29261D1*
X11026D1*
Y28759D1*
X11515Y29165D2*
X11563Y29189D1*
X11635Y29261D1*
Y28759D1*
X7967Y21122D2*
X7919Y21098D1*
X7871Y21050D1*
X7847Y21002D1*
X7823Y20930D1*
Y20811D1*
X7847Y20739D1*
X7871Y20692D1*
X7919Y20644D1*
X7967Y20620D1*
X8062D1*
X8110Y20644D1*
X8158Y20692D1*
X8182Y20739D1*
X8206Y20811D1*
Y20930D1*
X8182Y21002D1*
X8158Y21050D1*
X8110Y21098D1*
X8062Y21122D1*
X7967D1*
X8038Y20715D2*
X8182Y20572D1*
X8360Y21025D2*
X8408Y21050D1*
X8480Y21121D1*
Y20619D1*
X19969Y7804D2*
X20184D1*
X20256Y7828D1*
X20281Y7852D1*
X20304Y7899D1*
Y7947D1*
X20281Y7995D1*
X20256Y8019D1*
X20184Y8043D1*
X19969D1*
Y7540D1*
X20137Y7804D2*
X20304Y7540D1*
X20459Y7947D2*
X20507Y7971D1*
X20579Y8042D1*
Y7540D1*
X24670Y9489D2*
X24885D1*
X24956Y9513D1*
X24981Y9537D1*
X25004Y9584D1*
Y9632D1*
X24981Y9680D1*
X24956Y9704D1*
X24885Y9728D1*
X24670D1*
Y9226D1*
X24837Y9489D2*
X25004Y9226D1*
X25183Y9608D2*
Y9632D1*
X25207Y9680D1*
X25231Y9704D1*
X25279Y9727D1*
X25374D1*
X25422Y9704D1*
X25446Y9680D1*
X25470Y9632D1*
Y9584D1*
X25446Y9536D1*
X25398Y9465D1*
X25159Y9226D1*
X25494D1*
X22067Y20296D2*
Y20511D1*
X22042Y20583D1*
X22019Y20607D1*
X21971Y20631D1*
X21923D1*
X21875Y20607D1*
X21851Y20583D1*
X21827Y20511D1*
Y20296D1*
X22330D1*
X22067Y20463D2*
X22330Y20631D1*
X21828Y20833D2*
Y21096D1*
X22019Y20952D1*
Y21024D1*
X22043Y21072D1*
X22067Y21096D1*
X22138Y21120D1*
X22186D1*
X22258Y21096D1*
X22306Y21048D1*
X22330Y20976D1*
Y20904D1*
X22306Y20833D1*
X22282Y20809D1*
X22234Y20785D1*
X22692Y20284D2*
Y20499D1*
X22667Y20571D1*
X22644Y20595D1*
X22596Y20619D1*
X22548D1*
X22500Y20595D1*
X22476Y20571D1*
X22452Y20499D1*
Y20284D1*
X22955D1*
X22692Y20451D2*
X22955Y20619D1*
Y21012D2*
X22453D1*
X22787Y20773D1*
Y21132D1*
X23817Y20296D2*
Y20511D1*
X23792Y20583D1*
X23769Y20607D1*
X23721Y20631D1*
X23673D1*
X23625Y20607D1*
X23601Y20583D1*
X23577Y20511D1*
Y20296D1*
X24080D1*
X23817Y20463D2*
X24080Y20631D1*
X23578Y21072D2*
Y20833D1*
X23793Y20809D1*
X23769Y20833D1*
X23745Y20905D1*
Y20976D1*
X23769Y21048D1*
X23817Y21096D1*
X23888Y21120D1*
X23936D1*
X24008Y21096D1*
X24056Y21048D1*
X24080Y20976D1*
Y20905D1*
X24056Y20833D1*
X24032Y20809D1*
X23984Y20785D1*
X21132Y18009D2*
Y18224D1*
X21107Y18295D1*
X21084Y18320D1*
X21036Y18344D1*
X20988D1*
X20940Y18320D1*
X20916Y18295D1*
X20892Y18224D1*
Y18009D1*
X21395D1*
X21132Y18176D2*
X21395Y18344D1*
X20964Y18785D2*
X20917Y18761D1*
X20893Y18689D1*
Y18642D1*
X20917Y18570D1*
X20988Y18522D1*
X21108Y18498D1*
X21227D1*
X21323Y18522D1*
X21371Y18570D1*
X21395Y18642D1*
Y18665D1*
X21371Y18737D1*
X21323Y18785D1*
X21251Y18809D1*
X21227D1*
X21155Y18785D1*
X21108Y18737D1*
X21084Y18665D1*
Y18642D1*
X21108Y18570D1*
X21155Y18522D1*
X21227Y18498D1*
X23757Y17996D2*
Y18211D1*
X23732Y18283D1*
X23709Y18308D1*
X23661Y18331D1*
X23613D1*
X23565Y18308D1*
X23541Y18283D1*
X23517Y18211D1*
Y17996D1*
X24020D1*
X23757Y18164D2*
X24020Y18331D1*
Y18581D2*
X23518Y18821D1*
Y18486D1*
X10063Y9676D2*
X10278D1*
X10350Y9700D1*
X10374Y9724D1*
X10398Y9772D1*
Y9820D1*
X10374Y9867D1*
X10350Y9892D1*
X10278Y9915D1*
X10063D1*
Y9413D1*
X10231Y9676D2*
X10398Y9413D1*
X10672Y9915D2*
X10600Y9891D1*
X10576Y9844D1*
Y9795D1*
X10600Y9748D1*
X10648Y9724D1*
X10744Y9700D1*
X10815Y9676D1*
X10863Y9628D1*
X10887Y9580D1*
Y9509D1*
X10863Y9461D1*
X10839Y9437D1*
X10767Y9413D1*
X10672D1*
X10600Y9437D1*
X10576Y9461D1*
X10552Y9509D1*
Y9580D1*
X10576Y9628D1*
X10624Y9676D1*
X10696Y9700D1*
X10791Y9724D1*
X10839Y9748D1*
X10863Y9795D1*
Y9844D1*
X10839Y9891D1*
X10767Y9915D1*
X10672D1*
X4874Y21554D2*
X5089D1*
X5161Y21578D1*
X5185Y21602D1*
X5209Y21649D1*
Y21697D1*
X5185Y21745D1*
X5161Y21769D1*
X5089Y21793D1*
X4874D1*
Y21290D1*
X5041Y21554D2*
X5209Y21290D1*
X5674Y21625D2*
X5650Y21554D1*
X5603Y21505D1*
X5531Y21482D1*
X5507D1*
X5435Y21505D1*
X5388Y21554D1*
X5363Y21625D1*
Y21649D1*
X5388Y21721D1*
X5435Y21769D1*
X5507Y21792D1*
X5531D1*
X5603Y21769D1*
X5650Y21721D1*
X5674Y21625D1*
Y21505D1*
X5650Y21386D1*
X5603Y21314D1*
X5531Y21290D1*
X5483D1*
X5411Y21314D1*
X5388Y21362D1*
X4569Y19172D2*
Y19387D1*
X4545Y19459D1*
X4521Y19483D1*
X4473Y19507D1*
X4425D1*
X4378Y19483D1*
X4354Y19459D1*
X4330Y19387D1*
Y19172D1*
X4832D1*
X4569Y19339D2*
X4832Y19507D1*
X4426Y19661D2*
X4402Y19709D1*
X4330Y19781D1*
X4832D1*
X4330Y20079D2*
X4354Y20007D1*
X4426Y19959D1*
X4545Y19935D1*
X4617D1*
X4737Y19959D1*
X4808Y20007D1*
X4832Y20079D1*
Y20127D1*
X4808Y20199D1*
X4737Y20246D1*
X4617Y20270D1*
X4545D1*
X4426Y20246D1*
X4354Y20199D1*
X4330Y20127D1*
Y20079D1*
X4426Y20246D2*
X4737Y19959D1*
X25145Y21929D2*
X25360D1*
X25432Y21953D1*
X25456Y21977D1*
X25480Y22024D1*
Y22072D1*
X25456Y22120D1*
X25432Y22144D1*
X25360Y22168D1*
X25145D1*
Y21665D1*
X25312Y21929D2*
X25480Y21665D1*
X25634Y22072D2*
X25682Y22096D1*
X25754Y22167D1*
Y21665D1*
X25908Y22072D2*
X25957Y22096D1*
X26028Y22167D1*
Y21665D1*
X10301Y19364D2*
X10516D1*
X10587Y19388D1*
X10612Y19412D1*
X10636Y19459D1*
Y19507D1*
X10612Y19555D1*
X10587Y19579D1*
X10516Y19603D1*
X10301D1*
Y19101D1*
X10468Y19364D2*
X10636Y19101D1*
X10790Y19507D2*
X10838Y19531D1*
X10910Y19602D1*
Y19101D1*
X11089Y19483D2*
Y19507D1*
X11112Y19555D1*
X11136Y19579D1*
X11184Y19602D1*
X11280D1*
X11327Y19579D1*
X11351Y19555D1*
X11375Y19507D1*
Y19459D1*
X11351Y19411D1*
X11304Y19340D1*
X11064Y19101D1*
X11399D1*
X25051Y20551D2*
X25266D1*
X25337Y20575D1*
X25362Y20599D1*
X25386Y20647D1*
Y20695D1*
X25362Y20742D1*
X25337Y20767D1*
X25266Y20790D1*
X25051D1*
Y20288D1*
X25218Y20551D2*
X25386Y20288D1*
X25540Y20694D2*
X25588Y20719D1*
X25660Y20790D1*
Y20288D1*
X25862Y20790D2*
X26125D1*
X25982Y20599D1*
X26054D1*
X26101Y20575D1*
X26125Y20551D1*
X26149Y20479D1*
Y20432D1*
X26125Y20360D1*
X26077Y20312D1*
X26006Y20288D1*
X25934D1*
X25862Y20312D1*
X25839Y20336D1*
X25814Y20384D1*
X21944Y18017D2*
Y18232D1*
X21920Y18304D1*
X21896Y18328D1*
X21848Y18352D1*
X21800D1*
X21753Y18328D1*
X21729Y18304D1*
X21705Y18232D1*
Y18017D1*
X22207D1*
X21944Y18184D2*
X22207Y18352D1*
X21801Y18506D2*
X21777Y18554D1*
X21705Y18626D1*
X22207D1*
Y19020D2*
X21705D1*
X22040Y18780D1*
Y19139D1*
X22757Y18047D2*
Y18262D1*
X22732Y18334D1*
X22709Y18358D1*
X22661Y18382D1*
X22613D1*
X22565Y18358D1*
X22541Y18334D1*
X22517Y18262D1*
Y18047D1*
X23020D1*
X22757Y18214D2*
X23020Y18382D1*
X22613Y18536D2*
X22589Y18584D1*
X22518Y18656D1*
X23020D1*
X22518Y19097D2*
Y18859D1*
X22733Y18835D1*
X22709Y18859D1*
X22685Y18930D1*
Y19002D1*
X22709Y19074D1*
X22757Y19122D1*
X22828Y19145D1*
X22876D1*
X22948Y19122D1*
X22996Y19074D1*
X23020Y19002D1*
Y18930D1*
X22996Y18859D1*
X22972Y18835D1*
X22924Y18810D1*
X17569Y17996D2*
Y18211D1*
X17545Y18283D1*
X17521Y18308D1*
X17473Y18331D1*
X17425D1*
X17378Y18308D1*
X17354Y18283D1*
X17330Y18211D1*
Y17996D1*
X17832D1*
X17569Y18164D2*
X17832Y18331D1*
X17426Y18486D2*
X17402Y18534D1*
X17330Y18606D1*
X17832D1*
X17402Y19047D2*
X17354Y19023D1*
X17330Y18951D1*
Y18904D1*
X17354Y18832D1*
X17426Y18784D1*
X17545Y18760D1*
X17665D1*
X17760Y18784D1*
X17808Y18832D1*
X17832Y18904D1*
Y18928D1*
X17808Y18999D1*
X17760Y19047D1*
X17688Y19071D1*
X17665D1*
X17593Y19047D1*
X17545Y18999D1*
X17522Y18928D1*
Y18904D1*
X17545Y18832D1*
X17593Y18784D1*
X17665Y18760D1*
X11075Y18339D2*
X11290D1*
X11362Y18363D1*
X11386Y18387D1*
X11410Y18435D1*
Y18483D1*
X11386Y18530D1*
X11362Y18555D1*
X11290Y18578D1*
X11075D1*
Y18076D1*
X11243Y18339D2*
X11410Y18076D1*
X11565Y18482D2*
X11613Y18506D1*
X11684Y18578D1*
Y18076D1*
X11934D2*
X12174Y18578D1*
X11839D1*
X12694Y17485D2*
Y17700D1*
X12670Y17771D1*
X12646Y17796D1*
X12598Y17820D1*
X12550D1*
X12503Y17796D1*
X12479Y17771D1*
X12455Y17700D1*
Y17485D1*
X12957D1*
X12694Y17652D2*
X12957Y17820D1*
X12551Y17974D2*
X12527Y18022D1*
X12455Y18094D1*
X12957D1*
X12455Y18368D2*
X12479Y18296D1*
X12527Y18272D1*
X12575D1*
X12622Y18296D1*
X12647Y18344D1*
X12670Y18439D1*
X12694Y18511D1*
X12742Y18559D1*
X12790Y18583D1*
X12862D1*
X12909Y18559D1*
X12933Y18535D1*
X12957Y18463D1*
Y18368D1*
X12933Y18296D1*
X12909Y18272D1*
X12862Y18248D1*
X12790D1*
X12742Y18272D1*
X12694Y18320D1*
X12670Y18391D1*
X12647Y18487D1*
X12622Y18535D1*
X12575Y18559D1*
X12527D1*
X12479Y18535D1*
X12455Y18463D1*
Y18368D1*
X15067Y18858D2*
Y19073D1*
X15042Y19145D1*
X15019Y19169D1*
X14971Y19193D1*
X14923D1*
X14875Y19169D1*
X14851Y19145D1*
X14827Y19073D1*
Y18858D1*
X15330D1*
X15067Y19025D2*
X15330Y19193D1*
X14923Y19347D2*
X14899Y19395D1*
X14828Y19467D1*
X15330D1*
X14995Y19933D2*
X15067Y19908D1*
X15115Y19861D1*
X15138Y19789D1*
Y19765D1*
X15115Y19693D1*
X15067Y19646D1*
X14995Y19622D1*
X14971D1*
X14899Y19646D1*
X14852Y19693D1*
X14828Y19765D1*
Y19789D1*
X14852Y19861D1*
X14899Y19908D1*
X14995Y19933D1*
X15115D1*
X15234Y19908D1*
X15306Y19861D1*
X15330Y19789D1*
Y19741D1*
X15306Y19670D1*
X15258Y19646D1*
X13507Y17314D2*
Y17529D1*
X13482Y17601D1*
X13459Y17625D1*
X13411Y17649D1*
X13363D1*
X13315Y17625D1*
X13291Y17601D1*
X13267Y17529D1*
Y17314D1*
X13770D1*
X13507Y17482D2*
X13770Y17649D1*
X13387Y17828D2*
X13363D1*
X13315Y17852D1*
X13292Y17875D1*
X13268Y17924D1*
Y18019D1*
X13292Y18067D1*
X13315Y18090D1*
X13363Y18115D1*
X13411D1*
X13459Y18090D1*
X13530Y18043D1*
X13770Y17804D1*
Y18139D1*
X13268Y18437D2*
X13292Y18365D1*
X13363Y18317D1*
X13483Y18293D1*
X13555D1*
X13674Y18317D1*
X13746Y18365D1*
X13770Y18437D1*
Y18484D1*
X13746Y18556D1*
X13674Y18604D1*
X13555Y18628D1*
X13483D1*
X13363Y18604D1*
X13292Y18556D1*
X13268Y18484D1*
Y18437D1*
X13363Y18604D2*
X13674Y18317D1*
X28245Y19437D2*
X28197Y19485D1*
X28125Y19509D1*
X28030D1*
X27958Y19485D1*
X27910Y19437D1*
Y19389D1*
X27934Y19341D1*
X27958Y19317D1*
X28005Y19294D1*
X28149Y19246D1*
X28197Y19222D1*
X28221Y19197D1*
X28245Y19150D1*
Y19078D1*
X28197Y19031D1*
X28125Y19006D1*
X28030D1*
X27958Y19031D1*
X27910Y19078D1*
X28399Y19412D2*
X28447Y19437D1*
X28519Y19508D1*
Y19006D1*
X22909Y16053D2*
Y15695D1*
X22933Y15623D1*
X22981Y15575D1*
X23053Y15551D1*
X23100D1*
X23172Y15575D1*
X23220Y15623D1*
X23244Y15695D1*
Y16053D1*
X23398Y15957D2*
X23446Y15981D1*
X23518Y16053D1*
Y15551D1*
X18403Y14596D2*
Y14237D1*
X18427Y14166D1*
X18475Y14118D1*
X18547Y14094D1*
X18594D1*
X18666Y14118D1*
X18714Y14166D1*
X18738Y14237D1*
Y14596D1*
X18917Y14476D2*
Y14500D1*
X18941Y14548D1*
X18964Y14572D1*
X19012Y14596D1*
X19108D1*
X19156Y14572D1*
X19179Y14548D1*
X19204Y14500D1*
Y14452D1*
X19179Y14404D1*
X19132Y14333D1*
X18893Y14094D1*
X19227D1*
X23444Y15005D2*
Y14646D1*
X23468Y14574D1*
X23516Y14527D1*
X23588Y14503D1*
X23635D1*
X23707Y14527D1*
X23755Y14574D1*
X23779Y14646D1*
Y15005D1*
X23982Y15004D2*
X24244D1*
X24101Y14813D1*
X24173D1*
X24220Y14789D1*
X24244Y14766D1*
X24269Y14694D1*
Y14646D1*
X24244Y14574D1*
X24197Y14526D1*
X24125Y14503D1*
X24053D1*
X23982Y14526D1*
X23958Y14551D1*
X23934Y14598D1*
X9888Y12060D2*
Y11701D1*
X9912Y11630D1*
X9960Y11582D1*
X10032Y11558D1*
X10079D1*
X10151Y11582D1*
X10199Y11630D1*
X10223Y11701D1*
Y12060D1*
X10617Y11558D2*
Y12060D1*
X10377Y11725D1*
X10736D1*
X17525Y20337D2*
Y19979D1*
X17549Y19907D1*
X17597Y19859D1*
X17669Y19835D1*
X17717D1*
X17788Y19859D1*
X17837Y19907D1*
X17860Y19979D1*
Y20337D1*
X18302D2*
X18063D1*
X18039Y20122D1*
X18063Y20145D1*
X18135Y20170D1*
X18206D1*
X18278Y20145D1*
X18326Y20098D1*
X18350Y20026D1*
Y19979D1*
X18326Y19907D1*
X18278Y19859D1*
X18206Y19835D1*
X18135D1*
X18063Y19859D1*
X18039Y19883D1*
X18015Y19930D1*
X6290Y21034D2*
Y20675D1*
X6314Y20603D1*
X6362Y20556D1*
X6434Y20531D1*
X6482D1*
X6553Y20556D1*
X6602Y20603D1*
X6625Y20675D1*
Y21034D1*
X7067Y20962D2*
X7043Y21009D1*
X6971Y21033D1*
X6923D1*
X6852Y21009D1*
X6803Y20937D1*
X6780Y20818D1*
Y20699D1*
X6803Y20603D1*
X6852Y20555D1*
X6923Y20531D1*
X6947D1*
X7018Y20555D1*
X7067Y20603D1*
X7090Y20675D1*
Y20699D1*
X7067Y20771D1*
X7018Y20818D1*
X6947Y20842D1*
X6923D1*
X6852Y20818D1*
X6803Y20771D1*
X6780Y20699D1*
X15033Y18378D2*
Y18019D1*
X15057Y17947D1*
X15105Y17899D1*
X15177Y17875D1*
X15225D1*
X15296Y17899D1*
X15344Y17947D1*
X15368Y18019D1*
Y18378D1*
X15618Y17875D2*
X15858Y18377D1*
X15523D1*
X18893Y19773D2*
D102*
Y19467D1*
X18874Y19410D1*
X18855Y19391D1*
X18817Y19371D1*
X18778D1*
X18740Y19391D1*
X18721Y19410D1*
X18702Y19467D1*
Y19505D1*
X19017Y19773D2*
Y19486D1*
X19036Y19429D1*
X19074Y19391D1*
X19132Y19371D1*
X19170D1*
X19227Y19391D1*
X19266Y19429D1*
X19285Y19486D1*
Y19773D1*
X19714Y19371D2*
Y19773D1*
X19561Y19371D1*
X19408Y19773D1*
Y19371D1*
X19838Y19563D2*
X20010D1*
X20067Y19582D1*
X20087Y19601D1*
X20106Y19639D1*
Y19697D1*
X20087Y19735D1*
X20067Y19754D1*
X20010Y19773D1*
X19838D1*
Y19371D1*
X20752Y19773D2*
Y19371D1*
X20618Y19773D2*
X20886D1*
X21124D2*
X21086Y19754D1*
X21048Y19716D1*
X21028Y19678D1*
X21009Y19620D1*
Y19524D1*
X21028Y19467D1*
X21048Y19429D1*
X21086Y19391D1*
X21124Y19371D1*
X21201D1*
X21239Y19391D1*
X21277Y19429D1*
X21296Y19467D1*
X21315Y19524D1*
Y19620D1*
X21296Y19678D1*
X21277Y19716D1*
X21239Y19754D1*
X21201Y19773D1*
X21124D1*
X21828Y19563D2*
X22000D1*
X22057Y19582D1*
X22077Y19601D1*
X22096Y19639D1*
Y19697D1*
X22077Y19735D1*
X22057Y19754D1*
X22000Y19773D1*
X21828D1*
Y19371D1*
X22219Y19582D2*
X22391D1*
X22449Y19601D1*
X22468Y19620D1*
X22487Y19658D1*
Y19697D1*
X22468Y19735D1*
X22449Y19754D1*
X22391Y19773D1*
X22219D1*
Y19371D1*
X22353Y19582D2*
X22487Y19371D1*
X22726Y19773D2*
X22687Y19754D1*
X22649Y19716D1*
X22630Y19678D1*
X22611Y19620D1*
Y19524D1*
X22630Y19467D1*
X22649Y19429D1*
X22687Y19391D1*
X22726Y19371D1*
X22802D1*
X22840Y19391D1*
X22879Y19429D1*
X22898Y19467D1*
X22917Y19524D1*
Y19620D1*
X22898Y19678D1*
X22879Y19716D1*
X22840Y19754D1*
X22802Y19773D1*
X22726D1*
X23327Y19678D2*
X23308Y19716D1*
X23270Y19754D1*
X23232Y19773D1*
X23155D1*
X23117Y19754D1*
X23079Y19716D1*
X23059Y19678D1*
X23040Y19620D1*
Y19524D1*
X23059Y19467D1*
X23079Y19429D1*
X23117Y19391D1*
X23155Y19371D1*
X23232D1*
X23270Y19391D1*
X23308Y19429D1*
X23327Y19467D1*
Y19524D1*
X23232D1*
X23451Y19582D2*
X23623D1*
X23680Y19601D1*
X23700Y19620D1*
X23719Y19658D1*
Y19697D1*
X23700Y19735D1*
X23680Y19754D1*
X23623Y19773D1*
X23451D1*
Y19371D1*
X23585Y19582D2*
X23719Y19371D1*
X24148D2*
X23995Y19773D1*
X23842Y19371D1*
X23900Y19505D2*
X24091D1*
X24578Y19371D2*
Y19773D1*
X24425Y19371D1*
X24272Y19773D1*
Y19371D1*
X27412Y18635D2*
X27106D1*
X27049Y18654D1*
X27030Y18673D1*
X27010Y18711D1*
Y18749D1*
X27030Y18788D1*
X27049Y18807D1*
X27106Y18826D1*
X27144D1*
X27412Y18511D2*
X27125D1*
X27068Y18492D1*
X27030Y18454D1*
X27010Y18396D1*
Y18358D1*
X27030Y18301D1*
X27068Y18262D1*
X27125Y18243D1*
X27412D1*
X27010Y17814D2*
X27412D1*
X27010Y17967D1*
X27412Y18120D1*
X27010D1*
X27202Y17690D2*
Y17518D1*
X27221Y17461D1*
X27240Y17441D1*
X27278Y17422D1*
X27336D1*
X27374Y17441D1*
X27393Y17461D1*
X27412Y17518D1*
Y17690D1*
X27010D1*
X27412Y16661D2*
Y16910D1*
X27010D1*
X27221D2*
Y16757D1*
X27412Y16422D2*
X27393Y16461D1*
X27355Y16499D1*
X27317Y16518D1*
X27259Y16537D1*
X27163D1*
X27106Y16518D1*
X27068Y16499D1*
X27030Y16461D1*
X27010Y16422D1*
Y16346D1*
X27030Y16308D1*
X27068Y16269D1*
X27106Y16250D1*
X27163Y16231D1*
X27259D1*
X27317Y16250D1*
X27355Y16269D1*
X27393Y16308D1*
X27412Y16346D1*
Y16422D1*
X27221Y16108D2*
Y15936D1*
X27240Y15878D1*
X27259Y15859D1*
X27297Y15840D1*
X27336D1*
X27374Y15859D1*
X27393Y15878D1*
X27412Y15936D1*
Y16108D1*
X27010D1*
X27221Y15974D2*
X27010Y15840D1*
X26787Y18826D2*
X26385D1*
Y18597D1*
X26787Y18358D2*
X26768Y18396D1*
X26730Y18435D1*
X26692Y18454D1*
X26634Y18473D1*
X26538D1*
X26481Y18454D1*
X26443Y18435D1*
X26405Y18396D1*
X26385Y18358D1*
Y18282D1*
X26405Y18244D1*
X26443Y18205D1*
X26481Y18186D1*
X26538Y18167D1*
X26634D1*
X26692Y18186D1*
X26730Y18205D1*
X26768Y18244D1*
X26787Y18282D1*
Y18358D1*
Y18044D2*
X26385Y17948D1*
X26787Y17852D1*
X26385Y17757D1*
X26787Y17661D1*
Y17148D2*
X26385D1*
Y16919D1*
Y16489D2*
X26787Y16642D1*
X26385Y16795D1*
X26519Y16738D2*
Y16546D1*
X26787Y16231D2*
X26385D1*
X26787Y16365D2*
Y16097D1*
Y15725D2*
Y15974D1*
X26385D1*
Y15725D1*
X26596Y15974D2*
Y15821D1*
X26787Y15334D2*
X26385D1*
X26787Y15602D1*
X26385D1*
X26692Y14923D2*
X26730Y14942D1*
X26768Y14981D1*
X26787Y15019D1*
Y15095D1*
X26768Y15134D1*
X26730Y15172D1*
X26692Y15191D1*
X26634Y15210D1*
X26538D1*
X26481Y15191D1*
X26443Y15172D1*
X26405Y15134D1*
X26385Y15095D1*
Y15019D1*
X26405Y14981D1*
X26443Y14942D1*
X26481Y14923D1*
X26787Y14800D2*
X26596Y14647D1*
X26385D1*
X26787Y14494D2*
X26596Y14647D1*
X26225Y18577D2*
Y18826D1*
X25823D1*
X26033D2*
Y18673D1*
X26225Y18454D2*
X25823D1*
X26225Y18330D2*
X25823D1*
Y18101D1*
X26225Y17843D2*
X25823D1*
X26225Y17977D2*
Y17709D1*
Y17337D2*
Y17586D1*
X25823D1*
Y17337D1*
X26033Y17586D2*
Y17433D1*
Y17214D2*
Y17042D1*
X26053Y16984D1*
X26072Y16965D1*
X26110Y16946D1*
X26148D1*
X26186Y16965D1*
X26206Y16984D1*
X26225Y17042D1*
Y17214D1*
X25823D1*
X26033Y17080D2*
X25823Y16946D1*
X13485Y6719D2*
D103*
X14088D1*
Y7064D1*
X13485Y7622D2*
Y7249D1*
X14088D1*
Y7622D1*
X13772Y7249D2*
Y7478D1*
X13485Y8180D2*
Y7807D1*
X14088D1*
X13772D2*
Y8036D1*
X13485Y8567D2*
X14088D1*
X13485Y8366D2*
Y8768D1*
X27349Y6678D2*
Y6936D1*
X27320Y7023D1*
X27292Y7052D1*
X27235Y7080D1*
X27177D1*
X27120Y7052D1*
X27091Y7023D1*
X27062Y6936D1*
Y6678D1*
X27665D1*
X27349Y6879D2*
X27665Y7080D1*
X27062Y7266D2*
X27665D1*
X27205Y7881D2*
X27148Y7853D1*
X27091Y7795D1*
X27062Y7738D1*
Y7623D1*
X27091Y7566D1*
X27148Y7509D1*
X27205Y7479D1*
X27292Y7451D1*
X27436D1*
X27521Y7479D1*
X27579Y7509D1*
X27636Y7566D1*
X27665Y7623D1*
Y7738D1*
X27636Y7795D1*
X27579Y7853D1*
X27521Y7881D1*
X27436D1*
Y7738D1*
X27062Y8067D2*
X27665D1*
X27062Y8468D2*
X27665D1*
X27349Y8067D2*
Y8468D1*
X27062Y8855D2*
X27665D1*
X27062Y8654D2*
Y9056D1*
X6124Y18808D2*
Y18206D1*
X6469D1*
X7027Y18808D2*
X6654D1*
Y18206D1*
X7027D1*
X6654Y18521D2*
X6883D1*
X7585Y18808D2*
X7212D1*
Y18206D1*
Y18521D2*
X7441D1*
X7972Y18808D2*
Y18206D1*
X7771Y18808D2*
X8173D1*
X6124D2*
Y18206D1*
X6469D1*
X7027Y18808D2*
X6654D1*
Y18206D1*
X7027D1*
X6654Y18521D2*
X6883D1*
X7585Y18808D2*
X7212D1*
Y18206D1*
Y18521D2*
X7441D1*
X7972Y18808D2*
Y18206D1*
X7771Y18808D2*
X8173D1*
X11675Y4992D2*
D104*
X10972Y5327D1*
Y4858D1*
X11323Y5543D2*
Y5930D1*
X11139Y6180D2*
X11106D1*
X11038Y6214D1*
X11005Y6247D1*
X10972Y6314D1*
Y6448D1*
X11005Y6515D1*
X11038Y6548D1*
X11106Y6582D1*
X11172D1*
X11240Y6548D1*
X11339Y6481D1*
X11675Y6146D1*
Y6615D1*
X10972Y7033D2*
X11005Y6932D1*
X11106Y6865D1*
X11273Y6831D1*
X11374D1*
X11541Y6865D1*
X11641Y6932D1*
X11675Y7033D1*
Y7099D1*
X11641Y7200D1*
X11541Y7266D1*
X11374Y7300D1*
X11273D1*
X11106Y7266D1*
X11005Y7200D1*
X10972Y7099D1*
Y7033D1*
X11106Y7266D2*
X11541Y6865D1*
X10971Y7517D2*
X11675Y7784D1*
X10971Y8052D1*
M02*
